G04 #@! TF.GenerationSoftware,KiCad,Pcbnew,5.1.5-52549c5~84~ubuntu16.04.1*
G04 #@! TF.CreationDate,2020-01-12T22:05:50-08:00*
G04 #@! TF.ProjectId,output.panelized,6f757470-7574-42e7-9061-6e656c697a65,rev?*
G04 #@! TF.SameCoordinates,PX8e95450PY5aa2c88*
G04 #@! TF.FileFunction,Legend,Bot*
G04 #@! TF.FilePolarity,Positive*
%FSLAX46Y46*%
G04 Gerber Fmt 4.6, Leading zero omitted, Abs format (unit mm)*
G04 Created by KiCad (PCBNEW 5.1.5-52549c5~84~ubuntu16.04.1) date 2020-01-12 22:05:50*
%MOMM*%
%LPD*%
G04 APERTURE LIST*
%ADD10C,0.120000*%
G04 APERTURE END LIST*
D10*
X-108000800Y79491400D02*
X-108000800Y74291400D01*
X-118220800Y79491400D02*
X-108000800Y79491400D01*
X-120820800Y74291400D02*
X-108000800Y74291400D01*
X-118220800Y79491400D02*
X-118220800Y76891400D01*
X-118220800Y76891400D02*
X-120820800Y76891400D01*
X-120820800Y76891400D02*
X-120820800Y74291400D01*
X-119490800Y79491400D02*
X-120820800Y79491400D01*
X-120820800Y79491400D02*
X-120820800Y78161400D01*
X-104020800Y79491400D02*
X-104020800Y78161400D01*
X-102690800Y79491400D02*
X-104020800Y79491400D01*
X-104020800Y76891400D02*
X-104020800Y74291400D01*
X-101420800Y76891400D02*
X-104020800Y76891400D01*
X-101420800Y79491400D02*
X-101420800Y76891400D01*
X-104020800Y74291400D02*
X-91200800Y74291400D01*
X-101420800Y79491400D02*
X-91200800Y79491400D01*
X-91200800Y79491400D02*
X-91200800Y74291400D01*
X-96000800Y67491400D02*
X-96000800Y62291400D01*
X-106220800Y67491400D02*
X-96000800Y67491400D01*
X-108820800Y62291400D02*
X-96000800Y62291400D01*
X-106220800Y67491400D02*
X-106220800Y64891400D01*
X-106220800Y64891400D02*
X-108820800Y64891400D01*
X-108820800Y64891400D02*
X-108820800Y62291400D01*
X-107490800Y67491400D02*
X-108820800Y67491400D01*
X-108820800Y67491400D02*
X-108820800Y66161400D01*
X-92020800Y67491400D02*
X-92020800Y66161400D01*
X-90690800Y67491400D02*
X-92020800Y67491400D01*
X-92020800Y64891400D02*
X-92020800Y62291400D01*
X-89420800Y64891400D02*
X-92020800Y64891400D01*
X-89420800Y67491400D02*
X-89420800Y64891400D01*
X-92020800Y62291400D02*
X-79200800Y62291400D01*
X-89420800Y67491400D02*
X-79200800Y67491400D01*
X-79200800Y67491400D02*
X-79200800Y62291400D01*
X-84000800Y55491400D02*
X-84000800Y50291400D01*
X-94220800Y55491400D02*
X-84000800Y55491400D01*
X-96820800Y50291400D02*
X-84000800Y50291400D01*
X-94220800Y55491400D02*
X-94220800Y52891400D01*
X-94220800Y52891400D02*
X-96820800Y52891400D01*
X-96820800Y52891400D02*
X-96820800Y50291400D01*
X-95490800Y55491400D02*
X-96820800Y55491400D01*
X-96820800Y55491400D02*
X-96820800Y54161400D01*
X-80020800Y55491400D02*
X-80020800Y54161400D01*
X-78690800Y55491400D02*
X-80020800Y55491400D01*
X-80020800Y52891400D02*
X-80020800Y50291400D01*
X-77420800Y52891400D02*
X-80020800Y52891400D01*
X-77420800Y55491400D02*
X-77420800Y52891400D01*
X-80020800Y50291400D02*
X-67200800Y50291400D01*
X-77420800Y55491400D02*
X-67200800Y55491400D01*
X-67200800Y55491400D02*
X-67200800Y50291400D01*
X-72000800Y43491400D02*
X-72000800Y38291400D01*
X-82220800Y43491400D02*
X-72000800Y43491400D01*
X-84820800Y38291400D02*
X-72000800Y38291400D01*
X-82220800Y43491400D02*
X-82220800Y40891400D01*
X-82220800Y40891400D02*
X-84820800Y40891400D01*
X-84820800Y40891400D02*
X-84820800Y38291400D01*
X-83490800Y43491400D02*
X-84820800Y43491400D01*
X-84820800Y43491400D02*
X-84820800Y42161400D01*
X-68020800Y43491400D02*
X-68020800Y42161400D01*
X-66690800Y43491400D02*
X-68020800Y43491400D01*
X-68020800Y40891400D02*
X-68020800Y38291400D01*
X-65420800Y40891400D02*
X-68020800Y40891400D01*
X-65420800Y43491400D02*
X-65420800Y40891400D01*
X-68020800Y38291400D02*
X-55200800Y38291400D01*
X-65420800Y43491400D02*
X-55200800Y43491400D01*
X-55200800Y43491400D02*
X-55200800Y38291400D01*
X-94199200Y-6291400D02*
X-94199200Y-1091400D01*
X-83979200Y-6291400D02*
X-94199200Y-6291400D01*
X-81379200Y-1091400D02*
X-94199200Y-1091400D01*
X-83979200Y-6291400D02*
X-83979200Y-3691400D01*
X-83979200Y-3691400D02*
X-81379200Y-3691400D01*
X-81379200Y-3691400D02*
X-81379200Y-1091400D01*
X-82709200Y-6291400D02*
X-81379200Y-6291400D01*
X-81379200Y-6291400D02*
X-81379200Y-4961400D01*
X-98179200Y-6291400D02*
X-98179200Y-4961400D01*
X-99509200Y-6291400D02*
X-98179200Y-6291400D01*
X-98179200Y-3691400D02*
X-98179200Y-1091400D01*
X-100779200Y-3691400D02*
X-98179200Y-3691400D01*
X-100779200Y-6291400D02*
X-100779200Y-3691400D01*
X-98179200Y-1091400D02*
X-110999200Y-1091400D01*
X-100779200Y-6291400D02*
X-110999200Y-6291400D01*
X-110999200Y-6291400D02*
X-110999200Y-1091400D01*
M02*
