M48
; DRILL file {KiCad 5.1.5-52549c5~84~ubuntu16.04.1} date Sun 12 Jan 2020 10:05:56 PM PST
; FORMAT={-:-/ absolute / inch / decimal}
; #@! TF.CreationDate,2020-01-12T22:05:56-08:00
; #@! TF.GenerationSoftware,Kicad,Pcbnew,5.1.5-52549c5~84~ubuntu16.04.1
; #@! TF.FileFunction,NonPlated,1,2,NPTH
FMAT,2
INCH
T1C0.0315
T2C0.0787
%
G90
G05
T1
X-3.6709Y0.9129
X-3.6709Y0.86
X-3.6709Y0.8071
X-3.6709Y0.7542
X-3.6709Y0.7013
X-4.5742Y2.6656
X-4.5213Y2.6656
X-4.4684Y2.6657
X-4.4156Y2.6657
X-4.3627Y2.6658
X-3.6058Y0.1658
X-3.5529Y0.1658
X-3.5Y0.1658
X-3.4471Y0.1658
X-3.3942Y0.1658
X-4.2811Y1.3853
X-4.2811Y1.3324
X-4.2811Y1.2795
X-4.2811Y1.2266
X-4.2811Y1.1737
X-4.5743Y2.8823
X-4.5214Y2.8823
X-4.4685Y2.8823
X-4.4156Y2.8823
X-4.3627Y2.8823
X-3.1283Y0.531
X-3.1283Y0.4781
X-3.1283Y0.4252
X-3.1283Y0.3723
X-3.1283Y0.3194
X-2.8617Y1.8587
X-2.8088Y1.8587
X-2.7559Y1.8587
X-2.703Y1.8587
X-2.6501Y1.8587
X-4.1433Y1.3853
X-4.1433Y1.3324
X-4.1433Y1.2795
X-4.1433Y1.2266
X-4.1433Y1.1737
X-4.1019Y2.4099
X-4.049Y2.4099
X-3.9961Y2.4099
X-3.9432Y2.4099
X-3.8902Y2.4099
X-2.8617Y1.7209
X-2.8088Y1.7209
X-2.7559Y1.7209
X-2.703Y1.7209
X-2.6501Y1.7209
X-4.7536Y1.8775
X-4.7536Y1.8246
X-4.7536Y1.7717
X-4.7536Y1.7187
X-4.7536Y1.6658
X-3.1373Y1.2988
X-3.0844Y1.2988
X-3.0315Y1.2988
X-2.9786Y1.2988
X-2.9257Y1.2988
X-4.1018Y2.1931
X-4.0489Y2.1932
X-3.996Y2.1932
X-3.9431Y2.1933
X-3.8902Y2.1933
X-3.8066Y2.8036
X-3.7537Y2.8036
X-3.7008Y2.8036
X-3.6479Y2.8036
X-3.595Y2.8036
X-3.3363Y0.531
X-3.3363Y0.4781
X-3.3363Y0.4252
X-3.3363Y0.3723
X-3.3363Y0.3194
X-3.8087Y0.9129
X-3.8087Y0.86
X-3.8087Y0.8071
X-3.8087Y0.7542
X-3.8087Y0.7013
X-3.6294Y1.9375
X-3.5765Y1.9375
X-3.5236Y1.9375
X-3.4707Y1.9375
X-3.4178Y1.9375
X-4.6158Y1.8775
X-4.6158Y1.8246
X-4.6158Y1.7717
X-4.6158Y1.7187
X-4.6158Y1.6658
X-3.1373Y1.465
X-3.0844Y1.465
X-3.0315Y1.465
X-2.9786Y1.465
X-2.9257Y1.465
X-3.3342Y2.3312
X-3.2813Y2.3312
X-3.2283Y2.3312
X-3.1754Y2.3312
X-3.1225Y2.3312
X-3.8066Y2.6658
X-3.7537Y2.6658
X-3.7008Y2.6658
X-3.6479Y2.6658
X-3.595Y2.6658
X-3.6058Y-0.0004
X-3.5529Y-0.0004
X-3.5Y-0.0004
X-3.4471Y-0.0004
X-3.3942Y-0.0004
X-3.6293Y1.7207
X-3.5764Y1.7207
X-3.5236Y1.7208
X-3.4707Y1.7209
X-3.4178Y1.7209
X-3.3342Y2.1934
X-3.2813Y2.1934
X-3.2283Y2.1934
X-3.1754Y2.1934
X-3.1225Y2.1934
T2
X-1.7989Y1.4945
X-4.3894Y2.4394
X-3.917Y1.967
X-2.7359Y1.4945
X-3.0988Y-0.03
X-4.7445Y-0.03
X-4.8618Y2.9119
X-3.0988Y0.6787
X-3.2162Y2.9119
X-2.7437Y2.4394
X-4.3894Y1.7308
X-3.6807Y2.4394
X-3.8074Y-0.03
X-3.4445Y0.7859
X-3.917Y1.2583
X-4.1532Y2.9119
X-2.2713Y1.967
X-3.4445Y1.4945
X-4.8618Y2.2032
X-3.2083Y1.967
T0
M30
