M48
; DRILL file {KiCad 5.1.5-52549c5~84~ubuntu16.04.1} date Sun 12 Jan 2020 10:05:56 PM PST
; FORMAT={-:-/ absolute / inch / decimal}
; #@! TF.CreationDate,2020-01-12T22:05:56-08:00
; #@! TF.GenerationSoftware,Kicad,Pcbnew,5.1.5-52549c5~84~ubuntu16.04.1
; #@! TF.FileFunction,Plated,1,2,PTH
FMAT,2
INCH
T1C0.0394
%
G90
G05
T1
X-2.6256Y1.6599
X-2.6256Y1.5599
X-2.5256Y1.6599
X-2.5256Y1.5599
X-2.4256Y1.6599
X-2.4256Y1.5599
X-2.3256Y1.6599
X-2.3256Y1.5599
X-2.2256Y1.6599
X-2.2256Y1.5599
X-5.0272Y2.093
X-5.0272Y1.993
X-5.0272Y1.893
X-5.0272Y1.793
X-5.0272Y1.693
X-4.9272Y2.093
X-4.9272Y1.993
X-4.9272Y1.893
X-4.9272Y1.793
X-4.9272Y1.693
X-3.5705Y2.6048
X-3.5705Y2.5048
X-3.4705Y2.6048
X-3.4705Y2.5048
X-3.3705Y2.6048
X-3.3705Y2.5048
X-3.2705Y2.6048
X-3.2705Y2.5048
X-3.1705Y2.6048
X-3.1705Y2.5048
X-4.0823Y1.1481
X-4.0823Y1.0481
X-4.0823Y0.9481
X-4.0823Y0.8481
X-4.0823Y0.7481
X-3.9823Y1.1481
X-3.9823Y1.0481
X-3.9823Y0.9481
X-3.9823Y0.8481
X-3.9823Y0.7481
X-4.5548Y1.6205
X-4.5548Y1.5205
X-4.5548Y1.4205
X-4.5548Y1.3205
X-4.5548Y1.2205
X-4.4548Y1.6205
X-4.4548Y1.5205
X-4.4548Y1.4205
X-4.4548Y1.3205
X-4.4548Y1.2205
X-4.7044Y3.0772
X-4.7044Y2.9772
X-4.6044Y3.0772
X-4.6044Y2.9772
X-4.5044Y3.0772
X-4.5044Y2.9772
X-4.4044Y3.0772
X-4.4044Y2.9772
X-4.3044Y3.0772
X-4.3044Y2.9772
X-4.2319Y2.6048
X-4.2319Y2.5048
X-4.1319Y2.6048
X-4.1319Y2.5048
X-4.0319Y2.6048
X-4.0319Y2.5048
X-3.9319Y2.6048
X-3.9319Y2.5048
X-3.8319Y2.6048
X-3.8319Y2.5048
X-3.6563Y-0.0953
X-3.6563Y-0.1953
X-3.5563Y-0.0953
X-3.5563Y-0.1953
X-3.4563Y-0.0953
X-3.4563Y-0.1953
X-3.3563Y-0.0953
X-3.3563Y-0.1953
X-3.2563Y-0.0953
X-3.2563Y-0.1953
X-4.0429Y3.0772
X-4.0429Y2.9772
X-3.9429Y3.0772
X-3.9429Y2.9772
X-3.8429Y3.0772
X-3.8429Y2.9772
X-3.7429Y3.0772
X-3.7429Y2.9772
X-3.6429Y3.0772
X-3.6429Y2.9772
X-3.6099Y1.3371
X-3.6099Y1.2371
X-3.6099Y1.1371
X-3.6099Y1.0371
X-3.6099Y0.9371
X-3.5099Y1.3371
X-3.5099Y1.2371
X-3.5099Y1.1371
X-3.5099Y1.0371
X-3.5099Y0.9371
X-4.3177Y-0.0953
X-4.3177Y-0.1953
X-4.2177Y-0.0953
X-4.2177Y-0.1953
X-4.1177Y-0.0953
X-4.1177Y-0.1953
X-4.0177Y-0.0953
X-4.0177Y-0.1953
X-3.9177Y-0.0953
X-3.9177Y-0.1953
X-3.0981Y2.1323
X-3.0981Y2.0323
X-2.9981Y2.1323
X-2.9981Y2.0323
X-2.8981Y2.1323
X-2.8981Y2.0323
X-2.7981Y2.1323
X-2.7981Y2.0323
X-2.6981Y2.1323
X-2.6981Y2.0323
X-5.0272Y2.7544
X-5.0272Y2.6544
X-5.0272Y2.5544
X-5.0272Y2.4544
X-5.0272Y2.3544
X-4.9272Y2.7544
X-4.9272Y2.6544
X-4.9272Y2.5544
X-4.9272Y2.4544
X-4.9272Y2.3544
X-4.5548Y2.2819
X-4.5548Y2.1819
X-4.5548Y2.0819
X-4.5548Y1.9819
X-4.5548Y1.8819
X-4.4548Y2.2819
X-4.4548Y2.1819
X-4.4548Y2.0819
X-4.4548Y1.9819
X-4.4548Y1.8819
X-3.0334Y1.1889
X-3.0334Y1.0889
X-3.0334Y0.9889
X-3.0334Y0.8889
X-3.0334Y0.7889
X-2.9334Y1.1889
X-2.9334Y1.0889
X-2.9334Y0.9889
X-2.9334Y0.8889
X-2.9334Y0.7889
X-4.0823Y1.8095
X-4.0823Y1.7095
X-4.0823Y1.6095
X-4.0823Y1.5095
X-4.0823Y1.4095
X-3.9823Y1.8095
X-3.9823Y1.7095
X-3.9823Y1.6095
X-3.9823Y1.5095
X-3.9823Y1.4095
X-3.0334Y0.5275
X-3.0334Y0.4275
X-3.0334Y0.3275
X-3.0334Y0.2275
X-3.0334Y0.1275
X-2.9334Y0.5275
X-2.9334Y0.4275
X-2.9334Y0.3275
X-2.9334Y0.2275
X-2.9334Y0.1275
X-3.7595Y2.1323
X-3.7595Y2.0323
X-3.6595Y2.1323
X-3.6595Y2.0323
X-3.5595Y2.1323
X-3.5595Y2.0323
X-3.4595Y2.1323
X-3.4595Y2.0323
X-3.3595Y2.1323
X-3.3595Y2.0323
X-3.287Y1.6599
X-3.287Y1.5599
X-3.187Y1.6599
X-3.187Y1.5599
X-3.087Y1.6599
X-3.087Y1.5599
X-2.987Y1.6599
X-2.987Y1.5599
X-2.887Y1.6599
X-2.887Y1.5599
X-3.6099Y0.6756
X-3.6099Y0.5756
X-3.6099Y0.4756
X-3.6099Y0.3756
X-3.6099Y0.2756
X-3.5099Y0.6756
X-3.5099Y0.5756
X-3.5099Y0.4756
X-3.5099Y0.3756
X-3.5099Y0.2756
T0
M30
