M48
; DRILL file {KiCad 5.1.5-52549c5~84~ubuntu16.04.1} date Sat 11 Jan 2020 02:29:04 PM PST
; FORMAT={-:-/ absolute / inch / decimal}
; #@! TF.CreationDate,2020-01-11T14:29:04-08:00
; #@! TF.GenerationSoftware,Kicad,Pcbnew,5.1.5-52549c5~84~ubuntu16.04.1
; #@! TF.FileFunction,Plated,1,2,PTH
FMAT,2
INCH
T1C0.0394
%
G90
G05
T1
X-14.6929Y21.5984
X-14.6929Y21.4984
X-14.5929Y21.5984
X-14.5929Y21.4984
X-14.4929Y21.5984
X-14.4929Y21.4984
X-14.3929Y21.5984
X-14.3929Y21.4984
X-14.2929Y21.5984
X-14.2929Y21.4984
X-15.6929Y21.2598
X-15.6929Y21.1598
X-15.6929Y21.0598
X-15.6929Y20.9598
X-15.6929Y20.8598
X-15.5929Y21.2598
X-15.5929Y21.1598
X-15.5929Y21.0598
X-15.5929Y20.9598
X-15.5929Y20.8598
X-15.3543Y21.5984
X-15.3543Y21.4984
X-15.2543Y21.5984
X-15.2543Y21.4984
X-15.1543Y21.5984
X-15.1543Y21.4984
X-15.0543Y21.5984
X-15.0543Y21.4984
X-14.9543Y21.5984
X-14.9543Y21.4984
X-15.6929Y20.5984
X-15.6929Y20.4984
X-15.6929Y20.3984
X-15.6929Y20.2984
X-15.6929Y20.1984
X-15.5929Y20.5984
X-15.5929Y20.4984
X-15.5929Y20.3984
X-15.5929Y20.2984
X-15.5929Y20.1984
T0
M30
