G04 #@! TF.GenerationSoftware,KiCad,Pcbnew,5.1.5-52549c5~84~ubuntu16.04.1*
G04 #@! TF.CreationDate,2020-01-11T14:28:59-08:00*
G04 #@! TF.ProjectId,frame_corners,6672616d-655f-4636-9f72-6e6572732e6b,rev?*
G04 #@! TF.SameCoordinates,Original*
G04 #@! TF.FileFunction,Soldermask,Bot*
G04 #@! TF.FilePolarity,Negative*
%FSLAX46Y46*%
G04 Gerber Fmt 4.6, Leading zero omitted, Abs format (unit mm)*
G04 Created by KiCad (PCBNEW 5.1.5-52549c5~84~ubuntu16.04.1) date 2020-01-11 14:28:59*
%MOMM*%
%LPD*%
G04 APERTURE LIST*
%ADD10C,0.100000*%
G04 APERTURE END LIST*
D10*
G36*
X-398486488Y513936073D02*
G01*
X-398337188Y513906376D01*
X-398173216Y513838456D01*
X-398025646Y513739853D01*
X-397900147Y513614354D01*
X-397801544Y513466784D01*
X-397733624Y513302812D01*
X-397699000Y513128741D01*
X-397699000Y512951259D01*
X-397733624Y512777188D01*
X-397801544Y512613216D01*
X-397900147Y512465646D01*
X-398025646Y512340147D01*
X-398173216Y512241544D01*
X-398337188Y512173624D01*
X-398486488Y512143927D01*
X-398511258Y512139000D01*
X-398688742Y512139000D01*
X-398713512Y512143927D01*
X-398862812Y512173624D01*
X-399026784Y512241544D01*
X-399174354Y512340147D01*
X-399299853Y512465646D01*
X-399398456Y512613216D01*
X-399466376Y512777188D01*
X-399501000Y512951259D01*
X-399501000Y513128741D01*
X-399466376Y513302812D01*
X-399398456Y513466784D01*
X-399299853Y513614354D01*
X-399174354Y513739853D01*
X-399026784Y513838456D01*
X-398862812Y513906376D01*
X-398713512Y513936073D01*
X-398688742Y513941000D01*
X-398511258Y513941000D01*
X-398486488Y513936073D01*
G37*
G36*
X-395946488Y513936073D02*
G01*
X-395797188Y513906376D01*
X-395633216Y513838456D01*
X-395485646Y513739853D01*
X-395360147Y513614354D01*
X-395261544Y513466784D01*
X-395193624Y513302812D01*
X-395159000Y513128741D01*
X-395159000Y512951259D01*
X-395193624Y512777188D01*
X-395261544Y512613216D01*
X-395360147Y512465646D01*
X-395485646Y512340147D01*
X-395633216Y512241544D01*
X-395797188Y512173624D01*
X-395946488Y512143927D01*
X-395971258Y512139000D01*
X-396148742Y512139000D01*
X-396173512Y512143927D01*
X-396322812Y512173624D01*
X-396486784Y512241544D01*
X-396634354Y512340147D01*
X-396759853Y512465646D01*
X-396858456Y512613216D01*
X-396926376Y512777188D01*
X-396961000Y512951259D01*
X-396961000Y513128741D01*
X-396926376Y513302812D01*
X-396858456Y513466784D01*
X-396759853Y513614354D01*
X-396634354Y513739853D01*
X-396486784Y513838456D01*
X-396322812Y513906376D01*
X-396173512Y513936073D01*
X-396148742Y513941000D01*
X-395971258Y513941000D01*
X-395946488Y513936073D01*
G37*
G36*
X-395946488Y516476073D02*
G01*
X-395797188Y516446376D01*
X-395633216Y516378456D01*
X-395485646Y516279853D01*
X-395360147Y516154354D01*
X-395261544Y516006784D01*
X-395193624Y515842812D01*
X-395159000Y515668741D01*
X-395159000Y515491259D01*
X-395193624Y515317188D01*
X-395261544Y515153216D01*
X-395360147Y515005646D01*
X-395485646Y514880147D01*
X-395633216Y514781544D01*
X-395797188Y514713624D01*
X-395946488Y514683927D01*
X-395971258Y514679000D01*
X-396148742Y514679000D01*
X-396173512Y514683927D01*
X-396322812Y514713624D01*
X-396486784Y514781544D01*
X-396634354Y514880147D01*
X-396759853Y515005646D01*
X-396858456Y515153216D01*
X-396926376Y515317188D01*
X-396961000Y515491259D01*
X-396961000Y515668741D01*
X-396926376Y515842812D01*
X-396858456Y516006784D01*
X-396759853Y516154354D01*
X-396634354Y516279853D01*
X-396486784Y516378456D01*
X-396322812Y516446376D01*
X-396173512Y516476073D01*
X-396148742Y516481000D01*
X-395971258Y516481000D01*
X-395946488Y516476073D01*
G37*
G36*
X-398486488Y516476073D02*
G01*
X-398337188Y516446376D01*
X-398173216Y516378456D01*
X-398025646Y516279853D01*
X-397900147Y516154354D01*
X-397801544Y516006784D01*
X-397733624Y515842812D01*
X-397699000Y515668741D01*
X-397699000Y515491259D01*
X-397733624Y515317188D01*
X-397801544Y515153216D01*
X-397900147Y515005646D01*
X-398025646Y514880147D01*
X-398173216Y514781544D01*
X-398337188Y514713624D01*
X-398486488Y514683927D01*
X-398511258Y514679000D01*
X-398688742Y514679000D01*
X-398713512Y514683927D01*
X-398862812Y514713624D01*
X-399026784Y514781544D01*
X-399174354Y514880147D01*
X-399299853Y515005646D01*
X-399398456Y515153216D01*
X-399466376Y515317188D01*
X-399501000Y515491259D01*
X-399501000Y515668741D01*
X-399466376Y515842812D01*
X-399398456Y516006784D01*
X-399299853Y516154354D01*
X-399174354Y516279853D01*
X-399026784Y516378456D01*
X-398862812Y516446376D01*
X-398713512Y516476073D01*
X-398688742Y516481000D01*
X-398511258Y516481000D01*
X-398486488Y516476073D01*
G37*
G36*
X-395946488Y519016073D02*
G01*
X-395797188Y518986376D01*
X-395633216Y518918456D01*
X-395485646Y518819853D01*
X-395360147Y518694354D01*
X-395261544Y518546784D01*
X-395193624Y518382812D01*
X-395159000Y518208741D01*
X-395159000Y518031259D01*
X-395193624Y517857188D01*
X-395261544Y517693216D01*
X-395360147Y517545646D01*
X-395485646Y517420147D01*
X-395633216Y517321544D01*
X-395797188Y517253624D01*
X-395946488Y517223927D01*
X-395971258Y517219000D01*
X-396148742Y517219000D01*
X-396173512Y517223927D01*
X-396322812Y517253624D01*
X-396486784Y517321544D01*
X-396634354Y517420147D01*
X-396759853Y517545646D01*
X-396858456Y517693216D01*
X-396926376Y517857188D01*
X-396961000Y518031259D01*
X-396961000Y518208741D01*
X-396926376Y518382812D01*
X-396858456Y518546784D01*
X-396759853Y518694354D01*
X-396634354Y518819853D01*
X-396486784Y518918456D01*
X-396322812Y518986376D01*
X-396173512Y519016073D01*
X-396148742Y519021000D01*
X-395971258Y519021000D01*
X-395946488Y519016073D01*
G37*
G36*
X-398486488Y519016073D02*
G01*
X-398337188Y518986376D01*
X-398173216Y518918456D01*
X-398025646Y518819853D01*
X-397900147Y518694354D01*
X-397801544Y518546784D01*
X-397733624Y518382812D01*
X-397699000Y518208741D01*
X-397699000Y518031259D01*
X-397733624Y517857188D01*
X-397801544Y517693216D01*
X-397900147Y517545646D01*
X-398025646Y517420147D01*
X-398173216Y517321544D01*
X-398337188Y517253624D01*
X-398486488Y517223927D01*
X-398511258Y517219000D01*
X-398688742Y517219000D01*
X-398713512Y517223927D01*
X-398862812Y517253624D01*
X-399026784Y517321544D01*
X-399174354Y517420147D01*
X-399299853Y517545646D01*
X-399398456Y517693216D01*
X-399466376Y517857188D01*
X-399501000Y518031259D01*
X-399501000Y518208741D01*
X-399466376Y518382812D01*
X-399398456Y518546784D01*
X-399299853Y518694354D01*
X-399174354Y518819853D01*
X-399026784Y518918456D01*
X-398862812Y518986376D01*
X-398713512Y519016073D01*
X-398688742Y519021000D01*
X-398511258Y519021000D01*
X-398486488Y519016073D01*
G37*
G36*
X-398486488Y521556073D02*
G01*
X-398337188Y521526376D01*
X-398173216Y521458456D01*
X-398025646Y521359853D01*
X-397900147Y521234354D01*
X-397801544Y521086784D01*
X-397733624Y520922812D01*
X-397699000Y520748741D01*
X-397699000Y520571259D01*
X-397733624Y520397188D01*
X-397801544Y520233216D01*
X-397900147Y520085646D01*
X-398025646Y519960147D01*
X-398173216Y519861544D01*
X-398337188Y519793624D01*
X-398486488Y519763927D01*
X-398511258Y519759000D01*
X-398688742Y519759000D01*
X-398713512Y519763927D01*
X-398862812Y519793624D01*
X-399026784Y519861544D01*
X-399174354Y519960147D01*
X-399299853Y520085646D01*
X-399398456Y520233216D01*
X-399466376Y520397188D01*
X-399501000Y520571259D01*
X-399501000Y520748741D01*
X-399466376Y520922812D01*
X-399398456Y521086784D01*
X-399299853Y521234354D01*
X-399174354Y521359853D01*
X-399026784Y521458456D01*
X-398862812Y521526376D01*
X-398713512Y521556073D01*
X-398688742Y521561000D01*
X-398511258Y521561000D01*
X-398486488Y521556073D01*
G37*
G36*
X-395946488Y521556073D02*
G01*
X-395797188Y521526376D01*
X-395633216Y521458456D01*
X-395485646Y521359853D01*
X-395360147Y521234354D01*
X-395261544Y521086784D01*
X-395193624Y520922812D01*
X-395159000Y520748741D01*
X-395159000Y520571259D01*
X-395193624Y520397188D01*
X-395261544Y520233216D01*
X-395360147Y520085646D01*
X-395485646Y519960147D01*
X-395633216Y519861544D01*
X-395797188Y519793624D01*
X-395946488Y519763927D01*
X-395971258Y519759000D01*
X-396148742Y519759000D01*
X-396173512Y519763927D01*
X-396322812Y519793624D01*
X-396486784Y519861544D01*
X-396634354Y519960147D01*
X-396759853Y520085646D01*
X-396858456Y520233216D01*
X-396926376Y520397188D01*
X-396961000Y520571259D01*
X-396961000Y520748741D01*
X-396926376Y520922812D01*
X-396858456Y521086784D01*
X-396759853Y521234354D01*
X-396634354Y521359853D01*
X-396486784Y521458456D01*
X-396322812Y521526376D01*
X-396173512Y521556073D01*
X-396148742Y521561000D01*
X-395971258Y521561000D01*
X-395946488Y521556073D01*
G37*
G36*
X-397699000Y522299000D02*
G01*
X-399501000Y522299000D01*
X-399501000Y524101000D01*
X-397699000Y524101000D01*
X-397699000Y522299000D01*
G37*
G36*
X-395946488Y524096073D02*
G01*
X-395797188Y524066376D01*
X-395633216Y523998456D01*
X-395485646Y523899853D01*
X-395360147Y523774354D01*
X-395261544Y523626784D01*
X-395193624Y523462812D01*
X-395159000Y523288741D01*
X-395159000Y523111259D01*
X-395193624Y522937188D01*
X-395261544Y522773216D01*
X-395360147Y522625646D01*
X-395485646Y522500147D01*
X-395633216Y522401544D01*
X-395797188Y522333624D01*
X-395946488Y522303927D01*
X-395971258Y522299000D01*
X-396148742Y522299000D01*
X-396173512Y522303927D01*
X-396322812Y522333624D01*
X-396486784Y522401544D01*
X-396634354Y522500147D01*
X-396759853Y522625646D01*
X-396858456Y522773216D01*
X-396926376Y522937188D01*
X-396961000Y523111259D01*
X-396961000Y523288741D01*
X-396926376Y523462812D01*
X-396858456Y523626784D01*
X-396759853Y523774354D01*
X-396634354Y523899853D01*
X-396486784Y523998456D01*
X-396322812Y524066376D01*
X-396173512Y524096073D01*
X-396148742Y524101000D01*
X-395971258Y524101000D01*
X-395946488Y524096073D01*
G37*
G36*
X-393775451Y527128884D02*
G01*
X-393664266Y527106768D01*
X-393454797Y527020003D01*
X-393266280Y526894040D01*
X-393105960Y526733720D01*
X-392979997Y526545203D01*
X-392893232Y526335734D01*
X-392849000Y526113364D01*
X-392849000Y525886636D01*
X-392893232Y525664266D01*
X-392979997Y525454797D01*
X-393105960Y525266280D01*
X-393266280Y525105960D01*
X-393454797Y524979997D01*
X-393664266Y524893232D01*
X-393775451Y524871116D01*
X-393886635Y524849000D01*
X-394113365Y524849000D01*
X-394224549Y524871116D01*
X-394335734Y524893232D01*
X-394545203Y524979997D01*
X-394733720Y525105960D01*
X-394894040Y525266280D01*
X-395020003Y525454797D01*
X-395106768Y525664266D01*
X-395151000Y525886636D01*
X-395151000Y526113364D01*
X-395106768Y526335734D01*
X-395020003Y526545203D01*
X-394894040Y526733720D01*
X-394733720Y526894040D01*
X-394545203Y527020003D01*
X-394335734Y527106768D01*
X-394224549Y527128884D01*
X-394113365Y527151000D01*
X-393886635Y527151000D01*
X-393775451Y527128884D01*
G37*
G36*
X-398486488Y530736073D02*
G01*
X-398337188Y530706376D01*
X-398173216Y530638456D01*
X-398025646Y530539853D01*
X-397900147Y530414354D01*
X-397801544Y530266784D01*
X-397733624Y530102812D01*
X-397699000Y529928741D01*
X-397699000Y529751259D01*
X-397733624Y529577188D01*
X-397801544Y529413216D01*
X-397900147Y529265646D01*
X-398025646Y529140147D01*
X-398173216Y529041544D01*
X-398337188Y528973624D01*
X-398486488Y528943927D01*
X-398511258Y528939000D01*
X-398688742Y528939000D01*
X-398713512Y528943927D01*
X-398862812Y528973624D01*
X-399026784Y529041544D01*
X-399174354Y529140147D01*
X-399299853Y529265646D01*
X-399398456Y529413216D01*
X-399466376Y529577188D01*
X-399501000Y529751259D01*
X-399501000Y529928741D01*
X-399466376Y530102812D01*
X-399398456Y530266784D01*
X-399299853Y530414354D01*
X-399174354Y530539853D01*
X-399026784Y530638456D01*
X-398862812Y530706376D01*
X-398713512Y530736073D01*
X-398688742Y530741000D01*
X-398511258Y530741000D01*
X-398486488Y530736073D01*
G37*
G36*
X-395946488Y530736073D02*
G01*
X-395797188Y530706376D01*
X-395633216Y530638456D01*
X-395485646Y530539853D01*
X-395360147Y530414354D01*
X-395261544Y530266784D01*
X-395193624Y530102812D01*
X-395159000Y529928741D01*
X-395159000Y529751259D01*
X-395193624Y529577188D01*
X-395261544Y529413216D01*
X-395360147Y529265646D01*
X-395485646Y529140147D01*
X-395633216Y529041544D01*
X-395797188Y528973624D01*
X-395946488Y528943927D01*
X-395971258Y528939000D01*
X-396148742Y528939000D01*
X-396173512Y528943927D01*
X-396322812Y528973624D01*
X-396486784Y529041544D01*
X-396634354Y529140147D01*
X-396759853Y529265646D01*
X-396858456Y529413216D01*
X-396926376Y529577188D01*
X-396961000Y529751259D01*
X-396961000Y529928741D01*
X-396926376Y530102812D01*
X-396858456Y530266784D01*
X-396759853Y530414354D01*
X-396634354Y530539853D01*
X-396486784Y530638456D01*
X-396322812Y530706376D01*
X-396173512Y530736073D01*
X-396148742Y530741000D01*
X-395971258Y530741000D01*
X-395946488Y530736073D01*
G37*
G36*
X-398486488Y533276073D02*
G01*
X-398337188Y533246376D01*
X-398173216Y533178456D01*
X-398025646Y533079853D01*
X-397900147Y532954354D01*
X-397801544Y532806784D01*
X-397733624Y532642812D01*
X-397699000Y532468741D01*
X-397699000Y532291259D01*
X-397733624Y532117188D01*
X-397801544Y531953216D01*
X-397900147Y531805646D01*
X-398025646Y531680147D01*
X-398173216Y531581544D01*
X-398337188Y531513624D01*
X-398486488Y531483927D01*
X-398511258Y531479000D01*
X-398688742Y531479000D01*
X-398713512Y531483927D01*
X-398862812Y531513624D01*
X-399026784Y531581544D01*
X-399174354Y531680147D01*
X-399299853Y531805646D01*
X-399398456Y531953216D01*
X-399466376Y532117188D01*
X-399501000Y532291259D01*
X-399501000Y532468741D01*
X-399466376Y532642812D01*
X-399398456Y532806784D01*
X-399299853Y532954354D01*
X-399174354Y533079853D01*
X-399026784Y533178456D01*
X-398862812Y533246376D01*
X-398713512Y533276073D01*
X-398688742Y533281000D01*
X-398511258Y533281000D01*
X-398486488Y533276073D01*
G37*
G36*
X-395946488Y533276073D02*
G01*
X-395797188Y533246376D01*
X-395633216Y533178456D01*
X-395485646Y533079853D01*
X-395360147Y532954354D01*
X-395261544Y532806784D01*
X-395193624Y532642812D01*
X-395159000Y532468741D01*
X-395159000Y532291259D01*
X-395193624Y532117188D01*
X-395261544Y531953216D01*
X-395360147Y531805646D01*
X-395485646Y531680147D01*
X-395633216Y531581544D01*
X-395797188Y531513624D01*
X-395946488Y531483927D01*
X-395971258Y531479000D01*
X-396148742Y531479000D01*
X-396173512Y531483927D01*
X-396322812Y531513624D01*
X-396486784Y531581544D01*
X-396634354Y531680147D01*
X-396759853Y531805646D01*
X-396858456Y531953216D01*
X-396926376Y532117188D01*
X-396961000Y532291259D01*
X-396961000Y532468741D01*
X-396926376Y532642812D01*
X-396858456Y532806784D01*
X-396759853Y532954354D01*
X-396634354Y533079853D01*
X-396486784Y533178456D01*
X-396322812Y533246376D01*
X-396173512Y533276073D01*
X-396148742Y533281000D01*
X-395971258Y533281000D01*
X-395946488Y533276073D01*
G37*
G36*
X-398486488Y535816073D02*
G01*
X-398337188Y535786376D01*
X-398173216Y535718456D01*
X-398025646Y535619853D01*
X-397900147Y535494354D01*
X-397801544Y535346784D01*
X-397733624Y535182812D01*
X-397699000Y535008741D01*
X-397699000Y534831259D01*
X-397733624Y534657188D01*
X-397801544Y534493216D01*
X-397900147Y534345646D01*
X-398025646Y534220147D01*
X-398173216Y534121544D01*
X-398337188Y534053624D01*
X-398486488Y534023927D01*
X-398511258Y534019000D01*
X-398688742Y534019000D01*
X-398713512Y534023927D01*
X-398862812Y534053624D01*
X-399026784Y534121544D01*
X-399174354Y534220147D01*
X-399299853Y534345646D01*
X-399398456Y534493216D01*
X-399466376Y534657188D01*
X-399501000Y534831259D01*
X-399501000Y535008741D01*
X-399466376Y535182812D01*
X-399398456Y535346784D01*
X-399299853Y535494354D01*
X-399174354Y535619853D01*
X-399026784Y535718456D01*
X-398862812Y535786376D01*
X-398713512Y535816073D01*
X-398688742Y535821000D01*
X-398511258Y535821000D01*
X-398486488Y535816073D01*
G37*
G36*
X-395946488Y535816073D02*
G01*
X-395797188Y535786376D01*
X-395633216Y535718456D01*
X-395485646Y535619853D01*
X-395360147Y535494354D01*
X-395261544Y535346784D01*
X-395193624Y535182812D01*
X-395159000Y535008741D01*
X-395159000Y534831259D01*
X-395193624Y534657188D01*
X-395261544Y534493216D01*
X-395360147Y534345646D01*
X-395485646Y534220147D01*
X-395633216Y534121544D01*
X-395797188Y534053624D01*
X-395946488Y534023927D01*
X-395971258Y534019000D01*
X-396148742Y534019000D01*
X-396173512Y534023927D01*
X-396322812Y534053624D01*
X-396486784Y534121544D01*
X-396634354Y534220147D01*
X-396759853Y534345646D01*
X-396858456Y534493216D01*
X-396926376Y534657188D01*
X-396961000Y534831259D01*
X-396961000Y535008741D01*
X-396926376Y535182812D01*
X-396858456Y535346784D01*
X-396759853Y535494354D01*
X-396634354Y535619853D01*
X-396486784Y535718456D01*
X-396322812Y535786376D01*
X-396173512Y535816073D01*
X-396148742Y535821000D01*
X-395971258Y535821000D01*
X-395946488Y535816073D01*
G37*
G36*
X-395946488Y538356073D02*
G01*
X-395797188Y538326376D01*
X-395633216Y538258456D01*
X-395485646Y538159853D01*
X-395360147Y538034354D01*
X-395261544Y537886784D01*
X-395193624Y537722812D01*
X-395159000Y537548741D01*
X-395159000Y537371259D01*
X-395193624Y537197188D01*
X-395261544Y537033216D01*
X-395360147Y536885646D01*
X-395485646Y536760147D01*
X-395633216Y536661544D01*
X-395797188Y536593624D01*
X-395946488Y536563927D01*
X-395971258Y536559000D01*
X-396148742Y536559000D01*
X-396173512Y536563927D01*
X-396322812Y536593624D01*
X-396486784Y536661544D01*
X-396634354Y536760147D01*
X-396759853Y536885646D01*
X-396858456Y537033216D01*
X-396926376Y537197188D01*
X-396961000Y537371259D01*
X-396961000Y537548741D01*
X-396926376Y537722812D01*
X-396858456Y537886784D01*
X-396759853Y538034354D01*
X-396634354Y538159853D01*
X-396486784Y538258456D01*
X-396322812Y538326376D01*
X-396173512Y538356073D01*
X-396148742Y538361000D01*
X-395971258Y538361000D01*
X-395946488Y538356073D01*
G37*
G36*
X-398486488Y538356073D02*
G01*
X-398337188Y538326376D01*
X-398173216Y538258456D01*
X-398025646Y538159853D01*
X-397900147Y538034354D01*
X-397801544Y537886784D01*
X-397733624Y537722812D01*
X-397699000Y537548741D01*
X-397699000Y537371259D01*
X-397733624Y537197188D01*
X-397801544Y537033216D01*
X-397900147Y536885646D01*
X-398025646Y536760147D01*
X-398173216Y536661544D01*
X-398337188Y536593624D01*
X-398486488Y536563927D01*
X-398511258Y536559000D01*
X-398688742Y536559000D01*
X-398713512Y536563927D01*
X-398862812Y536593624D01*
X-399026784Y536661544D01*
X-399174354Y536760147D01*
X-399299853Y536885646D01*
X-399398456Y537033216D01*
X-399466376Y537197188D01*
X-399501000Y537371259D01*
X-399501000Y537548741D01*
X-399466376Y537722812D01*
X-399398456Y537886784D01*
X-399299853Y538034354D01*
X-399174354Y538159853D01*
X-399026784Y538258456D01*
X-398862812Y538326376D01*
X-398713512Y538356073D01*
X-398688742Y538361000D01*
X-398511258Y538361000D01*
X-398486488Y538356073D01*
G37*
G36*
X-395946488Y540896073D02*
G01*
X-395797188Y540866376D01*
X-395633216Y540798456D01*
X-395485646Y540699853D01*
X-395360147Y540574354D01*
X-395261544Y540426784D01*
X-395193624Y540262812D01*
X-395159000Y540088741D01*
X-395159000Y539911259D01*
X-395193624Y539737188D01*
X-395261544Y539573216D01*
X-395360147Y539425646D01*
X-395485646Y539300147D01*
X-395633216Y539201544D01*
X-395797188Y539133624D01*
X-395946488Y539103927D01*
X-395971258Y539099000D01*
X-396148742Y539099000D01*
X-396173512Y539103927D01*
X-396322812Y539133624D01*
X-396486784Y539201544D01*
X-396634354Y539300147D01*
X-396759853Y539425646D01*
X-396858456Y539573216D01*
X-396926376Y539737188D01*
X-396961000Y539911259D01*
X-396961000Y540088741D01*
X-396926376Y540262812D01*
X-396858456Y540426784D01*
X-396759853Y540574354D01*
X-396634354Y540699853D01*
X-396486784Y540798456D01*
X-396322812Y540866376D01*
X-396173512Y540896073D01*
X-396148742Y540901000D01*
X-395971258Y540901000D01*
X-395946488Y540896073D01*
G37*
G36*
X-397699000Y539099000D02*
G01*
X-399501000Y539099000D01*
X-399501000Y540901000D01*
X-397699000Y540901000D01*
X-397699000Y539099000D01*
G37*
G36*
X-351975451Y545128884D02*
G01*
X-351864266Y545106768D01*
X-351654797Y545020003D01*
X-351466280Y544894040D01*
X-351305960Y544733720D01*
X-351179997Y544545203D01*
X-351093232Y544335734D01*
X-351049000Y544113364D01*
X-351049000Y543886636D01*
X-351093232Y543664266D01*
X-351179997Y543454797D01*
X-351305960Y543266280D01*
X-351466280Y543105960D01*
X-351654797Y542979997D01*
X-351864266Y542893232D01*
X-351975451Y542871116D01*
X-352086635Y542849000D01*
X-352313365Y542849000D01*
X-352424549Y542871116D01*
X-352535734Y542893232D01*
X-352745203Y542979997D01*
X-352933720Y543105960D01*
X-353094040Y543266280D01*
X-353220003Y543454797D01*
X-353306768Y543664266D01*
X-353351000Y543886636D01*
X-353351000Y544113364D01*
X-353306768Y544335734D01*
X-353220003Y544545203D01*
X-353094040Y544733720D01*
X-352933720Y544894040D01*
X-352745203Y545020003D01*
X-352535734Y545106768D01*
X-352424549Y545128884D01*
X-352313365Y545151000D01*
X-352086635Y545151000D01*
X-351975451Y545128884D01*
G37*
G36*
X-393775451Y545128884D02*
G01*
X-393664266Y545106768D01*
X-393454797Y545020003D01*
X-393266280Y544894040D01*
X-393105960Y544733720D01*
X-392979997Y544545203D01*
X-392893232Y544335734D01*
X-392849000Y544113364D01*
X-392849000Y543886636D01*
X-392893232Y543664266D01*
X-392979997Y543454797D01*
X-393105960Y543266280D01*
X-393266280Y543105960D01*
X-393454797Y542979997D01*
X-393664266Y542893232D01*
X-393775451Y542871116D01*
X-393886635Y542849000D01*
X-394113365Y542849000D01*
X-394224549Y542871116D01*
X-394335734Y542893232D01*
X-394545203Y542979997D01*
X-394733720Y543105960D01*
X-394894040Y543266280D01*
X-395020003Y543454797D01*
X-395106768Y543664266D01*
X-395151000Y543886636D01*
X-395151000Y544113364D01*
X-395106768Y544335734D01*
X-395020003Y544545203D01*
X-394894040Y544733720D01*
X-394733720Y544894040D01*
X-394545203Y545020003D01*
X-394335734Y545106768D01*
X-394224549Y545128884D01*
X-394113365Y545151000D01*
X-393886635Y545151000D01*
X-393775451Y545128884D01*
G37*
G36*
X-375775451Y545128884D02*
G01*
X-375664266Y545106768D01*
X-375454797Y545020003D01*
X-375266280Y544894040D01*
X-375105960Y544733720D01*
X-374979997Y544545203D01*
X-374893232Y544335734D01*
X-374849000Y544113364D01*
X-374849000Y543886636D01*
X-374893232Y543664266D01*
X-374979997Y543454797D01*
X-375105960Y543266280D01*
X-375266280Y543105960D01*
X-375454797Y542979997D01*
X-375664266Y542893232D01*
X-375775451Y542871116D01*
X-375886635Y542849000D01*
X-376113365Y542849000D01*
X-376224549Y542871116D01*
X-376335734Y542893232D01*
X-376545203Y542979997D01*
X-376733720Y543105960D01*
X-376894040Y543266280D01*
X-377020003Y543454797D01*
X-377106768Y543664266D01*
X-377151000Y543886636D01*
X-377151000Y544113364D01*
X-377106768Y544335734D01*
X-377020003Y544545203D01*
X-376894040Y544733720D01*
X-376733720Y544894040D01*
X-376545203Y545020003D01*
X-376335734Y545106768D01*
X-376224549Y545128884D01*
X-376113365Y545151000D01*
X-375886635Y545151000D01*
X-375775451Y545128884D01*
G37*
G36*
X-379726488Y546956073D02*
G01*
X-379577188Y546926376D01*
X-379413216Y546858456D01*
X-379265646Y546759853D01*
X-379140147Y546634354D01*
X-379041544Y546486784D01*
X-378973624Y546322812D01*
X-378939000Y546148741D01*
X-378939000Y545971259D01*
X-378973624Y545797188D01*
X-379041544Y545633216D01*
X-379140147Y545485646D01*
X-379265646Y545360147D01*
X-379413216Y545261544D01*
X-379577188Y545193624D01*
X-379726488Y545163927D01*
X-379751258Y545159000D01*
X-379928742Y545159000D01*
X-379953512Y545163927D01*
X-380102812Y545193624D01*
X-380266784Y545261544D01*
X-380414354Y545360147D01*
X-380539853Y545485646D01*
X-380638456Y545633216D01*
X-380706376Y545797188D01*
X-380741000Y545971259D01*
X-380741000Y546148741D01*
X-380706376Y546322812D01*
X-380638456Y546486784D01*
X-380539853Y546634354D01*
X-380414354Y546759853D01*
X-380266784Y546858456D01*
X-380102812Y546926376D01*
X-379953512Y546956073D01*
X-379928742Y546961000D01*
X-379751258Y546961000D01*
X-379726488Y546956073D01*
G37*
G36*
X-389886488Y546956073D02*
G01*
X-389737188Y546926376D01*
X-389573216Y546858456D01*
X-389425646Y546759853D01*
X-389300147Y546634354D01*
X-389201544Y546486784D01*
X-389133624Y546322812D01*
X-389099000Y546148741D01*
X-389099000Y545971259D01*
X-389133624Y545797188D01*
X-389201544Y545633216D01*
X-389300147Y545485646D01*
X-389425646Y545360147D01*
X-389573216Y545261544D01*
X-389737188Y545193624D01*
X-389886488Y545163927D01*
X-389911258Y545159000D01*
X-390088742Y545159000D01*
X-390113512Y545163927D01*
X-390262812Y545193624D01*
X-390426784Y545261544D01*
X-390574354Y545360147D01*
X-390699853Y545485646D01*
X-390798456Y545633216D01*
X-390866376Y545797188D01*
X-390901000Y545971259D01*
X-390901000Y546148741D01*
X-390866376Y546322812D01*
X-390798456Y546486784D01*
X-390699853Y546634354D01*
X-390574354Y546759853D01*
X-390426784Y546858456D01*
X-390262812Y546926376D01*
X-390113512Y546956073D01*
X-390088742Y546961000D01*
X-389911258Y546961000D01*
X-389886488Y546956073D01*
G37*
G36*
X-387346488Y546956073D02*
G01*
X-387197188Y546926376D01*
X-387033216Y546858456D01*
X-386885646Y546759853D01*
X-386760147Y546634354D01*
X-386661544Y546486784D01*
X-386593624Y546322812D01*
X-386559000Y546148741D01*
X-386559000Y545971259D01*
X-386593624Y545797188D01*
X-386661544Y545633216D01*
X-386760147Y545485646D01*
X-386885646Y545360147D01*
X-387033216Y545261544D01*
X-387197188Y545193624D01*
X-387346488Y545163927D01*
X-387371258Y545159000D01*
X-387548742Y545159000D01*
X-387573512Y545163927D01*
X-387722812Y545193624D01*
X-387886784Y545261544D01*
X-388034354Y545360147D01*
X-388159853Y545485646D01*
X-388258456Y545633216D01*
X-388326376Y545797188D01*
X-388361000Y545971259D01*
X-388361000Y546148741D01*
X-388326376Y546322812D01*
X-388258456Y546486784D01*
X-388159853Y546634354D01*
X-388034354Y546759853D01*
X-387886784Y546858456D01*
X-387722812Y546926376D01*
X-387573512Y546956073D01*
X-387548742Y546961000D01*
X-387371258Y546961000D01*
X-387346488Y546956073D01*
G37*
G36*
X-373086488Y546956073D02*
G01*
X-372937188Y546926376D01*
X-372773216Y546858456D01*
X-372625646Y546759853D01*
X-372500147Y546634354D01*
X-372401544Y546486784D01*
X-372333624Y546322812D01*
X-372299000Y546148741D01*
X-372299000Y545971259D01*
X-372333624Y545797188D01*
X-372401544Y545633216D01*
X-372500147Y545485646D01*
X-372625646Y545360147D01*
X-372773216Y545261544D01*
X-372937188Y545193624D01*
X-373086488Y545163927D01*
X-373111258Y545159000D01*
X-373288742Y545159000D01*
X-373313512Y545163927D01*
X-373462812Y545193624D01*
X-373626784Y545261544D01*
X-373774354Y545360147D01*
X-373899853Y545485646D01*
X-373998456Y545633216D01*
X-374066376Y545797188D01*
X-374101000Y545971259D01*
X-374101000Y546148741D01*
X-374066376Y546322812D01*
X-373998456Y546486784D01*
X-373899853Y546634354D01*
X-373774354Y546759853D01*
X-373626784Y546858456D01*
X-373462812Y546926376D01*
X-373313512Y546956073D01*
X-373288742Y546961000D01*
X-373111258Y546961000D01*
X-373086488Y546956073D01*
G37*
G36*
X-368006488Y546956073D02*
G01*
X-367857188Y546926376D01*
X-367693216Y546858456D01*
X-367545646Y546759853D01*
X-367420147Y546634354D01*
X-367321544Y546486784D01*
X-367253624Y546322812D01*
X-367219000Y546148741D01*
X-367219000Y545971259D01*
X-367253624Y545797188D01*
X-367321544Y545633216D01*
X-367420147Y545485646D01*
X-367545646Y545360147D01*
X-367693216Y545261544D01*
X-367857188Y545193624D01*
X-368006488Y545163927D01*
X-368031258Y545159000D01*
X-368208742Y545159000D01*
X-368233512Y545163927D01*
X-368382812Y545193624D01*
X-368546784Y545261544D01*
X-368694354Y545360147D01*
X-368819853Y545485646D01*
X-368918456Y545633216D01*
X-368986376Y545797188D01*
X-369021000Y545971259D01*
X-369021000Y546148741D01*
X-368986376Y546322812D01*
X-368918456Y546486784D01*
X-368819853Y546634354D01*
X-368694354Y546759853D01*
X-368546784Y546858456D01*
X-368382812Y546926376D01*
X-368233512Y546956073D01*
X-368208742Y546961000D01*
X-368031258Y546961000D01*
X-368006488Y546956073D01*
G37*
G36*
X-365466488Y546956073D02*
G01*
X-365317188Y546926376D01*
X-365153216Y546858456D01*
X-365005646Y546759853D01*
X-364880147Y546634354D01*
X-364781544Y546486784D01*
X-364713624Y546322812D01*
X-364679000Y546148741D01*
X-364679000Y545971259D01*
X-364713624Y545797188D01*
X-364781544Y545633216D01*
X-364880147Y545485646D01*
X-365005646Y545360147D01*
X-365153216Y545261544D01*
X-365317188Y545193624D01*
X-365466488Y545163927D01*
X-365491258Y545159000D01*
X-365668742Y545159000D01*
X-365693512Y545163927D01*
X-365842812Y545193624D01*
X-366006784Y545261544D01*
X-366154354Y545360147D01*
X-366279853Y545485646D01*
X-366378456Y545633216D01*
X-366446376Y545797188D01*
X-366481000Y545971259D01*
X-366481000Y546148741D01*
X-366446376Y546322812D01*
X-366378456Y546486784D01*
X-366279853Y546634354D01*
X-366154354Y546759853D01*
X-366006784Y546858456D01*
X-365842812Y546926376D01*
X-365693512Y546956073D01*
X-365668742Y546961000D01*
X-365491258Y546961000D01*
X-365466488Y546956073D01*
G37*
G36*
X-362926488Y546956073D02*
G01*
X-362777188Y546926376D01*
X-362613216Y546858456D01*
X-362465646Y546759853D01*
X-362340147Y546634354D01*
X-362241544Y546486784D01*
X-362173624Y546322812D01*
X-362139000Y546148741D01*
X-362139000Y545971259D01*
X-362173624Y545797188D01*
X-362241544Y545633216D01*
X-362340147Y545485646D01*
X-362465646Y545360147D01*
X-362613216Y545261544D01*
X-362777188Y545193624D01*
X-362926488Y545163927D01*
X-362951258Y545159000D01*
X-363128742Y545159000D01*
X-363153512Y545163927D01*
X-363302812Y545193624D01*
X-363466784Y545261544D01*
X-363614354Y545360147D01*
X-363739853Y545485646D01*
X-363838456Y545633216D01*
X-363906376Y545797188D01*
X-363941000Y545971259D01*
X-363941000Y546148741D01*
X-363906376Y546322812D01*
X-363838456Y546486784D01*
X-363739853Y546634354D01*
X-363614354Y546759853D01*
X-363466784Y546858456D01*
X-363302812Y546926376D01*
X-363153512Y546956073D01*
X-363128742Y546961000D01*
X-362951258Y546961000D01*
X-362926488Y546956073D01*
G37*
G36*
X-384806488Y546956073D02*
G01*
X-384657188Y546926376D01*
X-384493216Y546858456D01*
X-384345646Y546759853D01*
X-384220147Y546634354D01*
X-384121544Y546486784D01*
X-384053624Y546322812D01*
X-384019000Y546148741D01*
X-384019000Y545971259D01*
X-384053624Y545797188D01*
X-384121544Y545633216D01*
X-384220147Y545485646D01*
X-384345646Y545360147D01*
X-384493216Y545261544D01*
X-384657188Y545193624D01*
X-384806488Y545163927D01*
X-384831258Y545159000D01*
X-385008742Y545159000D01*
X-385033512Y545163927D01*
X-385182812Y545193624D01*
X-385346784Y545261544D01*
X-385494354Y545360147D01*
X-385619853Y545485646D01*
X-385718456Y545633216D01*
X-385786376Y545797188D01*
X-385821000Y545971259D01*
X-385821000Y546148741D01*
X-385786376Y546322812D01*
X-385718456Y546486784D01*
X-385619853Y546634354D01*
X-385494354Y546759853D01*
X-385346784Y546858456D01*
X-385182812Y546926376D01*
X-385033512Y546956073D01*
X-385008742Y546961000D01*
X-384831258Y546961000D01*
X-384806488Y546956073D01*
G37*
G36*
X-370546488Y546956073D02*
G01*
X-370397188Y546926376D01*
X-370233216Y546858456D01*
X-370085646Y546759853D01*
X-369960147Y546634354D01*
X-369861544Y546486784D01*
X-369793624Y546322812D01*
X-369759000Y546148741D01*
X-369759000Y545971259D01*
X-369793624Y545797188D01*
X-369861544Y545633216D01*
X-369960147Y545485646D01*
X-370085646Y545360147D01*
X-370233216Y545261544D01*
X-370397188Y545193624D01*
X-370546488Y545163927D01*
X-370571258Y545159000D01*
X-370748742Y545159000D01*
X-370773512Y545163927D01*
X-370922812Y545193624D01*
X-371086784Y545261544D01*
X-371234354Y545360147D01*
X-371359853Y545485646D01*
X-371458456Y545633216D01*
X-371526376Y545797188D01*
X-371561000Y545971259D01*
X-371561000Y546148741D01*
X-371526376Y546322812D01*
X-371458456Y546486784D01*
X-371359853Y546634354D01*
X-371234354Y546759853D01*
X-371086784Y546858456D01*
X-370922812Y546926376D01*
X-370773512Y546956073D01*
X-370748742Y546961000D01*
X-370571258Y546961000D01*
X-370546488Y546956073D01*
G37*
G36*
X-382266488Y546956073D02*
G01*
X-382117188Y546926376D01*
X-381953216Y546858456D01*
X-381805646Y546759853D01*
X-381680147Y546634354D01*
X-381581544Y546486784D01*
X-381513624Y546322812D01*
X-381479000Y546148741D01*
X-381479000Y545971259D01*
X-381513624Y545797188D01*
X-381581544Y545633216D01*
X-381680147Y545485646D01*
X-381805646Y545360147D01*
X-381953216Y545261544D01*
X-382117188Y545193624D01*
X-382266488Y545163927D01*
X-382291258Y545159000D01*
X-382468742Y545159000D01*
X-382493512Y545163927D01*
X-382642812Y545193624D01*
X-382806784Y545261544D01*
X-382954354Y545360147D01*
X-383079853Y545485646D01*
X-383178456Y545633216D01*
X-383246376Y545797188D01*
X-383281000Y545971259D01*
X-383281000Y546148741D01*
X-383246376Y546322812D01*
X-383178456Y546486784D01*
X-383079853Y546634354D01*
X-382954354Y546759853D01*
X-382806784Y546858456D01*
X-382642812Y546926376D01*
X-382493512Y546956073D01*
X-382468742Y546961000D01*
X-382291258Y546961000D01*
X-382266488Y546956073D01*
G37*
G36*
X-362926488Y549496073D02*
G01*
X-362777188Y549466376D01*
X-362613216Y549398456D01*
X-362465646Y549299853D01*
X-362340147Y549174354D01*
X-362241544Y549026784D01*
X-362173624Y548862812D01*
X-362139000Y548688741D01*
X-362139000Y548511259D01*
X-362173624Y548337188D01*
X-362241544Y548173216D01*
X-362340147Y548025646D01*
X-362465646Y547900147D01*
X-362613216Y547801544D01*
X-362777188Y547733624D01*
X-362926488Y547703927D01*
X-362951258Y547699000D01*
X-363128742Y547699000D01*
X-363153512Y547703927D01*
X-363302812Y547733624D01*
X-363466784Y547801544D01*
X-363614354Y547900147D01*
X-363739853Y548025646D01*
X-363838456Y548173216D01*
X-363906376Y548337188D01*
X-363941000Y548511259D01*
X-363941000Y548688741D01*
X-363906376Y548862812D01*
X-363838456Y549026784D01*
X-363739853Y549174354D01*
X-363614354Y549299853D01*
X-363466784Y549398456D01*
X-363302812Y549466376D01*
X-363153512Y549496073D01*
X-363128742Y549501000D01*
X-362951258Y549501000D01*
X-362926488Y549496073D01*
G37*
G36*
X-365466488Y549496073D02*
G01*
X-365317188Y549466376D01*
X-365153216Y549398456D01*
X-365005646Y549299853D01*
X-364880147Y549174354D01*
X-364781544Y549026784D01*
X-364713624Y548862812D01*
X-364679000Y548688741D01*
X-364679000Y548511259D01*
X-364713624Y548337188D01*
X-364781544Y548173216D01*
X-364880147Y548025646D01*
X-365005646Y547900147D01*
X-365153216Y547801544D01*
X-365317188Y547733624D01*
X-365466488Y547703927D01*
X-365491258Y547699000D01*
X-365668742Y547699000D01*
X-365693512Y547703927D01*
X-365842812Y547733624D01*
X-366006784Y547801544D01*
X-366154354Y547900147D01*
X-366279853Y548025646D01*
X-366378456Y548173216D01*
X-366446376Y548337188D01*
X-366481000Y548511259D01*
X-366481000Y548688741D01*
X-366446376Y548862812D01*
X-366378456Y549026784D01*
X-366279853Y549174354D01*
X-366154354Y549299853D01*
X-366006784Y549398456D01*
X-365842812Y549466376D01*
X-365693512Y549496073D01*
X-365668742Y549501000D01*
X-365491258Y549501000D01*
X-365466488Y549496073D01*
G37*
G36*
X-368006488Y549496073D02*
G01*
X-367857188Y549466376D01*
X-367693216Y549398456D01*
X-367545646Y549299853D01*
X-367420147Y549174354D01*
X-367321544Y549026784D01*
X-367253624Y548862812D01*
X-367219000Y548688741D01*
X-367219000Y548511259D01*
X-367253624Y548337188D01*
X-367321544Y548173216D01*
X-367420147Y548025646D01*
X-367545646Y547900147D01*
X-367693216Y547801544D01*
X-367857188Y547733624D01*
X-368006488Y547703927D01*
X-368031258Y547699000D01*
X-368208742Y547699000D01*
X-368233512Y547703927D01*
X-368382812Y547733624D01*
X-368546784Y547801544D01*
X-368694354Y547900147D01*
X-368819853Y548025646D01*
X-368918456Y548173216D01*
X-368986376Y548337188D01*
X-369021000Y548511259D01*
X-369021000Y548688741D01*
X-368986376Y548862812D01*
X-368918456Y549026784D01*
X-368819853Y549174354D01*
X-368694354Y549299853D01*
X-368546784Y549398456D01*
X-368382812Y549466376D01*
X-368233512Y549496073D01*
X-368208742Y549501000D01*
X-368031258Y549501000D01*
X-368006488Y549496073D01*
G37*
G36*
X-370546488Y549496073D02*
G01*
X-370397188Y549466376D01*
X-370233216Y549398456D01*
X-370085646Y549299853D01*
X-369960147Y549174354D01*
X-369861544Y549026784D01*
X-369793624Y548862812D01*
X-369759000Y548688741D01*
X-369759000Y548511259D01*
X-369793624Y548337188D01*
X-369861544Y548173216D01*
X-369960147Y548025646D01*
X-370085646Y547900147D01*
X-370233216Y547801544D01*
X-370397188Y547733624D01*
X-370546488Y547703927D01*
X-370571258Y547699000D01*
X-370748742Y547699000D01*
X-370773512Y547703927D01*
X-370922812Y547733624D01*
X-371086784Y547801544D01*
X-371234354Y547900147D01*
X-371359853Y548025646D01*
X-371458456Y548173216D01*
X-371526376Y548337188D01*
X-371561000Y548511259D01*
X-371561000Y548688741D01*
X-371526376Y548862812D01*
X-371458456Y549026784D01*
X-371359853Y549174354D01*
X-371234354Y549299853D01*
X-371086784Y549398456D01*
X-370922812Y549466376D01*
X-370773512Y549496073D01*
X-370748742Y549501000D01*
X-370571258Y549501000D01*
X-370546488Y549496073D01*
G37*
G36*
X-372299000Y547699000D02*
G01*
X-374101000Y547699000D01*
X-374101000Y549501000D01*
X-372299000Y549501000D01*
X-372299000Y547699000D01*
G37*
G36*
X-379726488Y549496073D02*
G01*
X-379577188Y549466376D01*
X-379413216Y549398456D01*
X-379265646Y549299853D01*
X-379140147Y549174354D01*
X-379041544Y549026784D01*
X-378973624Y548862812D01*
X-378939000Y548688741D01*
X-378939000Y548511259D01*
X-378973624Y548337188D01*
X-379041544Y548173216D01*
X-379140147Y548025646D01*
X-379265646Y547900147D01*
X-379413216Y547801544D01*
X-379577188Y547733624D01*
X-379726488Y547703927D01*
X-379751258Y547699000D01*
X-379928742Y547699000D01*
X-379953512Y547703927D01*
X-380102812Y547733624D01*
X-380266784Y547801544D01*
X-380414354Y547900147D01*
X-380539853Y548025646D01*
X-380638456Y548173216D01*
X-380706376Y548337188D01*
X-380741000Y548511259D01*
X-380741000Y548688741D01*
X-380706376Y548862812D01*
X-380638456Y549026784D01*
X-380539853Y549174354D01*
X-380414354Y549299853D01*
X-380266784Y549398456D01*
X-380102812Y549466376D01*
X-379953512Y549496073D01*
X-379928742Y549501000D01*
X-379751258Y549501000D01*
X-379726488Y549496073D01*
G37*
G36*
X-382266488Y549496073D02*
G01*
X-382117188Y549466376D01*
X-381953216Y549398456D01*
X-381805646Y549299853D01*
X-381680147Y549174354D01*
X-381581544Y549026784D01*
X-381513624Y548862812D01*
X-381479000Y548688741D01*
X-381479000Y548511259D01*
X-381513624Y548337188D01*
X-381581544Y548173216D01*
X-381680147Y548025646D01*
X-381805646Y547900147D01*
X-381953216Y547801544D01*
X-382117188Y547733624D01*
X-382266488Y547703927D01*
X-382291258Y547699000D01*
X-382468742Y547699000D01*
X-382493512Y547703927D01*
X-382642812Y547733624D01*
X-382806784Y547801544D01*
X-382954354Y547900147D01*
X-383079853Y548025646D01*
X-383178456Y548173216D01*
X-383246376Y548337188D01*
X-383281000Y548511259D01*
X-383281000Y548688741D01*
X-383246376Y548862812D01*
X-383178456Y549026784D01*
X-383079853Y549174354D01*
X-382954354Y549299853D01*
X-382806784Y549398456D01*
X-382642812Y549466376D01*
X-382493512Y549496073D01*
X-382468742Y549501000D01*
X-382291258Y549501000D01*
X-382266488Y549496073D01*
G37*
G36*
X-384806488Y549496073D02*
G01*
X-384657188Y549466376D01*
X-384493216Y549398456D01*
X-384345646Y549299853D01*
X-384220147Y549174354D01*
X-384121544Y549026784D01*
X-384053624Y548862812D01*
X-384019000Y548688741D01*
X-384019000Y548511259D01*
X-384053624Y548337188D01*
X-384121544Y548173216D01*
X-384220147Y548025646D01*
X-384345646Y547900147D01*
X-384493216Y547801544D01*
X-384657188Y547733624D01*
X-384806488Y547703927D01*
X-384831258Y547699000D01*
X-385008742Y547699000D01*
X-385033512Y547703927D01*
X-385182812Y547733624D01*
X-385346784Y547801544D01*
X-385494354Y547900147D01*
X-385619853Y548025646D01*
X-385718456Y548173216D01*
X-385786376Y548337188D01*
X-385821000Y548511259D01*
X-385821000Y548688741D01*
X-385786376Y548862812D01*
X-385718456Y549026784D01*
X-385619853Y549174354D01*
X-385494354Y549299853D01*
X-385346784Y549398456D01*
X-385182812Y549466376D01*
X-385033512Y549496073D01*
X-385008742Y549501000D01*
X-384831258Y549501000D01*
X-384806488Y549496073D01*
G37*
G36*
X-387346488Y549496073D02*
G01*
X-387197188Y549466376D01*
X-387033216Y549398456D01*
X-386885646Y549299853D01*
X-386760147Y549174354D01*
X-386661544Y549026784D01*
X-386593624Y548862812D01*
X-386559000Y548688741D01*
X-386559000Y548511259D01*
X-386593624Y548337188D01*
X-386661544Y548173216D01*
X-386760147Y548025646D01*
X-386885646Y547900147D01*
X-387033216Y547801544D01*
X-387197188Y547733624D01*
X-387346488Y547703927D01*
X-387371258Y547699000D01*
X-387548742Y547699000D01*
X-387573512Y547703927D01*
X-387722812Y547733624D01*
X-387886784Y547801544D01*
X-388034354Y547900147D01*
X-388159853Y548025646D01*
X-388258456Y548173216D01*
X-388326376Y548337188D01*
X-388361000Y548511259D01*
X-388361000Y548688741D01*
X-388326376Y548862812D01*
X-388258456Y549026784D01*
X-388159853Y549174354D01*
X-388034354Y549299853D01*
X-387886784Y549398456D01*
X-387722812Y549466376D01*
X-387573512Y549496073D01*
X-387548742Y549501000D01*
X-387371258Y549501000D01*
X-387346488Y549496073D01*
G37*
G36*
X-389099000Y547699000D02*
G01*
X-390901000Y547699000D01*
X-390901000Y549501000D01*
X-389099000Y549501000D01*
X-389099000Y547699000D01*
G37*
M02*
