G04 #@! TF.GenerationSoftware,KiCad,Pcbnew,5.1.5-52549c5~84~ubuntu16.04.1*
G04 #@! TF.CreationDate,2020-01-11T14:28:59-08:00*
G04 #@! TF.ProjectId,frame_corners,6672616d-655f-4636-9f72-6e6572732e6b,rev?*
G04 #@! TF.SameCoordinates,Original*
G04 #@! TF.FileFunction,Copper,L2,Bot*
G04 #@! TF.FilePolarity,Positive*
%FSLAX46Y46*%
G04 Gerber Fmt 4.6, Leading zero omitted, Abs format (unit mm)*
G04 Created by KiCad (PCBNEW 5.1.5-52549c5~84~ubuntu16.04.1) date 2020-01-11 14:28:59*
%MOMM*%
%LPD*%
G04 APERTURE LIST*
%ADD10R,1.700000X1.700000*%
%ADD11O,1.700000X1.700000*%
G04 APERTURE END LIST*
D10*
X-398600000Y540000000D03*
D11*
X-396060000Y540000000D03*
X-398600000Y537460000D03*
X-396060000Y537460000D03*
X-398600000Y534920000D03*
X-396060000Y534920000D03*
X-398600000Y532380000D03*
X-396060000Y532380000D03*
X-398600000Y529840000D03*
X-396060000Y529840000D03*
D10*
X-390000000Y548600000D03*
D11*
X-390000000Y546060000D03*
X-387460000Y548600000D03*
X-387460000Y546060000D03*
X-384920000Y548600000D03*
X-384920000Y546060000D03*
X-382380000Y548600000D03*
X-382380000Y546060000D03*
X-379840000Y548600000D03*
X-379840000Y546060000D03*
X-363040000Y546060000D03*
X-363040000Y548600000D03*
X-365580000Y546060000D03*
X-365580000Y548600000D03*
X-368120000Y546060000D03*
X-368120000Y548600000D03*
X-370660000Y546060000D03*
X-370660000Y548600000D03*
X-373200000Y546060000D03*
D10*
X-373200000Y548600000D03*
D11*
X-396060000Y513040000D03*
X-398600000Y513040000D03*
X-396060000Y515580000D03*
X-398600000Y515580000D03*
X-396060000Y518120000D03*
X-398600000Y518120000D03*
X-396060000Y520660000D03*
X-398600000Y520660000D03*
X-396060000Y523200000D03*
D10*
X-398600000Y523200000D03*
M02*
