G04 #@! TF.GenerationSoftware,KiCad,Pcbnew,5.1.5-52549c5~84~ubuntu16.04.1*
G04 #@! TF.CreationDate,2020-01-11T14:28:59-08:00*
G04 #@! TF.ProjectId,frame_corners,6672616d-655f-4636-9f72-6e6572732e6b,rev?*
G04 #@! TF.SameCoordinates,Original*
G04 #@! TF.FileFunction,Legend,Top*
G04 #@! TF.FilePolarity,Positive*
%FSLAX46Y46*%
G04 Gerber Fmt 4.6, Leading zero omitted, Abs format (unit mm)*
G04 Created by KiCad (PCBNEW 5.1.5-52549c5~84~ubuntu16.04.1) date 2020-01-11 14:28:59*
%MOMM*%
%LPD*%
G04 APERTURE LIST*
%ADD10C,0.120000*%
%ADD11C,0.150000*%
G04 APERTURE END LIST*
D10*
X-393800000Y526000000D02*
G75*
G03X-393800000Y526000000I-200000J0D01*
G01*
X-394000000Y543800000D02*
X-394000000Y526200000D01*
X-352200000Y544200000D02*
X-352200000Y550000000D01*
X-393800000Y544000000D02*
X-352400000Y544000000D01*
X-352000000Y544000000D02*
G75*
G03X-352000000Y544000000I-200000J0D01*
G01*
X-393800000Y544000000D02*
G75*
G03X-393800000Y544000000I-200000J0D01*
G01*
X-394000000Y550000000D02*
X-394000000Y544200000D01*
X-400000000Y544000000D02*
X-394200000Y544000000D01*
X-399930000Y528510000D02*
X-394730000Y528510000D01*
X-399930000Y538730000D02*
X-399930000Y528510000D01*
X-394730000Y541330000D02*
X-394730000Y528510000D01*
X-399930000Y538730000D02*
X-397330000Y538730000D01*
X-397330000Y538730000D02*
X-397330000Y541330000D01*
X-397330000Y541330000D02*
X-394730000Y541330000D01*
X-399930000Y540000000D02*
X-399930000Y541330000D01*
X-399930000Y541330000D02*
X-398600000Y541330000D01*
X-399930000Y524530000D02*
X-398600000Y524530000D01*
X-399930000Y523200000D02*
X-399930000Y524530000D01*
X-397330000Y524530000D02*
X-394730000Y524530000D01*
X-397330000Y521930000D02*
X-397330000Y524530000D01*
X-399930000Y521930000D02*
X-397330000Y521930000D01*
X-394730000Y524530000D02*
X-394730000Y511710000D01*
X-399930000Y521930000D02*
X-399930000Y511710000D01*
X-399930000Y511710000D02*
X-394730000Y511710000D01*
D11*
X-400933333Y552747619D02*
X-401266666Y553223809D01*
X-401504761Y552747619D02*
X-401504761Y553747619D01*
X-401123809Y553747619D01*
X-401028571Y553700000D01*
X-400980952Y553652380D01*
X-400933333Y553557142D01*
X-400933333Y553414285D01*
X-400980952Y553319047D01*
X-401028571Y553271428D01*
X-401123809Y553223809D01*
X-401504761Y553223809D01*
X-400504761Y553271428D02*
X-400171428Y553271428D01*
X-400028571Y552747619D02*
X-400504761Y552747619D01*
X-400504761Y553747619D01*
X-400028571Y553747619D01*
X-399266666Y553271428D02*
X-399600000Y553271428D01*
X-399600000Y552747619D02*
X-399600000Y553747619D01*
X-399123809Y553747619D01*
X-398600000Y553747619D02*
X-398600000Y553509523D01*
X-398838095Y553604761D02*
X-398600000Y553509523D01*
X-398361904Y553604761D01*
X-398742857Y553319047D02*
X-398600000Y553509523D01*
X-398457142Y553319047D01*
X-397838095Y553747619D02*
X-397838095Y553509523D01*
X-398076190Y553604761D02*
X-397838095Y553509523D01*
X-397600000Y553604761D01*
X-397980952Y553319047D02*
X-397838095Y553509523D01*
X-397695238Y553319047D01*
X-420333333Y539147619D02*
X-420666666Y539623809D01*
X-420904761Y539147619D02*
X-420904761Y540147619D01*
X-420523809Y540147619D01*
X-420428571Y540100000D01*
X-420380952Y540052380D01*
X-420333333Y539957142D01*
X-420333333Y539814285D01*
X-420380952Y539719047D01*
X-420428571Y539671428D01*
X-420523809Y539623809D01*
X-420904761Y539623809D01*
X-419904761Y539671428D02*
X-419571428Y539671428D01*
X-419428571Y539147619D02*
X-419904761Y539147619D01*
X-419904761Y540147619D01*
X-419428571Y540147619D01*
X-418666666Y539671428D02*
X-419000000Y539671428D01*
X-419000000Y539147619D02*
X-419000000Y540147619D01*
X-418523809Y540147619D01*
X-418000000Y540147619D02*
X-418000000Y539909523D01*
X-418238095Y540004761D02*
X-418000000Y539909523D01*
X-417761904Y540004761D01*
X-418142857Y539719047D02*
X-418000000Y539909523D01*
X-417857142Y539719047D01*
X-417238095Y540147619D02*
X-417238095Y539909523D01*
X-417476190Y540004761D02*
X-417238095Y539909523D01*
X-417000000Y540004761D01*
X-417380952Y539719047D02*
X-417238095Y539909523D01*
X-417095238Y539719047D01*
X-417533333Y552347619D02*
X-417866666Y552823809D01*
X-418104761Y552347619D02*
X-418104761Y553347619D01*
X-417723809Y553347619D01*
X-417628571Y553300000D01*
X-417580952Y553252380D01*
X-417533333Y553157142D01*
X-417533333Y553014285D01*
X-417580952Y552919047D01*
X-417628571Y552871428D01*
X-417723809Y552823809D01*
X-418104761Y552823809D01*
X-417104761Y552871428D02*
X-416771428Y552871428D01*
X-416628571Y552347619D02*
X-417104761Y552347619D01*
X-417104761Y553347619D01*
X-416628571Y553347619D01*
X-415866666Y552871428D02*
X-416200000Y552871428D01*
X-416200000Y552347619D02*
X-416200000Y553347619D01*
X-415723809Y553347619D01*
X-415200000Y553347619D02*
X-415200000Y553109523D01*
X-415438095Y553204761D02*
X-415200000Y553109523D01*
X-414961904Y553204761D01*
X-415342857Y552919047D02*
X-415200000Y553109523D01*
X-415057142Y552919047D01*
X-414438095Y553347619D02*
X-414438095Y553109523D01*
X-414676190Y553204761D02*
X-414438095Y553109523D01*
X-414200000Y553204761D01*
X-414580952Y552919047D02*
X-414438095Y553109523D01*
X-414295238Y552919047D01*
X-420333333Y522347619D02*
X-420666666Y522823809D01*
X-420904761Y522347619D02*
X-420904761Y523347619D01*
X-420523809Y523347619D01*
X-420428571Y523300000D01*
X-420380952Y523252380D01*
X-420333333Y523157142D01*
X-420333333Y523014285D01*
X-420380952Y522919047D01*
X-420428571Y522871428D01*
X-420523809Y522823809D01*
X-420904761Y522823809D01*
X-419904761Y522871428D02*
X-419571428Y522871428D01*
X-419428571Y522347619D02*
X-419904761Y522347619D01*
X-419904761Y523347619D01*
X-419428571Y523347619D01*
X-418666666Y522871428D02*
X-419000000Y522871428D01*
X-419000000Y522347619D02*
X-419000000Y523347619D01*
X-418523809Y523347619D01*
X-418000000Y523347619D02*
X-418000000Y523109523D01*
X-418238095Y523204761D02*
X-418000000Y523109523D01*
X-417761904Y523204761D01*
X-418142857Y522919047D02*
X-418000000Y523109523D01*
X-417857142Y522919047D01*
X-417238095Y523347619D02*
X-417238095Y523109523D01*
X-417476190Y523204761D02*
X-417238095Y523109523D01*
X-417000000Y523204761D01*
X-417380952Y522919047D02*
X-417238095Y523109523D01*
X-417095238Y522919047D01*
X-343933333Y556147619D02*
X-344266666Y556623809D01*
X-344504761Y556147619D02*
X-344504761Y557147619D01*
X-344123809Y557147619D01*
X-344028571Y557100000D01*
X-343980952Y557052380D01*
X-343933333Y556957142D01*
X-343933333Y556814285D01*
X-343980952Y556719047D01*
X-344028571Y556671428D01*
X-344123809Y556623809D01*
X-344504761Y556623809D01*
X-343504761Y556671428D02*
X-343171428Y556671428D01*
X-343028571Y556147619D02*
X-343504761Y556147619D01*
X-343504761Y557147619D01*
X-343028571Y557147619D01*
X-342266666Y556671428D02*
X-342600000Y556671428D01*
X-342600000Y556147619D02*
X-342600000Y557147619D01*
X-342123809Y557147619D01*
X-341600000Y557147619D02*
X-341600000Y556909523D01*
X-341838095Y557004761D02*
X-341600000Y556909523D01*
X-341361904Y557004761D01*
X-341742857Y556719047D02*
X-341600000Y556909523D01*
X-341457142Y556719047D01*
X-340838095Y557147619D02*
X-340838095Y556909523D01*
X-341076190Y557004761D02*
X-340838095Y556909523D01*
X-340600000Y557004761D01*
X-340980952Y556719047D02*
X-340838095Y556909523D01*
X-340695238Y556719047D01*
X-418933333Y534747619D02*
X-419266666Y535223809D01*
X-419504761Y534747619D02*
X-419504761Y535747619D01*
X-419123809Y535747619D01*
X-419028571Y535700000D01*
X-418980952Y535652380D01*
X-418933333Y535557142D01*
X-418933333Y535414285D01*
X-418980952Y535319047D01*
X-419028571Y535271428D01*
X-419123809Y535223809D01*
X-419504761Y535223809D01*
X-418504761Y535271428D02*
X-418171428Y535271428D01*
X-418028571Y534747619D02*
X-418504761Y534747619D01*
X-418504761Y535747619D01*
X-418028571Y535747619D01*
X-417266666Y535271428D02*
X-417600000Y535271428D01*
X-417600000Y534747619D02*
X-417600000Y535747619D01*
X-417123809Y535747619D01*
X-416600000Y535747619D02*
X-416600000Y535509523D01*
X-416838095Y535604761D02*
X-416600000Y535509523D01*
X-416361904Y535604761D01*
X-416742857Y535319047D02*
X-416600000Y535509523D01*
X-416457142Y535319047D01*
X-415838095Y535747619D02*
X-415838095Y535509523D01*
X-416076190Y535604761D02*
X-415838095Y535509523D01*
X-415600000Y535604761D01*
X-415980952Y535319047D02*
X-415838095Y535509523D01*
X-415695238Y535319047D01*
M02*
