G04 #@! TF.GenerationSoftware,KiCad,Pcbnew,5.1.5-52549c5~84~ubuntu16.04.1*
G04 #@! TF.CreationDate,2020-01-11T14:28:59-08:00*
G04 #@! TF.ProjectId,frame_corners,6672616d-655f-4636-9f72-6e6572732e6b,rev?*
G04 #@! TF.SameCoordinates,Original*
G04 #@! TF.FileFunction,Legend,Bot*
G04 #@! TF.FilePolarity,Positive*
%FSLAX46Y46*%
G04 Gerber Fmt 4.6, Leading zero omitted, Abs format (unit mm)*
G04 Created by KiCad (PCBNEW 5.1.5-52549c5~84~ubuntu16.04.1) date 2020-01-11 14:28:59*
%MOMM*%
%LPD*%
G04 APERTURE LIST*
%ADD10C,0.120000*%
%ADD11C,0.150000*%
G04 APERTURE END LIST*
D10*
X-378510000Y549930000D02*
X-378510000Y544730000D01*
X-388730000Y549930000D02*
X-378510000Y549930000D01*
X-391330000Y544730000D02*
X-378510000Y544730000D01*
X-388730000Y549930000D02*
X-388730000Y547330000D01*
X-388730000Y547330000D02*
X-391330000Y547330000D01*
X-391330000Y547330000D02*
X-391330000Y544730000D01*
X-390000000Y549930000D02*
X-391330000Y549930000D01*
X-391330000Y549930000D02*
X-391330000Y548600000D01*
X-374530000Y549930000D02*
X-374530000Y548600000D01*
X-373200000Y549930000D02*
X-374530000Y549930000D01*
X-374530000Y547330000D02*
X-374530000Y544730000D01*
X-371930000Y547330000D02*
X-374530000Y547330000D01*
X-371930000Y549930000D02*
X-371930000Y547330000D01*
X-374530000Y544730000D02*
X-361710000Y544730000D01*
X-371930000Y549930000D02*
X-361710000Y549930000D01*
X-361710000Y549930000D02*
X-361710000Y544730000D01*
D11*
X-392147619Y570333333D02*
X-392623809Y570666666D01*
X-392147619Y570904761D02*
X-393147619Y570904761D01*
X-393147619Y570523809D01*
X-393100000Y570428571D01*
X-393052380Y570380952D01*
X-392957142Y570333333D01*
X-392814285Y570333333D01*
X-392719047Y570380952D01*
X-392671428Y570428571D01*
X-392623809Y570523809D01*
X-392623809Y570904761D01*
X-392671428Y569904761D02*
X-392671428Y569571428D01*
X-392147619Y569428571D02*
X-392147619Y569904761D01*
X-393147619Y569904761D01*
X-393147619Y569428571D01*
X-392671428Y568666666D02*
X-392671428Y569000000D01*
X-392147619Y569000000D02*
X-393147619Y569000000D01*
X-393147619Y568523809D01*
X-393147619Y568000000D02*
X-392909523Y568000000D01*
X-393004761Y568238095D02*
X-392909523Y568000000D01*
X-393004761Y567761904D01*
X-392719047Y568142857D02*
X-392909523Y568000000D01*
X-392719047Y567857142D01*
X-393147619Y567238095D02*
X-392909523Y567238095D01*
X-393004761Y567476190D02*
X-392909523Y567238095D01*
X-393004761Y567000000D01*
X-392719047Y567380952D02*
X-392909523Y567238095D01*
X-392719047Y567095238D01*
X-375347619Y570333333D02*
X-375823809Y570666666D01*
X-375347619Y570904761D02*
X-376347619Y570904761D01*
X-376347619Y570523809D01*
X-376300000Y570428571D01*
X-376252380Y570380952D01*
X-376157142Y570333333D01*
X-376014285Y570333333D01*
X-375919047Y570380952D01*
X-375871428Y570428571D01*
X-375823809Y570523809D01*
X-375823809Y570904761D01*
X-375871428Y569904761D02*
X-375871428Y569571428D01*
X-375347619Y569428571D02*
X-375347619Y569904761D01*
X-376347619Y569904761D01*
X-376347619Y569428571D01*
X-375871428Y568666666D02*
X-375871428Y569000000D01*
X-375347619Y569000000D02*
X-376347619Y569000000D01*
X-376347619Y568523809D01*
X-376347619Y568000000D02*
X-376109523Y568000000D01*
X-376204761Y568238095D02*
X-376109523Y568000000D01*
X-376204761Y567761904D01*
X-375919047Y568142857D02*
X-376109523Y568000000D01*
X-375919047Y567857142D01*
X-376347619Y567238095D02*
X-376109523Y567238095D01*
X-376204761Y567476190D02*
X-376109523Y567238095D01*
X-376204761Y567000000D01*
X-375919047Y567380952D02*
X-376109523Y567238095D01*
X-375919047Y567095238D01*
M02*
