G04 #@! TF.GenerationSoftware,KiCad,Pcbnew,(5.1.5)-3*
G04 #@! TF.CreationDate,2020-01-11T16:24:58-08:00*
G04 #@! TF.ProjectId,frame_corners,6672616d-655f-4636-9f72-6e6572732e6b,rev?*
G04 #@! TF.SameCoordinates,PXe8fce300PYe19b7798*
G04 #@! TF.FileFunction,Legend,Bot*
G04 #@! TF.FilePolarity,Positive*
%FSLAX46Y46*%
G04 Gerber Fmt 4.6, Leading zero omitted, Abs format (unit mm)*
G04 Created by KiCad (PCBNEW (5.1.5)-3) date 2020-01-11 16:24:58*
%MOMM*%
%LPD*%
G04 APERTURE LIST*
%ADD10C,0.150000*%
%ADD11C,0.120000*%
G04 APERTURE END LIST*
D10*
X36995239Y11167619D02*
X36995239Y12167619D01*
X36995239Y11691428D02*
X36423810Y11691428D01*
X36423810Y11167619D02*
X36423810Y12167619D01*
X36042858Y12167619D02*
X35804762Y11167619D01*
X35614286Y11881904D01*
X35423810Y11167619D01*
X35185715Y12167619D01*
X34804762Y11167619D02*
X34804762Y12167619D01*
X33757143Y11262857D02*
X33804762Y11215238D01*
X33947620Y11167619D01*
X34042858Y11167619D01*
X34185715Y11215238D01*
X34280953Y11310476D01*
X34328572Y11405714D01*
X34376191Y11596190D01*
X34376191Y11739047D01*
X34328572Y11929523D01*
X34280953Y12024761D01*
X34185715Y12120000D01*
X34042858Y12167619D01*
X33947620Y12167619D01*
X33804762Y12120000D01*
X33757143Y12072380D01*
X32566667Y11167619D02*
X32566667Y12167619D01*
X32328572Y12167619D01*
X32185715Y12120000D01*
X32090477Y12024761D01*
X32042858Y11929523D01*
X31995239Y11739047D01*
X31995239Y11596190D01*
X32042858Y11405714D01*
X32090477Y11310476D01*
X32185715Y11215238D01*
X32328572Y11167619D01*
X32566667Y11167619D01*
X31185715Y11215238D02*
X31280953Y11167619D01*
X31471429Y11167619D01*
X31566667Y11215238D01*
X31614286Y11310476D01*
X31614286Y11691428D01*
X31566667Y11786666D01*
X31471429Y11834285D01*
X31280953Y11834285D01*
X31185715Y11786666D01*
X31138096Y11691428D01*
X31138096Y11596190D01*
X31614286Y11500952D01*
X30804762Y11834285D02*
X30566667Y11167619D01*
X30328572Y11834285D01*
X29614286Y11691428D02*
X29471429Y11643809D01*
X29423810Y11596190D01*
X29376191Y11500952D01*
X29376191Y11358095D01*
X29423810Y11262857D01*
X29471429Y11215238D01*
X29566667Y11167619D01*
X29947620Y11167619D01*
X29947620Y12167619D01*
X29614286Y12167619D01*
X29519048Y12120000D01*
X29471429Y12072380D01*
X29423810Y11977142D01*
X29423810Y11881904D01*
X29471429Y11786666D01*
X29519048Y11739047D01*
X29614286Y11691428D01*
X29947620Y11691428D01*
X28804762Y11167619D02*
X28900000Y11215238D01*
X28947620Y11262857D01*
X28995239Y11358095D01*
X28995239Y11643809D01*
X28947620Y11739047D01*
X28900000Y11786666D01*
X28804762Y11834285D01*
X28661905Y11834285D01*
X28566667Y11786666D01*
X28519048Y11739047D01*
X28471429Y11643809D01*
X28471429Y11358095D01*
X28519048Y11262857D01*
X28566667Y11215238D01*
X28661905Y11167619D01*
X28804762Y11167619D01*
X27614286Y11167619D02*
X27614286Y11691428D01*
X27661905Y11786666D01*
X27757143Y11834285D01*
X27947620Y11834285D01*
X28042858Y11786666D01*
X27614286Y11215238D02*
X27709524Y11167619D01*
X27947620Y11167619D01*
X28042858Y11215238D01*
X28090477Y11310476D01*
X28090477Y11405714D01*
X28042858Y11500952D01*
X27947620Y11548571D01*
X27709524Y11548571D01*
X27614286Y11596190D01*
X27138096Y11167619D02*
X27138096Y11834285D01*
X27138096Y11643809D02*
X27090477Y11739047D01*
X27042858Y11786666D01*
X26947620Y11834285D01*
X26852381Y11834285D01*
X26090477Y11167619D02*
X26090477Y12167619D01*
X26090477Y11215238D02*
X26185715Y11167619D01*
X26376191Y11167619D01*
X26471429Y11215238D01*
X26519048Y11262857D01*
X26566667Y11358095D01*
X26566667Y11643809D01*
X26519048Y11739047D01*
X26471429Y11786666D01*
X26376191Y11834285D01*
X26185715Y11834285D01*
X26090477Y11786666D01*
X24328572Y12120000D02*
X24423810Y12167619D01*
X24566667Y12167619D01*
X24709524Y12120000D01*
X24804762Y12024761D01*
X24852381Y11929523D01*
X24900000Y11739047D01*
X24900000Y11596190D01*
X24852381Y11405714D01*
X24804762Y11310476D01*
X24709524Y11215238D01*
X24566667Y11167619D01*
X24471429Y11167619D01*
X24328572Y11215238D01*
X24280953Y11262857D01*
X24280953Y11596190D01*
X24471429Y11596190D01*
X23852381Y11167619D02*
X23852381Y12167619D01*
X23471429Y12167619D01*
X23376191Y12120000D01*
X23328572Y12072380D01*
X23280953Y11977142D01*
X23280953Y11834285D01*
X23328572Y11739047D01*
X23376191Y11691428D01*
X23471429Y11643809D01*
X23852381Y11643809D01*
X22852381Y11167619D02*
X22852381Y12167619D01*
X22185715Y12167619D02*
X21995239Y12167619D01*
X21900000Y12120000D01*
X21804762Y12024761D01*
X21757143Y11834285D01*
X21757143Y11500952D01*
X21804762Y11310476D01*
X21900000Y11215238D01*
X21995239Y11167619D01*
X22185715Y11167619D01*
X22280953Y11215238D01*
X22376191Y11310476D01*
X22423810Y11500952D01*
X22423810Y11834285D01*
X22376191Y12024761D01*
X22280953Y12120000D01*
X22185715Y12167619D01*
X20709524Y11834285D02*
X20328572Y11834285D01*
X20566667Y12167619D02*
X20566667Y11310476D01*
X20519048Y11215238D01*
X20423810Y11167619D01*
X20328572Y11167619D01*
X19852381Y11167619D02*
X19947620Y11215238D01*
X19995239Y11262857D01*
X20042858Y11358095D01*
X20042858Y11643809D01*
X19995239Y11739047D01*
X19947620Y11786666D01*
X19852381Y11834285D01*
X19709524Y11834285D01*
X19614286Y11786666D01*
X19566667Y11739047D01*
X19519048Y11643809D01*
X19519048Y11358095D01*
X19566667Y11262857D01*
X19614286Y11215238D01*
X19709524Y11167619D01*
X19852381Y11167619D01*
X18328572Y11167619D02*
X18328572Y12167619D01*
X18328572Y11691428D02*
X17757143Y11691428D01*
X17757143Y11167619D02*
X17757143Y12167619D01*
X17280953Y12167619D02*
X17280953Y11358095D01*
X17233334Y11262857D01*
X17185715Y11215238D01*
X17090477Y11167619D01*
X16900000Y11167619D01*
X16804762Y11215238D01*
X16757143Y11262857D01*
X16709524Y11358095D01*
X16709524Y12167619D01*
X15900000Y11691428D02*
X15757143Y11643809D01*
X15709524Y11596190D01*
X15661905Y11500952D01*
X15661905Y11358095D01*
X15709524Y11262857D01*
X15757143Y11215238D01*
X15852381Y11167619D01*
X16233334Y11167619D01*
X16233334Y12167619D01*
X15900000Y12167619D01*
X15804762Y12120000D01*
X15757143Y12072380D01*
X15709524Y11977142D01*
X15709524Y11881904D01*
X15757143Y11786666D01*
X15804762Y11739047D01*
X15900000Y11691428D01*
X16233334Y11691428D01*
X15328572Y12167619D02*
X14661905Y12167619D01*
X15090477Y11167619D01*
X13804762Y12167619D02*
X14280953Y12167619D01*
X14328572Y11691428D01*
X14280953Y11739047D01*
X14185715Y11786666D01*
X13947620Y11786666D01*
X13852381Y11739047D01*
X13804762Y11691428D01*
X13757143Y11596190D01*
X13757143Y11358095D01*
X13804762Y11262857D01*
X13852381Y11215238D01*
X13947620Y11167619D01*
X14185715Y11167619D01*
X14280953Y11215238D01*
X14328572Y11262857D01*
X30423810Y10517619D02*
X29852381Y10517619D01*
X30138096Y9517619D02*
X30138096Y10517619D01*
X29376191Y9517619D02*
X29471429Y9565238D01*
X29519048Y9612857D01*
X29566667Y9708095D01*
X29566667Y9993809D01*
X29519048Y10089047D01*
X29471429Y10136666D01*
X29376191Y10184285D01*
X29233334Y10184285D01*
X29138096Y10136666D01*
X29090477Y10089047D01*
X29042858Y9993809D01*
X29042858Y9708095D01*
X29090477Y9612857D01*
X29138096Y9565238D01*
X29233334Y9517619D01*
X29376191Y9517619D01*
X28614286Y9517619D02*
X28614286Y10184285D01*
X28614286Y10089047D02*
X28566667Y10136666D01*
X28471429Y10184285D01*
X28328572Y10184285D01*
X28233334Y10136666D01*
X28185715Y10041428D01*
X28185715Y9517619D01*
X28185715Y10041428D02*
X28138096Y10136666D01*
X28042858Y10184285D01*
X27900000Y10184285D01*
X27804762Y10136666D01*
X27757143Y10041428D01*
X27757143Y9517619D01*
X26661905Y10517619D02*
X26328572Y9517619D01*
X25995239Y10517619D01*
X25280953Y9565238D02*
X25376191Y9517619D01*
X25566667Y9517619D01*
X25661905Y9565238D01*
X25709524Y9660476D01*
X25709524Y10041428D01*
X25661905Y10136666D01*
X25566667Y10184285D01*
X25376191Y10184285D01*
X25280953Y10136666D01*
X25233334Y10041428D01*
X25233334Y9946190D01*
X25709524Y9850952D01*
X24804762Y9517619D02*
X24804762Y10184285D01*
X24804762Y9993809D02*
X24757143Y10089047D01*
X24709524Y10136666D01*
X24614286Y10184285D01*
X24519048Y10184285D01*
X24185715Y9517619D02*
X24185715Y10517619D01*
X24185715Y10136666D02*
X24090477Y10184285D01*
X23900000Y10184285D01*
X23804762Y10136666D01*
X23757143Y10089047D01*
X23709524Y9993809D01*
X23709524Y9708095D01*
X23757143Y9612857D01*
X23804762Y9565238D01*
X23900000Y9517619D01*
X24090477Y9517619D01*
X24185715Y9565238D01*
X22900000Y9565238D02*
X22995239Y9517619D01*
X23185715Y9517619D01*
X23280953Y9565238D01*
X23328572Y9660476D01*
X23328572Y10041428D01*
X23280953Y10136666D01*
X23185715Y10184285D01*
X22995239Y10184285D01*
X22900000Y10136666D01*
X22852381Y10041428D01*
X22852381Y9946190D01*
X23328572Y9850952D01*
X21995239Y10184285D02*
X21995239Y9517619D01*
X22423810Y10184285D02*
X22423810Y9660476D01*
X22376191Y9565238D01*
X22280953Y9517619D01*
X22138096Y9517619D01*
X22042858Y9565238D01*
X21995239Y9612857D01*
X21519048Y9517619D02*
X21519048Y10184285D01*
X21519048Y9993809D02*
X21471429Y10089047D01*
X21423810Y10136666D01*
X21328572Y10184285D01*
X21233334Y10184285D01*
X20519048Y9565238D02*
X20614286Y9517619D01*
X20804762Y9517619D01*
X20900000Y9565238D01*
X20947620Y9660476D01*
X20947620Y10041428D01*
X20900000Y10136666D01*
X20804762Y10184285D01*
X20614286Y10184285D01*
X20519048Y10136666D01*
X20471429Y10041428D01*
X20471429Y9946190D01*
X20947620Y9850952D01*
D11*
X51495000Y2480000D02*
X51495000Y3810000D01*
X50165000Y2480000D02*
X51495000Y2480000D01*
X51495000Y5080000D02*
X51495000Y7680000D01*
X48895000Y5080000D02*
X51495000Y5080000D01*
X48895000Y2480000D02*
X48895000Y5080000D01*
X51495000Y7680000D02*
X31055000Y7680000D01*
X48895000Y2480000D02*
X31055000Y2480000D01*
X31055000Y2480000D02*
X31055000Y7680000D01*
X21015000Y2480000D02*
X21015000Y3810000D01*
X19685000Y2480000D02*
X21015000Y2480000D01*
X21015000Y5080000D02*
X21015000Y7680000D01*
X18415000Y5080000D02*
X21015000Y5080000D01*
X18415000Y2480000D02*
X18415000Y5080000D01*
X21015000Y7680000D02*
X575000Y7680000D01*
X18415000Y2480000D02*
X575000Y2480000D01*
X575000Y2480000D02*
X575000Y7680000D01*
X575000Y14605000D02*
X575000Y13495000D01*
X575000Y13495000D02*
X1905000Y13495000D01*
X575000Y27235000D02*
X51495000Y27235000D01*
X51495000Y27235000D02*
X51495000Y18605000D01*
X575000Y18605000D02*
X51495000Y18605000D01*
X575000Y27235000D02*
X575000Y18605000D01*
X48895000Y27235000D02*
X48895000Y18605000D01*
X46355000Y27235000D02*
X46355000Y18605000D01*
X43815000Y27235000D02*
X43815000Y18605000D01*
X41275000Y27235000D02*
X41275000Y18605000D01*
X38735000Y27235000D02*
X38735000Y18605000D01*
X36195000Y27235000D02*
X36195000Y18605000D01*
X33655000Y27235000D02*
X33655000Y18605000D01*
X31115000Y27235000D02*
X31115000Y18605000D01*
X28575000Y27235000D02*
X28575000Y18605000D01*
X26035000Y27235000D02*
X26035000Y18605000D01*
X23495000Y27235000D02*
X23495000Y18605000D01*
X20955000Y27235000D02*
X20955000Y18605000D01*
X18415000Y27235000D02*
X18415000Y18605000D01*
X15875000Y27235000D02*
X15875000Y18605000D01*
X13335000Y27235000D02*
X13335000Y18605000D01*
X10795000Y27235000D02*
X10795000Y18605000D01*
X8255000Y27235000D02*
X8255000Y18605000D01*
X5715000Y27235000D02*
X5715000Y18605000D01*
X3175000Y27235000D02*
X3175000Y18605000D01*
X50525000Y16095000D02*
X50525000Y15655000D01*
X50525000Y18605000D02*
X50525000Y18195000D01*
X49805000Y16095000D02*
X49805000Y15655000D01*
X49805000Y18605000D02*
X49805000Y18195000D01*
X47985000Y16095000D02*
X47985000Y15655000D01*
X47985000Y18605000D02*
X47985000Y18195000D01*
X47265000Y16095000D02*
X47265000Y15655000D01*
X47265000Y18605000D02*
X47265000Y18195000D01*
X45445000Y16095000D02*
X45445000Y15655000D01*
X45445000Y18605000D02*
X45445000Y18195000D01*
X44725000Y16095000D02*
X44725000Y15655000D01*
X44725000Y18605000D02*
X44725000Y18195000D01*
X42905000Y16095000D02*
X42905000Y15655000D01*
X42905000Y18605000D02*
X42905000Y18195000D01*
X42185000Y16095000D02*
X42185000Y15655000D01*
X42185000Y18605000D02*
X42185000Y18195000D01*
X40365000Y16095000D02*
X40365000Y15655000D01*
X40365000Y18605000D02*
X40365000Y18195000D01*
X39645000Y16095000D02*
X39645000Y15655000D01*
X39645000Y18605000D02*
X39645000Y18195000D01*
X37825000Y16095000D02*
X37825000Y15655000D01*
X37825000Y18605000D02*
X37825000Y18195000D01*
X37105000Y16095000D02*
X37105000Y15655000D01*
X37105000Y18605000D02*
X37105000Y18195000D01*
X35285000Y16095000D02*
X35285000Y15655000D01*
X35285000Y18605000D02*
X35285000Y18195000D01*
X34565000Y16095000D02*
X34565000Y15655000D01*
X34565000Y18605000D02*
X34565000Y18195000D01*
X32745000Y16095000D02*
X32745000Y15655000D01*
X32745000Y18605000D02*
X32745000Y18195000D01*
X32025000Y16095000D02*
X32025000Y15655000D01*
X32025000Y18605000D02*
X32025000Y18195000D01*
X30205000Y16095000D02*
X30205000Y15655000D01*
X30205000Y18605000D02*
X30205000Y18195000D01*
X29485000Y16095000D02*
X29485000Y15655000D01*
X29485000Y18605000D02*
X29485000Y18195000D01*
X27665000Y16095000D02*
X27665000Y15655000D01*
X27665000Y18605000D02*
X27665000Y18195000D01*
X26945000Y16095000D02*
X26945000Y15655000D01*
X26945000Y18605000D02*
X26945000Y18195000D01*
X25125000Y16095000D02*
X25125000Y15655000D01*
X25125000Y18605000D02*
X25125000Y18195000D01*
X24405000Y16095000D02*
X24405000Y15655000D01*
X24405000Y18605000D02*
X24405000Y18195000D01*
X22585000Y16095000D02*
X22585000Y15655000D01*
X22585000Y18605000D02*
X22585000Y18195000D01*
X21865000Y16095000D02*
X21865000Y15655000D01*
X21865000Y18605000D02*
X21865000Y18195000D01*
X20045000Y16095000D02*
X20045000Y15655000D01*
X20045000Y18605000D02*
X20045000Y18195000D01*
X19325000Y16095000D02*
X19325000Y15655000D01*
X19325000Y18605000D02*
X19325000Y18195000D01*
X17505000Y16095000D02*
X17505000Y15655000D01*
X17505000Y18605000D02*
X17505000Y18195000D01*
X16785000Y16095000D02*
X16785000Y15655000D01*
X16785000Y18605000D02*
X16785000Y18195000D01*
X14965000Y16095000D02*
X14965000Y15655000D01*
X14965000Y18605000D02*
X14965000Y18195000D01*
X14245000Y16095000D02*
X14245000Y15655000D01*
X14245000Y18605000D02*
X14245000Y18195000D01*
X12425000Y16095000D02*
X12425000Y15655000D01*
X12425000Y18605000D02*
X12425000Y18195000D01*
X11705000Y16095000D02*
X11705000Y15655000D01*
X11705000Y18605000D02*
X11705000Y18195000D01*
X9885000Y16095000D02*
X9885000Y15655000D01*
X9885000Y18605000D02*
X9885000Y18195000D01*
X9165000Y16095000D02*
X9165000Y15655000D01*
X9165000Y18605000D02*
X9165000Y18195000D01*
X7345000Y16095000D02*
X7345000Y15655000D01*
X7345000Y18605000D02*
X7345000Y18195000D01*
X6625000Y16095000D02*
X6625000Y15655000D01*
X6625000Y18605000D02*
X6625000Y18195000D01*
X4805000Y16095000D02*
X4805000Y15655000D01*
X4805000Y18605000D02*
X4805000Y18195000D01*
X4085000Y16095000D02*
X4085000Y15655000D01*
X4085000Y18605000D02*
X4085000Y18195000D01*
X2265000Y16095000D02*
X2265000Y15715000D01*
X2265000Y18605000D02*
X2265000Y18195000D01*
X1545000Y16095000D02*
X1545000Y15715000D01*
X1545000Y18605000D02*
X1545000Y18195000D01*
X3056900Y27235000D02*
X3056900Y18605000D01*
X2938805Y27235000D02*
X2938805Y18605000D01*
X2820710Y27235000D02*
X2820710Y18605000D01*
X2702615Y27235000D02*
X2702615Y18605000D01*
X2584520Y27235000D02*
X2584520Y18605000D01*
X2466425Y27235000D02*
X2466425Y18605000D01*
X2348330Y27235000D02*
X2348330Y18605000D01*
X2230235Y27235000D02*
X2230235Y18605000D01*
X2112140Y27235000D02*
X2112140Y18605000D01*
X1994045Y27235000D02*
X1994045Y18605000D01*
X1875950Y27235000D02*
X1875950Y18605000D01*
X1757855Y27235000D02*
X1757855Y18605000D01*
X1639760Y27235000D02*
X1639760Y18605000D01*
X1521665Y27235000D02*
X1521665Y18605000D01*
X1403570Y27235000D02*
X1403570Y18605000D01*
X1285475Y27235000D02*
X1285475Y18605000D01*
X1167380Y27235000D02*
X1167380Y18605000D01*
X1049285Y27235000D02*
X1049285Y18605000D01*
X931190Y27235000D02*
X931190Y18605000D01*
X813095Y27235000D02*
X813095Y18605000D01*
X695000Y27235000D02*
X695000Y18605000D01*
D10*
X53042620Y4746666D02*
X52328334Y4746666D01*
X52185477Y4699047D01*
X52090239Y4603809D01*
X52042620Y4460952D01*
X52042620Y4365714D01*
X53042620Y5127619D02*
X53042620Y5746666D01*
X52661667Y5413333D01*
X52661667Y5556190D01*
X52614048Y5651428D01*
X52566429Y5699047D01*
X52471191Y5746666D01*
X52233096Y5746666D01*
X52137858Y5699047D01*
X52090239Y5651428D01*
X52042620Y5556190D01*
X52042620Y5270476D01*
X52090239Y5175238D01*
X52137858Y5127619D01*
X22562620Y4746666D02*
X21848334Y4746666D01*
X21705477Y4699047D01*
X21610239Y4603809D01*
X21562620Y4460952D01*
X21562620Y4365714D01*
X22467381Y5175238D02*
X22515000Y5222857D01*
X22562620Y5318095D01*
X22562620Y5556190D01*
X22515000Y5651428D01*
X22467381Y5699047D01*
X22372143Y5746666D01*
X22276905Y5746666D01*
X22134048Y5699047D01*
X21562620Y5127619D01*
X21562620Y5746666D01*
X-1412619Y20588333D02*
X-698333Y20588333D01*
X-555476Y20635952D01*
X-460238Y20731190D01*
X-412619Y20874047D01*
X-412619Y20969285D01*
X-412619Y19588333D02*
X-412619Y20159761D01*
X-412619Y19874047D02*
X-1412619Y19874047D01*
X-1269761Y19969285D01*
X-1174523Y20064523D01*
X-1126904Y20159761D01*
M02*
