M48
; DRILL file {KiCad (5.1.5)-3} date 1/11/2020 4:25:07 PM
; FORMAT={-:-/ absolute / inch / decimal}
; #@! TF.CreationDate,2020-01-11T16:25:07-08:00
; #@! TF.GenerationSoftware,Kicad,Pcbnew,(5.1.5)-3
; #@! TF.FileFunction,Plated,1,2,PTH
FMAT,2
INCH
T1C0.0157
T2C0.0394
%
G90
G05
T1
X0.825Y0.4
X0.95Y0.125
X1.025Y0.125
X1.425Y0.325
T2
X0.075Y0.675
X0.075Y0.575
X0.175Y0.675
X0.175Y0.575
X0.275Y0.675
X0.275Y0.575
X0.375Y0.675
X0.375Y0.575
X0.475Y0.675
X0.475Y0.575
X0.575Y0.675
X0.575Y0.575
X0.675Y0.675
X0.675Y0.575
X0.775Y0.675
X0.775Y0.575
X0.875Y0.675
X0.875Y0.575
X0.975Y0.675
X0.975Y0.575
X1.075Y0.675
X1.075Y0.575
X1.175Y0.675
X1.175Y0.575
X1.275Y0.675
X1.275Y0.575
X1.375Y0.675
X1.375Y0.575
X1.475Y0.675
X1.475Y0.575
X1.575Y0.675
X1.575Y0.575
X1.675Y0.675
X1.675Y0.575
X1.775Y0.675
X1.775Y0.575
X1.875Y0.675
X1.875Y0.575
X1.975Y0.675
X1.975Y0.575
X0.075Y0.25
X0.075Y0.15
X0.175Y0.25
X0.175Y0.15
X0.275Y0.25
X0.275Y0.15
X0.375Y0.25
X0.375Y0.15
X0.475Y0.25
X0.475Y0.15
X0.575Y0.25
X0.575Y0.15
X0.675Y0.25
X0.675Y0.15
X0.775Y0.25
X0.775Y0.15
X1.275Y0.25
X1.275Y0.15
X1.375Y0.25
X1.375Y0.15
X1.475Y0.25
X1.475Y0.15
X1.575Y0.25
X1.575Y0.15
X1.675Y0.25
X1.675Y0.15
X1.775Y0.25
X1.775Y0.15
X1.875Y0.25
X1.875Y0.15
X1.975Y0.25
X1.975Y0.15
T0
M30
