G04 #@! TF.GenerationSoftware,KiCad,Pcbnew,(5.1.5)-3*
G04 #@! TF.CreationDate,2020-01-11T16:24:58-08:00*
G04 #@! TF.ProjectId,frame_corners,6672616d-655f-4636-9f72-6e6572732e6b,rev?*
G04 #@! TF.SameCoordinates,PXe8fce300PYe19b7798*
G04 #@! TF.FileFunction,Copper,L1,Top*
G04 #@! TF.FilePolarity,Positive*
%FSLAX46Y46*%
G04 Gerber Fmt 4.6, Leading zero omitted, Abs format (unit mm)*
G04 Created by KiCad (PCBNEW (5.1.5)-3) date 2020-01-11 16:24:58*
%MOMM*%
%LPD*%
G04 APERTURE LIST*
%ADD10O,1.700000X1.700000*%
%ADD11R,1.700000X1.700000*%
%ADD12C,0.800000*%
%ADD13C,0.250000*%
G04 APERTURE END LIST*
D10*
X32385000Y6350000D03*
X32385000Y3810000D03*
X34925000Y6350000D03*
X34925000Y3810000D03*
X37465000Y6350000D03*
X37465000Y3810000D03*
X40005000Y6350000D03*
X40005000Y3810000D03*
X42545000Y6350000D03*
X42545000Y3810000D03*
X45085000Y6350000D03*
X45085000Y3810000D03*
X47625000Y6350000D03*
X47625000Y3810000D03*
X50165000Y6350000D03*
D11*
X50165000Y3810000D03*
D10*
X1905000Y6350000D03*
X1905000Y3810000D03*
X4445000Y6350000D03*
X4445000Y3810000D03*
X6985000Y6350000D03*
X6985000Y3810000D03*
X9525000Y6350000D03*
X9525000Y3810000D03*
X12065000Y6350000D03*
X12065000Y3810000D03*
X14605000Y6350000D03*
X14605000Y3810000D03*
X17145000Y6350000D03*
X17145000Y3810000D03*
X19685000Y6350000D03*
D11*
X19685000Y3810000D03*
D10*
X50165000Y17145000D03*
X50165000Y14605000D03*
X47625000Y17145000D03*
X47625000Y14605000D03*
X45085000Y17145000D03*
X45085000Y14605000D03*
X42545000Y17145000D03*
X42545000Y14605000D03*
X40005000Y17145000D03*
X40005000Y14605000D03*
X37465000Y17145000D03*
X37465000Y14605000D03*
X34925000Y17145000D03*
X34925000Y14605000D03*
X32385000Y17145000D03*
X32385000Y14605000D03*
X29845000Y17145000D03*
X29845000Y14605000D03*
X27305000Y17145000D03*
X27305000Y14605000D03*
X24765000Y17145000D03*
X24765000Y14605000D03*
X22225000Y17145000D03*
X22225000Y14605000D03*
X19685000Y17145000D03*
X19685000Y14605000D03*
X17145000Y17145000D03*
X17145000Y14605000D03*
X14605000Y17145000D03*
X14605000Y14605000D03*
X12065000Y17145000D03*
X12065000Y14605000D03*
X9525000Y17145000D03*
X9525000Y14605000D03*
X6985000Y17145000D03*
X6985000Y14605000D03*
X4445000Y17145000D03*
X4445000Y14605000D03*
X1905000Y17145000D03*
D11*
X1905000Y14605000D03*
D12*
X24130000Y3175000D03*
X26035000Y3175000D03*
X36195000Y8255000D03*
X20955000Y10160000D03*
D13*
X45085000Y6350000D02*
X40640000Y10795000D01*
X30694999Y16295001D02*
X29845000Y17145000D01*
X31209999Y15780001D02*
X30694999Y16295001D01*
X31209999Y14040999D02*
X31209999Y15780001D01*
X40640000Y10795000D02*
X34455998Y10795000D01*
X34455998Y10795000D02*
X31209999Y14040999D01*
X38829999Y6888590D02*
X36008600Y9709989D01*
X33001009Y9709989D02*
X28669999Y14040999D01*
X28154999Y16295001D02*
X27305000Y17145000D01*
X41180001Y5174999D02*
X39440999Y5174999D01*
X39440999Y5174999D02*
X38829999Y5785999D01*
X36008600Y9709989D02*
X33001009Y9709989D01*
X38829999Y5785999D02*
X38829999Y6888590D01*
X28669999Y14040999D02*
X28669999Y15780001D01*
X42545000Y3810000D02*
X41180001Y5174999D01*
X28669999Y15780001D02*
X28154999Y16295001D01*
X33234999Y13755001D02*
X32385000Y14605000D01*
X34740011Y12249989D02*
X33234999Y13755001D01*
X47625000Y3810000D02*
X46449999Y4985001D01*
X40924013Y12249989D02*
X34740011Y12249989D01*
X46449999Y4985001D02*
X46449999Y6724003D01*
X46449999Y6724003D02*
X40924013Y12249989D01*
X50165000Y9525000D02*
X45085000Y14605000D01*
X50165000Y6350000D02*
X50165000Y9525000D01*
X27305000Y10330000D02*
X27305000Y13402919D01*
X20785000Y3810000D02*
X27305000Y10330000D01*
X27305000Y13402919D02*
X27305000Y14605000D01*
X19685000Y3810000D02*
X20785000Y3810000D01*
X23915001Y16295001D02*
X24765000Y17145000D01*
X23400001Y15780001D02*
X23915001Y16295001D01*
X23400001Y10065001D02*
X23400001Y15780001D01*
X19685000Y6350000D02*
X23400001Y10065001D01*
X24765000Y13402919D02*
X24765000Y14605000D01*
X24765000Y9690998D02*
X24765000Y13402919D01*
X20059003Y4985001D02*
X24765000Y9690998D01*
X18320001Y4985001D02*
X20059003Y4985001D01*
X17145000Y3810000D02*
X18320001Y4985001D01*
X21049999Y15969999D02*
X21375001Y16295001D01*
X21049999Y14230997D02*
X21049999Y15969999D01*
X20249001Y13429999D02*
X21049999Y14230997D01*
X19945997Y13429999D02*
X20249001Y13429999D01*
X13429999Y6914001D02*
X19945997Y13429999D01*
X13429999Y4985001D02*
X13429999Y6914001D01*
X21375001Y16295001D02*
X22225000Y17145000D01*
X14605000Y3810000D02*
X13429999Y4985001D01*
X22225000Y13970000D02*
X22225000Y14605000D01*
X14605000Y6350000D02*
X22225000Y13970000D01*
X11215001Y16295001D02*
X12065000Y17145000D01*
X10889999Y15969999D02*
X11215001Y16295001D01*
X10889999Y4985001D02*
X10889999Y15969999D01*
X12065000Y3810000D02*
X10889999Y4985001D01*
X12065000Y6350000D02*
X12065000Y14605000D01*
X8675001Y16295001D02*
X9525000Y17145000D01*
X8349999Y4985001D02*
X8349999Y15969999D01*
X8349999Y15969999D02*
X8675001Y16295001D01*
X9525000Y3810000D02*
X8349999Y4985001D01*
X9525000Y3810000D02*
X10795000Y2540000D01*
X23495000Y2540000D02*
X24130000Y3175000D01*
X10795000Y2540000D02*
X23495000Y2540000D01*
X9525000Y6350000D02*
X9525000Y14605000D01*
X5809999Y15969999D02*
X6135001Y16295001D01*
X6135001Y16295001D02*
X6985000Y17145000D01*
X5809999Y4985001D02*
X5809999Y15969999D01*
X6985000Y3810000D02*
X5809999Y4985001D01*
X24765000Y1905000D02*
X26035000Y3175000D01*
X8890000Y1905000D02*
X24765000Y1905000D01*
X6985000Y3810000D02*
X8890000Y1905000D01*
X6985000Y6350000D02*
X6985000Y14605000D01*
X36195000Y7620000D02*
X37465000Y6350000D01*
X36195000Y8255000D02*
X36195000Y7620000D01*
X3269999Y15969999D02*
X3595001Y16295001D01*
X3595001Y16295001D02*
X4445000Y17145000D01*
X3269999Y4985001D02*
X3269999Y15969999D01*
X4445000Y3810000D02*
X3269999Y4985001D01*
X7366000Y889000D02*
X4445000Y3810000D01*
X26289000Y889000D02*
X7366000Y889000D01*
X30480000Y5080000D02*
X26289000Y889000D01*
X33655000Y5080000D02*
X30480000Y5080000D01*
X34925000Y3810000D02*
X33655000Y5080000D01*
X4445000Y6350000D02*
X4445000Y14605000D01*
X34075001Y7199999D02*
X34925000Y6350000D01*
X31820999Y7525001D02*
X33749999Y7525001D01*
X33749999Y7525001D02*
X34075001Y7199999D01*
X7601009Y1454989D02*
X25750987Y1454989D01*
X5294999Y4699003D02*
X5809999Y4184003D01*
X5809999Y3245999D02*
X7601009Y1454989D01*
X5809999Y4184003D02*
X5809999Y3245999D01*
X5294999Y5500001D02*
X5294999Y4699003D01*
X25750987Y1454989D02*
X31820999Y7525001D01*
X4445000Y6350000D02*
X5294999Y5500001D01*
X805000Y14605000D02*
X1905000Y14605000D01*
X729999Y14529999D02*
X805000Y14605000D01*
X729999Y4985001D02*
X729999Y14529999D01*
X1905000Y3810000D02*
X729999Y4985001D01*
X31535001Y2960001D02*
X32385000Y3810000D01*
X28956000Y381000D02*
X32385000Y3810000D01*
X5461000Y381000D02*
X28956000Y381000D01*
X2032000Y3810000D02*
X5461000Y381000D01*
X1905000Y3810000D02*
X2032000Y3810000D01*
X41980999Y5174999D02*
X41180001Y5975997D01*
X43720001Y5174999D02*
X41980999Y5174999D01*
X41180001Y7078588D02*
X37913600Y10344989D01*
X37913600Y10344989D02*
X34105011Y10344989D01*
X41180001Y5975997D02*
X41180001Y7078588D01*
X45085000Y3810000D02*
X43720001Y5174999D01*
X34105011Y10344989D02*
X30694999Y13755001D01*
X30694999Y13755001D02*
X29845000Y14605000D01*
X33234999Y16295001D02*
X32385000Y17145000D01*
X33560001Y15969999D02*
X33234999Y16295001D01*
X33560001Y14230997D02*
X33560001Y15969999D01*
X48989999Y6724003D02*
X42284003Y13429999D01*
X48989999Y3885001D02*
X48989999Y6724003D01*
X42284003Y13429999D02*
X34360999Y13429999D01*
X50165000Y3810000D02*
X49065000Y3810000D01*
X34360999Y13429999D02*
X33560001Y14230997D01*
X49065000Y3810000D02*
X48989999Y3885001D01*
X17145000Y6350000D02*
X20955000Y10160000D01*
M02*
