G04 #@! TF.GenerationSoftware,KiCad,Pcbnew,(5.1.5)-3*
G04 #@! TF.CreationDate,2020-01-11T16:24:58-08:00*
G04 #@! TF.ProjectId,frame_corners,6672616d-655f-4636-9f72-6e6572732e6b,rev?*
G04 #@! TF.SameCoordinates,PXe8fce300PYe19b7798*
G04 #@! TF.FileFunction,Soldermask,Top*
G04 #@! TF.FilePolarity,Negative*
%FSLAX46Y46*%
G04 Gerber Fmt 4.6, Leading zero omitted, Abs format (unit mm)*
G04 Created by KiCad (PCBNEW (5.1.5)-3) date 2020-01-11 16:24:58*
%MOMM*%
%LPD*%
G04 APERTURE LIST*
%ADD10C,0.100000*%
G04 APERTURE END LIST*
D10*
G36*
X51066000Y2909000D02*
G01*
X49264000Y2909000D01*
X49264000Y4711000D01*
X51066000Y4711000D01*
X51066000Y2909000D01*
G37*
G36*
X9638512Y4706073D02*
G01*
X9787812Y4676376D01*
X9951784Y4608456D01*
X10099354Y4509853D01*
X10224853Y4384354D01*
X10323456Y4236784D01*
X10391376Y4072812D01*
X10426000Y3898741D01*
X10426000Y3721259D01*
X10391376Y3547188D01*
X10323456Y3383216D01*
X10224853Y3235646D01*
X10099354Y3110147D01*
X9951784Y3011544D01*
X9787812Y2943624D01*
X9638512Y2913927D01*
X9613742Y2909000D01*
X9436258Y2909000D01*
X9411488Y2913927D01*
X9262188Y2943624D01*
X9098216Y3011544D01*
X8950646Y3110147D01*
X8825147Y3235646D01*
X8726544Y3383216D01*
X8658624Y3547188D01*
X8624000Y3721259D01*
X8624000Y3898741D01*
X8658624Y4072812D01*
X8726544Y4236784D01*
X8825147Y4384354D01*
X8950646Y4509853D01*
X9098216Y4608456D01*
X9262188Y4676376D01*
X9411488Y4706073D01*
X9436258Y4711000D01*
X9613742Y4711000D01*
X9638512Y4706073D01*
G37*
G36*
X20586000Y2909000D02*
G01*
X18784000Y2909000D01*
X18784000Y4711000D01*
X20586000Y4711000D01*
X20586000Y2909000D01*
G37*
G36*
X17258512Y4706073D02*
G01*
X17407812Y4676376D01*
X17571784Y4608456D01*
X17719354Y4509853D01*
X17844853Y4384354D01*
X17943456Y4236784D01*
X18011376Y4072812D01*
X18046000Y3898741D01*
X18046000Y3721259D01*
X18011376Y3547188D01*
X17943456Y3383216D01*
X17844853Y3235646D01*
X17719354Y3110147D01*
X17571784Y3011544D01*
X17407812Y2943624D01*
X17258512Y2913927D01*
X17233742Y2909000D01*
X17056258Y2909000D01*
X17031488Y2913927D01*
X16882188Y2943624D01*
X16718216Y3011544D01*
X16570646Y3110147D01*
X16445147Y3235646D01*
X16346544Y3383216D01*
X16278624Y3547188D01*
X16244000Y3721259D01*
X16244000Y3898741D01*
X16278624Y4072812D01*
X16346544Y4236784D01*
X16445147Y4384354D01*
X16570646Y4509853D01*
X16718216Y4608456D01*
X16882188Y4676376D01*
X17031488Y4706073D01*
X17056258Y4711000D01*
X17233742Y4711000D01*
X17258512Y4706073D01*
G37*
G36*
X14718512Y4706073D02*
G01*
X14867812Y4676376D01*
X15031784Y4608456D01*
X15179354Y4509853D01*
X15304853Y4384354D01*
X15403456Y4236784D01*
X15471376Y4072812D01*
X15506000Y3898741D01*
X15506000Y3721259D01*
X15471376Y3547188D01*
X15403456Y3383216D01*
X15304853Y3235646D01*
X15179354Y3110147D01*
X15031784Y3011544D01*
X14867812Y2943624D01*
X14718512Y2913927D01*
X14693742Y2909000D01*
X14516258Y2909000D01*
X14491488Y2913927D01*
X14342188Y2943624D01*
X14178216Y3011544D01*
X14030646Y3110147D01*
X13905147Y3235646D01*
X13806544Y3383216D01*
X13738624Y3547188D01*
X13704000Y3721259D01*
X13704000Y3898741D01*
X13738624Y4072812D01*
X13806544Y4236784D01*
X13905147Y4384354D01*
X14030646Y4509853D01*
X14178216Y4608456D01*
X14342188Y4676376D01*
X14491488Y4706073D01*
X14516258Y4711000D01*
X14693742Y4711000D01*
X14718512Y4706073D01*
G37*
G36*
X12178512Y4706073D02*
G01*
X12327812Y4676376D01*
X12491784Y4608456D01*
X12639354Y4509853D01*
X12764853Y4384354D01*
X12863456Y4236784D01*
X12931376Y4072812D01*
X12966000Y3898741D01*
X12966000Y3721259D01*
X12931376Y3547188D01*
X12863456Y3383216D01*
X12764853Y3235646D01*
X12639354Y3110147D01*
X12491784Y3011544D01*
X12327812Y2943624D01*
X12178512Y2913927D01*
X12153742Y2909000D01*
X11976258Y2909000D01*
X11951488Y2913927D01*
X11802188Y2943624D01*
X11638216Y3011544D01*
X11490646Y3110147D01*
X11365147Y3235646D01*
X11266544Y3383216D01*
X11198624Y3547188D01*
X11164000Y3721259D01*
X11164000Y3898741D01*
X11198624Y4072812D01*
X11266544Y4236784D01*
X11365147Y4384354D01*
X11490646Y4509853D01*
X11638216Y4608456D01*
X11802188Y4676376D01*
X11951488Y4706073D01*
X11976258Y4711000D01*
X12153742Y4711000D01*
X12178512Y4706073D01*
G37*
G36*
X7098512Y4706073D02*
G01*
X7247812Y4676376D01*
X7411784Y4608456D01*
X7559354Y4509853D01*
X7684853Y4384354D01*
X7783456Y4236784D01*
X7851376Y4072812D01*
X7886000Y3898741D01*
X7886000Y3721259D01*
X7851376Y3547188D01*
X7783456Y3383216D01*
X7684853Y3235646D01*
X7559354Y3110147D01*
X7411784Y3011544D01*
X7247812Y2943624D01*
X7098512Y2913927D01*
X7073742Y2909000D01*
X6896258Y2909000D01*
X6871488Y2913927D01*
X6722188Y2943624D01*
X6558216Y3011544D01*
X6410646Y3110147D01*
X6285147Y3235646D01*
X6186544Y3383216D01*
X6118624Y3547188D01*
X6084000Y3721259D01*
X6084000Y3898741D01*
X6118624Y4072812D01*
X6186544Y4236784D01*
X6285147Y4384354D01*
X6410646Y4509853D01*
X6558216Y4608456D01*
X6722188Y4676376D01*
X6871488Y4706073D01*
X6896258Y4711000D01*
X7073742Y4711000D01*
X7098512Y4706073D01*
G37*
G36*
X4558512Y4706073D02*
G01*
X4707812Y4676376D01*
X4871784Y4608456D01*
X5019354Y4509853D01*
X5144853Y4384354D01*
X5243456Y4236784D01*
X5311376Y4072812D01*
X5346000Y3898741D01*
X5346000Y3721259D01*
X5311376Y3547188D01*
X5243456Y3383216D01*
X5144853Y3235646D01*
X5019354Y3110147D01*
X4871784Y3011544D01*
X4707812Y2943624D01*
X4558512Y2913927D01*
X4533742Y2909000D01*
X4356258Y2909000D01*
X4331488Y2913927D01*
X4182188Y2943624D01*
X4018216Y3011544D01*
X3870646Y3110147D01*
X3745147Y3235646D01*
X3646544Y3383216D01*
X3578624Y3547188D01*
X3544000Y3721259D01*
X3544000Y3898741D01*
X3578624Y4072812D01*
X3646544Y4236784D01*
X3745147Y4384354D01*
X3870646Y4509853D01*
X4018216Y4608456D01*
X4182188Y4676376D01*
X4331488Y4706073D01*
X4356258Y4711000D01*
X4533742Y4711000D01*
X4558512Y4706073D01*
G37*
G36*
X2018512Y4706073D02*
G01*
X2167812Y4676376D01*
X2331784Y4608456D01*
X2479354Y4509853D01*
X2604853Y4384354D01*
X2703456Y4236784D01*
X2771376Y4072812D01*
X2806000Y3898741D01*
X2806000Y3721259D01*
X2771376Y3547188D01*
X2703456Y3383216D01*
X2604853Y3235646D01*
X2479354Y3110147D01*
X2331784Y3011544D01*
X2167812Y2943624D01*
X2018512Y2913927D01*
X1993742Y2909000D01*
X1816258Y2909000D01*
X1791488Y2913927D01*
X1642188Y2943624D01*
X1478216Y3011544D01*
X1330646Y3110147D01*
X1205147Y3235646D01*
X1106544Y3383216D01*
X1038624Y3547188D01*
X1004000Y3721259D01*
X1004000Y3898741D01*
X1038624Y4072812D01*
X1106544Y4236784D01*
X1205147Y4384354D01*
X1330646Y4509853D01*
X1478216Y4608456D01*
X1642188Y4676376D01*
X1791488Y4706073D01*
X1816258Y4711000D01*
X1993742Y4711000D01*
X2018512Y4706073D01*
G37*
G36*
X47738512Y4706073D02*
G01*
X47887812Y4676376D01*
X48051784Y4608456D01*
X48199354Y4509853D01*
X48324853Y4384354D01*
X48423456Y4236784D01*
X48491376Y4072812D01*
X48526000Y3898741D01*
X48526000Y3721259D01*
X48491376Y3547188D01*
X48423456Y3383216D01*
X48324853Y3235646D01*
X48199354Y3110147D01*
X48051784Y3011544D01*
X47887812Y2943624D01*
X47738512Y2913927D01*
X47713742Y2909000D01*
X47536258Y2909000D01*
X47511488Y2913927D01*
X47362188Y2943624D01*
X47198216Y3011544D01*
X47050646Y3110147D01*
X46925147Y3235646D01*
X46826544Y3383216D01*
X46758624Y3547188D01*
X46724000Y3721259D01*
X46724000Y3898741D01*
X46758624Y4072812D01*
X46826544Y4236784D01*
X46925147Y4384354D01*
X47050646Y4509853D01*
X47198216Y4608456D01*
X47362188Y4676376D01*
X47511488Y4706073D01*
X47536258Y4711000D01*
X47713742Y4711000D01*
X47738512Y4706073D01*
G37*
G36*
X45198512Y4706073D02*
G01*
X45347812Y4676376D01*
X45511784Y4608456D01*
X45659354Y4509853D01*
X45784853Y4384354D01*
X45883456Y4236784D01*
X45951376Y4072812D01*
X45986000Y3898741D01*
X45986000Y3721259D01*
X45951376Y3547188D01*
X45883456Y3383216D01*
X45784853Y3235646D01*
X45659354Y3110147D01*
X45511784Y3011544D01*
X45347812Y2943624D01*
X45198512Y2913927D01*
X45173742Y2909000D01*
X44996258Y2909000D01*
X44971488Y2913927D01*
X44822188Y2943624D01*
X44658216Y3011544D01*
X44510646Y3110147D01*
X44385147Y3235646D01*
X44286544Y3383216D01*
X44218624Y3547188D01*
X44184000Y3721259D01*
X44184000Y3898741D01*
X44218624Y4072812D01*
X44286544Y4236784D01*
X44385147Y4384354D01*
X44510646Y4509853D01*
X44658216Y4608456D01*
X44822188Y4676376D01*
X44971488Y4706073D01*
X44996258Y4711000D01*
X45173742Y4711000D01*
X45198512Y4706073D01*
G37*
G36*
X42658512Y4706073D02*
G01*
X42807812Y4676376D01*
X42971784Y4608456D01*
X43119354Y4509853D01*
X43244853Y4384354D01*
X43343456Y4236784D01*
X43411376Y4072812D01*
X43446000Y3898741D01*
X43446000Y3721259D01*
X43411376Y3547188D01*
X43343456Y3383216D01*
X43244853Y3235646D01*
X43119354Y3110147D01*
X42971784Y3011544D01*
X42807812Y2943624D01*
X42658512Y2913927D01*
X42633742Y2909000D01*
X42456258Y2909000D01*
X42431488Y2913927D01*
X42282188Y2943624D01*
X42118216Y3011544D01*
X41970646Y3110147D01*
X41845147Y3235646D01*
X41746544Y3383216D01*
X41678624Y3547188D01*
X41644000Y3721259D01*
X41644000Y3898741D01*
X41678624Y4072812D01*
X41746544Y4236784D01*
X41845147Y4384354D01*
X41970646Y4509853D01*
X42118216Y4608456D01*
X42282188Y4676376D01*
X42431488Y4706073D01*
X42456258Y4711000D01*
X42633742Y4711000D01*
X42658512Y4706073D01*
G37*
G36*
X40118512Y4706073D02*
G01*
X40267812Y4676376D01*
X40431784Y4608456D01*
X40579354Y4509853D01*
X40704853Y4384354D01*
X40803456Y4236784D01*
X40871376Y4072812D01*
X40906000Y3898741D01*
X40906000Y3721259D01*
X40871376Y3547188D01*
X40803456Y3383216D01*
X40704853Y3235646D01*
X40579354Y3110147D01*
X40431784Y3011544D01*
X40267812Y2943624D01*
X40118512Y2913927D01*
X40093742Y2909000D01*
X39916258Y2909000D01*
X39891488Y2913927D01*
X39742188Y2943624D01*
X39578216Y3011544D01*
X39430646Y3110147D01*
X39305147Y3235646D01*
X39206544Y3383216D01*
X39138624Y3547188D01*
X39104000Y3721259D01*
X39104000Y3898741D01*
X39138624Y4072812D01*
X39206544Y4236784D01*
X39305147Y4384354D01*
X39430646Y4509853D01*
X39578216Y4608456D01*
X39742188Y4676376D01*
X39891488Y4706073D01*
X39916258Y4711000D01*
X40093742Y4711000D01*
X40118512Y4706073D01*
G37*
G36*
X37578512Y4706073D02*
G01*
X37727812Y4676376D01*
X37891784Y4608456D01*
X38039354Y4509853D01*
X38164853Y4384354D01*
X38263456Y4236784D01*
X38331376Y4072812D01*
X38366000Y3898741D01*
X38366000Y3721259D01*
X38331376Y3547188D01*
X38263456Y3383216D01*
X38164853Y3235646D01*
X38039354Y3110147D01*
X37891784Y3011544D01*
X37727812Y2943624D01*
X37578512Y2913927D01*
X37553742Y2909000D01*
X37376258Y2909000D01*
X37351488Y2913927D01*
X37202188Y2943624D01*
X37038216Y3011544D01*
X36890646Y3110147D01*
X36765147Y3235646D01*
X36666544Y3383216D01*
X36598624Y3547188D01*
X36564000Y3721259D01*
X36564000Y3898741D01*
X36598624Y4072812D01*
X36666544Y4236784D01*
X36765147Y4384354D01*
X36890646Y4509853D01*
X37038216Y4608456D01*
X37202188Y4676376D01*
X37351488Y4706073D01*
X37376258Y4711000D01*
X37553742Y4711000D01*
X37578512Y4706073D01*
G37*
G36*
X35038512Y4706073D02*
G01*
X35187812Y4676376D01*
X35351784Y4608456D01*
X35499354Y4509853D01*
X35624853Y4384354D01*
X35723456Y4236784D01*
X35791376Y4072812D01*
X35826000Y3898741D01*
X35826000Y3721259D01*
X35791376Y3547188D01*
X35723456Y3383216D01*
X35624853Y3235646D01*
X35499354Y3110147D01*
X35351784Y3011544D01*
X35187812Y2943624D01*
X35038512Y2913927D01*
X35013742Y2909000D01*
X34836258Y2909000D01*
X34811488Y2913927D01*
X34662188Y2943624D01*
X34498216Y3011544D01*
X34350646Y3110147D01*
X34225147Y3235646D01*
X34126544Y3383216D01*
X34058624Y3547188D01*
X34024000Y3721259D01*
X34024000Y3898741D01*
X34058624Y4072812D01*
X34126544Y4236784D01*
X34225147Y4384354D01*
X34350646Y4509853D01*
X34498216Y4608456D01*
X34662188Y4676376D01*
X34811488Y4706073D01*
X34836258Y4711000D01*
X35013742Y4711000D01*
X35038512Y4706073D01*
G37*
G36*
X32498512Y4706073D02*
G01*
X32647812Y4676376D01*
X32811784Y4608456D01*
X32959354Y4509853D01*
X33084853Y4384354D01*
X33183456Y4236784D01*
X33251376Y4072812D01*
X33286000Y3898741D01*
X33286000Y3721259D01*
X33251376Y3547188D01*
X33183456Y3383216D01*
X33084853Y3235646D01*
X32959354Y3110147D01*
X32811784Y3011544D01*
X32647812Y2943624D01*
X32498512Y2913927D01*
X32473742Y2909000D01*
X32296258Y2909000D01*
X32271488Y2913927D01*
X32122188Y2943624D01*
X31958216Y3011544D01*
X31810646Y3110147D01*
X31685147Y3235646D01*
X31586544Y3383216D01*
X31518624Y3547188D01*
X31484000Y3721259D01*
X31484000Y3898741D01*
X31518624Y4072812D01*
X31586544Y4236784D01*
X31685147Y4384354D01*
X31810646Y4509853D01*
X31958216Y4608456D01*
X32122188Y4676376D01*
X32271488Y4706073D01*
X32296258Y4711000D01*
X32473742Y4711000D01*
X32498512Y4706073D01*
G37*
G36*
X40118512Y7246073D02*
G01*
X40267812Y7216376D01*
X40431784Y7148456D01*
X40579354Y7049853D01*
X40704853Y6924354D01*
X40803456Y6776784D01*
X40871376Y6612812D01*
X40906000Y6438741D01*
X40906000Y6261259D01*
X40871376Y6087188D01*
X40803456Y5923216D01*
X40704853Y5775646D01*
X40579354Y5650147D01*
X40431784Y5551544D01*
X40267812Y5483624D01*
X40118512Y5453927D01*
X40093742Y5449000D01*
X39916258Y5449000D01*
X39891488Y5453927D01*
X39742188Y5483624D01*
X39578216Y5551544D01*
X39430646Y5650147D01*
X39305147Y5775646D01*
X39206544Y5923216D01*
X39138624Y6087188D01*
X39104000Y6261259D01*
X39104000Y6438741D01*
X39138624Y6612812D01*
X39206544Y6776784D01*
X39305147Y6924354D01*
X39430646Y7049853D01*
X39578216Y7148456D01*
X39742188Y7216376D01*
X39891488Y7246073D01*
X39916258Y7251000D01*
X40093742Y7251000D01*
X40118512Y7246073D01*
G37*
G36*
X4558512Y7246073D02*
G01*
X4707812Y7216376D01*
X4871784Y7148456D01*
X5019354Y7049853D01*
X5144853Y6924354D01*
X5243456Y6776784D01*
X5311376Y6612812D01*
X5346000Y6438741D01*
X5346000Y6261259D01*
X5311376Y6087188D01*
X5243456Y5923216D01*
X5144853Y5775646D01*
X5019354Y5650147D01*
X4871784Y5551544D01*
X4707812Y5483624D01*
X4558512Y5453927D01*
X4533742Y5449000D01*
X4356258Y5449000D01*
X4331488Y5453927D01*
X4182188Y5483624D01*
X4018216Y5551544D01*
X3870646Y5650147D01*
X3745147Y5775646D01*
X3646544Y5923216D01*
X3578624Y6087188D01*
X3544000Y6261259D01*
X3544000Y6438741D01*
X3578624Y6612812D01*
X3646544Y6776784D01*
X3745147Y6924354D01*
X3870646Y7049853D01*
X4018216Y7148456D01*
X4182188Y7216376D01*
X4331488Y7246073D01*
X4356258Y7251000D01*
X4533742Y7251000D01*
X4558512Y7246073D01*
G37*
G36*
X2018512Y7246073D02*
G01*
X2167812Y7216376D01*
X2331784Y7148456D01*
X2479354Y7049853D01*
X2604853Y6924354D01*
X2703456Y6776784D01*
X2771376Y6612812D01*
X2806000Y6438741D01*
X2806000Y6261259D01*
X2771376Y6087188D01*
X2703456Y5923216D01*
X2604853Y5775646D01*
X2479354Y5650147D01*
X2331784Y5551544D01*
X2167812Y5483624D01*
X2018512Y5453927D01*
X1993742Y5449000D01*
X1816258Y5449000D01*
X1791488Y5453927D01*
X1642188Y5483624D01*
X1478216Y5551544D01*
X1330646Y5650147D01*
X1205147Y5775646D01*
X1106544Y5923216D01*
X1038624Y6087188D01*
X1004000Y6261259D01*
X1004000Y6438741D01*
X1038624Y6612812D01*
X1106544Y6776784D01*
X1205147Y6924354D01*
X1330646Y7049853D01*
X1478216Y7148456D01*
X1642188Y7216376D01*
X1791488Y7246073D01*
X1816258Y7251000D01*
X1993742Y7251000D01*
X2018512Y7246073D01*
G37*
G36*
X9638512Y7246073D02*
G01*
X9787812Y7216376D01*
X9951784Y7148456D01*
X10099354Y7049853D01*
X10224853Y6924354D01*
X10323456Y6776784D01*
X10391376Y6612812D01*
X10426000Y6438741D01*
X10426000Y6261259D01*
X10391376Y6087188D01*
X10323456Y5923216D01*
X10224853Y5775646D01*
X10099354Y5650147D01*
X9951784Y5551544D01*
X9787812Y5483624D01*
X9638512Y5453927D01*
X9613742Y5449000D01*
X9436258Y5449000D01*
X9411488Y5453927D01*
X9262188Y5483624D01*
X9098216Y5551544D01*
X8950646Y5650147D01*
X8825147Y5775646D01*
X8726544Y5923216D01*
X8658624Y6087188D01*
X8624000Y6261259D01*
X8624000Y6438741D01*
X8658624Y6612812D01*
X8726544Y6776784D01*
X8825147Y6924354D01*
X8950646Y7049853D01*
X9098216Y7148456D01*
X9262188Y7216376D01*
X9411488Y7246073D01*
X9436258Y7251000D01*
X9613742Y7251000D01*
X9638512Y7246073D01*
G37*
G36*
X50278512Y7246073D02*
G01*
X50427812Y7216376D01*
X50591784Y7148456D01*
X50739354Y7049853D01*
X50864853Y6924354D01*
X50963456Y6776784D01*
X51031376Y6612812D01*
X51066000Y6438741D01*
X51066000Y6261259D01*
X51031376Y6087188D01*
X50963456Y5923216D01*
X50864853Y5775646D01*
X50739354Y5650147D01*
X50591784Y5551544D01*
X50427812Y5483624D01*
X50278512Y5453927D01*
X50253742Y5449000D01*
X50076258Y5449000D01*
X50051488Y5453927D01*
X49902188Y5483624D01*
X49738216Y5551544D01*
X49590646Y5650147D01*
X49465147Y5775646D01*
X49366544Y5923216D01*
X49298624Y6087188D01*
X49264000Y6261259D01*
X49264000Y6438741D01*
X49298624Y6612812D01*
X49366544Y6776784D01*
X49465147Y6924354D01*
X49590646Y7049853D01*
X49738216Y7148456D01*
X49902188Y7216376D01*
X50051488Y7246073D01*
X50076258Y7251000D01*
X50253742Y7251000D01*
X50278512Y7246073D01*
G37*
G36*
X32498512Y7246073D02*
G01*
X32647812Y7216376D01*
X32811784Y7148456D01*
X32959354Y7049853D01*
X33084853Y6924354D01*
X33183456Y6776784D01*
X33251376Y6612812D01*
X33286000Y6438741D01*
X33286000Y6261259D01*
X33251376Y6087188D01*
X33183456Y5923216D01*
X33084853Y5775646D01*
X32959354Y5650147D01*
X32811784Y5551544D01*
X32647812Y5483624D01*
X32498512Y5453927D01*
X32473742Y5449000D01*
X32296258Y5449000D01*
X32271488Y5453927D01*
X32122188Y5483624D01*
X31958216Y5551544D01*
X31810646Y5650147D01*
X31685147Y5775646D01*
X31586544Y5923216D01*
X31518624Y6087188D01*
X31484000Y6261259D01*
X31484000Y6438741D01*
X31518624Y6612812D01*
X31586544Y6776784D01*
X31685147Y6924354D01*
X31810646Y7049853D01*
X31958216Y7148456D01*
X32122188Y7216376D01*
X32271488Y7246073D01*
X32296258Y7251000D01*
X32473742Y7251000D01*
X32498512Y7246073D01*
G37*
G36*
X47738512Y7246073D02*
G01*
X47887812Y7216376D01*
X48051784Y7148456D01*
X48199354Y7049853D01*
X48324853Y6924354D01*
X48423456Y6776784D01*
X48491376Y6612812D01*
X48526000Y6438741D01*
X48526000Y6261259D01*
X48491376Y6087188D01*
X48423456Y5923216D01*
X48324853Y5775646D01*
X48199354Y5650147D01*
X48051784Y5551544D01*
X47887812Y5483624D01*
X47738512Y5453927D01*
X47713742Y5449000D01*
X47536258Y5449000D01*
X47511488Y5453927D01*
X47362188Y5483624D01*
X47198216Y5551544D01*
X47050646Y5650147D01*
X46925147Y5775646D01*
X46826544Y5923216D01*
X46758624Y6087188D01*
X46724000Y6261259D01*
X46724000Y6438741D01*
X46758624Y6612812D01*
X46826544Y6776784D01*
X46925147Y6924354D01*
X47050646Y7049853D01*
X47198216Y7148456D01*
X47362188Y7216376D01*
X47511488Y7246073D01*
X47536258Y7251000D01*
X47713742Y7251000D01*
X47738512Y7246073D01*
G37*
G36*
X12178512Y7246073D02*
G01*
X12327812Y7216376D01*
X12491784Y7148456D01*
X12639354Y7049853D01*
X12764853Y6924354D01*
X12863456Y6776784D01*
X12931376Y6612812D01*
X12966000Y6438741D01*
X12966000Y6261259D01*
X12931376Y6087188D01*
X12863456Y5923216D01*
X12764853Y5775646D01*
X12639354Y5650147D01*
X12491784Y5551544D01*
X12327812Y5483624D01*
X12178512Y5453927D01*
X12153742Y5449000D01*
X11976258Y5449000D01*
X11951488Y5453927D01*
X11802188Y5483624D01*
X11638216Y5551544D01*
X11490646Y5650147D01*
X11365147Y5775646D01*
X11266544Y5923216D01*
X11198624Y6087188D01*
X11164000Y6261259D01*
X11164000Y6438741D01*
X11198624Y6612812D01*
X11266544Y6776784D01*
X11365147Y6924354D01*
X11490646Y7049853D01*
X11638216Y7148456D01*
X11802188Y7216376D01*
X11951488Y7246073D01*
X11976258Y7251000D01*
X12153742Y7251000D01*
X12178512Y7246073D01*
G37*
G36*
X42658512Y7246073D02*
G01*
X42807812Y7216376D01*
X42971784Y7148456D01*
X43119354Y7049853D01*
X43244853Y6924354D01*
X43343456Y6776784D01*
X43411376Y6612812D01*
X43446000Y6438741D01*
X43446000Y6261259D01*
X43411376Y6087188D01*
X43343456Y5923216D01*
X43244853Y5775646D01*
X43119354Y5650147D01*
X42971784Y5551544D01*
X42807812Y5483624D01*
X42658512Y5453927D01*
X42633742Y5449000D01*
X42456258Y5449000D01*
X42431488Y5453927D01*
X42282188Y5483624D01*
X42118216Y5551544D01*
X41970646Y5650147D01*
X41845147Y5775646D01*
X41746544Y5923216D01*
X41678624Y6087188D01*
X41644000Y6261259D01*
X41644000Y6438741D01*
X41678624Y6612812D01*
X41746544Y6776784D01*
X41845147Y6924354D01*
X41970646Y7049853D01*
X42118216Y7148456D01*
X42282188Y7216376D01*
X42431488Y7246073D01*
X42456258Y7251000D01*
X42633742Y7251000D01*
X42658512Y7246073D01*
G37*
G36*
X14718512Y7246073D02*
G01*
X14867812Y7216376D01*
X15031784Y7148456D01*
X15179354Y7049853D01*
X15304853Y6924354D01*
X15403456Y6776784D01*
X15471376Y6612812D01*
X15506000Y6438741D01*
X15506000Y6261259D01*
X15471376Y6087188D01*
X15403456Y5923216D01*
X15304853Y5775646D01*
X15179354Y5650147D01*
X15031784Y5551544D01*
X14867812Y5483624D01*
X14718512Y5453927D01*
X14693742Y5449000D01*
X14516258Y5449000D01*
X14491488Y5453927D01*
X14342188Y5483624D01*
X14178216Y5551544D01*
X14030646Y5650147D01*
X13905147Y5775646D01*
X13806544Y5923216D01*
X13738624Y6087188D01*
X13704000Y6261259D01*
X13704000Y6438741D01*
X13738624Y6612812D01*
X13806544Y6776784D01*
X13905147Y6924354D01*
X14030646Y7049853D01*
X14178216Y7148456D01*
X14342188Y7216376D01*
X14491488Y7246073D01*
X14516258Y7251000D01*
X14693742Y7251000D01*
X14718512Y7246073D01*
G37*
G36*
X45198512Y7246073D02*
G01*
X45347812Y7216376D01*
X45511784Y7148456D01*
X45659354Y7049853D01*
X45784853Y6924354D01*
X45883456Y6776784D01*
X45951376Y6612812D01*
X45986000Y6438741D01*
X45986000Y6261259D01*
X45951376Y6087188D01*
X45883456Y5923216D01*
X45784853Y5775646D01*
X45659354Y5650147D01*
X45511784Y5551544D01*
X45347812Y5483624D01*
X45198512Y5453927D01*
X45173742Y5449000D01*
X44996258Y5449000D01*
X44971488Y5453927D01*
X44822188Y5483624D01*
X44658216Y5551544D01*
X44510646Y5650147D01*
X44385147Y5775646D01*
X44286544Y5923216D01*
X44218624Y6087188D01*
X44184000Y6261259D01*
X44184000Y6438741D01*
X44218624Y6612812D01*
X44286544Y6776784D01*
X44385147Y6924354D01*
X44510646Y7049853D01*
X44658216Y7148456D01*
X44822188Y7216376D01*
X44971488Y7246073D01*
X44996258Y7251000D01*
X45173742Y7251000D01*
X45198512Y7246073D01*
G37*
G36*
X37578512Y7246073D02*
G01*
X37727812Y7216376D01*
X37891784Y7148456D01*
X38039354Y7049853D01*
X38164853Y6924354D01*
X38263456Y6776784D01*
X38331376Y6612812D01*
X38366000Y6438741D01*
X38366000Y6261259D01*
X38331376Y6087188D01*
X38263456Y5923216D01*
X38164853Y5775646D01*
X38039354Y5650147D01*
X37891784Y5551544D01*
X37727812Y5483624D01*
X37578512Y5453927D01*
X37553742Y5449000D01*
X37376258Y5449000D01*
X37351488Y5453927D01*
X37202188Y5483624D01*
X37038216Y5551544D01*
X36890646Y5650147D01*
X36765147Y5775646D01*
X36666544Y5923216D01*
X36598624Y6087188D01*
X36564000Y6261259D01*
X36564000Y6438741D01*
X36598624Y6612812D01*
X36666544Y6776784D01*
X36765147Y6924354D01*
X36890646Y7049853D01*
X37038216Y7148456D01*
X37202188Y7216376D01*
X37351488Y7246073D01*
X37376258Y7251000D01*
X37553742Y7251000D01*
X37578512Y7246073D01*
G37*
G36*
X17258512Y7246073D02*
G01*
X17407812Y7216376D01*
X17571784Y7148456D01*
X17719354Y7049853D01*
X17844853Y6924354D01*
X17943456Y6776784D01*
X18011376Y6612812D01*
X18046000Y6438741D01*
X18046000Y6261259D01*
X18011376Y6087188D01*
X17943456Y5923216D01*
X17844853Y5775646D01*
X17719354Y5650147D01*
X17571784Y5551544D01*
X17407812Y5483624D01*
X17258512Y5453927D01*
X17233742Y5449000D01*
X17056258Y5449000D01*
X17031488Y5453927D01*
X16882188Y5483624D01*
X16718216Y5551544D01*
X16570646Y5650147D01*
X16445147Y5775646D01*
X16346544Y5923216D01*
X16278624Y6087188D01*
X16244000Y6261259D01*
X16244000Y6438741D01*
X16278624Y6612812D01*
X16346544Y6776784D01*
X16445147Y6924354D01*
X16570646Y7049853D01*
X16718216Y7148456D01*
X16882188Y7216376D01*
X17031488Y7246073D01*
X17056258Y7251000D01*
X17233742Y7251000D01*
X17258512Y7246073D01*
G37*
G36*
X35038512Y7246073D02*
G01*
X35187812Y7216376D01*
X35351784Y7148456D01*
X35499354Y7049853D01*
X35624853Y6924354D01*
X35723456Y6776784D01*
X35791376Y6612812D01*
X35826000Y6438741D01*
X35826000Y6261259D01*
X35791376Y6087188D01*
X35723456Y5923216D01*
X35624853Y5775646D01*
X35499354Y5650147D01*
X35351784Y5551544D01*
X35187812Y5483624D01*
X35038512Y5453927D01*
X35013742Y5449000D01*
X34836258Y5449000D01*
X34811488Y5453927D01*
X34662188Y5483624D01*
X34498216Y5551544D01*
X34350646Y5650147D01*
X34225147Y5775646D01*
X34126544Y5923216D01*
X34058624Y6087188D01*
X34024000Y6261259D01*
X34024000Y6438741D01*
X34058624Y6612812D01*
X34126544Y6776784D01*
X34225147Y6924354D01*
X34350646Y7049853D01*
X34498216Y7148456D01*
X34662188Y7216376D01*
X34811488Y7246073D01*
X34836258Y7251000D01*
X35013742Y7251000D01*
X35038512Y7246073D01*
G37*
G36*
X7098512Y7246073D02*
G01*
X7247812Y7216376D01*
X7411784Y7148456D01*
X7559354Y7049853D01*
X7684853Y6924354D01*
X7783456Y6776784D01*
X7851376Y6612812D01*
X7886000Y6438741D01*
X7886000Y6261259D01*
X7851376Y6087188D01*
X7783456Y5923216D01*
X7684853Y5775646D01*
X7559354Y5650147D01*
X7411784Y5551544D01*
X7247812Y5483624D01*
X7098512Y5453927D01*
X7073742Y5449000D01*
X6896258Y5449000D01*
X6871488Y5453927D01*
X6722188Y5483624D01*
X6558216Y5551544D01*
X6410646Y5650147D01*
X6285147Y5775646D01*
X6186544Y5923216D01*
X6118624Y6087188D01*
X6084000Y6261259D01*
X6084000Y6438741D01*
X6118624Y6612812D01*
X6186544Y6776784D01*
X6285147Y6924354D01*
X6410646Y7049853D01*
X6558216Y7148456D01*
X6722188Y7216376D01*
X6871488Y7246073D01*
X6896258Y7251000D01*
X7073742Y7251000D01*
X7098512Y7246073D01*
G37*
G36*
X19798512Y7246073D02*
G01*
X19947812Y7216376D01*
X20111784Y7148456D01*
X20259354Y7049853D01*
X20384853Y6924354D01*
X20483456Y6776784D01*
X20551376Y6612812D01*
X20586000Y6438741D01*
X20586000Y6261259D01*
X20551376Y6087188D01*
X20483456Y5923216D01*
X20384853Y5775646D01*
X20259354Y5650147D01*
X20111784Y5551544D01*
X19947812Y5483624D01*
X19798512Y5453927D01*
X19773742Y5449000D01*
X19596258Y5449000D01*
X19571488Y5453927D01*
X19422188Y5483624D01*
X19258216Y5551544D01*
X19110646Y5650147D01*
X18985147Y5775646D01*
X18886544Y5923216D01*
X18818624Y6087188D01*
X18784000Y6261259D01*
X18784000Y6438741D01*
X18818624Y6612812D01*
X18886544Y6776784D01*
X18985147Y6924354D01*
X19110646Y7049853D01*
X19258216Y7148456D01*
X19422188Y7216376D01*
X19571488Y7246073D01*
X19596258Y7251000D01*
X19773742Y7251000D01*
X19798512Y7246073D01*
G37*
G36*
X2806000Y13704000D02*
G01*
X1004000Y13704000D01*
X1004000Y15506000D01*
X2806000Y15506000D01*
X2806000Y13704000D01*
G37*
G36*
X27418512Y15501073D02*
G01*
X27567812Y15471376D01*
X27731784Y15403456D01*
X27879354Y15304853D01*
X28004853Y15179354D01*
X28103456Y15031784D01*
X28171376Y14867812D01*
X28206000Y14693741D01*
X28206000Y14516259D01*
X28171376Y14342188D01*
X28103456Y14178216D01*
X28004853Y14030646D01*
X27879354Y13905147D01*
X27731784Y13806544D01*
X27567812Y13738624D01*
X27418512Y13708927D01*
X27393742Y13704000D01*
X27216258Y13704000D01*
X27191488Y13708927D01*
X27042188Y13738624D01*
X26878216Y13806544D01*
X26730646Y13905147D01*
X26605147Y14030646D01*
X26506544Y14178216D01*
X26438624Y14342188D01*
X26404000Y14516259D01*
X26404000Y14693741D01*
X26438624Y14867812D01*
X26506544Y15031784D01*
X26605147Y15179354D01*
X26730646Y15304853D01*
X26878216Y15403456D01*
X27042188Y15471376D01*
X27191488Y15501073D01*
X27216258Y15506000D01*
X27393742Y15506000D01*
X27418512Y15501073D01*
G37*
G36*
X29958512Y15501073D02*
G01*
X30107812Y15471376D01*
X30271784Y15403456D01*
X30419354Y15304853D01*
X30544853Y15179354D01*
X30643456Y15031784D01*
X30711376Y14867812D01*
X30746000Y14693741D01*
X30746000Y14516259D01*
X30711376Y14342188D01*
X30643456Y14178216D01*
X30544853Y14030646D01*
X30419354Y13905147D01*
X30271784Y13806544D01*
X30107812Y13738624D01*
X29958512Y13708927D01*
X29933742Y13704000D01*
X29756258Y13704000D01*
X29731488Y13708927D01*
X29582188Y13738624D01*
X29418216Y13806544D01*
X29270646Y13905147D01*
X29145147Y14030646D01*
X29046544Y14178216D01*
X28978624Y14342188D01*
X28944000Y14516259D01*
X28944000Y14693741D01*
X28978624Y14867812D01*
X29046544Y15031784D01*
X29145147Y15179354D01*
X29270646Y15304853D01*
X29418216Y15403456D01*
X29582188Y15471376D01*
X29731488Y15501073D01*
X29756258Y15506000D01*
X29933742Y15506000D01*
X29958512Y15501073D01*
G37*
G36*
X32498512Y15501073D02*
G01*
X32647812Y15471376D01*
X32811784Y15403456D01*
X32959354Y15304853D01*
X33084853Y15179354D01*
X33183456Y15031784D01*
X33251376Y14867812D01*
X33286000Y14693741D01*
X33286000Y14516259D01*
X33251376Y14342188D01*
X33183456Y14178216D01*
X33084853Y14030646D01*
X32959354Y13905147D01*
X32811784Y13806544D01*
X32647812Y13738624D01*
X32498512Y13708927D01*
X32473742Y13704000D01*
X32296258Y13704000D01*
X32271488Y13708927D01*
X32122188Y13738624D01*
X31958216Y13806544D01*
X31810646Y13905147D01*
X31685147Y14030646D01*
X31586544Y14178216D01*
X31518624Y14342188D01*
X31484000Y14516259D01*
X31484000Y14693741D01*
X31518624Y14867812D01*
X31586544Y15031784D01*
X31685147Y15179354D01*
X31810646Y15304853D01*
X31958216Y15403456D01*
X32122188Y15471376D01*
X32271488Y15501073D01*
X32296258Y15506000D01*
X32473742Y15506000D01*
X32498512Y15501073D01*
G37*
G36*
X35038512Y15501073D02*
G01*
X35187812Y15471376D01*
X35351784Y15403456D01*
X35499354Y15304853D01*
X35624853Y15179354D01*
X35723456Y15031784D01*
X35791376Y14867812D01*
X35826000Y14693741D01*
X35826000Y14516259D01*
X35791376Y14342188D01*
X35723456Y14178216D01*
X35624853Y14030646D01*
X35499354Y13905147D01*
X35351784Y13806544D01*
X35187812Y13738624D01*
X35038512Y13708927D01*
X35013742Y13704000D01*
X34836258Y13704000D01*
X34811488Y13708927D01*
X34662188Y13738624D01*
X34498216Y13806544D01*
X34350646Y13905147D01*
X34225147Y14030646D01*
X34126544Y14178216D01*
X34058624Y14342188D01*
X34024000Y14516259D01*
X34024000Y14693741D01*
X34058624Y14867812D01*
X34126544Y15031784D01*
X34225147Y15179354D01*
X34350646Y15304853D01*
X34498216Y15403456D01*
X34662188Y15471376D01*
X34811488Y15501073D01*
X34836258Y15506000D01*
X35013742Y15506000D01*
X35038512Y15501073D01*
G37*
G36*
X37578512Y15501073D02*
G01*
X37727812Y15471376D01*
X37891784Y15403456D01*
X38039354Y15304853D01*
X38164853Y15179354D01*
X38263456Y15031784D01*
X38331376Y14867812D01*
X38366000Y14693741D01*
X38366000Y14516259D01*
X38331376Y14342188D01*
X38263456Y14178216D01*
X38164853Y14030646D01*
X38039354Y13905147D01*
X37891784Y13806544D01*
X37727812Y13738624D01*
X37578512Y13708927D01*
X37553742Y13704000D01*
X37376258Y13704000D01*
X37351488Y13708927D01*
X37202188Y13738624D01*
X37038216Y13806544D01*
X36890646Y13905147D01*
X36765147Y14030646D01*
X36666544Y14178216D01*
X36598624Y14342188D01*
X36564000Y14516259D01*
X36564000Y14693741D01*
X36598624Y14867812D01*
X36666544Y15031784D01*
X36765147Y15179354D01*
X36890646Y15304853D01*
X37038216Y15403456D01*
X37202188Y15471376D01*
X37351488Y15501073D01*
X37376258Y15506000D01*
X37553742Y15506000D01*
X37578512Y15501073D01*
G37*
G36*
X40118512Y15501073D02*
G01*
X40267812Y15471376D01*
X40431784Y15403456D01*
X40579354Y15304853D01*
X40704853Y15179354D01*
X40803456Y15031784D01*
X40871376Y14867812D01*
X40906000Y14693741D01*
X40906000Y14516259D01*
X40871376Y14342188D01*
X40803456Y14178216D01*
X40704853Y14030646D01*
X40579354Y13905147D01*
X40431784Y13806544D01*
X40267812Y13738624D01*
X40118512Y13708927D01*
X40093742Y13704000D01*
X39916258Y13704000D01*
X39891488Y13708927D01*
X39742188Y13738624D01*
X39578216Y13806544D01*
X39430646Y13905147D01*
X39305147Y14030646D01*
X39206544Y14178216D01*
X39138624Y14342188D01*
X39104000Y14516259D01*
X39104000Y14693741D01*
X39138624Y14867812D01*
X39206544Y15031784D01*
X39305147Y15179354D01*
X39430646Y15304853D01*
X39578216Y15403456D01*
X39742188Y15471376D01*
X39891488Y15501073D01*
X39916258Y15506000D01*
X40093742Y15506000D01*
X40118512Y15501073D01*
G37*
G36*
X42658512Y15501073D02*
G01*
X42807812Y15471376D01*
X42971784Y15403456D01*
X43119354Y15304853D01*
X43244853Y15179354D01*
X43343456Y15031784D01*
X43411376Y14867812D01*
X43446000Y14693741D01*
X43446000Y14516259D01*
X43411376Y14342188D01*
X43343456Y14178216D01*
X43244853Y14030646D01*
X43119354Y13905147D01*
X42971784Y13806544D01*
X42807812Y13738624D01*
X42658512Y13708927D01*
X42633742Y13704000D01*
X42456258Y13704000D01*
X42431488Y13708927D01*
X42282188Y13738624D01*
X42118216Y13806544D01*
X41970646Y13905147D01*
X41845147Y14030646D01*
X41746544Y14178216D01*
X41678624Y14342188D01*
X41644000Y14516259D01*
X41644000Y14693741D01*
X41678624Y14867812D01*
X41746544Y15031784D01*
X41845147Y15179354D01*
X41970646Y15304853D01*
X42118216Y15403456D01*
X42282188Y15471376D01*
X42431488Y15501073D01*
X42456258Y15506000D01*
X42633742Y15506000D01*
X42658512Y15501073D01*
G37*
G36*
X45198512Y15501073D02*
G01*
X45347812Y15471376D01*
X45511784Y15403456D01*
X45659354Y15304853D01*
X45784853Y15179354D01*
X45883456Y15031784D01*
X45951376Y14867812D01*
X45986000Y14693741D01*
X45986000Y14516259D01*
X45951376Y14342188D01*
X45883456Y14178216D01*
X45784853Y14030646D01*
X45659354Y13905147D01*
X45511784Y13806544D01*
X45347812Y13738624D01*
X45198512Y13708927D01*
X45173742Y13704000D01*
X44996258Y13704000D01*
X44971488Y13708927D01*
X44822188Y13738624D01*
X44658216Y13806544D01*
X44510646Y13905147D01*
X44385147Y14030646D01*
X44286544Y14178216D01*
X44218624Y14342188D01*
X44184000Y14516259D01*
X44184000Y14693741D01*
X44218624Y14867812D01*
X44286544Y15031784D01*
X44385147Y15179354D01*
X44510646Y15304853D01*
X44658216Y15403456D01*
X44822188Y15471376D01*
X44971488Y15501073D01*
X44996258Y15506000D01*
X45173742Y15506000D01*
X45198512Y15501073D01*
G37*
G36*
X4558512Y15501073D02*
G01*
X4707812Y15471376D01*
X4871784Y15403456D01*
X5019354Y15304853D01*
X5144853Y15179354D01*
X5243456Y15031784D01*
X5311376Y14867812D01*
X5346000Y14693741D01*
X5346000Y14516259D01*
X5311376Y14342188D01*
X5243456Y14178216D01*
X5144853Y14030646D01*
X5019354Y13905147D01*
X4871784Y13806544D01*
X4707812Y13738624D01*
X4558512Y13708927D01*
X4533742Y13704000D01*
X4356258Y13704000D01*
X4331488Y13708927D01*
X4182188Y13738624D01*
X4018216Y13806544D01*
X3870646Y13905147D01*
X3745147Y14030646D01*
X3646544Y14178216D01*
X3578624Y14342188D01*
X3544000Y14516259D01*
X3544000Y14693741D01*
X3578624Y14867812D01*
X3646544Y15031784D01*
X3745147Y15179354D01*
X3870646Y15304853D01*
X4018216Y15403456D01*
X4182188Y15471376D01*
X4331488Y15501073D01*
X4356258Y15506000D01*
X4533742Y15506000D01*
X4558512Y15501073D01*
G37*
G36*
X19798512Y15501073D02*
G01*
X19947812Y15471376D01*
X20111784Y15403456D01*
X20259354Y15304853D01*
X20384853Y15179354D01*
X20483456Y15031784D01*
X20551376Y14867812D01*
X20586000Y14693741D01*
X20586000Y14516259D01*
X20551376Y14342188D01*
X20483456Y14178216D01*
X20384853Y14030646D01*
X20259354Y13905147D01*
X20111784Y13806544D01*
X19947812Y13738624D01*
X19798512Y13708927D01*
X19773742Y13704000D01*
X19596258Y13704000D01*
X19571488Y13708927D01*
X19422188Y13738624D01*
X19258216Y13806544D01*
X19110646Y13905147D01*
X18985147Y14030646D01*
X18886544Y14178216D01*
X18818624Y14342188D01*
X18784000Y14516259D01*
X18784000Y14693741D01*
X18818624Y14867812D01*
X18886544Y15031784D01*
X18985147Y15179354D01*
X19110646Y15304853D01*
X19258216Y15403456D01*
X19422188Y15471376D01*
X19571488Y15501073D01*
X19596258Y15506000D01*
X19773742Y15506000D01*
X19798512Y15501073D01*
G37*
G36*
X22338512Y15501073D02*
G01*
X22487812Y15471376D01*
X22651784Y15403456D01*
X22799354Y15304853D01*
X22924853Y15179354D01*
X23023456Y15031784D01*
X23091376Y14867812D01*
X23126000Y14693741D01*
X23126000Y14516259D01*
X23091376Y14342188D01*
X23023456Y14178216D01*
X22924853Y14030646D01*
X22799354Y13905147D01*
X22651784Y13806544D01*
X22487812Y13738624D01*
X22338512Y13708927D01*
X22313742Y13704000D01*
X22136258Y13704000D01*
X22111488Y13708927D01*
X21962188Y13738624D01*
X21798216Y13806544D01*
X21650646Y13905147D01*
X21525147Y14030646D01*
X21426544Y14178216D01*
X21358624Y14342188D01*
X21324000Y14516259D01*
X21324000Y14693741D01*
X21358624Y14867812D01*
X21426544Y15031784D01*
X21525147Y15179354D01*
X21650646Y15304853D01*
X21798216Y15403456D01*
X21962188Y15471376D01*
X22111488Y15501073D01*
X22136258Y15506000D01*
X22313742Y15506000D01*
X22338512Y15501073D01*
G37*
G36*
X50278512Y15501073D02*
G01*
X50427812Y15471376D01*
X50591784Y15403456D01*
X50739354Y15304853D01*
X50864853Y15179354D01*
X50963456Y15031784D01*
X51031376Y14867812D01*
X51066000Y14693741D01*
X51066000Y14516259D01*
X51031376Y14342188D01*
X50963456Y14178216D01*
X50864853Y14030646D01*
X50739354Y13905147D01*
X50591784Y13806544D01*
X50427812Y13738624D01*
X50278512Y13708927D01*
X50253742Y13704000D01*
X50076258Y13704000D01*
X50051488Y13708927D01*
X49902188Y13738624D01*
X49738216Y13806544D01*
X49590646Y13905147D01*
X49465147Y14030646D01*
X49366544Y14178216D01*
X49298624Y14342188D01*
X49264000Y14516259D01*
X49264000Y14693741D01*
X49298624Y14867812D01*
X49366544Y15031784D01*
X49465147Y15179354D01*
X49590646Y15304853D01*
X49738216Y15403456D01*
X49902188Y15471376D01*
X50051488Y15501073D01*
X50076258Y15506000D01*
X50253742Y15506000D01*
X50278512Y15501073D01*
G37*
G36*
X47738512Y15501073D02*
G01*
X47887812Y15471376D01*
X48051784Y15403456D01*
X48199354Y15304853D01*
X48324853Y15179354D01*
X48423456Y15031784D01*
X48491376Y14867812D01*
X48526000Y14693741D01*
X48526000Y14516259D01*
X48491376Y14342188D01*
X48423456Y14178216D01*
X48324853Y14030646D01*
X48199354Y13905147D01*
X48051784Y13806544D01*
X47887812Y13738624D01*
X47738512Y13708927D01*
X47713742Y13704000D01*
X47536258Y13704000D01*
X47511488Y13708927D01*
X47362188Y13738624D01*
X47198216Y13806544D01*
X47050646Y13905147D01*
X46925147Y14030646D01*
X46826544Y14178216D01*
X46758624Y14342188D01*
X46724000Y14516259D01*
X46724000Y14693741D01*
X46758624Y14867812D01*
X46826544Y15031784D01*
X46925147Y15179354D01*
X47050646Y15304853D01*
X47198216Y15403456D01*
X47362188Y15471376D01*
X47511488Y15501073D01*
X47536258Y15506000D01*
X47713742Y15506000D01*
X47738512Y15501073D01*
G37*
G36*
X24878512Y15501073D02*
G01*
X25027812Y15471376D01*
X25191784Y15403456D01*
X25339354Y15304853D01*
X25464853Y15179354D01*
X25563456Y15031784D01*
X25631376Y14867812D01*
X25666000Y14693741D01*
X25666000Y14516259D01*
X25631376Y14342188D01*
X25563456Y14178216D01*
X25464853Y14030646D01*
X25339354Y13905147D01*
X25191784Y13806544D01*
X25027812Y13738624D01*
X24878512Y13708927D01*
X24853742Y13704000D01*
X24676258Y13704000D01*
X24651488Y13708927D01*
X24502188Y13738624D01*
X24338216Y13806544D01*
X24190646Y13905147D01*
X24065147Y14030646D01*
X23966544Y14178216D01*
X23898624Y14342188D01*
X23864000Y14516259D01*
X23864000Y14693741D01*
X23898624Y14867812D01*
X23966544Y15031784D01*
X24065147Y15179354D01*
X24190646Y15304853D01*
X24338216Y15403456D01*
X24502188Y15471376D01*
X24651488Y15501073D01*
X24676258Y15506000D01*
X24853742Y15506000D01*
X24878512Y15501073D01*
G37*
G36*
X9638512Y15501073D02*
G01*
X9787812Y15471376D01*
X9951784Y15403456D01*
X10099354Y15304853D01*
X10224853Y15179354D01*
X10323456Y15031784D01*
X10391376Y14867812D01*
X10426000Y14693741D01*
X10426000Y14516259D01*
X10391376Y14342188D01*
X10323456Y14178216D01*
X10224853Y14030646D01*
X10099354Y13905147D01*
X9951784Y13806544D01*
X9787812Y13738624D01*
X9638512Y13708927D01*
X9613742Y13704000D01*
X9436258Y13704000D01*
X9411488Y13708927D01*
X9262188Y13738624D01*
X9098216Y13806544D01*
X8950646Y13905147D01*
X8825147Y14030646D01*
X8726544Y14178216D01*
X8658624Y14342188D01*
X8624000Y14516259D01*
X8624000Y14693741D01*
X8658624Y14867812D01*
X8726544Y15031784D01*
X8825147Y15179354D01*
X8950646Y15304853D01*
X9098216Y15403456D01*
X9262188Y15471376D01*
X9411488Y15501073D01*
X9436258Y15506000D01*
X9613742Y15506000D01*
X9638512Y15501073D01*
G37*
G36*
X7098512Y15501073D02*
G01*
X7247812Y15471376D01*
X7411784Y15403456D01*
X7559354Y15304853D01*
X7684853Y15179354D01*
X7783456Y15031784D01*
X7851376Y14867812D01*
X7886000Y14693741D01*
X7886000Y14516259D01*
X7851376Y14342188D01*
X7783456Y14178216D01*
X7684853Y14030646D01*
X7559354Y13905147D01*
X7411784Y13806544D01*
X7247812Y13738624D01*
X7098512Y13708927D01*
X7073742Y13704000D01*
X6896258Y13704000D01*
X6871488Y13708927D01*
X6722188Y13738624D01*
X6558216Y13806544D01*
X6410646Y13905147D01*
X6285147Y14030646D01*
X6186544Y14178216D01*
X6118624Y14342188D01*
X6084000Y14516259D01*
X6084000Y14693741D01*
X6118624Y14867812D01*
X6186544Y15031784D01*
X6285147Y15179354D01*
X6410646Y15304853D01*
X6558216Y15403456D01*
X6722188Y15471376D01*
X6871488Y15501073D01*
X6896258Y15506000D01*
X7073742Y15506000D01*
X7098512Y15501073D01*
G37*
G36*
X12178512Y15501073D02*
G01*
X12327812Y15471376D01*
X12491784Y15403456D01*
X12639354Y15304853D01*
X12764853Y15179354D01*
X12863456Y15031784D01*
X12931376Y14867812D01*
X12966000Y14693741D01*
X12966000Y14516259D01*
X12931376Y14342188D01*
X12863456Y14178216D01*
X12764853Y14030646D01*
X12639354Y13905147D01*
X12491784Y13806544D01*
X12327812Y13738624D01*
X12178512Y13708927D01*
X12153742Y13704000D01*
X11976258Y13704000D01*
X11951488Y13708927D01*
X11802188Y13738624D01*
X11638216Y13806544D01*
X11490646Y13905147D01*
X11365147Y14030646D01*
X11266544Y14178216D01*
X11198624Y14342188D01*
X11164000Y14516259D01*
X11164000Y14693741D01*
X11198624Y14867812D01*
X11266544Y15031784D01*
X11365147Y15179354D01*
X11490646Y15304853D01*
X11638216Y15403456D01*
X11802188Y15471376D01*
X11951488Y15501073D01*
X11976258Y15506000D01*
X12153742Y15506000D01*
X12178512Y15501073D01*
G37*
G36*
X14718512Y15501073D02*
G01*
X14867812Y15471376D01*
X15031784Y15403456D01*
X15179354Y15304853D01*
X15304853Y15179354D01*
X15403456Y15031784D01*
X15471376Y14867812D01*
X15506000Y14693741D01*
X15506000Y14516259D01*
X15471376Y14342188D01*
X15403456Y14178216D01*
X15304853Y14030646D01*
X15179354Y13905147D01*
X15031784Y13806544D01*
X14867812Y13738624D01*
X14718512Y13708927D01*
X14693742Y13704000D01*
X14516258Y13704000D01*
X14491488Y13708927D01*
X14342188Y13738624D01*
X14178216Y13806544D01*
X14030646Y13905147D01*
X13905147Y14030646D01*
X13806544Y14178216D01*
X13738624Y14342188D01*
X13704000Y14516259D01*
X13704000Y14693741D01*
X13738624Y14867812D01*
X13806544Y15031784D01*
X13905147Y15179354D01*
X14030646Y15304853D01*
X14178216Y15403456D01*
X14342188Y15471376D01*
X14491488Y15501073D01*
X14516258Y15506000D01*
X14693742Y15506000D01*
X14718512Y15501073D01*
G37*
G36*
X17258512Y15501073D02*
G01*
X17407812Y15471376D01*
X17571784Y15403456D01*
X17719354Y15304853D01*
X17844853Y15179354D01*
X17943456Y15031784D01*
X18011376Y14867812D01*
X18046000Y14693741D01*
X18046000Y14516259D01*
X18011376Y14342188D01*
X17943456Y14178216D01*
X17844853Y14030646D01*
X17719354Y13905147D01*
X17571784Y13806544D01*
X17407812Y13738624D01*
X17258512Y13708927D01*
X17233742Y13704000D01*
X17056258Y13704000D01*
X17031488Y13708927D01*
X16882188Y13738624D01*
X16718216Y13806544D01*
X16570646Y13905147D01*
X16445147Y14030646D01*
X16346544Y14178216D01*
X16278624Y14342188D01*
X16244000Y14516259D01*
X16244000Y14693741D01*
X16278624Y14867812D01*
X16346544Y15031784D01*
X16445147Y15179354D01*
X16570646Y15304853D01*
X16718216Y15403456D01*
X16882188Y15471376D01*
X17031488Y15501073D01*
X17056258Y15506000D01*
X17233742Y15506000D01*
X17258512Y15501073D01*
G37*
G36*
X29958512Y18041073D02*
G01*
X30107812Y18011376D01*
X30271784Y17943456D01*
X30419354Y17844853D01*
X30544853Y17719354D01*
X30643456Y17571784D01*
X30711376Y17407812D01*
X30746000Y17233741D01*
X30746000Y17056259D01*
X30711376Y16882188D01*
X30643456Y16718216D01*
X30544853Y16570646D01*
X30419354Y16445147D01*
X30271784Y16346544D01*
X30107812Y16278624D01*
X29958512Y16248927D01*
X29933742Y16244000D01*
X29756258Y16244000D01*
X29731488Y16248927D01*
X29582188Y16278624D01*
X29418216Y16346544D01*
X29270646Y16445147D01*
X29145147Y16570646D01*
X29046544Y16718216D01*
X28978624Y16882188D01*
X28944000Y17056259D01*
X28944000Y17233741D01*
X28978624Y17407812D01*
X29046544Y17571784D01*
X29145147Y17719354D01*
X29270646Y17844853D01*
X29418216Y17943456D01*
X29582188Y18011376D01*
X29731488Y18041073D01*
X29756258Y18046000D01*
X29933742Y18046000D01*
X29958512Y18041073D01*
G37*
G36*
X4558512Y18041073D02*
G01*
X4707812Y18011376D01*
X4871784Y17943456D01*
X5019354Y17844853D01*
X5144853Y17719354D01*
X5243456Y17571784D01*
X5311376Y17407812D01*
X5346000Y17233741D01*
X5346000Y17056259D01*
X5311376Y16882188D01*
X5243456Y16718216D01*
X5144853Y16570646D01*
X5019354Y16445147D01*
X4871784Y16346544D01*
X4707812Y16278624D01*
X4558512Y16248927D01*
X4533742Y16244000D01*
X4356258Y16244000D01*
X4331488Y16248927D01*
X4182188Y16278624D01*
X4018216Y16346544D01*
X3870646Y16445147D01*
X3745147Y16570646D01*
X3646544Y16718216D01*
X3578624Y16882188D01*
X3544000Y17056259D01*
X3544000Y17233741D01*
X3578624Y17407812D01*
X3646544Y17571784D01*
X3745147Y17719354D01*
X3870646Y17844853D01*
X4018216Y17943456D01*
X4182188Y18011376D01*
X4331488Y18041073D01*
X4356258Y18046000D01*
X4533742Y18046000D01*
X4558512Y18041073D01*
G37*
G36*
X2018512Y18041073D02*
G01*
X2167812Y18011376D01*
X2331784Y17943456D01*
X2479354Y17844853D01*
X2604853Y17719354D01*
X2703456Y17571784D01*
X2771376Y17407812D01*
X2806000Y17233741D01*
X2806000Y17056259D01*
X2771376Y16882188D01*
X2703456Y16718216D01*
X2604853Y16570646D01*
X2479354Y16445147D01*
X2331784Y16346544D01*
X2167812Y16278624D01*
X2018512Y16248927D01*
X1993742Y16244000D01*
X1816258Y16244000D01*
X1791488Y16248927D01*
X1642188Y16278624D01*
X1478216Y16346544D01*
X1330646Y16445147D01*
X1205147Y16570646D01*
X1106544Y16718216D01*
X1038624Y16882188D01*
X1004000Y17056259D01*
X1004000Y17233741D01*
X1038624Y17407812D01*
X1106544Y17571784D01*
X1205147Y17719354D01*
X1330646Y17844853D01*
X1478216Y17943456D01*
X1642188Y18011376D01*
X1791488Y18041073D01*
X1816258Y18046000D01*
X1993742Y18046000D01*
X2018512Y18041073D01*
G37*
G36*
X7098512Y18041073D02*
G01*
X7247812Y18011376D01*
X7411784Y17943456D01*
X7559354Y17844853D01*
X7684853Y17719354D01*
X7783456Y17571784D01*
X7851376Y17407812D01*
X7886000Y17233741D01*
X7886000Y17056259D01*
X7851376Y16882188D01*
X7783456Y16718216D01*
X7684853Y16570646D01*
X7559354Y16445147D01*
X7411784Y16346544D01*
X7247812Y16278624D01*
X7098512Y16248927D01*
X7073742Y16244000D01*
X6896258Y16244000D01*
X6871488Y16248927D01*
X6722188Y16278624D01*
X6558216Y16346544D01*
X6410646Y16445147D01*
X6285147Y16570646D01*
X6186544Y16718216D01*
X6118624Y16882188D01*
X6084000Y17056259D01*
X6084000Y17233741D01*
X6118624Y17407812D01*
X6186544Y17571784D01*
X6285147Y17719354D01*
X6410646Y17844853D01*
X6558216Y17943456D01*
X6722188Y18011376D01*
X6871488Y18041073D01*
X6896258Y18046000D01*
X7073742Y18046000D01*
X7098512Y18041073D01*
G37*
G36*
X50278512Y18041073D02*
G01*
X50427812Y18011376D01*
X50591784Y17943456D01*
X50739354Y17844853D01*
X50864853Y17719354D01*
X50963456Y17571784D01*
X51031376Y17407812D01*
X51066000Y17233741D01*
X51066000Y17056259D01*
X51031376Y16882188D01*
X50963456Y16718216D01*
X50864853Y16570646D01*
X50739354Y16445147D01*
X50591784Y16346544D01*
X50427812Y16278624D01*
X50278512Y16248927D01*
X50253742Y16244000D01*
X50076258Y16244000D01*
X50051488Y16248927D01*
X49902188Y16278624D01*
X49738216Y16346544D01*
X49590646Y16445147D01*
X49465147Y16570646D01*
X49366544Y16718216D01*
X49298624Y16882188D01*
X49264000Y17056259D01*
X49264000Y17233741D01*
X49298624Y17407812D01*
X49366544Y17571784D01*
X49465147Y17719354D01*
X49590646Y17844853D01*
X49738216Y17943456D01*
X49902188Y18011376D01*
X50051488Y18041073D01*
X50076258Y18046000D01*
X50253742Y18046000D01*
X50278512Y18041073D01*
G37*
G36*
X9638512Y18041073D02*
G01*
X9787812Y18011376D01*
X9951784Y17943456D01*
X10099354Y17844853D01*
X10224853Y17719354D01*
X10323456Y17571784D01*
X10391376Y17407812D01*
X10426000Y17233741D01*
X10426000Y17056259D01*
X10391376Y16882188D01*
X10323456Y16718216D01*
X10224853Y16570646D01*
X10099354Y16445147D01*
X9951784Y16346544D01*
X9787812Y16278624D01*
X9638512Y16248927D01*
X9613742Y16244000D01*
X9436258Y16244000D01*
X9411488Y16248927D01*
X9262188Y16278624D01*
X9098216Y16346544D01*
X8950646Y16445147D01*
X8825147Y16570646D01*
X8726544Y16718216D01*
X8658624Y16882188D01*
X8624000Y17056259D01*
X8624000Y17233741D01*
X8658624Y17407812D01*
X8726544Y17571784D01*
X8825147Y17719354D01*
X8950646Y17844853D01*
X9098216Y17943456D01*
X9262188Y18011376D01*
X9411488Y18041073D01*
X9436258Y18046000D01*
X9613742Y18046000D01*
X9638512Y18041073D01*
G37*
G36*
X47738512Y18041073D02*
G01*
X47887812Y18011376D01*
X48051784Y17943456D01*
X48199354Y17844853D01*
X48324853Y17719354D01*
X48423456Y17571784D01*
X48491376Y17407812D01*
X48526000Y17233741D01*
X48526000Y17056259D01*
X48491376Y16882188D01*
X48423456Y16718216D01*
X48324853Y16570646D01*
X48199354Y16445147D01*
X48051784Y16346544D01*
X47887812Y16278624D01*
X47738512Y16248927D01*
X47713742Y16244000D01*
X47536258Y16244000D01*
X47511488Y16248927D01*
X47362188Y16278624D01*
X47198216Y16346544D01*
X47050646Y16445147D01*
X46925147Y16570646D01*
X46826544Y16718216D01*
X46758624Y16882188D01*
X46724000Y17056259D01*
X46724000Y17233741D01*
X46758624Y17407812D01*
X46826544Y17571784D01*
X46925147Y17719354D01*
X47050646Y17844853D01*
X47198216Y17943456D01*
X47362188Y18011376D01*
X47511488Y18041073D01*
X47536258Y18046000D01*
X47713742Y18046000D01*
X47738512Y18041073D01*
G37*
G36*
X12178512Y18041073D02*
G01*
X12327812Y18011376D01*
X12491784Y17943456D01*
X12639354Y17844853D01*
X12764853Y17719354D01*
X12863456Y17571784D01*
X12931376Y17407812D01*
X12966000Y17233741D01*
X12966000Y17056259D01*
X12931376Y16882188D01*
X12863456Y16718216D01*
X12764853Y16570646D01*
X12639354Y16445147D01*
X12491784Y16346544D01*
X12327812Y16278624D01*
X12178512Y16248927D01*
X12153742Y16244000D01*
X11976258Y16244000D01*
X11951488Y16248927D01*
X11802188Y16278624D01*
X11638216Y16346544D01*
X11490646Y16445147D01*
X11365147Y16570646D01*
X11266544Y16718216D01*
X11198624Y16882188D01*
X11164000Y17056259D01*
X11164000Y17233741D01*
X11198624Y17407812D01*
X11266544Y17571784D01*
X11365147Y17719354D01*
X11490646Y17844853D01*
X11638216Y17943456D01*
X11802188Y18011376D01*
X11951488Y18041073D01*
X11976258Y18046000D01*
X12153742Y18046000D01*
X12178512Y18041073D01*
G37*
G36*
X45198512Y18041073D02*
G01*
X45347812Y18011376D01*
X45511784Y17943456D01*
X45659354Y17844853D01*
X45784853Y17719354D01*
X45883456Y17571784D01*
X45951376Y17407812D01*
X45986000Y17233741D01*
X45986000Y17056259D01*
X45951376Y16882188D01*
X45883456Y16718216D01*
X45784853Y16570646D01*
X45659354Y16445147D01*
X45511784Y16346544D01*
X45347812Y16278624D01*
X45198512Y16248927D01*
X45173742Y16244000D01*
X44996258Y16244000D01*
X44971488Y16248927D01*
X44822188Y16278624D01*
X44658216Y16346544D01*
X44510646Y16445147D01*
X44385147Y16570646D01*
X44286544Y16718216D01*
X44218624Y16882188D01*
X44184000Y17056259D01*
X44184000Y17233741D01*
X44218624Y17407812D01*
X44286544Y17571784D01*
X44385147Y17719354D01*
X44510646Y17844853D01*
X44658216Y17943456D01*
X44822188Y18011376D01*
X44971488Y18041073D01*
X44996258Y18046000D01*
X45173742Y18046000D01*
X45198512Y18041073D01*
G37*
G36*
X14718512Y18041073D02*
G01*
X14867812Y18011376D01*
X15031784Y17943456D01*
X15179354Y17844853D01*
X15304853Y17719354D01*
X15403456Y17571784D01*
X15471376Y17407812D01*
X15506000Y17233741D01*
X15506000Y17056259D01*
X15471376Y16882188D01*
X15403456Y16718216D01*
X15304853Y16570646D01*
X15179354Y16445147D01*
X15031784Y16346544D01*
X14867812Y16278624D01*
X14718512Y16248927D01*
X14693742Y16244000D01*
X14516258Y16244000D01*
X14491488Y16248927D01*
X14342188Y16278624D01*
X14178216Y16346544D01*
X14030646Y16445147D01*
X13905147Y16570646D01*
X13806544Y16718216D01*
X13738624Y16882188D01*
X13704000Y17056259D01*
X13704000Y17233741D01*
X13738624Y17407812D01*
X13806544Y17571784D01*
X13905147Y17719354D01*
X14030646Y17844853D01*
X14178216Y17943456D01*
X14342188Y18011376D01*
X14491488Y18041073D01*
X14516258Y18046000D01*
X14693742Y18046000D01*
X14718512Y18041073D01*
G37*
G36*
X17258512Y18041073D02*
G01*
X17407812Y18011376D01*
X17571784Y17943456D01*
X17719354Y17844853D01*
X17844853Y17719354D01*
X17943456Y17571784D01*
X18011376Y17407812D01*
X18046000Y17233741D01*
X18046000Y17056259D01*
X18011376Y16882188D01*
X17943456Y16718216D01*
X17844853Y16570646D01*
X17719354Y16445147D01*
X17571784Y16346544D01*
X17407812Y16278624D01*
X17258512Y16248927D01*
X17233742Y16244000D01*
X17056258Y16244000D01*
X17031488Y16248927D01*
X16882188Y16278624D01*
X16718216Y16346544D01*
X16570646Y16445147D01*
X16445147Y16570646D01*
X16346544Y16718216D01*
X16278624Y16882188D01*
X16244000Y17056259D01*
X16244000Y17233741D01*
X16278624Y17407812D01*
X16346544Y17571784D01*
X16445147Y17719354D01*
X16570646Y17844853D01*
X16718216Y17943456D01*
X16882188Y18011376D01*
X17031488Y18041073D01*
X17056258Y18046000D01*
X17233742Y18046000D01*
X17258512Y18041073D01*
G37*
G36*
X40118512Y18041073D02*
G01*
X40267812Y18011376D01*
X40431784Y17943456D01*
X40579354Y17844853D01*
X40704853Y17719354D01*
X40803456Y17571784D01*
X40871376Y17407812D01*
X40906000Y17233741D01*
X40906000Y17056259D01*
X40871376Y16882188D01*
X40803456Y16718216D01*
X40704853Y16570646D01*
X40579354Y16445147D01*
X40431784Y16346544D01*
X40267812Y16278624D01*
X40118512Y16248927D01*
X40093742Y16244000D01*
X39916258Y16244000D01*
X39891488Y16248927D01*
X39742188Y16278624D01*
X39578216Y16346544D01*
X39430646Y16445147D01*
X39305147Y16570646D01*
X39206544Y16718216D01*
X39138624Y16882188D01*
X39104000Y17056259D01*
X39104000Y17233741D01*
X39138624Y17407812D01*
X39206544Y17571784D01*
X39305147Y17719354D01*
X39430646Y17844853D01*
X39578216Y17943456D01*
X39742188Y18011376D01*
X39891488Y18041073D01*
X39916258Y18046000D01*
X40093742Y18046000D01*
X40118512Y18041073D01*
G37*
G36*
X19798512Y18041073D02*
G01*
X19947812Y18011376D01*
X20111784Y17943456D01*
X20259354Y17844853D01*
X20384853Y17719354D01*
X20483456Y17571784D01*
X20551376Y17407812D01*
X20586000Y17233741D01*
X20586000Y17056259D01*
X20551376Y16882188D01*
X20483456Y16718216D01*
X20384853Y16570646D01*
X20259354Y16445147D01*
X20111784Y16346544D01*
X19947812Y16278624D01*
X19798512Y16248927D01*
X19773742Y16244000D01*
X19596258Y16244000D01*
X19571488Y16248927D01*
X19422188Y16278624D01*
X19258216Y16346544D01*
X19110646Y16445147D01*
X18985147Y16570646D01*
X18886544Y16718216D01*
X18818624Y16882188D01*
X18784000Y17056259D01*
X18784000Y17233741D01*
X18818624Y17407812D01*
X18886544Y17571784D01*
X18985147Y17719354D01*
X19110646Y17844853D01*
X19258216Y17943456D01*
X19422188Y18011376D01*
X19571488Y18041073D01*
X19596258Y18046000D01*
X19773742Y18046000D01*
X19798512Y18041073D01*
G37*
G36*
X37578512Y18041073D02*
G01*
X37727812Y18011376D01*
X37891784Y17943456D01*
X38039354Y17844853D01*
X38164853Y17719354D01*
X38263456Y17571784D01*
X38331376Y17407812D01*
X38366000Y17233741D01*
X38366000Y17056259D01*
X38331376Y16882188D01*
X38263456Y16718216D01*
X38164853Y16570646D01*
X38039354Y16445147D01*
X37891784Y16346544D01*
X37727812Y16278624D01*
X37578512Y16248927D01*
X37553742Y16244000D01*
X37376258Y16244000D01*
X37351488Y16248927D01*
X37202188Y16278624D01*
X37038216Y16346544D01*
X36890646Y16445147D01*
X36765147Y16570646D01*
X36666544Y16718216D01*
X36598624Y16882188D01*
X36564000Y17056259D01*
X36564000Y17233741D01*
X36598624Y17407812D01*
X36666544Y17571784D01*
X36765147Y17719354D01*
X36890646Y17844853D01*
X37038216Y17943456D01*
X37202188Y18011376D01*
X37351488Y18041073D01*
X37376258Y18046000D01*
X37553742Y18046000D01*
X37578512Y18041073D01*
G37*
G36*
X22338512Y18041073D02*
G01*
X22487812Y18011376D01*
X22651784Y17943456D01*
X22799354Y17844853D01*
X22924853Y17719354D01*
X23023456Y17571784D01*
X23091376Y17407812D01*
X23126000Y17233741D01*
X23126000Y17056259D01*
X23091376Y16882188D01*
X23023456Y16718216D01*
X22924853Y16570646D01*
X22799354Y16445147D01*
X22651784Y16346544D01*
X22487812Y16278624D01*
X22338512Y16248927D01*
X22313742Y16244000D01*
X22136258Y16244000D01*
X22111488Y16248927D01*
X21962188Y16278624D01*
X21798216Y16346544D01*
X21650646Y16445147D01*
X21525147Y16570646D01*
X21426544Y16718216D01*
X21358624Y16882188D01*
X21324000Y17056259D01*
X21324000Y17233741D01*
X21358624Y17407812D01*
X21426544Y17571784D01*
X21525147Y17719354D01*
X21650646Y17844853D01*
X21798216Y17943456D01*
X21962188Y18011376D01*
X22111488Y18041073D01*
X22136258Y18046000D01*
X22313742Y18046000D01*
X22338512Y18041073D01*
G37*
G36*
X35038512Y18041073D02*
G01*
X35187812Y18011376D01*
X35351784Y17943456D01*
X35499354Y17844853D01*
X35624853Y17719354D01*
X35723456Y17571784D01*
X35791376Y17407812D01*
X35826000Y17233741D01*
X35826000Y17056259D01*
X35791376Y16882188D01*
X35723456Y16718216D01*
X35624853Y16570646D01*
X35499354Y16445147D01*
X35351784Y16346544D01*
X35187812Y16278624D01*
X35038512Y16248927D01*
X35013742Y16244000D01*
X34836258Y16244000D01*
X34811488Y16248927D01*
X34662188Y16278624D01*
X34498216Y16346544D01*
X34350646Y16445147D01*
X34225147Y16570646D01*
X34126544Y16718216D01*
X34058624Y16882188D01*
X34024000Y17056259D01*
X34024000Y17233741D01*
X34058624Y17407812D01*
X34126544Y17571784D01*
X34225147Y17719354D01*
X34350646Y17844853D01*
X34498216Y17943456D01*
X34662188Y18011376D01*
X34811488Y18041073D01*
X34836258Y18046000D01*
X35013742Y18046000D01*
X35038512Y18041073D01*
G37*
G36*
X24878512Y18041073D02*
G01*
X25027812Y18011376D01*
X25191784Y17943456D01*
X25339354Y17844853D01*
X25464853Y17719354D01*
X25563456Y17571784D01*
X25631376Y17407812D01*
X25666000Y17233741D01*
X25666000Y17056259D01*
X25631376Y16882188D01*
X25563456Y16718216D01*
X25464853Y16570646D01*
X25339354Y16445147D01*
X25191784Y16346544D01*
X25027812Y16278624D01*
X24878512Y16248927D01*
X24853742Y16244000D01*
X24676258Y16244000D01*
X24651488Y16248927D01*
X24502188Y16278624D01*
X24338216Y16346544D01*
X24190646Y16445147D01*
X24065147Y16570646D01*
X23966544Y16718216D01*
X23898624Y16882188D01*
X23864000Y17056259D01*
X23864000Y17233741D01*
X23898624Y17407812D01*
X23966544Y17571784D01*
X24065147Y17719354D01*
X24190646Y17844853D01*
X24338216Y17943456D01*
X24502188Y18011376D01*
X24651488Y18041073D01*
X24676258Y18046000D01*
X24853742Y18046000D01*
X24878512Y18041073D01*
G37*
G36*
X32498512Y18041073D02*
G01*
X32647812Y18011376D01*
X32811784Y17943456D01*
X32959354Y17844853D01*
X33084853Y17719354D01*
X33183456Y17571784D01*
X33251376Y17407812D01*
X33286000Y17233741D01*
X33286000Y17056259D01*
X33251376Y16882188D01*
X33183456Y16718216D01*
X33084853Y16570646D01*
X32959354Y16445147D01*
X32811784Y16346544D01*
X32647812Y16278624D01*
X32498512Y16248927D01*
X32473742Y16244000D01*
X32296258Y16244000D01*
X32271488Y16248927D01*
X32122188Y16278624D01*
X31958216Y16346544D01*
X31810646Y16445147D01*
X31685147Y16570646D01*
X31586544Y16718216D01*
X31518624Y16882188D01*
X31484000Y17056259D01*
X31484000Y17233741D01*
X31518624Y17407812D01*
X31586544Y17571784D01*
X31685147Y17719354D01*
X31810646Y17844853D01*
X31958216Y17943456D01*
X32122188Y18011376D01*
X32271488Y18041073D01*
X32296258Y18046000D01*
X32473742Y18046000D01*
X32498512Y18041073D01*
G37*
G36*
X27418512Y18041073D02*
G01*
X27567812Y18011376D01*
X27731784Y17943456D01*
X27879354Y17844853D01*
X28004853Y17719354D01*
X28103456Y17571784D01*
X28171376Y17407812D01*
X28206000Y17233741D01*
X28206000Y17056259D01*
X28171376Y16882188D01*
X28103456Y16718216D01*
X28004853Y16570646D01*
X27879354Y16445147D01*
X27731784Y16346544D01*
X27567812Y16278624D01*
X27418512Y16248927D01*
X27393742Y16244000D01*
X27216258Y16244000D01*
X27191488Y16248927D01*
X27042188Y16278624D01*
X26878216Y16346544D01*
X26730646Y16445147D01*
X26605147Y16570646D01*
X26506544Y16718216D01*
X26438624Y16882188D01*
X26404000Y17056259D01*
X26404000Y17233741D01*
X26438624Y17407812D01*
X26506544Y17571784D01*
X26605147Y17719354D01*
X26730646Y17844853D01*
X26878216Y17943456D01*
X27042188Y18011376D01*
X27191488Y18041073D01*
X27216258Y18046000D01*
X27393742Y18046000D01*
X27418512Y18041073D01*
G37*
G36*
X42658512Y18041073D02*
G01*
X42807812Y18011376D01*
X42971784Y17943456D01*
X43119354Y17844853D01*
X43244853Y17719354D01*
X43343456Y17571784D01*
X43411376Y17407812D01*
X43446000Y17233741D01*
X43446000Y17056259D01*
X43411376Y16882188D01*
X43343456Y16718216D01*
X43244853Y16570646D01*
X43119354Y16445147D01*
X42971784Y16346544D01*
X42807812Y16278624D01*
X42658512Y16248927D01*
X42633742Y16244000D01*
X42456258Y16244000D01*
X42431488Y16248927D01*
X42282188Y16278624D01*
X42118216Y16346544D01*
X41970646Y16445147D01*
X41845147Y16570646D01*
X41746544Y16718216D01*
X41678624Y16882188D01*
X41644000Y17056259D01*
X41644000Y17233741D01*
X41678624Y17407812D01*
X41746544Y17571784D01*
X41845147Y17719354D01*
X41970646Y17844853D01*
X42118216Y17943456D01*
X42282188Y18011376D01*
X42431488Y18041073D01*
X42456258Y18046000D01*
X42633742Y18046000D01*
X42658512Y18041073D01*
G37*
M02*
