G04 #@! TF.GenerationSoftware,KiCad,Pcbnew,(5.1.5)-3*
G04 #@! TF.CreationDate,2020-01-11T16:24:58-08:00*
G04 #@! TF.ProjectId,frame_corners,6672616d-655f-4636-9f72-6e6572732e6b,rev?*
G04 #@! TF.SameCoordinates,PXe8fce300PYe19b7798*
G04 #@! TF.FileFunction,Copper,L2,Bot*
G04 #@! TF.FilePolarity,Positive*
%FSLAX46Y46*%
G04 Gerber Fmt 4.6, Leading zero omitted, Abs format (unit mm)*
G04 Created by KiCad (PCBNEW (5.1.5)-3) date 2020-01-11 16:24:58*
%MOMM*%
%LPD*%
G04 APERTURE LIST*
%ADD10O,1.700000X1.700000*%
%ADD11R,1.700000X1.700000*%
%ADD12C,0.800000*%
%ADD13C,0.250000*%
%ADD14C,0.254000*%
G04 APERTURE END LIST*
D10*
X32385000Y6350000D03*
X32385000Y3810000D03*
X34925000Y6350000D03*
X34925000Y3810000D03*
X37465000Y6350000D03*
X37465000Y3810000D03*
X40005000Y6350000D03*
X40005000Y3810000D03*
X42545000Y6350000D03*
X42545000Y3810000D03*
X45085000Y6350000D03*
X45085000Y3810000D03*
X47625000Y6350000D03*
X47625000Y3810000D03*
X50165000Y6350000D03*
D11*
X50165000Y3810000D03*
D10*
X1905000Y6350000D03*
X1905000Y3810000D03*
X4445000Y6350000D03*
X4445000Y3810000D03*
X6985000Y6350000D03*
X6985000Y3810000D03*
X9525000Y6350000D03*
X9525000Y3810000D03*
X12065000Y6350000D03*
X12065000Y3810000D03*
X14605000Y6350000D03*
X14605000Y3810000D03*
X17145000Y6350000D03*
X17145000Y3810000D03*
X19685000Y6350000D03*
D11*
X19685000Y3810000D03*
D10*
X50165000Y17145000D03*
X50165000Y14605000D03*
X47625000Y17145000D03*
X47625000Y14605000D03*
X45085000Y17145000D03*
X45085000Y14605000D03*
X42545000Y17145000D03*
X42545000Y14605000D03*
X40005000Y17145000D03*
X40005000Y14605000D03*
X37465000Y17145000D03*
X37465000Y14605000D03*
X34925000Y17145000D03*
X34925000Y14605000D03*
X32385000Y17145000D03*
X32385000Y14605000D03*
X29845000Y17145000D03*
X29845000Y14605000D03*
X27305000Y17145000D03*
X27305000Y14605000D03*
X24765000Y17145000D03*
X24765000Y14605000D03*
X22225000Y17145000D03*
X22225000Y14605000D03*
X19685000Y17145000D03*
X19685000Y14605000D03*
X17145000Y17145000D03*
X17145000Y14605000D03*
X14605000Y17145000D03*
X14605000Y14605000D03*
X12065000Y17145000D03*
X12065000Y14605000D03*
X9525000Y17145000D03*
X9525000Y14605000D03*
X6985000Y17145000D03*
X6985000Y14605000D03*
X4445000Y17145000D03*
X4445000Y14605000D03*
X1905000Y17145000D03*
D11*
X1905000Y14605000D03*
D12*
X24130000Y3175000D03*
X26035000Y3175000D03*
X36195000Y8255000D03*
X20955000Y10160000D03*
D13*
X41695001Y5500001D02*
X42545000Y6350000D01*
X41369999Y5174999D02*
X41695001Y5500001D01*
X13240001Y5174999D02*
X41369999Y5174999D01*
X12065000Y6350000D02*
X13240001Y5174999D01*
X25400000Y1905000D02*
X25400009Y1904991D01*
X38227000Y2032000D02*
X40005000Y3810000D01*
X25273000Y2032000D02*
X38227000Y2032000D01*
X24130000Y3175000D02*
X25273000Y2032000D01*
X40005000Y6350000D02*
X38829999Y7525001D01*
X10700001Y7525001D02*
X10374999Y7199999D01*
X20885412Y7525001D02*
X20435401Y7975012D01*
X20435401Y7975012D02*
X18133601Y7975012D01*
X18133601Y7975012D02*
X17683591Y7525001D01*
X38829999Y7525001D02*
X20885412Y7525001D01*
X17683591Y7525001D02*
X10700001Y7525001D01*
X10374999Y7199999D02*
X9525000Y6350000D01*
X36195000Y2540000D02*
X37465000Y3810000D01*
X26670000Y2540000D02*
X36195000Y2540000D01*
X26035000Y3175000D02*
X26670000Y2540000D01*
X35629315Y8255000D02*
X36195000Y8255000D01*
X6985000Y6350000D02*
X9155020Y8520020D01*
X9155020Y8520020D02*
X35364295Y8520020D01*
X35364295Y8520020D02*
X35629315Y8255000D01*
X20955000Y15875000D02*
X19685000Y17145000D01*
X20955000Y10160000D02*
X20955000Y15875000D01*
X18320001Y7525001D02*
X17994999Y7199999D01*
X21424002Y6350000D02*
X20249001Y7525001D01*
X32385000Y6350000D02*
X21424002Y6350000D01*
X20249001Y7525001D02*
X18320001Y7525001D01*
X17994999Y7199999D02*
X17145000Y6350000D01*
X20389315Y10160000D02*
X20955000Y10160000D01*
X4512919Y10160000D02*
X20389315Y10160000D01*
X1905000Y7552081D02*
X4512919Y10160000D01*
X1905000Y6350000D02*
X1905000Y7552081D01*
X47625000Y7552081D02*
X47625000Y14605000D01*
X47625000Y6350000D02*
X47625000Y7552081D01*
X47625000Y14605000D02*
X47625000Y17145000D01*
D14*
G36*
X30943519Y6706891D02*
G01*
X31064186Y6477000D01*
X32258000Y6477000D01*
X32258000Y6497000D01*
X32512000Y6497000D01*
X32512000Y6477000D01*
X32532000Y6477000D01*
X32532000Y6223000D01*
X32512000Y6223000D01*
X32512000Y6203000D01*
X32258000Y6203000D01*
X32258000Y6223000D01*
X31064186Y6223000D01*
X30943519Y5993109D01*
X30964132Y5934999D01*
X21116544Y5934999D01*
X21170000Y6203740D01*
X21170000Y6496260D01*
X21116544Y6765001D01*
X30964132Y6765001D01*
X30943519Y6706891D01*
G37*
X30943519Y6706891D02*
X31064186Y6477000D01*
X32258000Y6477000D01*
X32258000Y6497000D01*
X32512000Y6497000D01*
X32512000Y6477000D01*
X32532000Y6477000D01*
X32532000Y6223000D01*
X32512000Y6223000D01*
X32512000Y6203000D01*
X32258000Y6203000D01*
X32258000Y6223000D01*
X31064186Y6223000D01*
X30943519Y5993109D01*
X30964132Y5934999D01*
X21116544Y5934999D01*
X21170000Y6203740D01*
X21170000Y6496260D01*
X21116544Y6765001D01*
X30964132Y6765001D01*
X30943519Y6706891D01*
G36*
X47752000Y17272000D02*
G01*
X47772000Y17272000D01*
X47772000Y17018000D01*
X47752000Y17018000D01*
X47752000Y14732000D01*
X47772000Y14732000D01*
X47772000Y14478000D01*
X47752000Y14478000D01*
X47752000Y13284845D01*
X47981890Y13163524D01*
X48129099Y13208175D01*
X48391920Y13333359D01*
X48625269Y13507412D01*
X48820178Y13723645D01*
X48889805Y13840534D01*
X49011525Y13658368D01*
X49218368Y13451525D01*
X49461589Y13289010D01*
X49731842Y13177068D01*
X50018740Y13120000D01*
X50311260Y13120000D01*
X50598158Y13177068D01*
X50868411Y13289010D01*
X51111632Y13451525D01*
X51318475Y13658368D01*
X51410000Y13795345D01*
X51410001Y7159654D01*
X51318475Y7296632D01*
X51111632Y7503475D01*
X50868411Y7665990D01*
X50598158Y7777932D01*
X50311260Y7835000D01*
X50018740Y7835000D01*
X49731842Y7777932D01*
X49461589Y7665990D01*
X49218368Y7503475D01*
X49011525Y7296632D01*
X48889805Y7114466D01*
X48820178Y7231355D01*
X48625269Y7447588D01*
X48391920Y7621641D01*
X48129099Y7746825D01*
X47981890Y7791476D01*
X47752000Y7670155D01*
X47752000Y6477000D01*
X47772000Y6477000D01*
X47772000Y6223000D01*
X47752000Y6223000D01*
X47752000Y6203000D01*
X47498000Y6203000D01*
X47498000Y6223000D01*
X47478000Y6223000D01*
X47478000Y6477000D01*
X47498000Y6477000D01*
X47498000Y7670155D01*
X47268110Y7791476D01*
X47120901Y7746825D01*
X46858080Y7621641D01*
X46624731Y7447588D01*
X46429822Y7231355D01*
X46360195Y7114466D01*
X46238475Y7296632D01*
X46031632Y7503475D01*
X45788411Y7665990D01*
X45518158Y7777932D01*
X45231260Y7835000D01*
X44938740Y7835000D01*
X44651842Y7777932D01*
X44381589Y7665990D01*
X44138368Y7503475D01*
X43931525Y7296632D01*
X43815000Y7122240D01*
X43698475Y7296632D01*
X43491632Y7503475D01*
X43248411Y7665990D01*
X42978158Y7777932D01*
X42691260Y7835000D01*
X42398740Y7835000D01*
X42111842Y7777932D01*
X41841589Y7665990D01*
X41598368Y7503475D01*
X41391525Y7296632D01*
X41275000Y7122240D01*
X41158475Y7296632D01*
X40951632Y7503475D01*
X40708411Y7665990D01*
X40438158Y7777932D01*
X40151260Y7835000D01*
X39858740Y7835000D01*
X39638592Y7791209D01*
X39393803Y8035998D01*
X39370000Y8065002D01*
X39254275Y8159975D01*
X39122246Y8230547D01*
X38978985Y8274004D01*
X38867332Y8285001D01*
X38867321Y8285001D01*
X38829999Y8288677D01*
X38792677Y8285001D01*
X37230000Y8285001D01*
X37230000Y8356939D01*
X37190226Y8556898D01*
X37112205Y8745256D01*
X36998937Y8914774D01*
X36854774Y9058937D01*
X36685256Y9172205D01*
X36496898Y9250226D01*
X36296939Y9290000D01*
X36093061Y9290000D01*
X35893102Y9250226D01*
X35733831Y9184253D01*
X35656542Y9225566D01*
X35513281Y9269023D01*
X35401628Y9280020D01*
X35401617Y9280020D01*
X35364295Y9283696D01*
X35326973Y9280020D01*
X9192345Y9280020D01*
X9155020Y9283696D01*
X9117695Y9280020D01*
X9117687Y9280020D01*
X9006034Y9269023D01*
X8862773Y9225566D01*
X8730744Y9154994D01*
X8615019Y9060021D01*
X8591221Y9031023D01*
X7351408Y7791209D01*
X7131260Y7835000D01*
X6838740Y7835000D01*
X6551842Y7777932D01*
X6281589Y7665990D01*
X6038368Y7503475D01*
X5831525Y7296632D01*
X5715000Y7122240D01*
X5598475Y7296632D01*
X5391632Y7503475D01*
X5148411Y7665990D01*
X4878158Y7777932D01*
X4591260Y7835000D01*
X4298740Y7835000D01*
X4011842Y7777932D01*
X3741589Y7665990D01*
X3498368Y7503475D01*
X3291525Y7296632D01*
X3169805Y7114466D01*
X3100178Y7231355D01*
X2905269Y7447588D01*
X2671920Y7621641D01*
X2409099Y7746825D01*
X2261890Y7791476D01*
X2032000Y7670155D01*
X2032000Y6477000D01*
X2052000Y6477000D01*
X2052000Y6223000D01*
X2032000Y6223000D01*
X2032000Y6203000D01*
X1778000Y6203000D01*
X1778000Y6223000D01*
X1758000Y6223000D01*
X1758000Y6477000D01*
X1778000Y6477000D01*
X1778000Y7670155D01*
X1548110Y7791476D01*
X1400901Y7746825D01*
X1138080Y7621641D01*
X904731Y7447588D01*
X709822Y7231355D01*
X660000Y7147715D01*
X660000Y13257705D01*
X700506Y13224463D01*
X810820Y13165498D01*
X930518Y13129188D01*
X1055000Y13116928D01*
X2755000Y13116928D01*
X2879482Y13129188D01*
X2999180Y13165498D01*
X3109494Y13224463D01*
X3206185Y13303815D01*
X3285537Y13400506D01*
X3344502Y13510820D01*
X3366513Y13583380D01*
X3498368Y13451525D01*
X3741589Y13289010D01*
X4011842Y13177068D01*
X4298740Y13120000D01*
X4591260Y13120000D01*
X4878158Y13177068D01*
X5148411Y13289010D01*
X5391632Y13451525D01*
X5598475Y13658368D01*
X5715000Y13832760D01*
X5831525Y13658368D01*
X6038368Y13451525D01*
X6281589Y13289010D01*
X6551842Y13177068D01*
X6838740Y13120000D01*
X7131260Y13120000D01*
X7418158Y13177068D01*
X7688411Y13289010D01*
X7931632Y13451525D01*
X8138475Y13658368D01*
X8255000Y13832760D01*
X8371525Y13658368D01*
X8578368Y13451525D01*
X8821589Y13289010D01*
X9091842Y13177068D01*
X9378740Y13120000D01*
X9671260Y13120000D01*
X9958158Y13177068D01*
X10228411Y13289010D01*
X10471632Y13451525D01*
X10678475Y13658368D01*
X10795000Y13832760D01*
X10911525Y13658368D01*
X11118368Y13451525D01*
X11361589Y13289010D01*
X11631842Y13177068D01*
X11918740Y13120000D01*
X12211260Y13120000D01*
X12498158Y13177068D01*
X12768411Y13289010D01*
X13011632Y13451525D01*
X13218475Y13658368D01*
X13335000Y13832760D01*
X13451525Y13658368D01*
X13658368Y13451525D01*
X13901589Y13289010D01*
X14171842Y13177068D01*
X14458740Y13120000D01*
X14751260Y13120000D01*
X15038158Y13177068D01*
X15308411Y13289010D01*
X15551632Y13451525D01*
X15758475Y13658368D01*
X15875000Y13832760D01*
X15991525Y13658368D01*
X16198368Y13451525D01*
X16441589Y13289010D01*
X16711842Y13177068D01*
X16998740Y13120000D01*
X17291260Y13120000D01*
X17578158Y13177068D01*
X17848411Y13289010D01*
X18091632Y13451525D01*
X18298475Y13658368D01*
X18415000Y13832760D01*
X18531525Y13658368D01*
X18738368Y13451525D01*
X18981589Y13289010D01*
X19251842Y13177068D01*
X19538740Y13120000D01*
X19831260Y13120000D01*
X20118158Y13177068D01*
X20388411Y13289010D01*
X20631632Y13451525D01*
X20838475Y13658368D01*
X20955000Y13832760D01*
X21071525Y13658368D01*
X21278368Y13451525D01*
X21521589Y13289010D01*
X21791842Y13177068D01*
X22078740Y13120000D01*
X22371260Y13120000D01*
X22658158Y13177068D01*
X22928411Y13289010D01*
X23171632Y13451525D01*
X23378475Y13658368D01*
X23495000Y13832760D01*
X23611525Y13658368D01*
X23818368Y13451525D01*
X24061589Y13289010D01*
X24331842Y13177068D01*
X24618740Y13120000D01*
X24911260Y13120000D01*
X25198158Y13177068D01*
X25468411Y13289010D01*
X25711632Y13451525D01*
X25918475Y13658368D01*
X26035000Y13832760D01*
X26151525Y13658368D01*
X26358368Y13451525D01*
X26601589Y13289010D01*
X26871842Y13177068D01*
X27158740Y13120000D01*
X27451260Y13120000D01*
X27738158Y13177068D01*
X28008411Y13289010D01*
X28251632Y13451525D01*
X28458475Y13658368D01*
X28575000Y13832760D01*
X28691525Y13658368D01*
X28898368Y13451525D01*
X29141589Y13289010D01*
X29411842Y13177068D01*
X29698740Y13120000D01*
X29991260Y13120000D01*
X30278158Y13177068D01*
X30548411Y13289010D01*
X30791632Y13451525D01*
X30998475Y13658368D01*
X31115000Y13832760D01*
X31231525Y13658368D01*
X31438368Y13451525D01*
X31681589Y13289010D01*
X31951842Y13177068D01*
X32238740Y13120000D01*
X32531260Y13120000D01*
X32818158Y13177068D01*
X33088411Y13289010D01*
X33331632Y13451525D01*
X33538475Y13658368D01*
X33655000Y13832760D01*
X33771525Y13658368D01*
X33978368Y13451525D01*
X34221589Y13289010D01*
X34491842Y13177068D01*
X34778740Y13120000D01*
X35071260Y13120000D01*
X35358158Y13177068D01*
X35628411Y13289010D01*
X35871632Y13451525D01*
X36078475Y13658368D01*
X36195000Y13832760D01*
X36311525Y13658368D01*
X36518368Y13451525D01*
X36761589Y13289010D01*
X37031842Y13177068D01*
X37318740Y13120000D01*
X37611260Y13120000D01*
X37898158Y13177068D01*
X38168411Y13289010D01*
X38411632Y13451525D01*
X38618475Y13658368D01*
X38735000Y13832760D01*
X38851525Y13658368D01*
X39058368Y13451525D01*
X39301589Y13289010D01*
X39571842Y13177068D01*
X39858740Y13120000D01*
X40151260Y13120000D01*
X40438158Y13177068D01*
X40708411Y13289010D01*
X40951632Y13451525D01*
X41158475Y13658368D01*
X41275000Y13832760D01*
X41391525Y13658368D01*
X41598368Y13451525D01*
X41841589Y13289010D01*
X42111842Y13177068D01*
X42398740Y13120000D01*
X42691260Y13120000D01*
X42978158Y13177068D01*
X43248411Y13289010D01*
X43491632Y13451525D01*
X43698475Y13658368D01*
X43815000Y13832760D01*
X43931525Y13658368D01*
X44138368Y13451525D01*
X44381589Y13289010D01*
X44651842Y13177068D01*
X44938740Y13120000D01*
X45231260Y13120000D01*
X45518158Y13177068D01*
X45788411Y13289010D01*
X46031632Y13451525D01*
X46238475Y13658368D01*
X46360195Y13840534D01*
X46429822Y13723645D01*
X46624731Y13507412D01*
X46858080Y13333359D01*
X47120901Y13208175D01*
X47268110Y13163524D01*
X47498000Y13284845D01*
X47498000Y14478000D01*
X47478000Y14478000D01*
X47478000Y14732000D01*
X47498000Y14732000D01*
X47498000Y17018000D01*
X47478000Y17018000D01*
X47478000Y17272000D01*
X47498000Y17272000D01*
X47498000Y17292000D01*
X47752000Y17292000D01*
X47752000Y17272000D01*
G37*
X47752000Y17272000D02*
X47772000Y17272000D01*
X47772000Y17018000D01*
X47752000Y17018000D01*
X47752000Y14732000D01*
X47772000Y14732000D01*
X47772000Y14478000D01*
X47752000Y14478000D01*
X47752000Y13284845D01*
X47981890Y13163524D01*
X48129099Y13208175D01*
X48391920Y13333359D01*
X48625269Y13507412D01*
X48820178Y13723645D01*
X48889805Y13840534D01*
X49011525Y13658368D01*
X49218368Y13451525D01*
X49461589Y13289010D01*
X49731842Y13177068D01*
X50018740Y13120000D01*
X50311260Y13120000D01*
X50598158Y13177068D01*
X50868411Y13289010D01*
X51111632Y13451525D01*
X51318475Y13658368D01*
X51410000Y13795345D01*
X51410001Y7159654D01*
X51318475Y7296632D01*
X51111632Y7503475D01*
X50868411Y7665990D01*
X50598158Y7777932D01*
X50311260Y7835000D01*
X50018740Y7835000D01*
X49731842Y7777932D01*
X49461589Y7665990D01*
X49218368Y7503475D01*
X49011525Y7296632D01*
X48889805Y7114466D01*
X48820178Y7231355D01*
X48625269Y7447588D01*
X48391920Y7621641D01*
X48129099Y7746825D01*
X47981890Y7791476D01*
X47752000Y7670155D01*
X47752000Y6477000D01*
X47772000Y6477000D01*
X47772000Y6223000D01*
X47752000Y6223000D01*
X47752000Y6203000D01*
X47498000Y6203000D01*
X47498000Y6223000D01*
X47478000Y6223000D01*
X47478000Y6477000D01*
X47498000Y6477000D01*
X47498000Y7670155D01*
X47268110Y7791476D01*
X47120901Y7746825D01*
X46858080Y7621641D01*
X46624731Y7447588D01*
X46429822Y7231355D01*
X46360195Y7114466D01*
X46238475Y7296632D01*
X46031632Y7503475D01*
X45788411Y7665990D01*
X45518158Y7777932D01*
X45231260Y7835000D01*
X44938740Y7835000D01*
X44651842Y7777932D01*
X44381589Y7665990D01*
X44138368Y7503475D01*
X43931525Y7296632D01*
X43815000Y7122240D01*
X43698475Y7296632D01*
X43491632Y7503475D01*
X43248411Y7665990D01*
X42978158Y7777932D01*
X42691260Y7835000D01*
X42398740Y7835000D01*
X42111842Y7777932D01*
X41841589Y7665990D01*
X41598368Y7503475D01*
X41391525Y7296632D01*
X41275000Y7122240D01*
X41158475Y7296632D01*
X40951632Y7503475D01*
X40708411Y7665990D01*
X40438158Y7777932D01*
X40151260Y7835000D01*
X39858740Y7835000D01*
X39638592Y7791209D01*
X39393803Y8035998D01*
X39370000Y8065002D01*
X39254275Y8159975D01*
X39122246Y8230547D01*
X38978985Y8274004D01*
X38867332Y8285001D01*
X38867321Y8285001D01*
X38829999Y8288677D01*
X38792677Y8285001D01*
X37230000Y8285001D01*
X37230000Y8356939D01*
X37190226Y8556898D01*
X37112205Y8745256D01*
X36998937Y8914774D01*
X36854774Y9058937D01*
X36685256Y9172205D01*
X36496898Y9250226D01*
X36296939Y9290000D01*
X36093061Y9290000D01*
X35893102Y9250226D01*
X35733831Y9184253D01*
X35656542Y9225566D01*
X35513281Y9269023D01*
X35401628Y9280020D01*
X35401617Y9280020D01*
X35364295Y9283696D01*
X35326973Y9280020D01*
X9192345Y9280020D01*
X9155020Y9283696D01*
X9117695Y9280020D01*
X9117687Y9280020D01*
X9006034Y9269023D01*
X8862773Y9225566D01*
X8730744Y9154994D01*
X8615019Y9060021D01*
X8591221Y9031023D01*
X7351408Y7791209D01*
X7131260Y7835000D01*
X6838740Y7835000D01*
X6551842Y7777932D01*
X6281589Y7665990D01*
X6038368Y7503475D01*
X5831525Y7296632D01*
X5715000Y7122240D01*
X5598475Y7296632D01*
X5391632Y7503475D01*
X5148411Y7665990D01*
X4878158Y7777932D01*
X4591260Y7835000D01*
X4298740Y7835000D01*
X4011842Y7777932D01*
X3741589Y7665990D01*
X3498368Y7503475D01*
X3291525Y7296632D01*
X3169805Y7114466D01*
X3100178Y7231355D01*
X2905269Y7447588D01*
X2671920Y7621641D01*
X2409099Y7746825D01*
X2261890Y7791476D01*
X2032000Y7670155D01*
X2032000Y6477000D01*
X2052000Y6477000D01*
X2052000Y6223000D01*
X2032000Y6223000D01*
X2032000Y6203000D01*
X1778000Y6203000D01*
X1778000Y6223000D01*
X1758000Y6223000D01*
X1758000Y6477000D01*
X1778000Y6477000D01*
X1778000Y7670155D01*
X1548110Y7791476D01*
X1400901Y7746825D01*
X1138080Y7621641D01*
X904731Y7447588D01*
X709822Y7231355D01*
X660000Y7147715D01*
X660000Y13257705D01*
X700506Y13224463D01*
X810820Y13165498D01*
X930518Y13129188D01*
X1055000Y13116928D01*
X2755000Y13116928D01*
X2879482Y13129188D01*
X2999180Y13165498D01*
X3109494Y13224463D01*
X3206185Y13303815D01*
X3285537Y13400506D01*
X3344502Y13510820D01*
X3366513Y13583380D01*
X3498368Y13451525D01*
X3741589Y13289010D01*
X4011842Y13177068D01*
X4298740Y13120000D01*
X4591260Y13120000D01*
X4878158Y13177068D01*
X5148411Y13289010D01*
X5391632Y13451525D01*
X5598475Y13658368D01*
X5715000Y13832760D01*
X5831525Y13658368D01*
X6038368Y13451525D01*
X6281589Y13289010D01*
X6551842Y13177068D01*
X6838740Y13120000D01*
X7131260Y13120000D01*
X7418158Y13177068D01*
X7688411Y13289010D01*
X7931632Y13451525D01*
X8138475Y13658368D01*
X8255000Y13832760D01*
X8371525Y13658368D01*
X8578368Y13451525D01*
X8821589Y13289010D01*
X9091842Y13177068D01*
X9378740Y13120000D01*
X9671260Y13120000D01*
X9958158Y13177068D01*
X10228411Y13289010D01*
X10471632Y13451525D01*
X10678475Y13658368D01*
X10795000Y13832760D01*
X10911525Y13658368D01*
X11118368Y13451525D01*
X11361589Y13289010D01*
X11631842Y13177068D01*
X11918740Y13120000D01*
X12211260Y13120000D01*
X12498158Y13177068D01*
X12768411Y13289010D01*
X13011632Y13451525D01*
X13218475Y13658368D01*
X13335000Y13832760D01*
X13451525Y13658368D01*
X13658368Y13451525D01*
X13901589Y13289010D01*
X14171842Y13177068D01*
X14458740Y13120000D01*
X14751260Y13120000D01*
X15038158Y13177068D01*
X15308411Y13289010D01*
X15551632Y13451525D01*
X15758475Y13658368D01*
X15875000Y13832760D01*
X15991525Y13658368D01*
X16198368Y13451525D01*
X16441589Y13289010D01*
X16711842Y13177068D01*
X16998740Y13120000D01*
X17291260Y13120000D01*
X17578158Y13177068D01*
X17848411Y13289010D01*
X18091632Y13451525D01*
X18298475Y13658368D01*
X18415000Y13832760D01*
X18531525Y13658368D01*
X18738368Y13451525D01*
X18981589Y13289010D01*
X19251842Y13177068D01*
X19538740Y13120000D01*
X19831260Y13120000D01*
X20118158Y13177068D01*
X20388411Y13289010D01*
X20631632Y13451525D01*
X20838475Y13658368D01*
X20955000Y13832760D01*
X21071525Y13658368D01*
X21278368Y13451525D01*
X21521589Y13289010D01*
X21791842Y13177068D01*
X22078740Y13120000D01*
X22371260Y13120000D01*
X22658158Y13177068D01*
X22928411Y13289010D01*
X23171632Y13451525D01*
X23378475Y13658368D01*
X23495000Y13832760D01*
X23611525Y13658368D01*
X23818368Y13451525D01*
X24061589Y13289010D01*
X24331842Y13177068D01*
X24618740Y13120000D01*
X24911260Y13120000D01*
X25198158Y13177068D01*
X25468411Y13289010D01*
X25711632Y13451525D01*
X25918475Y13658368D01*
X26035000Y13832760D01*
X26151525Y13658368D01*
X26358368Y13451525D01*
X26601589Y13289010D01*
X26871842Y13177068D01*
X27158740Y13120000D01*
X27451260Y13120000D01*
X27738158Y13177068D01*
X28008411Y13289010D01*
X28251632Y13451525D01*
X28458475Y13658368D01*
X28575000Y13832760D01*
X28691525Y13658368D01*
X28898368Y13451525D01*
X29141589Y13289010D01*
X29411842Y13177068D01*
X29698740Y13120000D01*
X29991260Y13120000D01*
X30278158Y13177068D01*
X30548411Y13289010D01*
X30791632Y13451525D01*
X30998475Y13658368D01*
X31115000Y13832760D01*
X31231525Y13658368D01*
X31438368Y13451525D01*
X31681589Y13289010D01*
X31951842Y13177068D01*
X32238740Y13120000D01*
X32531260Y13120000D01*
X32818158Y13177068D01*
X33088411Y13289010D01*
X33331632Y13451525D01*
X33538475Y13658368D01*
X33655000Y13832760D01*
X33771525Y13658368D01*
X33978368Y13451525D01*
X34221589Y13289010D01*
X34491842Y13177068D01*
X34778740Y13120000D01*
X35071260Y13120000D01*
X35358158Y13177068D01*
X35628411Y13289010D01*
X35871632Y13451525D01*
X36078475Y13658368D01*
X36195000Y13832760D01*
X36311525Y13658368D01*
X36518368Y13451525D01*
X36761589Y13289010D01*
X37031842Y13177068D01*
X37318740Y13120000D01*
X37611260Y13120000D01*
X37898158Y13177068D01*
X38168411Y13289010D01*
X38411632Y13451525D01*
X38618475Y13658368D01*
X38735000Y13832760D01*
X38851525Y13658368D01*
X39058368Y13451525D01*
X39301589Y13289010D01*
X39571842Y13177068D01*
X39858740Y13120000D01*
X40151260Y13120000D01*
X40438158Y13177068D01*
X40708411Y13289010D01*
X40951632Y13451525D01*
X41158475Y13658368D01*
X41275000Y13832760D01*
X41391525Y13658368D01*
X41598368Y13451525D01*
X41841589Y13289010D01*
X42111842Y13177068D01*
X42398740Y13120000D01*
X42691260Y13120000D01*
X42978158Y13177068D01*
X43248411Y13289010D01*
X43491632Y13451525D01*
X43698475Y13658368D01*
X43815000Y13832760D01*
X43931525Y13658368D01*
X44138368Y13451525D01*
X44381589Y13289010D01*
X44651842Y13177068D01*
X44938740Y13120000D01*
X45231260Y13120000D01*
X45518158Y13177068D01*
X45788411Y13289010D01*
X46031632Y13451525D01*
X46238475Y13658368D01*
X46360195Y13840534D01*
X46429822Y13723645D01*
X46624731Y13507412D01*
X46858080Y13333359D01*
X47120901Y13208175D01*
X47268110Y13163524D01*
X47498000Y13284845D01*
X47498000Y14478000D01*
X47478000Y14478000D01*
X47478000Y14732000D01*
X47498000Y14732000D01*
X47498000Y17018000D01*
X47478000Y17018000D01*
X47478000Y17272000D01*
X47498000Y17272000D01*
X47498000Y17292000D01*
X47752000Y17292000D01*
X47752000Y17272000D01*
G36*
X17272000Y6477000D02*
G01*
X17292000Y6477000D01*
X17292000Y6223000D01*
X17272000Y6223000D01*
X17272000Y6203000D01*
X17018000Y6203000D01*
X17018000Y6223000D01*
X16998000Y6223000D01*
X16998000Y6477000D01*
X17018000Y6477000D01*
X17018000Y6497000D01*
X17272000Y6497000D01*
X17272000Y6477000D01*
G37*
X17272000Y6477000D02*
X17292000Y6477000D01*
X17292000Y6223000D01*
X17272000Y6223000D01*
X17272000Y6203000D01*
X17018000Y6203000D01*
X17018000Y6223000D01*
X16998000Y6223000D01*
X16998000Y6477000D01*
X17018000Y6477000D01*
X17018000Y6497000D01*
X17272000Y6497000D01*
X17272000Y6477000D01*
G36*
X21071525Y16198368D02*
G01*
X21278368Y15991525D01*
X21452760Y15875000D01*
X21278368Y15758475D01*
X21071525Y15551632D01*
X20955000Y15377240D01*
X20838475Y15551632D01*
X20631632Y15758475D01*
X20455594Y15876100D01*
X20685269Y16047412D01*
X20880178Y16263645D01*
X20949805Y16380534D01*
X21071525Y16198368D01*
G37*
X21071525Y16198368D02*
X21278368Y15991525D01*
X21452760Y15875000D01*
X21278368Y15758475D01*
X21071525Y15551632D01*
X20955000Y15377240D01*
X20838475Y15551632D01*
X20631632Y15758475D01*
X20455594Y15876100D01*
X20685269Y16047412D01*
X20880178Y16263645D01*
X20949805Y16380534D01*
X21071525Y16198368D01*
G36*
X19812000Y17272000D02*
G01*
X19832000Y17272000D01*
X19832000Y17018000D01*
X19812000Y17018000D01*
X19812000Y16998000D01*
X19558000Y16998000D01*
X19558000Y17018000D01*
X19538000Y17018000D01*
X19538000Y17272000D01*
X19558000Y17272000D01*
X19558000Y17292000D01*
X19812000Y17292000D01*
X19812000Y17272000D01*
G37*
X19812000Y17272000D02*
X19832000Y17272000D01*
X19832000Y17018000D01*
X19812000Y17018000D01*
X19812000Y16998000D01*
X19558000Y16998000D01*
X19558000Y17018000D01*
X19538000Y17018000D01*
X19538000Y17272000D01*
X19558000Y17272000D01*
X19558000Y17292000D01*
X19812000Y17292000D01*
X19812000Y17272000D01*
M02*
