%MOIN*%
%OFA0B0*%
%FSLAX46Y46*%
%IPPOS*%
%LPD*%
%ADD10C,0.0039370078740157488*%
%ADD21C,0.0039370078740157488*%
%ADD22C,0.0039370078740157488*%
D10*
G36*
X0000059587Y0002517168D02*
G01*
X0000065465Y0002515999D01*
X0000071920Y0002513325D01*
X0000077730Y0002509443D01*
X0000082671Y0002504502D01*
X0000086553Y0002498692D01*
X0000089227Y0002492236D01*
X0000090590Y0002485383D01*
X0000090590Y0002478396D01*
X0000089227Y0002471542D01*
X0000086553Y0002465087D01*
X0000082671Y0002459277D01*
X0000077730Y0002454336D01*
X0000071920Y0002450454D01*
X0000065465Y0002447780D01*
X0000059587Y0002446611D01*
X0000058611Y0002446417D01*
X0000051624Y0002446417D01*
X0000050649Y0002446611D01*
X0000044771Y0002447780D01*
X0000038315Y0002450454D01*
X0000032505Y0002454336D01*
X0000027564Y0002459277D01*
X0000023682Y0002465087D01*
X0000021008Y0002471542D01*
X0000019645Y0002478396D01*
X0000019645Y0002485383D01*
X0000021008Y0002492236D01*
X0000023682Y0002498692D01*
X0000027564Y0002504502D01*
X0000032505Y0002509443D01*
X0000038315Y0002513325D01*
X0000044771Y0002515999D01*
X0000050649Y0002517168D01*
X0000051624Y0002517362D01*
X0000058611Y0002517362D01*
X0000059587Y0002517168D01*
G37*
G36*
X0000159587Y0002517168D02*
G01*
X0000165465Y0002515999D01*
X0000171920Y0002513325D01*
X0000177730Y0002509443D01*
X0000182671Y0002504502D01*
X0000186553Y0002498692D01*
X0000189227Y0002492236D01*
X0000190590Y0002485383D01*
X0000190590Y0002478396D01*
X0000189227Y0002471542D01*
X0000186553Y0002465087D01*
X0000182671Y0002459277D01*
X0000177730Y0002454336D01*
X0000171920Y0002450454D01*
X0000165465Y0002447780D01*
X0000159587Y0002446611D01*
X0000158611Y0002446417D01*
X0000151624Y0002446417D01*
X0000150649Y0002446611D01*
X0000144771Y0002447780D01*
X0000138315Y0002450454D01*
X0000132505Y0002454336D01*
X0000127564Y0002459277D01*
X0000123682Y0002465087D01*
X0000121008Y0002471542D01*
X0000119645Y0002478396D01*
X0000119645Y0002485383D01*
X0000121008Y0002492236D01*
X0000123682Y0002498692D01*
X0000127564Y0002504502D01*
X0000132505Y0002509443D01*
X0000138315Y0002513325D01*
X0000144771Y0002515999D01*
X0000150649Y0002517168D01*
X0000151624Y0002517362D01*
X0000158611Y0002517362D01*
X0000159587Y0002517168D01*
G37*
G36*
X0000159587Y0002617168D02*
G01*
X0000165465Y0002615999D01*
X0000171920Y0002613325D01*
X0000177730Y0002609443D01*
X0000182671Y0002604502D01*
X0000186553Y0002598692D01*
X0000189227Y0002592236D01*
X0000190590Y0002585383D01*
X0000190590Y0002578396D01*
X0000189227Y0002571542D01*
X0000186553Y0002565087D01*
X0000182671Y0002559277D01*
X0000177730Y0002554336D01*
X0000171920Y0002550454D01*
X0000165465Y0002547780D01*
X0000159587Y0002546611D01*
X0000158611Y0002546417D01*
X0000151624Y0002546417D01*
X0000150649Y0002546611D01*
X0000144771Y0002547780D01*
X0000138315Y0002550454D01*
X0000132505Y0002554336D01*
X0000127564Y0002559277D01*
X0000123682Y0002565087D01*
X0000121008Y0002571542D01*
X0000119645Y0002578396D01*
X0000119645Y0002585383D01*
X0000121008Y0002592236D01*
X0000123682Y0002598692D01*
X0000127564Y0002604502D01*
X0000132505Y0002609443D01*
X0000138315Y0002613325D01*
X0000144771Y0002615999D01*
X0000150649Y0002617168D01*
X0000151624Y0002617362D01*
X0000158611Y0002617362D01*
X0000159587Y0002617168D01*
G37*
G36*
X0000059587Y0002617168D02*
G01*
X0000065465Y0002615999D01*
X0000071920Y0002613325D01*
X0000077730Y0002609443D01*
X0000082671Y0002604502D01*
X0000086553Y0002598692D01*
X0000089227Y0002592236D01*
X0000090590Y0002585383D01*
X0000090590Y0002578396D01*
X0000089227Y0002571542D01*
X0000086553Y0002565087D01*
X0000082671Y0002559277D01*
X0000077730Y0002554336D01*
X0000071920Y0002550454D01*
X0000065465Y0002547780D01*
X0000059587Y0002546611D01*
X0000058611Y0002546417D01*
X0000051624Y0002546417D01*
X0000050649Y0002546611D01*
X0000044771Y0002547780D01*
X0000038315Y0002550454D01*
X0000032505Y0002554336D01*
X0000027564Y0002559277D01*
X0000023682Y0002565087D01*
X0000021008Y0002571542D01*
X0000019645Y0002578396D01*
X0000019645Y0002585383D01*
X0000021008Y0002592236D01*
X0000023682Y0002598692D01*
X0000027564Y0002604502D01*
X0000032505Y0002609443D01*
X0000038315Y0002613325D01*
X0000044771Y0002615999D01*
X0000050649Y0002617168D01*
X0000051624Y0002617362D01*
X0000058611Y0002617362D01*
X0000059587Y0002617168D01*
G37*
G36*
X0000159587Y0002717168D02*
G01*
X0000165465Y0002715999D01*
X0000171920Y0002713324D01*
X0000177730Y0002709443D01*
X0000182671Y0002704502D01*
X0000186553Y0002698692D01*
X0000189227Y0002692236D01*
X0000190590Y0002685383D01*
X0000190590Y0002678396D01*
X0000189227Y0002671542D01*
X0000186553Y0002665087D01*
X0000182671Y0002659277D01*
X0000177730Y0002654336D01*
X0000171920Y0002650454D01*
X0000165465Y0002647780D01*
X0000159587Y0002646611D01*
X0000158611Y0002646417D01*
X0000151624Y0002646417D01*
X0000150649Y0002646611D01*
X0000144771Y0002647780D01*
X0000138315Y0002650454D01*
X0000132505Y0002654336D01*
X0000127564Y0002659277D01*
X0000123682Y0002665087D01*
X0000121008Y0002671542D01*
X0000119645Y0002678396D01*
X0000119645Y0002685383D01*
X0000121008Y0002692236D01*
X0000123682Y0002698692D01*
X0000127564Y0002704502D01*
X0000132505Y0002709443D01*
X0000138315Y0002713324D01*
X0000144771Y0002715999D01*
X0000150649Y0002717168D01*
X0000151624Y0002717362D01*
X0000158611Y0002717362D01*
X0000159587Y0002717168D01*
G37*
G36*
X0000059587Y0002717168D02*
G01*
X0000065465Y0002715999D01*
X0000071920Y0002713324D01*
X0000077730Y0002709443D01*
X0000082671Y0002704502D01*
X0000086553Y0002698692D01*
X0000089227Y0002692236D01*
X0000090590Y0002685383D01*
X0000090590Y0002678396D01*
X0000089227Y0002671542D01*
X0000086553Y0002665087D01*
X0000082671Y0002659277D01*
X0000077730Y0002654336D01*
X0000071920Y0002650454D01*
X0000065465Y0002647780D01*
X0000059587Y0002646611D01*
X0000058611Y0002646417D01*
X0000051624Y0002646417D01*
X0000050649Y0002646611D01*
X0000044771Y0002647780D01*
X0000038315Y0002650454D01*
X0000032505Y0002654336D01*
X0000027564Y0002659277D01*
X0000023682Y0002665087D01*
X0000021008Y0002671542D01*
X0000019645Y0002678396D01*
X0000019645Y0002685383D01*
X0000021008Y0002692236D01*
X0000023682Y0002698692D01*
X0000027564Y0002704502D01*
X0000032505Y0002709443D01*
X0000038315Y0002713324D01*
X0000044771Y0002715999D01*
X0000050649Y0002717168D01*
X0000051624Y0002717362D01*
X0000058611Y0002717362D01*
X0000059587Y0002717168D01*
G37*
G36*
X0000059587Y0002817168D02*
G01*
X0000065465Y0002815999D01*
X0000071920Y0002813325D01*
X0000077730Y0002809443D01*
X0000082671Y0002804502D01*
X0000086553Y0002798692D01*
X0000089227Y0002792236D01*
X0000090590Y0002785383D01*
X0000090590Y0002778396D01*
X0000089227Y0002771542D01*
X0000086553Y0002765087D01*
X0000082671Y0002759277D01*
X0000077730Y0002754336D01*
X0000071920Y0002750454D01*
X0000065465Y0002747780D01*
X0000059587Y0002746611D01*
X0000058611Y0002746417D01*
X0000051624Y0002746417D01*
X0000050649Y0002746611D01*
X0000044771Y0002747780D01*
X0000038315Y0002750454D01*
X0000032505Y0002754336D01*
X0000027564Y0002759277D01*
X0000023682Y0002765087D01*
X0000021008Y0002771542D01*
X0000019645Y0002778396D01*
X0000019645Y0002785383D01*
X0000021008Y0002792236D01*
X0000023682Y0002798692D01*
X0000027564Y0002804502D01*
X0000032505Y0002809443D01*
X0000038315Y0002813325D01*
X0000044771Y0002815999D01*
X0000050649Y0002817168D01*
X0000051624Y0002817362D01*
X0000058611Y0002817362D01*
X0000059587Y0002817168D01*
G37*
G36*
X0000159587Y0002817168D02*
G01*
X0000165465Y0002815999D01*
X0000171920Y0002813325D01*
X0000177730Y0002809443D01*
X0000182671Y0002804502D01*
X0000186553Y0002798692D01*
X0000189227Y0002792236D01*
X0000190590Y0002785383D01*
X0000190590Y0002778396D01*
X0000189227Y0002771542D01*
X0000186553Y0002765087D01*
X0000182671Y0002759277D01*
X0000177730Y0002754336D01*
X0000171920Y0002750454D01*
X0000165465Y0002747780D01*
X0000159587Y0002746611D01*
X0000158611Y0002746417D01*
X0000151624Y0002746417D01*
X0000150649Y0002746611D01*
X0000144771Y0002747780D01*
X0000138315Y0002750454D01*
X0000132505Y0002754336D01*
X0000127564Y0002759277D01*
X0000123682Y0002765087D01*
X0000121008Y0002771542D01*
X0000119645Y0002778396D01*
X0000119645Y0002785383D01*
X0000121008Y0002792236D01*
X0000123682Y0002798692D01*
X0000127564Y0002804502D01*
X0000132505Y0002809443D01*
X0000138315Y0002813325D01*
X0000144771Y0002815999D01*
X0000150649Y0002817168D01*
X0000151624Y0002817362D01*
X0000158611Y0002817362D01*
X0000159587Y0002817168D01*
G37*
G36*
X0000090590Y0002846417D02*
G01*
X0000019645Y0002846417D01*
X0000019645Y0002917362D01*
X0000090590Y0002917362D01*
X0000090590Y0002846417D01*
G37*
G36*
X0000159587Y0002917168D02*
G01*
X0000165465Y0002915999D01*
X0000171920Y0002913325D01*
X0000177730Y0002909443D01*
X0000182671Y0002904502D01*
X0000186553Y0002898692D01*
X0000189227Y0002892236D01*
X0000190590Y0002885383D01*
X0000190590Y0002878396D01*
X0000189227Y0002871542D01*
X0000186553Y0002865087D01*
X0000182671Y0002859277D01*
X0000177730Y0002854336D01*
X0000171920Y0002850454D01*
X0000165465Y0002847780D01*
X0000159587Y0002846611D01*
X0000158611Y0002846417D01*
X0000151624Y0002846417D01*
X0000150649Y0002846611D01*
X0000144771Y0002847780D01*
X0000138315Y0002850454D01*
X0000132505Y0002854336D01*
X0000127564Y0002859277D01*
X0000123682Y0002865087D01*
X0000121008Y0002871542D01*
X0000119645Y0002878396D01*
X0000119645Y0002885383D01*
X0000121008Y0002892236D01*
X0000123682Y0002898692D01*
X0000127564Y0002904502D01*
X0000132505Y0002909443D01*
X0000138315Y0002913325D01*
X0000144771Y0002915999D01*
X0000150649Y0002917168D01*
X0000151624Y0002917362D01*
X0000158611Y0002917362D01*
X0000159587Y0002917168D01*
G37*
G36*
X0000245060Y0003036570D02*
G01*
X0000249438Y0003035699D01*
X0000257685Y0003032283D01*
X0000265107Y0003027324D01*
X0000271418Y0003021012D01*
X0000276378Y0003013590D01*
X0000279794Y0003005343D01*
X0000281535Y0002996589D01*
X0000281535Y0002987662D01*
X0000279794Y0002978908D01*
X0000276378Y0002970661D01*
X0000271418Y0002963239D01*
X0000265107Y0002956927D01*
X0000257685Y0002951968D01*
X0000249438Y0002948552D01*
X0000245060Y0002947681D01*
X0000240683Y0002946811D01*
X0000231757Y0002946811D01*
X0000227379Y0002947681D01*
X0000223002Y0002948552D01*
X0000214755Y0002951968D01*
X0000207333Y0002956927D01*
X0000201022Y0002963239D01*
X0000196062Y0002970661D01*
X0000192646Y0002978908D01*
X0000190905Y0002987662D01*
X0000190905Y0002996589D01*
X0000192646Y0003005343D01*
X0000196062Y0003013590D01*
X0000201022Y0003021012D01*
X0000207333Y0003027324D01*
X0000214755Y0003032283D01*
X0000223002Y0003035699D01*
X0000227379Y0003036570D01*
X0000231757Y0003037440D01*
X0000240683Y0003037440D01*
X0000245060Y0003036570D01*
G37*
G36*
X0000059587Y0003178585D02*
G01*
X0000065465Y0003177416D01*
X0000071920Y0003174742D01*
X0000077730Y0003170860D01*
X0000082671Y0003165919D01*
X0000086553Y0003160109D01*
X0000089227Y0003153654D01*
X0000090590Y0003146800D01*
X0000090590Y0003139813D01*
X0000089227Y0003132960D01*
X0000086553Y0003126504D01*
X0000082671Y0003120694D01*
X0000077730Y0003115753D01*
X0000071920Y0003111871D01*
X0000065465Y0003109197D01*
X0000059587Y0003108028D01*
X0000058611Y0003107834D01*
X0000051624Y0003107834D01*
X0000050649Y0003108028D01*
X0000044771Y0003109197D01*
X0000038315Y0003111871D01*
X0000032505Y0003115753D01*
X0000027564Y0003120694D01*
X0000023682Y0003126504D01*
X0000021008Y0003132960D01*
X0000019645Y0003139813D01*
X0000019645Y0003146800D01*
X0000021008Y0003153654D01*
X0000023682Y0003160109D01*
X0000027564Y0003165919D01*
X0000032505Y0003170860D01*
X0000038315Y0003174742D01*
X0000044771Y0003177416D01*
X0000050649Y0003178585D01*
X0000051624Y0003178779D01*
X0000058611Y0003178779D01*
X0000059587Y0003178585D01*
G37*
G36*
X0000159587Y0003178585D02*
G01*
X0000165465Y0003177416D01*
X0000171920Y0003174742D01*
X0000177730Y0003170860D01*
X0000182671Y0003165919D01*
X0000186553Y0003160109D01*
X0000189227Y0003153654D01*
X0000190590Y0003146800D01*
X0000190590Y0003139813D01*
X0000189227Y0003132960D01*
X0000186553Y0003126504D01*
X0000182671Y0003120694D01*
X0000177730Y0003115753D01*
X0000171920Y0003111871D01*
X0000165465Y0003109197D01*
X0000159587Y0003108028D01*
X0000158611Y0003107834D01*
X0000151624Y0003107834D01*
X0000150649Y0003108028D01*
X0000144771Y0003109197D01*
X0000138315Y0003111871D01*
X0000132505Y0003115753D01*
X0000127564Y0003120694D01*
X0000123682Y0003126504D01*
X0000121008Y0003132960D01*
X0000119645Y0003139813D01*
X0000119645Y0003146800D01*
X0000121008Y0003153654D01*
X0000123682Y0003160109D01*
X0000127564Y0003165919D01*
X0000132505Y0003170860D01*
X0000138315Y0003174742D01*
X0000144771Y0003177416D01*
X0000150649Y0003178585D01*
X0000151624Y0003178779D01*
X0000158611Y0003178779D01*
X0000159587Y0003178585D01*
G37*
G36*
X0000059587Y0003278585D02*
G01*
X0000065465Y0003277416D01*
X0000071920Y0003274742D01*
X0000077730Y0003270860D01*
X0000082671Y0003265919D01*
X0000086553Y0003260109D01*
X0000089227Y0003253653D01*
X0000090590Y0003246800D01*
X0000090590Y0003239813D01*
X0000089227Y0003232960D01*
X0000086553Y0003226504D01*
X0000082671Y0003220694D01*
X0000077730Y0003215753D01*
X0000071920Y0003211871D01*
X0000065465Y0003209197D01*
X0000059587Y0003208028D01*
X0000058611Y0003207834D01*
X0000051624Y0003207834D01*
X0000050649Y0003208028D01*
X0000044771Y0003209197D01*
X0000038315Y0003211871D01*
X0000032505Y0003215753D01*
X0000027564Y0003220694D01*
X0000023682Y0003226504D01*
X0000021008Y0003232960D01*
X0000019645Y0003239813D01*
X0000019645Y0003246800D01*
X0000021008Y0003253653D01*
X0000023682Y0003260109D01*
X0000027564Y0003265919D01*
X0000032505Y0003270860D01*
X0000038315Y0003274742D01*
X0000044771Y0003277416D01*
X0000050649Y0003278585D01*
X0000051624Y0003278779D01*
X0000058611Y0003278779D01*
X0000059587Y0003278585D01*
G37*
G36*
X0000159587Y0003278585D02*
G01*
X0000165465Y0003277416D01*
X0000171920Y0003274742D01*
X0000177730Y0003270860D01*
X0000182671Y0003265919D01*
X0000186553Y0003260109D01*
X0000189227Y0003253653D01*
X0000190590Y0003246800D01*
X0000190590Y0003239813D01*
X0000189227Y0003232960D01*
X0000186553Y0003226504D01*
X0000182671Y0003220694D01*
X0000177730Y0003215753D01*
X0000171920Y0003211871D01*
X0000165465Y0003209197D01*
X0000159587Y0003208028D01*
X0000158611Y0003207834D01*
X0000151624Y0003207834D01*
X0000150649Y0003208028D01*
X0000144771Y0003209197D01*
X0000138315Y0003211871D01*
X0000132505Y0003215753D01*
X0000127564Y0003220694D01*
X0000123682Y0003226504D01*
X0000121008Y0003232960D01*
X0000119645Y0003239813D01*
X0000119645Y0003246800D01*
X0000121008Y0003253653D01*
X0000123682Y0003260109D01*
X0000127564Y0003265919D01*
X0000132505Y0003270860D01*
X0000138315Y0003274742D01*
X0000144771Y0003277416D01*
X0000150649Y0003278585D01*
X0000151624Y0003278779D01*
X0000158611Y0003278779D01*
X0000159587Y0003278585D01*
G37*
G36*
X0000059587Y0003378585D02*
G01*
X0000065465Y0003377416D01*
X0000071920Y0003374742D01*
X0000077730Y0003370860D01*
X0000082671Y0003365919D01*
X0000086553Y0003360109D01*
X0000089227Y0003353654D01*
X0000090590Y0003346800D01*
X0000090590Y0003339813D01*
X0000089227Y0003332960D01*
X0000086553Y0003326504D01*
X0000082671Y0003320694D01*
X0000077730Y0003315753D01*
X0000071920Y0003311871D01*
X0000065465Y0003309197D01*
X0000059587Y0003308028D01*
X0000058611Y0003307834D01*
X0000051624Y0003307834D01*
X0000050649Y0003308028D01*
X0000044771Y0003309197D01*
X0000038315Y0003311871D01*
X0000032505Y0003315753D01*
X0000027564Y0003320694D01*
X0000023682Y0003326504D01*
X0000021008Y0003332960D01*
X0000019645Y0003339813D01*
X0000019645Y0003346800D01*
X0000021008Y0003353654D01*
X0000023682Y0003360109D01*
X0000027564Y0003365919D01*
X0000032505Y0003370860D01*
X0000038315Y0003374742D01*
X0000044771Y0003377416D01*
X0000050649Y0003378585D01*
X0000051624Y0003378779D01*
X0000058611Y0003378779D01*
X0000059587Y0003378585D01*
G37*
G36*
X0000159587Y0003378585D02*
G01*
X0000165465Y0003377416D01*
X0000171920Y0003374742D01*
X0000177730Y0003370860D01*
X0000182671Y0003365919D01*
X0000186553Y0003360109D01*
X0000189227Y0003353654D01*
X0000190590Y0003346800D01*
X0000190590Y0003339813D01*
X0000189227Y0003332960D01*
X0000186553Y0003326504D01*
X0000182671Y0003320694D01*
X0000177730Y0003315753D01*
X0000171920Y0003311871D01*
X0000165465Y0003309197D01*
X0000159587Y0003308028D01*
X0000158611Y0003307834D01*
X0000151624Y0003307834D01*
X0000150649Y0003308028D01*
X0000144771Y0003309197D01*
X0000138315Y0003311871D01*
X0000132505Y0003315753D01*
X0000127564Y0003320694D01*
X0000123682Y0003326504D01*
X0000121008Y0003332960D01*
X0000119645Y0003339813D01*
X0000119645Y0003346800D01*
X0000121008Y0003353654D01*
X0000123682Y0003360109D01*
X0000127564Y0003365919D01*
X0000132505Y0003370860D01*
X0000138315Y0003374742D01*
X0000144771Y0003377416D01*
X0000150649Y0003378585D01*
X0000151624Y0003378779D01*
X0000158611Y0003378779D01*
X0000159587Y0003378585D01*
G37*
G36*
X0000159587Y0003478585D02*
G01*
X0000165465Y0003477416D01*
X0000171920Y0003474742D01*
X0000177730Y0003470860D01*
X0000182671Y0003465919D01*
X0000186553Y0003460109D01*
X0000189227Y0003453654D01*
X0000190590Y0003446800D01*
X0000190590Y0003439813D01*
X0000189227Y0003432960D01*
X0000186553Y0003426504D01*
X0000182671Y0003420694D01*
X0000177730Y0003415753D01*
X0000171920Y0003411871D01*
X0000165465Y0003409197D01*
X0000159587Y0003408028D01*
X0000158611Y0003407834D01*
X0000151624Y0003407834D01*
X0000150649Y0003408028D01*
X0000144771Y0003409197D01*
X0000138315Y0003411871D01*
X0000132505Y0003415753D01*
X0000127564Y0003420694D01*
X0000123682Y0003426504D01*
X0000121008Y0003432960D01*
X0000119645Y0003439813D01*
X0000119645Y0003446800D01*
X0000121008Y0003453654D01*
X0000123682Y0003460109D01*
X0000127564Y0003465919D01*
X0000132505Y0003470860D01*
X0000138315Y0003474742D01*
X0000144771Y0003477416D01*
X0000150649Y0003478585D01*
X0000151624Y0003478779D01*
X0000158611Y0003478779D01*
X0000159587Y0003478585D01*
G37*
G36*
X0000059587Y0003478585D02*
G01*
X0000065465Y0003477416D01*
X0000071920Y0003474742D01*
X0000077730Y0003470860D01*
X0000082671Y0003465919D01*
X0000086553Y0003460109D01*
X0000089227Y0003453654D01*
X0000090590Y0003446800D01*
X0000090590Y0003439813D01*
X0000089227Y0003432960D01*
X0000086553Y0003426504D01*
X0000082671Y0003420694D01*
X0000077730Y0003415753D01*
X0000071920Y0003411871D01*
X0000065465Y0003409197D01*
X0000059587Y0003408028D01*
X0000058611Y0003407834D01*
X0000051624Y0003407834D01*
X0000050649Y0003408028D01*
X0000044771Y0003409197D01*
X0000038315Y0003411871D01*
X0000032505Y0003415753D01*
X0000027564Y0003420694D01*
X0000023682Y0003426504D01*
X0000021008Y0003432960D01*
X0000019645Y0003439813D01*
X0000019645Y0003446800D01*
X0000021008Y0003453654D01*
X0000023682Y0003460109D01*
X0000027564Y0003465919D01*
X0000032505Y0003470860D01*
X0000038315Y0003474742D01*
X0000044771Y0003477416D01*
X0000050649Y0003478585D01*
X0000051624Y0003478779D01*
X0000058611Y0003478779D01*
X0000059587Y0003478585D01*
G37*
G36*
X0000159587Y0003578585D02*
G01*
X0000165465Y0003577416D01*
X0000171920Y0003574742D01*
X0000177730Y0003570860D01*
X0000182671Y0003565919D01*
X0000186553Y0003560109D01*
X0000189227Y0003553654D01*
X0000190590Y0003546800D01*
X0000190590Y0003539813D01*
X0000189227Y0003532960D01*
X0000186553Y0003526504D01*
X0000182671Y0003520694D01*
X0000177730Y0003515753D01*
X0000171920Y0003511871D01*
X0000165465Y0003509197D01*
X0000159587Y0003508028D01*
X0000158611Y0003507834D01*
X0000151624Y0003507834D01*
X0000150649Y0003508028D01*
X0000144771Y0003509197D01*
X0000138315Y0003511871D01*
X0000132505Y0003515753D01*
X0000127564Y0003520694D01*
X0000123682Y0003526504D01*
X0000121008Y0003532960D01*
X0000119645Y0003539813D01*
X0000119645Y0003546800D01*
X0000121008Y0003553654D01*
X0000123682Y0003560109D01*
X0000127564Y0003565919D01*
X0000132505Y0003570860D01*
X0000138315Y0003574742D01*
X0000144771Y0003577416D01*
X0000150649Y0003578585D01*
X0000151624Y0003578779D01*
X0000158611Y0003578779D01*
X0000159587Y0003578585D01*
G37*
G36*
X0000090590Y0003507834D02*
G01*
X0000019645Y0003507834D01*
X0000019645Y0003578779D01*
X0000090590Y0003578779D01*
X0000090590Y0003507834D01*
G37*
G36*
X0001890730Y0003745231D02*
G01*
X0001895107Y0003744360D01*
X0001903354Y0003740945D01*
X0001910776Y0003735985D01*
X0001917088Y0003729674D01*
X0001922047Y0003722252D01*
X0001925463Y0003714005D01*
X0001927204Y0003705250D01*
X0001927204Y0003696324D01*
X0001925463Y0003687569D01*
X0001922047Y0003679322D01*
X0001917088Y0003671900D01*
X0001910776Y0003665588D01*
X0001903354Y0003660629D01*
X0001895107Y0003657213D01*
X0001890730Y0003656343D01*
X0001886352Y0003655472D01*
X0001877426Y0003655472D01*
X0001873049Y0003656343D01*
X0001868671Y0003657213D01*
X0001860425Y0003660629D01*
X0001853003Y0003665588D01*
X0001846691Y0003671900D01*
X0001841732Y0003679322D01*
X0001838316Y0003687569D01*
X0001836574Y0003696324D01*
X0001836574Y0003705250D01*
X0001838316Y0003714005D01*
X0001841732Y0003722252D01*
X0001846691Y0003729674D01*
X0001853003Y0003735985D01*
X0001860425Y0003740945D01*
X0001868671Y0003744360D01*
X0001873049Y0003745231D01*
X0001877426Y0003746102D01*
X0001886352Y0003746102D01*
X0001890730Y0003745231D01*
G37*
G36*
X0000245060Y0003745231D02*
G01*
X0000249438Y0003744360D01*
X0000257685Y0003740945D01*
X0000265107Y0003735985D01*
X0000271418Y0003729674D01*
X0000276378Y0003722252D01*
X0000279794Y0003714005D01*
X0000281535Y0003705250D01*
X0000281535Y0003696324D01*
X0000279794Y0003687569D01*
X0000276378Y0003679322D01*
X0000271418Y0003671900D01*
X0000265107Y0003665588D01*
X0000257685Y0003660629D01*
X0000249438Y0003657213D01*
X0000245060Y0003656343D01*
X0000240683Y0003655472D01*
X0000231757Y0003655472D01*
X0000227379Y0003656343D01*
X0000223002Y0003657213D01*
X0000214755Y0003660629D01*
X0000207333Y0003665588D01*
X0000201022Y0003671900D01*
X0000196062Y0003679322D01*
X0000192646Y0003687569D01*
X0000190905Y0003696324D01*
X0000190905Y0003705250D01*
X0000192646Y0003714005D01*
X0000196062Y0003722252D01*
X0000201022Y0003729674D01*
X0000207333Y0003735985D01*
X0000214755Y0003740945D01*
X0000223002Y0003744360D01*
X0000227379Y0003745231D01*
X0000231757Y0003746102D01*
X0000240683Y0003746102D01*
X0000245060Y0003745231D01*
G37*
G36*
X0000953722Y0003745231D02*
G01*
X0000958099Y0003744360D01*
X0000966346Y0003740945D01*
X0000973768Y0003735985D01*
X0000980080Y0003729674D01*
X0000985039Y0003722252D01*
X0000988455Y0003714005D01*
X0000990196Y0003705250D01*
X0000990196Y0003696324D01*
X0000988455Y0003687569D01*
X0000985039Y0003679322D01*
X0000980080Y0003671900D01*
X0000973768Y0003665588D01*
X0000966346Y0003660629D01*
X0000958099Y0003657213D01*
X0000953722Y0003656343D01*
X0000949345Y0003655472D01*
X0000940418Y0003655472D01*
X0000936041Y0003656343D01*
X0000931664Y0003657213D01*
X0000923417Y0003660629D01*
X0000915995Y0003665588D01*
X0000909683Y0003671900D01*
X0000904724Y0003679322D01*
X0000901308Y0003687569D01*
X0000899566Y0003696324D01*
X0000899566Y0003705250D01*
X0000901308Y0003714005D01*
X0000904724Y0003722252D01*
X0000909683Y0003729674D01*
X0000915995Y0003735985D01*
X0000923417Y0003740945D01*
X0000931664Y0003744360D01*
X0000936041Y0003745231D01*
X0000940418Y0003746102D01*
X0000949345Y0003746102D01*
X0000953722Y0003745231D01*
G37*
G36*
X0000798169Y0003817168D02*
G01*
X0000804047Y0003815999D01*
X0000810503Y0003813325D01*
X0000816313Y0003809443D01*
X0000821254Y0003804502D01*
X0000825136Y0003798692D01*
X0000827810Y0003792236D01*
X0000829173Y0003785383D01*
X0000829173Y0003778396D01*
X0000827810Y0003771542D01*
X0000825136Y0003765087D01*
X0000821254Y0003759277D01*
X0000816313Y0003754336D01*
X0000810503Y0003750454D01*
X0000804047Y0003747780D01*
X0000798169Y0003746611D01*
X0000797194Y0003746417D01*
X0000790207Y0003746417D01*
X0000789231Y0003746611D01*
X0000783353Y0003747780D01*
X0000776898Y0003750454D01*
X0000771088Y0003754336D01*
X0000766147Y0003759277D01*
X0000762265Y0003765087D01*
X0000759591Y0003771542D01*
X0000758228Y0003778396D01*
X0000758228Y0003785383D01*
X0000759591Y0003792236D01*
X0000762265Y0003798692D01*
X0000766147Y0003804502D01*
X0000771088Y0003809443D01*
X0000776898Y0003813325D01*
X0000783353Y0003815999D01*
X0000789231Y0003817168D01*
X0000790207Y0003817362D01*
X0000797194Y0003817362D01*
X0000798169Y0003817168D01*
G37*
G36*
X0000398169Y0003817168D02*
G01*
X0000404047Y0003815999D01*
X0000410503Y0003813325D01*
X0000416313Y0003809443D01*
X0000421254Y0003804502D01*
X0000425136Y0003798692D01*
X0000427810Y0003792236D01*
X0000429173Y0003785383D01*
X0000429173Y0003778396D01*
X0000427810Y0003771542D01*
X0000425136Y0003765087D01*
X0000421254Y0003759277D01*
X0000416313Y0003754336D01*
X0000410503Y0003750454D01*
X0000404047Y0003747780D01*
X0000398169Y0003746611D01*
X0000397194Y0003746417D01*
X0000390207Y0003746417D01*
X0000389231Y0003746611D01*
X0000383353Y0003747780D01*
X0000376898Y0003750454D01*
X0000371088Y0003754336D01*
X0000366147Y0003759277D01*
X0000362265Y0003765087D01*
X0000359591Y0003771542D01*
X0000358228Y0003778396D01*
X0000358228Y0003785383D01*
X0000359591Y0003792236D01*
X0000362265Y0003798692D01*
X0000366147Y0003804502D01*
X0000371088Y0003809443D01*
X0000376898Y0003813325D01*
X0000383353Y0003815999D01*
X0000389231Y0003817168D01*
X0000390207Y0003817362D01*
X0000397194Y0003817362D01*
X0000398169Y0003817168D01*
G37*
G36*
X0000498169Y0003817168D02*
G01*
X0000504047Y0003815999D01*
X0000510503Y0003813325D01*
X0000516313Y0003809443D01*
X0000521254Y0003804502D01*
X0000525136Y0003798692D01*
X0000527810Y0003792236D01*
X0000529173Y0003785383D01*
X0000529173Y0003778396D01*
X0000527810Y0003771542D01*
X0000525136Y0003765087D01*
X0000521254Y0003759277D01*
X0000516313Y0003754336D01*
X0000510503Y0003750454D01*
X0000504047Y0003747780D01*
X0000498169Y0003746611D01*
X0000497194Y0003746417D01*
X0000490207Y0003746417D01*
X0000489231Y0003746611D01*
X0000483353Y0003747780D01*
X0000476898Y0003750454D01*
X0000471088Y0003754336D01*
X0000466147Y0003759277D01*
X0000462265Y0003765087D01*
X0000459591Y0003771542D01*
X0000458228Y0003778396D01*
X0000458228Y0003785383D01*
X0000459591Y0003792236D01*
X0000462265Y0003798692D01*
X0000466147Y0003804502D01*
X0000471088Y0003809443D01*
X0000476898Y0003813325D01*
X0000483353Y0003815999D01*
X0000489231Y0003817168D01*
X0000490207Y0003817362D01*
X0000497194Y0003817362D01*
X0000498169Y0003817168D01*
G37*
G36*
X0001059587Y0003817168D02*
G01*
X0001065465Y0003815999D01*
X0001071920Y0003813325D01*
X0001077730Y0003809443D01*
X0001082671Y0003804502D01*
X0001086553Y0003798692D01*
X0001089227Y0003792236D01*
X0001090590Y0003785383D01*
X0001090590Y0003778396D01*
X0001089227Y0003771542D01*
X0001086553Y0003765087D01*
X0001082671Y0003759277D01*
X0001077730Y0003754336D01*
X0001071920Y0003750454D01*
X0001065465Y0003747780D01*
X0001059587Y0003746611D01*
X0001058611Y0003746417D01*
X0001051624Y0003746417D01*
X0001050649Y0003746611D01*
X0001044771Y0003747780D01*
X0001038315Y0003750454D01*
X0001032505Y0003754336D01*
X0001027564Y0003759277D01*
X0001023682Y0003765087D01*
X0001021008Y0003771542D01*
X0001019645Y0003778396D01*
X0001019645Y0003785383D01*
X0001021008Y0003792236D01*
X0001023682Y0003798692D01*
X0001027564Y0003804502D01*
X0001032505Y0003809443D01*
X0001038315Y0003813325D01*
X0001044771Y0003815999D01*
X0001050649Y0003817168D01*
X0001051624Y0003817362D01*
X0001058611Y0003817362D01*
X0001059587Y0003817168D01*
G37*
G36*
X0001259587Y0003817168D02*
G01*
X0001265465Y0003815999D01*
X0001271920Y0003813325D01*
X0001277730Y0003809443D01*
X0001282671Y0003804502D01*
X0001286553Y0003798692D01*
X0001289227Y0003792236D01*
X0001290590Y0003785383D01*
X0001290590Y0003778396D01*
X0001289227Y0003771542D01*
X0001286553Y0003765087D01*
X0001282671Y0003759277D01*
X0001277730Y0003754336D01*
X0001271920Y0003750454D01*
X0001265465Y0003747780D01*
X0001259587Y0003746611D01*
X0001258611Y0003746417D01*
X0001251624Y0003746417D01*
X0001250649Y0003746611D01*
X0001244771Y0003747780D01*
X0001238315Y0003750454D01*
X0001232505Y0003754336D01*
X0001227564Y0003759277D01*
X0001223682Y0003765087D01*
X0001221008Y0003771542D01*
X0001219645Y0003778396D01*
X0001219645Y0003785383D01*
X0001221008Y0003792236D01*
X0001223682Y0003798692D01*
X0001227564Y0003804502D01*
X0001232505Y0003809443D01*
X0001238315Y0003813325D01*
X0001244771Y0003815999D01*
X0001250649Y0003817168D01*
X0001251624Y0003817362D01*
X0001258611Y0003817362D01*
X0001259587Y0003817168D01*
G37*
G36*
X0001359587Y0003817168D02*
G01*
X0001365465Y0003815999D01*
X0001371920Y0003813325D01*
X0001377730Y0003809443D01*
X0001382671Y0003804502D01*
X0001386553Y0003798692D01*
X0001389227Y0003792236D01*
X0001390590Y0003785383D01*
X0001390590Y0003778396D01*
X0001389227Y0003771542D01*
X0001386553Y0003765087D01*
X0001382671Y0003759277D01*
X0001377730Y0003754336D01*
X0001371920Y0003750454D01*
X0001365465Y0003747780D01*
X0001359587Y0003746611D01*
X0001358611Y0003746417D01*
X0001351624Y0003746417D01*
X0001350649Y0003746611D01*
X0001344771Y0003747780D01*
X0001338315Y0003750454D01*
X0001332505Y0003754336D01*
X0001327564Y0003759277D01*
X0001323682Y0003765087D01*
X0001321008Y0003771542D01*
X0001319645Y0003778396D01*
X0001319645Y0003785383D01*
X0001321008Y0003792236D01*
X0001323682Y0003798692D01*
X0001327564Y0003804502D01*
X0001332505Y0003809443D01*
X0001338315Y0003813325D01*
X0001344771Y0003815999D01*
X0001350649Y0003817168D01*
X0001351624Y0003817362D01*
X0001358611Y0003817362D01*
X0001359587Y0003817168D01*
G37*
G36*
X0001459587Y0003817168D02*
G01*
X0001465465Y0003815999D01*
X0001471920Y0003813325D01*
X0001477730Y0003809443D01*
X0001482671Y0003804502D01*
X0001486553Y0003798692D01*
X0001489227Y0003792236D01*
X0001490590Y0003785383D01*
X0001490590Y0003778396D01*
X0001489227Y0003771542D01*
X0001486553Y0003765087D01*
X0001482671Y0003759277D01*
X0001477730Y0003754336D01*
X0001471920Y0003750454D01*
X0001465465Y0003747780D01*
X0001459587Y0003746611D01*
X0001458611Y0003746417D01*
X0001451624Y0003746417D01*
X0001450649Y0003746611D01*
X0001444771Y0003747780D01*
X0001438315Y0003750454D01*
X0001432505Y0003754336D01*
X0001427564Y0003759277D01*
X0001423682Y0003765087D01*
X0001421008Y0003771542D01*
X0001419645Y0003778396D01*
X0001419645Y0003785383D01*
X0001421008Y0003792236D01*
X0001423682Y0003798692D01*
X0001427564Y0003804502D01*
X0001432505Y0003809443D01*
X0001438315Y0003813325D01*
X0001444771Y0003815999D01*
X0001450649Y0003817168D01*
X0001451624Y0003817362D01*
X0001458611Y0003817362D01*
X0001459587Y0003817168D01*
G37*
G36*
X0000598169Y0003817168D02*
G01*
X0000604047Y0003815999D01*
X0000610503Y0003813325D01*
X0000616313Y0003809443D01*
X0000621254Y0003804502D01*
X0000625136Y0003798692D01*
X0000627810Y0003792236D01*
X0000629173Y0003785383D01*
X0000629173Y0003778396D01*
X0000627810Y0003771542D01*
X0000625136Y0003765087D01*
X0000621254Y0003759277D01*
X0000616313Y0003754336D01*
X0000610503Y0003750454D01*
X0000604047Y0003747780D01*
X0000598169Y0003746611D01*
X0000597194Y0003746417D01*
X0000590207Y0003746417D01*
X0000589231Y0003746611D01*
X0000583353Y0003747780D01*
X0000576898Y0003750454D01*
X0000571088Y0003754336D01*
X0000566147Y0003759277D01*
X0000562265Y0003765087D01*
X0000559591Y0003771542D01*
X0000558228Y0003778396D01*
X0000558228Y0003785383D01*
X0000559591Y0003792236D01*
X0000562265Y0003798692D01*
X0000566147Y0003804502D01*
X0000571088Y0003809443D01*
X0000576898Y0003813325D01*
X0000583353Y0003815999D01*
X0000589231Y0003817168D01*
X0000590207Y0003817362D01*
X0000597194Y0003817362D01*
X0000598169Y0003817168D01*
G37*
G36*
X0001159587Y0003817168D02*
G01*
X0001165465Y0003815999D01*
X0001171920Y0003813325D01*
X0001177730Y0003809443D01*
X0001182671Y0003804502D01*
X0001186553Y0003798692D01*
X0001189227Y0003792236D01*
X0001190590Y0003785383D01*
X0001190590Y0003778396D01*
X0001189227Y0003771542D01*
X0001186553Y0003765087D01*
X0001182671Y0003759277D01*
X0001177730Y0003754336D01*
X0001171920Y0003750454D01*
X0001165465Y0003747780D01*
X0001159587Y0003746611D01*
X0001158611Y0003746417D01*
X0001151624Y0003746417D01*
X0001150649Y0003746611D01*
X0001144771Y0003747780D01*
X0001138315Y0003750454D01*
X0001132505Y0003754336D01*
X0001127564Y0003759277D01*
X0001123682Y0003765087D01*
X0001121008Y0003771542D01*
X0001119645Y0003778396D01*
X0001119645Y0003785383D01*
X0001121008Y0003792236D01*
X0001123682Y0003798692D01*
X0001127564Y0003804502D01*
X0001132505Y0003809443D01*
X0001138315Y0003813325D01*
X0001144771Y0003815999D01*
X0001150649Y0003817168D01*
X0001151624Y0003817362D01*
X0001158611Y0003817362D01*
X0001159587Y0003817168D01*
G37*
G36*
X0000698169Y0003817168D02*
G01*
X0000704047Y0003815999D01*
X0000710503Y0003813325D01*
X0000716313Y0003809443D01*
X0000721254Y0003804502D01*
X0000725136Y0003798692D01*
X0000727810Y0003792236D01*
X0000729173Y0003785383D01*
X0000729173Y0003778396D01*
X0000727810Y0003771542D01*
X0000725136Y0003765087D01*
X0000721254Y0003759277D01*
X0000716313Y0003754336D01*
X0000710503Y0003750454D01*
X0000704047Y0003747780D01*
X0000698169Y0003746611D01*
X0000697194Y0003746417D01*
X0000690207Y0003746417D01*
X0000689231Y0003746611D01*
X0000683353Y0003747780D01*
X0000676898Y0003750454D01*
X0000671088Y0003754336D01*
X0000666147Y0003759277D01*
X0000662265Y0003765087D01*
X0000659591Y0003771542D01*
X0000658228Y0003778396D01*
X0000658228Y0003785383D01*
X0000659591Y0003792236D01*
X0000662265Y0003798692D01*
X0000666147Y0003804502D01*
X0000671088Y0003809443D01*
X0000676898Y0003813325D01*
X0000683353Y0003815999D01*
X0000689231Y0003817168D01*
X0000690207Y0003817362D01*
X0000697194Y0003817362D01*
X0000698169Y0003817168D01*
G37*
G36*
X0001459587Y0003917168D02*
G01*
X0001465465Y0003915999D01*
X0001471920Y0003913325D01*
X0001477730Y0003909443D01*
X0001482671Y0003904502D01*
X0001486553Y0003898692D01*
X0001489227Y0003892236D01*
X0001490590Y0003885383D01*
X0001490590Y0003878396D01*
X0001489227Y0003871542D01*
X0001486553Y0003865087D01*
X0001482671Y0003859277D01*
X0001477730Y0003854336D01*
X0001471920Y0003850454D01*
X0001465465Y0003847780D01*
X0001459587Y0003846611D01*
X0001458611Y0003846417D01*
X0001451624Y0003846417D01*
X0001450649Y0003846611D01*
X0001444771Y0003847780D01*
X0001438315Y0003850454D01*
X0001432505Y0003854336D01*
X0001427564Y0003859277D01*
X0001423682Y0003865087D01*
X0001421008Y0003871542D01*
X0001419645Y0003878396D01*
X0001419645Y0003885383D01*
X0001421008Y0003892236D01*
X0001423682Y0003898692D01*
X0001427564Y0003904502D01*
X0001432505Y0003909443D01*
X0001438315Y0003913325D01*
X0001444771Y0003915999D01*
X0001450649Y0003917168D01*
X0001451624Y0003917362D01*
X0001458611Y0003917362D01*
X0001459587Y0003917168D01*
G37*
G36*
X0001359587Y0003917168D02*
G01*
X0001365465Y0003915999D01*
X0001371920Y0003913325D01*
X0001377730Y0003909443D01*
X0001382671Y0003904502D01*
X0001386553Y0003898692D01*
X0001389227Y0003892236D01*
X0001390590Y0003885383D01*
X0001390590Y0003878396D01*
X0001389227Y0003871542D01*
X0001386553Y0003865087D01*
X0001382671Y0003859277D01*
X0001377730Y0003854336D01*
X0001371920Y0003850454D01*
X0001365465Y0003847780D01*
X0001359587Y0003846611D01*
X0001358611Y0003846417D01*
X0001351624Y0003846417D01*
X0001350649Y0003846611D01*
X0001344771Y0003847780D01*
X0001338315Y0003850454D01*
X0001332505Y0003854336D01*
X0001327564Y0003859277D01*
X0001323682Y0003865087D01*
X0001321008Y0003871542D01*
X0001319645Y0003878396D01*
X0001319645Y0003885383D01*
X0001321008Y0003892236D01*
X0001323682Y0003898692D01*
X0001327564Y0003904502D01*
X0001332505Y0003909443D01*
X0001338315Y0003913325D01*
X0001344771Y0003915999D01*
X0001350649Y0003917168D01*
X0001351624Y0003917362D01*
X0001358611Y0003917362D01*
X0001359587Y0003917168D01*
G37*
G36*
X0001259587Y0003917168D02*
G01*
X0001265465Y0003915999D01*
X0001271920Y0003913325D01*
X0001277730Y0003909443D01*
X0001282671Y0003904502D01*
X0001286553Y0003898692D01*
X0001289227Y0003892236D01*
X0001290590Y0003885383D01*
X0001290590Y0003878396D01*
X0001289227Y0003871542D01*
X0001286553Y0003865087D01*
X0001282671Y0003859277D01*
X0001277730Y0003854336D01*
X0001271920Y0003850454D01*
X0001265465Y0003847780D01*
X0001259587Y0003846611D01*
X0001258611Y0003846417D01*
X0001251624Y0003846417D01*
X0001250649Y0003846611D01*
X0001244771Y0003847780D01*
X0001238315Y0003850454D01*
X0001232505Y0003854336D01*
X0001227564Y0003859277D01*
X0001223682Y0003865087D01*
X0001221008Y0003871542D01*
X0001219645Y0003878396D01*
X0001219645Y0003885383D01*
X0001221008Y0003892236D01*
X0001223682Y0003898692D01*
X0001227564Y0003904502D01*
X0001232505Y0003909443D01*
X0001238315Y0003913325D01*
X0001244771Y0003915999D01*
X0001250649Y0003917168D01*
X0001251624Y0003917362D01*
X0001258611Y0003917362D01*
X0001259587Y0003917168D01*
G37*
G36*
X0001159587Y0003917168D02*
G01*
X0001165465Y0003915999D01*
X0001171920Y0003913325D01*
X0001177730Y0003909443D01*
X0001182671Y0003904502D01*
X0001186553Y0003898692D01*
X0001189227Y0003892236D01*
X0001190590Y0003885383D01*
X0001190590Y0003878396D01*
X0001189227Y0003871542D01*
X0001186553Y0003865087D01*
X0001182671Y0003859277D01*
X0001177730Y0003854336D01*
X0001171920Y0003850454D01*
X0001165465Y0003847780D01*
X0001159587Y0003846611D01*
X0001158611Y0003846417D01*
X0001151624Y0003846417D01*
X0001150649Y0003846611D01*
X0001144771Y0003847780D01*
X0001138315Y0003850454D01*
X0001132505Y0003854336D01*
X0001127564Y0003859277D01*
X0001123682Y0003865087D01*
X0001121008Y0003871542D01*
X0001119645Y0003878396D01*
X0001119645Y0003885383D01*
X0001121008Y0003892236D01*
X0001123682Y0003898692D01*
X0001127564Y0003904502D01*
X0001132505Y0003909443D01*
X0001138315Y0003913325D01*
X0001144771Y0003915999D01*
X0001150649Y0003917168D01*
X0001151624Y0003917362D01*
X0001158611Y0003917362D01*
X0001159587Y0003917168D01*
G37*
G36*
X0001090590Y0003846417D02*
G01*
X0001019645Y0003846417D01*
X0001019645Y0003917362D01*
X0001090590Y0003917362D01*
X0001090590Y0003846417D01*
G37*
G36*
X0000798169Y0003917168D02*
G01*
X0000804047Y0003915999D01*
X0000810503Y0003913325D01*
X0000816313Y0003909443D01*
X0000821254Y0003904502D01*
X0000825136Y0003898692D01*
X0000827810Y0003892236D01*
X0000829173Y0003885383D01*
X0000829173Y0003878396D01*
X0000827810Y0003871542D01*
X0000825136Y0003865087D01*
X0000821254Y0003859277D01*
X0000816313Y0003854336D01*
X0000810503Y0003850454D01*
X0000804047Y0003847780D01*
X0000798169Y0003846611D01*
X0000797194Y0003846417D01*
X0000790207Y0003846417D01*
X0000789231Y0003846611D01*
X0000783353Y0003847780D01*
X0000776898Y0003850454D01*
X0000771088Y0003854336D01*
X0000766147Y0003859277D01*
X0000762265Y0003865087D01*
X0000759591Y0003871542D01*
X0000758228Y0003878396D01*
X0000758228Y0003885383D01*
X0000759591Y0003892236D01*
X0000762265Y0003898692D01*
X0000766147Y0003904502D01*
X0000771088Y0003909443D01*
X0000776898Y0003913325D01*
X0000783353Y0003915999D01*
X0000789231Y0003917168D01*
X0000790207Y0003917362D01*
X0000797194Y0003917362D01*
X0000798169Y0003917168D01*
G37*
G36*
X0000698169Y0003917168D02*
G01*
X0000704047Y0003915999D01*
X0000710503Y0003913325D01*
X0000716313Y0003909443D01*
X0000721254Y0003904502D01*
X0000725136Y0003898692D01*
X0000727810Y0003892236D01*
X0000729173Y0003885383D01*
X0000729173Y0003878396D01*
X0000727810Y0003871542D01*
X0000725136Y0003865087D01*
X0000721254Y0003859277D01*
X0000716313Y0003854336D01*
X0000710503Y0003850454D01*
X0000704047Y0003847780D01*
X0000698169Y0003846611D01*
X0000697194Y0003846417D01*
X0000690207Y0003846417D01*
X0000689231Y0003846611D01*
X0000683353Y0003847780D01*
X0000676898Y0003850454D01*
X0000671088Y0003854336D01*
X0000666147Y0003859277D01*
X0000662265Y0003865087D01*
X0000659591Y0003871542D01*
X0000658228Y0003878396D01*
X0000658228Y0003885383D01*
X0000659591Y0003892236D01*
X0000662265Y0003898692D01*
X0000666147Y0003904502D01*
X0000671088Y0003909443D01*
X0000676898Y0003913325D01*
X0000683353Y0003915999D01*
X0000689231Y0003917168D01*
X0000690207Y0003917362D01*
X0000697194Y0003917362D01*
X0000698169Y0003917168D01*
G37*
G36*
X0000598169Y0003917168D02*
G01*
X0000604047Y0003915999D01*
X0000610503Y0003913325D01*
X0000616313Y0003909443D01*
X0000621254Y0003904502D01*
X0000625136Y0003898692D01*
X0000627810Y0003892236D01*
X0000629173Y0003885383D01*
X0000629173Y0003878396D01*
X0000627810Y0003871542D01*
X0000625136Y0003865087D01*
X0000621254Y0003859277D01*
X0000616313Y0003854336D01*
X0000610503Y0003850454D01*
X0000604047Y0003847780D01*
X0000598169Y0003846611D01*
X0000597194Y0003846417D01*
X0000590207Y0003846417D01*
X0000589231Y0003846611D01*
X0000583353Y0003847780D01*
X0000576898Y0003850454D01*
X0000571088Y0003854336D01*
X0000566147Y0003859277D01*
X0000562265Y0003865087D01*
X0000559591Y0003871542D01*
X0000558228Y0003878396D01*
X0000558228Y0003885383D01*
X0000559591Y0003892236D01*
X0000562265Y0003898692D01*
X0000566147Y0003904502D01*
X0000571088Y0003909443D01*
X0000576898Y0003913325D01*
X0000583353Y0003915999D01*
X0000589231Y0003917168D01*
X0000590207Y0003917362D01*
X0000597194Y0003917362D01*
X0000598169Y0003917168D01*
G37*
G36*
X0000498169Y0003917168D02*
G01*
X0000504047Y0003915999D01*
X0000510503Y0003913325D01*
X0000516313Y0003909443D01*
X0000521254Y0003904502D01*
X0000525136Y0003898692D01*
X0000527810Y0003892236D01*
X0000529173Y0003885383D01*
X0000529173Y0003878396D01*
X0000527810Y0003871542D01*
X0000525136Y0003865087D01*
X0000521254Y0003859277D01*
X0000516313Y0003854336D01*
X0000510503Y0003850454D01*
X0000504047Y0003847780D01*
X0000498169Y0003846611D01*
X0000497194Y0003846417D01*
X0000490207Y0003846417D01*
X0000489231Y0003846611D01*
X0000483353Y0003847780D01*
X0000476898Y0003850454D01*
X0000471088Y0003854336D01*
X0000466147Y0003859277D01*
X0000462265Y0003865087D01*
X0000459591Y0003871542D01*
X0000458228Y0003878396D01*
X0000458228Y0003885383D01*
X0000459591Y0003892236D01*
X0000462265Y0003898692D01*
X0000466147Y0003904502D01*
X0000471088Y0003909443D01*
X0000476898Y0003913325D01*
X0000483353Y0003915999D01*
X0000489231Y0003917168D01*
X0000490207Y0003917362D01*
X0000497194Y0003917362D01*
X0000498169Y0003917168D01*
G37*
G36*
X0000429173Y0003846417D02*
G01*
X0000358228Y0003846417D01*
X0000358228Y0003917362D01*
X0000429173Y0003917362D01*
X0000429173Y0003846417D01*
G37*
G04 next file*
G04 #@! TF.GenerationSoftware,KiCad,Pcbnew,(5.1.5)-3*
G04 #@! TF.CreationDate,2020-01-11T21:56:43-08:00*
G04 #@! TF.ProjectId,frame_corners,6672616d-655f-4636-9f72-6e6572732e6b,rev?*
G04 #@! TF.SameCoordinates,PXe8840980PYdf933800*
G04 #@! TF.FileFunction,Soldermask,Bot*
G04 #@! TF.FilePolarity,Negative*
G04 Gerber Fmt 4.6, Leading zero omitted, Abs format (unit mm)*
G04 Created by KiCad (PCBNEW (5.1.5)-3) date 2020-01-11 21:56:43*
G04 APERTURE LIST*
G04 APERTURE END LIST*
D21*
G36*
X0000571398Y0002005357D02*
G01*
X0000577276Y0002004188D01*
X0000583731Y0002001514D01*
X0000589541Y0001997632D01*
X0000594482Y0001992691D01*
X0000598364Y0001986881D01*
X0000601038Y0001980425D01*
X0000602401Y0001973572D01*
X0000602401Y0001966585D01*
X0000601038Y0001959731D01*
X0000598364Y0001953276D01*
X0000594482Y0001947466D01*
X0000589541Y0001942525D01*
X0000583731Y0001938643D01*
X0000577276Y0001935969D01*
X0000571398Y0001934800D01*
X0000570422Y0001934606D01*
X0000563435Y0001934606D01*
X0000562460Y0001934800D01*
X0000556582Y0001935969D01*
X0000550126Y0001938643D01*
X0000544316Y0001942525D01*
X0000539375Y0001947466D01*
X0000535493Y0001953276D01*
X0000532819Y0001959731D01*
X0000531456Y0001966585D01*
X0000531456Y0001973572D01*
X0000532819Y0001980425D01*
X0000535493Y0001986881D01*
X0000539375Y0001992691D01*
X0000544316Y0001997632D01*
X0000550126Y0002001514D01*
X0000556582Y0002004188D01*
X0000562460Y0002005357D01*
X0000563435Y0002005551D01*
X0000570422Y0002005551D01*
X0000571398Y0002005357D01*
G37*
G36*
X0000671398Y0002005357D02*
G01*
X0000677276Y0002004188D01*
X0000683731Y0002001514D01*
X0000689541Y0001997632D01*
X0000694482Y0001992691D01*
X0000698364Y0001986881D01*
X0000701038Y0001980425D01*
X0000702401Y0001973572D01*
X0000702401Y0001966585D01*
X0000701038Y0001959731D01*
X0000698364Y0001953276D01*
X0000694482Y0001947466D01*
X0000689541Y0001942525D01*
X0000683731Y0001938643D01*
X0000677276Y0001935969D01*
X0000671398Y0001934800D01*
X0000670422Y0001934606D01*
X0000663435Y0001934606D01*
X0000662460Y0001934800D01*
X0000656582Y0001935969D01*
X0000650126Y0001938643D01*
X0000644316Y0001942525D01*
X0000639375Y0001947466D01*
X0000635493Y0001953276D01*
X0000632819Y0001959731D01*
X0000631456Y0001966585D01*
X0000631456Y0001973572D01*
X0000632819Y0001980425D01*
X0000635493Y0001986881D01*
X0000639375Y0001992691D01*
X0000644316Y0001997632D01*
X0000650126Y0002001514D01*
X0000656582Y0002004188D01*
X0000662460Y0002005357D01*
X0000663435Y0002005551D01*
X0000670422Y0002005551D01*
X0000671398Y0002005357D01*
G37*
G36*
X0000671398Y0002105357D02*
G01*
X0000677276Y0002104188D01*
X0000683731Y0002101514D01*
X0000689541Y0002097632D01*
X0000694482Y0002092691D01*
X0000698364Y0002086881D01*
X0000701038Y0002080425D01*
X0000702401Y0002073572D01*
X0000702401Y0002066585D01*
X0000701038Y0002059731D01*
X0000698364Y0002053276D01*
X0000694482Y0002047466D01*
X0000689541Y0002042525D01*
X0000683731Y0002038643D01*
X0000677276Y0002035969D01*
X0000671398Y0002034800D01*
X0000670422Y0002034606D01*
X0000663435Y0002034606D01*
X0000662460Y0002034800D01*
X0000656582Y0002035969D01*
X0000650126Y0002038643D01*
X0000644316Y0002042525D01*
X0000639375Y0002047466D01*
X0000635493Y0002053276D01*
X0000632819Y0002059731D01*
X0000631456Y0002066585D01*
X0000631456Y0002073572D01*
X0000632819Y0002080425D01*
X0000635493Y0002086881D01*
X0000639375Y0002092691D01*
X0000644316Y0002097632D01*
X0000650126Y0002101514D01*
X0000656582Y0002104188D01*
X0000662460Y0002105357D01*
X0000663435Y0002105551D01*
X0000670422Y0002105551D01*
X0000671398Y0002105357D01*
G37*
G36*
X0000571398Y0002105357D02*
G01*
X0000577276Y0002104188D01*
X0000583731Y0002101514D01*
X0000589541Y0002097632D01*
X0000594482Y0002092691D01*
X0000598364Y0002086881D01*
X0000601038Y0002080425D01*
X0000602401Y0002073572D01*
X0000602401Y0002066585D01*
X0000601038Y0002059731D01*
X0000598364Y0002053276D01*
X0000594482Y0002047466D01*
X0000589541Y0002042525D01*
X0000583731Y0002038643D01*
X0000577276Y0002035969D01*
X0000571398Y0002034800D01*
X0000570422Y0002034606D01*
X0000563435Y0002034606D01*
X0000562460Y0002034800D01*
X0000556582Y0002035969D01*
X0000550126Y0002038643D01*
X0000544316Y0002042525D01*
X0000539375Y0002047466D01*
X0000535493Y0002053276D01*
X0000532819Y0002059731D01*
X0000531456Y0002066585D01*
X0000531456Y0002073572D01*
X0000532819Y0002080425D01*
X0000535493Y0002086881D01*
X0000539375Y0002092691D01*
X0000544316Y0002097632D01*
X0000550126Y0002101514D01*
X0000556582Y0002104188D01*
X0000562460Y0002105357D01*
X0000563435Y0002105551D01*
X0000570422Y0002105551D01*
X0000571398Y0002105357D01*
G37*
G36*
X0000671398Y0002205357D02*
G01*
X0000677276Y0002204188D01*
X0000683731Y0002201514D01*
X0000689541Y0002197631D01*
X0000694482Y0002192691D01*
X0000698364Y0002186881D01*
X0000701038Y0002180425D01*
X0000702401Y0002173572D01*
X0000702401Y0002166585D01*
X0000701038Y0002159731D01*
X0000698364Y0002153276D01*
X0000694482Y0002147466D01*
X0000689541Y0002142525D01*
X0000683731Y0002138643D01*
X0000677276Y0002135969D01*
X0000671398Y0002134800D01*
X0000670422Y0002134606D01*
X0000663435Y0002134606D01*
X0000662460Y0002134800D01*
X0000656582Y0002135969D01*
X0000650126Y0002138643D01*
X0000644316Y0002142525D01*
X0000639375Y0002147466D01*
X0000635493Y0002153276D01*
X0000632819Y0002159731D01*
X0000631456Y0002166585D01*
X0000631456Y0002173572D01*
X0000632819Y0002180425D01*
X0000635493Y0002186881D01*
X0000639375Y0002192691D01*
X0000644316Y0002197631D01*
X0000650126Y0002201514D01*
X0000656582Y0002204188D01*
X0000662460Y0002205357D01*
X0000663435Y0002205551D01*
X0000670422Y0002205551D01*
X0000671398Y0002205357D01*
G37*
G36*
X0000571398Y0002205357D02*
G01*
X0000577276Y0002204188D01*
X0000583731Y0002201514D01*
X0000589541Y0002197631D01*
X0000594482Y0002192691D01*
X0000598364Y0002186881D01*
X0000601038Y0002180425D01*
X0000602401Y0002173572D01*
X0000602401Y0002166585D01*
X0000601038Y0002159731D01*
X0000598364Y0002153276D01*
X0000594482Y0002147466D01*
X0000589541Y0002142525D01*
X0000583731Y0002138643D01*
X0000577276Y0002135969D01*
X0000571398Y0002134800D01*
X0000570422Y0002134606D01*
X0000563435Y0002134606D01*
X0000562460Y0002134800D01*
X0000556582Y0002135969D01*
X0000550126Y0002138643D01*
X0000544316Y0002142525D01*
X0000539375Y0002147466D01*
X0000535493Y0002153276D01*
X0000532819Y0002159731D01*
X0000531456Y0002166585D01*
X0000531456Y0002173572D01*
X0000532819Y0002180425D01*
X0000535493Y0002186881D01*
X0000539375Y0002192691D01*
X0000544316Y0002197631D01*
X0000550126Y0002201514D01*
X0000556582Y0002204188D01*
X0000562460Y0002205357D01*
X0000563435Y0002205551D01*
X0000570422Y0002205551D01*
X0000571398Y0002205357D01*
G37*
G36*
X0000571398Y0002305357D02*
G01*
X0000577276Y0002304188D01*
X0000583731Y0002301514D01*
X0000589541Y0002297632D01*
X0000594482Y0002292691D01*
X0000598364Y0002286881D01*
X0000601038Y0002280425D01*
X0000602401Y0002273572D01*
X0000602401Y0002266585D01*
X0000601038Y0002259731D01*
X0000598364Y0002253276D01*
X0000594482Y0002247466D01*
X0000589541Y0002242525D01*
X0000583731Y0002238643D01*
X0000577276Y0002235969D01*
X0000571398Y0002234800D01*
X0000570422Y0002234606D01*
X0000563435Y0002234606D01*
X0000562460Y0002234800D01*
X0000556582Y0002235969D01*
X0000550126Y0002238643D01*
X0000544316Y0002242525D01*
X0000539375Y0002247466D01*
X0000535493Y0002253276D01*
X0000532819Y0002259731D01*
X0000531456Y0002266585D01*
X0000531456Y0002273572D01*
X0000532819Y0002280425D01*
X0000535493Y0002286881D01*
X0000539375Y0002292691D01*
X0000544316Y0002297632D01*
X0000550126Y0002301514D01*
X0000556582Y0002304188D01*
X0000562460Y0002305357D01*
X0000563435Y0002305551D01*
X0000570422Y0002305551D01*
X0000571398Y0002305357D01*
G37*
G36*
X0000671398Y0002305357D02*
G01*
X0000677276Y0002304188D01*
X0000683731Y0002301514D01*
X0000689541Y0002297632D01*
X0000694482Y0002292691D01*
X0000698364Y0002286881D01*
X0000701038Y0002280425D01*
X0000702401Y0002273572D01*
X0000702401Y0002266585D01*
X0000701038Y0002259731D01*
X0000698364Y0002253276D01*
X0000694482Y0002247466D01*
X0000689541Y0002242525D01*
X0000683731Y0002238643D01*
X0000677276Y0002235969D01*
X0000671398Y0002234800D01*
X0000670422Y0002234606D01*
X0000663435Y0002234606D01*
X0000662460Y0002234800D01*
X0000656582Y0002235969D01*
X0000650126Y0002238643D01*
X0000644316Y0002242525D01*
X0000639375Y0002247466D01*
X0000635493Y0002253276D01*
X0000632819Y0002259731D01*
X0000631456Y0002266585D01*
X0000631456Y0002273572D01*
X0000632819Y0002280425D01*
X0000635493Y0002286881D01*
X0000639375Y0002292691D01*
X0000644316Y0002297632D01*
X0000650126Y0002301514D01*
X0000656582Y0002304188D01*
X0000662460Y0002305357D01*
X0000663435Y0002305551D01*
X0000670422Y0002305551D01*
X0000671398Y0002305357D01*
G37*
G36*
X0000602401Y0002334606D02*
G01*
X0000531456Y0002334606D01*
X0000531456Y0002405551D01*
X0000602401Y0002405551D01*
X0000602401Y0002334606D01*
G37*
G36*
X0000671398Y0002405357D02*
G01*
X0000677276Y0002404188D01*
X0000683731Y0002401514D01*
X0000689541Y0002397632D01*
X0000694482Y0002392691D01*
X0000698364Y0002386881D01*
X0000701038Y0002380425D01*
X0000702401Y0002373572D01*
X0000702401Y0002366585D01*
X0000701038Y0002359731D01*
X0000698364Y0002353276D01*
X0000694482Y0002347466D01*
X0000689541Y0002342525D01*
X0000683731Y0002338643D01*
X0000677276Y0002335969D01*
X0000671398Y0002334800D01*
X0000670422Y0002334606D01*
X0000663435Y0002334606D01*
X0000662460Y0002334800D01*
X0000656582Y0002335969D01*
X0000650126Y0002338643D01*
X0000644316Y0002342525D01*
X0000639375Y0002347466D01*
X0000635493Y0002353276D01*
X0000632819Y0002359731D01*
X0000631456Y0002366585D01*
X0000631456Y0002373572D01*
X0000632819Y0002380425D01*
X0000635493Y0002386881D01*
X0000639375Y0002392691D01*
X0000644316Y0002397632D01*
X0000650126Y0002401514D01*
X0000656582Y0002404188D01*
X0000662460Y0002405357D01*
X0000663435Y0002405551D01*
X0000670422Y0002405551D01*
X0000671398Y0002405357D01*
G37*
G36*
X0000756872Y0002524759D02*
G01*
X0000761249Y0002523888D01*
X0000769496Y0002520472D01*
X0000776918Y0002515513D01*
X0000783229Y0002509201D01*
X0000788189Y0002501779D01*
X0000791605Y0002493532D01*
X0000793346Y0002484778D01*
X0000793346Y0002475851D01*
X0000791605Y0002467097D01*
X0000788189Y0002458850D01*
X0000783229Y0002451428D01*
X0000776918Y0002445116D01*
X0000769496Y0002440157D01*
X0000761249Y0002436741D01*
X0000756872Y0002435870D01*
X0000752494Y0002435000D01*
X0000743568Y0002435000D01*
X0000739190Y0002435870D01*
X0000734813Y0002436741D01*
X0000726566Y0002440157D01*
X0000719144Y0002445116D01*
X0000712833Y0002451428D01*
X0000707873Y0002458850D01*
X0000704457Y0002467097D01*
X0000702716Y0002475851D01*
X0000702716Y0002484778D01*
X0000704457Y0002493532D01*
X0000707873Y0002501779D01*
X0000712833Y0002509201D01*
X0000719144Y0002515513D01*
X0000726566Y0002520472D01*
X0000734813Y0002523888D01*
X0000739190Y0002524759D01*
X0000743568Y0002525629D01*
X0000752494Y0002525629D01*
X0000756872Y0002524759D01*
G37*
G36*
X0000571398Y0002666774D02*
G01*
X0000577276Y0002665605D01*
X0000583731Y0002662931D01*
X0000589541Y0002659049D01*
X0000594482Y0002654108D01*
X0000598364Y0002648298D01*
X0000601038Y0002641842D01*
X0000602401Y0002634989D01*
X0000602401Y0002628002D01*
X0000601038Y0002621149D01*
X0000598364Y0002614693D01*
X0000594482Y0002608883D01*
X0000589541Y0002603942D01*
X0000583731Y0002600060D01*
X0000577276Y0002597386D01*
X0000571398Y0002596217D01*
X0000570422Y0002596023D01*
X0000563435Y0002596023D01*
X0000562460Y0002596217D01*
X0000556582Y0002597386D01*
X0000550126Y0002600060D01*
X0000544316Y0002603942D01*
X0000539375Y0002608883D01*
X0000535493Y0002614693D01*
X0000532819Y0002621149D01*
X0000531456Y0002628002D01*
X0000531456Y0002634989D01*
X0000532819Y0002641842D01*
X0000535493Y0002648298D01*
X0000539375Y0002654108D01*
X0000544316Y0002659049D01*
X0000550126Y0002662931D01*
X0000556582Y0002665605D01*
X0000562460Y0002666774D01*
X0000563435Y0002666968D01*
X0000570422Y0002666968D01*
X0000571398Y0002666774D01*
G37*
G36*
X0000671398Y0002666774D02*
G01*
X0000677276Y0002665605D01*
X0000683731Y0002662931D01*
X0000689541Y0002659049D01*
X0000694482Y0002654108D01*
X0000698364Y0002648298D01*
X0000701038Y0002641842D01*
X0000702401Y0002634989D01*
X0000702401Y0002628002D01*
X0000701038Y0002621149D01*
X0000698364Y0002614693D01*
X0000694482Y0002608883D01*
X0000689541Y0002603942D01*
X0000683731Y0002600060D01*
X0000677276Y0002597386D01*
X0000671398Y0002596217D01*
X0000670422Y0002596023D01*
X0000663435Y0002596023D01*
X0000662460Y0002596217D01*
X0000656582Y0002597386D01*
X0000650126Y0002600060D01*
X0000644316Y0002603942D01*
X0000639375Y0002608883D01*
X0000635493Y0002614693D01*
X0000632819Y0002621149D01*
X0000631456Y0002628002D01*
X0000631456Y0002634989D01*
X0000632819Y0002641842D01*
X0000635493Y0002648298D01*
X0000639375Y0002654108D01*
X0000644316Y0002659049D01*
X0000650126Y0002662931D01*
X0000656582Y0002665605D01*
X0000662460Y0002666774D01*
X0000663435Y0002666968D01*
X0000670422Y0002666968D01*
X0000671398Y0002666774D01*
G37*
G36*
X0000571398Y0002766774D02*
G01*
X0000577276Y0002765605D01*
X0000583731Y0002762931D01*
X0000589541Y0002759049D01*
X0000594482Y0002754108D01*
X0000598364Y0002748298D01*
X0000601038Y0002741842D01*
X0000602401Y0002734989D01*
X0000602401Y0002728002D01*
X0000601038Y0002721149D01*
X0000598364Y0002714693D01*
X0000594482Y0002708883D01*
X0000589541Y0002703942D01*
X0000583731Y0002700060D01*
X0000577276Y0002697386D01*
X0000571398Y0002696217D01*
X0000570422Y0002696023D01*
X0000563435Y0002696023D01*
X0000562460Y0002696217D01*
X0000556582Y0002697386D01*
X0000550126Y0002700060D01*
X0000544316Y0002703942D01*
X0000539375Y0002708883D01*
X0000535493Y0002714693D01*
X0000532819Y0002721149D01*
X0000531456Y0002728002D01*
X0000531456Y0002734989D01*
X0000532819Y0002741842D01*
X0000535493Y0002748298D01*
X0000539375Y0002754108D01*
X0000544316Y0002759049D01*
X0000550126Y0002762931D01*
X0000556582Y0002765605D01*
X0000562460Y0002766774D01*
X0000563435Y0002766968D01*
X0000570422Y0002766968D01*
X0000571398Y0002766774D01*
G37*
G36*
X0000671398Y0002766774D02*
G01*
X0000677276Y0002765605D01*
X0000683731Y0002762931D01*
X0000689541Y0002759049D01*
X0000694482Y0002754108D01*
X0000698364Y0002748298D01*
X0000701038Y0002741842D01*
X0000702401Y0002734989D01*
X0000702401Y0002728002D01*
X0000701038Y0002721149D01*
X0000698364Y0002714693D01*
X0000694482Y0002708883D01*
X0000689541Y0002703942D01*
X0000683731Y0002700060D01*
X0000677276Y0002697386D01*
X0000671398Y0002696217D01*
X0000670422Y0002696023D01*
X0000663435Y0002696023D01*
X0000662460Y0002696217D01*
X0000656582Y0002697386D01*
X0000650126Y0002700060D01*
X0000644316Y0002703942D01*
X0000639375Y0002708883D01*
X0000635493Y0002714693D01*
X0000632819Y0002721149D01*
X0000631456Y0002728002D01*
X0000631456Y0002734989D01*
X0000632819Y0002741842D01*
X0000635493Y0002748298D01*
X0000639375Y0002754108D01*
X0000644316Y0002759049D01*
X0000650126Y0002762931D01*
X0000656582Y0002765605D01*
X0000662460Y0002766774D01*
X0000663435Y0002766968D01*
X0000670422Y0002766968D01*
X0000671398Y0002766774D01*
G37*
G36*
X0000571398Y0002866774D02*
G01*
X0000577276Y0002865605D01*
X0000583731Y0002862931D01*
X0000589541Y0002859049D01*
X0000594482Y0002854108D01*
X0000598364Y0002848298D01*
X0000601038Y0002841842D01*
X0000602401Y0002834989D01*
X0000602401Y0002828002D01*
X0000601038Y0002821149D01*
X0000598364Y0002814693D01*
X0000594482Y0002808883D01*
X0000589541Y0002803942D01*
X0000583731Y0002800060D01*
X0000577276Y0002797386D01*
X0000571398Y0002796217D01*
X0000570422Y0002796023D01*
X0000563435Y0002796023D01*
X0000562460Y0002796217D01*
X0000556582Y0002797386D01*
X0000550126Y0002800060D01*
X0000544316Y0002803942D01*
X0000539375Y0002808883D01*
X0000535493Y0002814693D01*
X0000532819Y0002821149D01*
X0000531456Y0002828002D01*
X0000531456Y0002834989D01*
X0000532819Y0002841842D01*
X0000535493Y0002848298D01*
X0000539375Y0002854108D01*
X0000544316Y0002859049D01*
X0000550126Y0002862931D01*
X0000556582Y0002865605D01*
X0000562460Y0002866774D01*
X0000563435Y0002866968D01*
X0000570422Y0002866968D01*
X0000571398Y0002866774D01*
G37*
G36*
X0000671398Y0002866774D02*
G01*
X0000677276Y0002865605D01*
X0000683731Y0002862931D01*
X0000689541Y0002859049D01*
X0000694482Y0002854108D01*
X0000698364Y0002848298D01*
X0000701038Y0002841842D01*
X0000702401Y0002834989D01*
X0000702401Y0002828002D01*
X0000701038Y0002821149D01*
X0000698364Y0002814693D01*
X0000694482Y0002808883D01*
X0000689541Y0002803942D01*
X0000683731Y0002800060D01*
X0000677276Y0002797386D01*
X0000671398Y0002796217D01*
X0000670422Y0002796023D01*
X0000663435Y0002796023D01*
X0000662460Y0002796217D01*
X0000656582Y0002797386D01*
X0000650126Y0002800060D01*
X0000644316Y0002803942D01*
X0000639375Y0002808883D01*
X0000635493Y0002814693D01*
X0000632819Y0002821149D01*
X0000631456Y0002828002D01*
X0000631456Y0002834989D01*
X0000632819Y0002841842D01*
X0000635493Y0002848298D01*
X0000639375Y0002854108D01*
X0000644316Y0002859049D01*
X0000650126Y0002862931D01*
X0000656582Y0002865605D01*
X0000662460Y0002866774D01*
X0000663435Y0002866968D01*
X0000670422Y0002866968D01*
X0000671398Y0002866774D01*
G37*
G36*
X0000671398Y0002966774D02*
G01*
X0000677276Y0002965605D01*
X0000683731Y0002962931D01*
X0000689541Y0002959049D01*
X0000694482Y0002954108D01*
X0000698364Y0002948298D01*
X0000701038Y0002941842D01*
X0000702401Y0002934989D01*
X0000702401Y0002928002D01*
X0000701038Y0002921149D01*
X0000698364Y0002914693D01*
X0000694482Y0002908883D01*
X0000689541Y0002903942D01*
X0000683731Y0002900060D01*
X0000677276Y0002897386D01*
X0000671398Y0002896217D01*
X0000670422Y0002896023D01*
X0000663435Y0002896023D01*
X0000662460Y0002896217D01*
X0000656582Y0002897386D01*
X0000650126Y0002900060D01*
X0000644316Y0002903942D01*
X0000639375Y0002908883D01*
X0000635493Y0002914693D01*
X0000632819Y0002921149D01*
X0000631456Y0002928002D01*
X0000631456Y0002934989D01*
X0000632819Y0002941842D01*
X0000635493Y0002948298D01*
X0000639375Y0002954108D01*
X0000644316Y0002959049D01*
X0000650126Y0002962931D01*
X0000656582Y0002965605D01*
X0000662460Y0002966774D01*
X0000663435Y0002966968D01*
X0000670422Y0002966968D01*
X0000671398Y0002966774D01*
G37*
G36*
X0000571398Y0002966774D02*
G01*
X0000577276Y0002965605D01*
X0000583731Y0002962931D01*
X0000589541Y0002959049D01*
X0000594482Y0002954108D01*
X0000598364Y0002948298D01*
X0000601038Y0002941842D01*
X0000602401Y0002934989D01*
X0000602401Y0002928002D01*
X0000601038Y0002921149D01*
X0000598364Y0002914693D01*
X0000594482Y0002908883D01*
X0000589541Y0002903942D01*
X0000583731Y0002900060D01*
X0000577276Y0002897386D01*
X0000571398Y0002896217D01*
X0000570422Y0002896023D01*
X0000563435Y0002896023D01*
X0000562460Y0002896217D01*
X0000556582Y0002897386D01*
X0000550126Y0002900060D01*
X0000544316Y0002903942D01*
X0000539375Y0002908883D01*
X0000535493Y0002914693D01*
X0000532819Y0002921149D01*
X0000531456Y0002928002D01*
X0000531456Y0002934989D01*
X0000532819Y0002941842D01*
X0000535493Y0002948298D01*
X0000539375Y0002954108D01*
X0000544316Y0002959049D01*
X0000550126Y0002962931D01*
X0000556582Y0002965605D01*
X0000562460Y0002966774D01*
X0000563435Y0002966968D01*
X0000570422Y0002966968D01*
X0000571398Y0002966774D01*
G37*
G36*
X0000671398Y0003066774D02*
G01*
X0000677276Y0003065605D01*
X0000683731Y0003062931D01*
X0000689541Y0003059049D01*
X0000694482Y0003054108D01*
X0000698364Y0003048298D01*
X0000701038Y0003041842D01*
X0000702401Y0003034989D01*
X0000702401Y0003028002D01*
X0000701038Y0003021149D01*
X0000698364Y0003014693D01*
X0000694482Y0003008883D01*
X0000689541Y0003003942D01*
X0000683731Y0003000060D01*
X0000677276Y0002997386D01*
X0000671398Y0002996217D01*
X0000670422Y0002996023D01*
X0000663435Y0002996023D01*
X0000662460Y0002996217D01*
X0000656582Y0002997386D01*
X0000650126Y0003000060D01*
X0000644316Y0003003942D01*
X0000639375Y0003008883D01*
X0000635493Y0003014693D01*
X0000632819Y0003021149D01*
X0000631456Y0003028002D01*
X0000631456Y0003034989D01*
X0000632819Y0003041842D01*
X0000635493Y0003048298D01*
X0000639375Y0003054108D01*
X0000644316Y0003059049D01*
X0000650126Y0003062931D01*
X0000656582Y0003065605D01*
X0000662460Y0003066774D01*
X0000663435Y0003066968D01*
X0000670422Y0003066968D01*
X0000671398Y0003066774D01*
G37*
G36*
X0000602401Y0002996023D02*
G01*
X0000531456Y0002996023D01*
X0000531456Y0003066968D01*
X0000602401Y0003066968D01*
X0000602401Y0002996023D01*
G37*
G36*
X0002402541Y0003233420D02*
G01*
X0002406918Y0003232549D01*
X0002415165Y0003229133D01*
X0002422587Y0003224174D01*
X0002428899Y0003217862D01*
X0002433858Y0003210441D01*
X0002437274Y0003202194D01*
X0002439015Y0003193439D01*
X0002439015Y0003184513D01*
X0002437274Y0003175758D01*
X0002433858Y0003167511D01*
X0002428899Y0003160089D01*
X0002422587Y0003153777D01*
X0002415165Y0003148818D01*
X0002406918Y0003145402D01*
X0002402541Y0003144532D01*
X0002398163Y0003143661D01*
X0002389237Y0003143661D01*
X0002384860Y0003144532D01*
X0002380482Y0003145402D01*
X0002372236Y0003148818D01*
X0002364814Y0003153777D01*
X0002358502Y0003160089D01*
X0002353543Y0003167511D01*
X0002350127Y0003175758D01*
X0002348385Y0003184513D01*
X0002348385Y0003193439D01*
X0002350127Y0003202194D01*
X0002353543Y0003210441D01*
X0002358502Y0003217862D01*
X0002364814Y0003224174D01*
X0002372236Y0003229133D01*
X0002380482Y0003232549D01*
X0002384860Y0003233420D01*
X0002389237Y0003234291D01*
X0002398163Y0003234291D01*
X0002402541Y0003233420D01*
G37*
G36*
X0000756872Y0003233420D02*
G01*
X0000761249Y0003232549D01*
X0000769496Y0003229133D01*
X0000776918Y0003224174D01*
X0000783229Y0003217862D01*
X0000788189Y0003210441D01*
X0000791605Y0003202194D01*
X0000793346Y0003193439D01*
X0000793346Y0003184513D01*
X0000791605Y0003175758D01*
X0000788189Y0003167511D01*
X0000783229Y0003160089D01*
X0000776918Y0003153777D01*
X0000769496Y0003148818D01*
X0000761249Y0003145402D01*
X0000756872Y0003144532D01*
X0000752494Y0003143661D01*
X0000743568Y0003143661D01*
X0000739190Y0003144532D01*
X0000734813Y0003145402D01*
X0000726566Y0003148818D01*
X0000719144Y0003153777D01*
X0000712833Y0003160089D01*
X0000707873Y0003167511D01*
X0000704457Y0003175758D01*
X0000702716Y0003184513D01*
X0000702716Y0003193439D01*
X0000704457Y0003202194D01*
X0000707873Y0003210441D01*
X0000712833Y0003217862D01*
X0000719144Y0003224174D01*
X0000726566Y0003229133D01*
X0000734813Y0003232549D01*
X0000739190Y0003233420D01*
X0000743568Y0003234291D01*
X0000752494Y0003234291D01*
X0000756872Y0003233420D01*
G37*
G36*
X0001465533Y0003233420D02*
G01*
X0001469910Y0003232549D01*
X0001478157Y0003229133D01*
X0001485579Y0003224174D01*
X0001491891Y0003217862D01*
X0001496850Y0003210441D01*
X0001500266Y0003202194D01*
X0001502007Y0003193439D01*
X0001502007Y0003184513D01*
X0001500266Y0003175758D01*
X0001496850Y0003167511D01*
X0001491891Y0003160089D01*
X0001485579Y0003153777D01*
X0001478157Y0003148818D01*
X0001469910Y0003145402D01*
X0001465533Y0003144532D01*
X0001461156Y0003143661D01*
X0001452229Y0003143661D01*
X0001447852Y0003144532D01*
X0001443475Y0003145402D01*
X0001435228Y0003148818D01*
X0001427806Y0003153777D01*
X0001421494Y0003160089D01*
X0001416535Y0003167511D01*
X0001413119Y0003175758D01*
X0001411377Y0003184513D01*
X0001411377Y0003193439D01*
X0001413119Y0003202194D01*
X0001416535Y0003210441D01*
X0001421494Y0003217862D01*
X0001427806Y0003224174D01*
X0001435228Y0003229133D01*
X0001443475Y0003232549D01*
X0001447852Y0003233420D01*
X0001452229Y0003234291D01*
X0001461156Y0003234291D01*
X0001465533Y0003233420D01*
G37*
G36*
X0001309980Y0003305357D02*
G01*
X0001315858Y0003304188D01*
X0001322314Y0003301514D01*
X0001328124Y0003297632D01*
X0001333065Y0003292691D01*
X0001336947Y0003286881D01*
X0001339621Y0003280425D01*
X0001340984Y0003273572D01*
X0001340984Y0003266585D01*
X0001339621Y0003259731D01*
X0001336947Y0003253276D01*
X0001333065Y0003247466D01*
X0001328124Y0003242525D01*
X0001322314Y0003238643D01*
X0001315858Y0003235969D01*
X0001309980Y0003234800D01*
X0001309005Y0003234606D01*
X0001302018Y0003234606D01*
X0001301042Y0003234800D01*
X0001295164Y0003235969D01*
X0001288709Y0003238643D01*
X0001282899Y0003242525D01*
X0001277958Y0003247466D01*
X0001274076Y0003253276D01*
X0001271402Y0003259731D01*
X0001270039Y0003266585D01*
X0001270039Y0003273572D01*
X0001271402Y0003280425D01*
X0001274076Y0003286881D01*
X0001277958Y0003292691D01*
X0001282899Y0003297632D01*
X0001288709Y0003301514D01*
X0001295164Y0003304188D01*
X0001301042Y0003305357D01*
X0001302018Y0003305551D01*
X0001309005Y0003305551D01*
X0001309980Y0003305357D01*
G37*
G36*
X0000909980Y0003305357D02*
G01*
X0000915858Y0003304188D01*
X0000922314Y0003301514D01*
X0000928124Y0003297632D01*
X0000933065Y0003292691D01*
X0000936947Y0003286881D01*
X0000939621Y0003280425D01*
X0000940984Y0003273572D01*
X0000940984Y0003266585D01*
X0000939621Y0003259731D01*
X0000936947Y0003253276D01*
X0000933065Y0003247466D01*
X0000928124Y0003242525D01*
X0000922314Y0003238643D01*
X0000915858Y0003235969D01*
X0000909980Y0003234800D01*
X0000909005Y0003234606D01*
X0000902018Y0003234606D01*
X0000901042Y0003234800D01*
X0000895164Y0003235969D01*
X0000888709Y0003238643D01*
X0000882899Y0003242525D01*
X0000877958Y0003247466D01*
X0000874076Y0003253276D01*
X0000871402Y0003259731D01*
X0000870039Y0003266585D01*
X0000870039Y0003273572D01*
X0000871402Y0003280425D01*
X0000874076Y0003286881D01*
X0000877958Y0003292691D01*
X0000882899Y0003297632D01*
X0000888709Y0003301514D01*
X0000895164Y0003304188D01*
X0000901042Y0003305357D01*
X0000902018Y0003305551D01*
X0000909005Y0003305551D01*
X0000909980Y0003305357D01*
G37*
G36*
X0001009980Y0003305357D02*
G01*
X0001015858Y0003304188D01*
X0001022314Y0003301514D01*
X0001028124Y0003297632D01*
X0001033065Y0003292691D01*
X0001036947Y0003286881D01*
X0001039621Y0003280425D01*
X0001040984Y0003273572D01*
X0001040984Y0003266585D01*
X0001039621Y0003259731D01*
X0001036947Y0003253276D01*
X0001033065Y0003247466D01*
X0001028124Y0003242525D01*
X0001022314Y0003238643D01*
X0001015858Y0003235969D01*
X0001009980Y0003234800D01*
X0001009005Y0003234606D01*
X0001002018Y0003234606D01*
X0001001042Y0003234800D01*
X0000995164Y0003235969D01*
X0000988709Y0003238643D01*
X0000982899Y0003242525D01*
X0000977958Y0003247466D01*
X0000974076Y0003253276D01*
X0000971402Y0003259731D01*
X0000970039Y0003266585D01*
X0000970039Y0003273572D01*
X0000971402Y0003280425D01*
X0000974076Y0003286881D01*
X0000977958Y0003292691D01*
X0000982899Y0003297632D01*
X0000988709Y0003301514D01*
X0000995164Y0003304188D01*
X0001001042Y0003305357D01*
X0001002018Y0003305551D01*
X0001009005Y0003305551D01*
X0001009980Y0003305357D01*
G37*
G36*
X0001571398Y0003305357D02*
G01*
X0001577276Y0003304188D01*
X0001583731Y0003301514D01*
X0001589541Y0003297632D01*
X0001594482Y0003292691D01*
X0001598364Y0003286881D01*
X0001601038Y0003280425D01*
X0001602401Y0003273572D01*
X0001602401Y0003266585D01*
X0001601038Y0003259731D01*
X0001598364Y0003253276D01*
X0001594482Y0003247466D01*
X0001589541Y0003242525D01*
X0001583731Y0003238643D01*
X0001577276Y0003235969D01*
X0001571398Y0003234800D01*
X0001570422Y0003234606D01*
X0001563435Y0003234606D01*
X0001562460Y0003234800D01*
X0001556582Y0003235969D01*
X0001550126Y0003238643D01*
X0001544316Y0003242525D01*
X0001539375Y0003247466D01*
X0001535493Y0003253276D01*
X0001532819Y0003259731D01*
X0001531456Y0003266585D01*
X0001531456Y0003273572D01*
X0001532819Y0003280425D01*
X0001535493Y0003286881D01*
X0001539375Y0003292691D01*
X0001544316Y0003297632D01*
X0001550126Y0003301514D01*
X0001556582Y0003304188D01*
X0001562460Y0003305357D01*
X0001563435Y0003305551D01*
X0001570422Y0003305551D01*
X0001571398Y0003305357D01*
G37*
G36*
X0001771398Y0003305357D02*
G01*
X0001777276Y0003304188D01*
X0001783731Y0003301514D01*
X0001789541Y0003297632D01*
X0001794482Y0003292691D01*
X0001798364Y0003286881D01*
X0001801038Y0003280425D01*
X0001802401Y0003273572D01*
X0001802401Y0003266585D01*
X0001801038Y0003259731D01*
X0001798364Y0003253276D01*
X0001794482Y0003247466D01*
X0001789541Y0003242525D01*
X0001783731Y0003238643D01*
X0001777276Y0003235969D01*
X0001771398Y0003234800D01*
X0001770422Y0003234606D01*
X0001763435Y0003234606D01*
X0001762460Y0003234800D01*
X0001756582Y0003235969D01*
X0001750126Y0003238643D01*
X0001744316Y0003242525D01*
X0001739375Y0003247466D01*
X0001735493Y0003253276D01*
X0001732819Y0003259731D01*
X0001731456Y0003266585D01*
X0001731456Y0003273572D01*
X0001732819Y0003280425D01*
X0001735493Y0003286881D01*
X0001739375Y0003292691D01*
X0001744316Y0003297632D01*
X0001750126Y0003301514D01*
X0001756582Y0003304188D01*
X0001762460Y0003305357D01*
X0001763435Y0003305551D01*
X0001770422Y0003305551D01*
X0001771398Y0003305357D01*
G37*
G36*
X0001871398Y0003305357D02*
G01*
X0001877276Y0003304188D01*
X0001883731Y0003301514D01*
X0001889541Y0003297632D01*
X0001894482Y0003292691D01*
X0001898364Y0003286881D01*
X0001901038Y0003280425D01*
X0001902401Y0003273572D01*
X0001902401Y0003266585D01*
X0001901038Y0003259731D01*
X0001898364Y0003253276D01*
X0001894482Y0003247466D01*
X0001889541Y0003242525D01*
X0001883731Y0003238643D01*
X0001877276Y0003235969D01*
X0001871398Y0003234800D01*
X0001870422Y0003234606D01*
X0001863435Y0003234606D01*
X0001862460Y0003234800D01*
X0001856582Y0003235969D01*
X0001850126Y0003238643D01*
X0001844316Y0003242525D01*
X0001839375Y0003247466D01*
X0001835493Y0003253276D01*
X0001832819Y0003259731D01*
X0001831456Y0003266585D01*
X0001831456Y0003273572D01*
X0001832819Y0003280425D01*
X0001835493Y0003286881D01*
X0001839375Y0003292691D01*
X0001844316Y0003297632D01*
X0001850126Y0003301514D01*
X0001856582Y0003304188D01*
X0001862460Y0003305357D01*
X0001863435Y0003305551D01*
X0001870422Y0003305551D01*
X0001871398Y0003305357D01*
G37*
G36*
X0001971398Y0003305357D02*
G01*
X0001977276Y0003304188D01*
X0001983731Y0003301514D01*
X0001989541Y0003297632D01*
X0001994482Y0003292691D01*
X0001998364Y0003286881D01*
X0002001038Y0003280425D01*
X0002002401Y0003273572D01*
X0002002401Y0003266585D01*
X0002001038Y0003259731D01*
X0001998364Y0003253276D01*
X0001994482Y0003247466D01*
X0001989541Y0003242525D01*
X0001983731Y0003238643D01*
X0001977276Y0003235969D01*
X0001971398Y0003234800D01*
X0001970422Y0003234606D01*
X0001963435Y0003234606D01*
X0001962460Y0003234800D01*
X0001956582Y0003235969D01*
X0001950126Y0003238643D01*
X0001944316Y0003242525D01*
X0001939375Y0003247466D01*
X0001935493Y0003253276D01*
X0001932819Y0003259731D01*
X0001931456Y0003266585D01*
X0001931456Y0003273572D01*
X0001932819Y0003280425D01*
X0001935493Y0003286881D01*
X0001939375Y0003292691D01*
X0001944316Y0003297632D01*
X0001950126Y0003301514D01*
X0001956582Y0003304188D01*
X0001962460Y0003305357D01*
X0001963435Y0003305551D01*
X0001970422Y0003305551D01*
X0001971398Y0003305357D01*
G37*
G36*
X0001109980Y0003305357D02*
G01*
X0001115858Y0003304188D01*
X0001122314Y0003301514D01*
X0001128124Y0003297632D01*
X0001133065Y0003292691D01*
X0001136947Y0003286881D01*
X0001139621Y0003280425D01*
X0001140984Y0003273572D01*
X0001140984Y0003266585D01*
X0001139621Y0003259731D01*
X0001136947Y0003253276D01*
X0001133065Y0003247466D01*
X0001128124Y0003242525D01*
X0001122314Y0003238643D01*
X0001115858Y0003235969D01*
X0001109980Y0003234800D01*
X0001109005Y0003234606D01*
X0001102018Y0003234606D01*
X0001101042Y0003234800D01*
X0001095164Y0003235969D01*
X0001088709Y0003238643D01*
X0001082899Y0003242525D01*
X0001077958Y0003247466D01*
X0001074076Y0003253276D01*
X0001071402Y0003259731D01*
X0001070039Y0003266585D01*
X0001070039Y0003273572D01*
X0001071402Y0003280425D01*
X0001074076Y0003286881D01*
X0001077958Y0003292691D01*
X0001082899Y0003297632D01*
X0001088709Y0003301514D01*
X0001095164Y0003304188D01*
X0001101042Y0003305357D01*
X0001102018Y0003305551D01*
X0001109005Y0003305551D01*
X0001109980Y0003305357D01*
G37*
G36*
X0001671398Y0003305357D02*
G01*
X0001677276Y0003304188D01*
X0001683731Y0003301514D01*
X0001689541Y0003297632D01*
X0001694482Y0003292691D01*
X0001698364Y0003286881D01*
X0001701038Y0003280425D01*
X0001702401Y0003273572D01*
X0001702401Y0003266585D01*
X0001701038Y0003259731D01*
X0001698364Y0003253276D01*
X0001694482Y0003247466D01*
X0001689541Y0003242525D01*
X0001683731Y0003238643D01*
X0001677276Y0003235969D01*
X0001671398Y0003234800D01*
X0001670422Y0003234606D01*
X0001663435Y0003234606D01*
X0001662460Y0003234800D01*
X0001656582Y0003235969D01*
X0001650126Y0003238643D01*
X0001644316Y0003242525D01*
X0001639375Y0003247466D01*
X0001635493Y0003253276D01*
X0001632819Y0003259731D01*
X0001631456Y0003266585D01*
X0001631456Y0003273572D01*
X0001632819Y0003280425D01*
X0001635493Y0003286881D01*
X0001639375Y0003292691D01*
X0001644316Y0003297632D01*
X0001650126Y0003301514D01*
X0001656582Y0003304188D01*
X0001662460Y0003305357D01*
X0001663435Y0003305551D01*
X0001670422Y0003305551D01*
X0001671398Y0003305357D01*
G37*
G36*
X0001209980Y0003305357D02*
G01*
X0001215858Y0003304188D01*
X0001222314Y0003301514D01*
X0001228124Y0003297632D01*
X0001233065Y0003292691D01*
X0001236947Y0003286881D01*
X0001239621Y0003280425D01*
X0001240984Y0003273572D01*
X0001240984Y0003266585D01*
X0001239621Y0003259731D01*
X0001236947Y0003253276D01*
X0001233065Y0003247466D01*
X0001228124Y0003242525D01*
X0001222314Y0003238643D01*
X0001215858Y0003235969D01*
X0001209980Y0003234800D01*
X0001209005Y0003234606D01*
X0001202018Y0003234606D01*
X0001201042Y0003234800D01*
X0001195164Y0003235969D01*
X0001188709Y0003238643D01*
X0001182899Y0003242525D01*
X0001177958Y0003247466D01*
X0001174076Y0003253276D01*
X0001171402Y0003259731D01*
X0001170039Y0003266585D01*
X0001170039Y0003273572D01*
X0001171402Y0003280425D01*
X0001174076Y0003286881D01*
X0001177958Y0003292691D01*
X0001182899Y0003297632D01*
X0001188709Y0003301514D01*
X0001195164Y0003304188D01*
X0001201042Y0003305357D01*
X0001202018Y0003305551D01*
X0001209005Y0003305551D01*
X0001209980Y0003305357D01*
G37*
G36*
X0001971398Y0003405357D02*
G01*
X0001977276Y0003404188D01*
X0001983731Y0003401514D01*
X0001989541Y0003397632D01*
X0001994482Y0003392691D01*
X0001998364Y0003386881D01*
X0002001038Y0003380425D01*
X0002002401Y0003373572D01*
X0002002401Y0003366585D01*
X0002001038Y0003359731D01*
X0001998364Y0003353276D01*
X0001994482Y0003347466D01*
X0001989541Y0003342525D01*
X0001983731Y0003338643D01*
X0001977276Y0003335969D01*
X0001971398Y0003334800D01*
X0001970422Y0003334606D01*
X0001963435Y0003334606D01*
X0001962460Y0003334800D01*
X0001956582Y0003335969D01*
X0001950126Y0003338643D01*
X0001944316Y0003342525D01*
X0001939375Y0003347466D01*
X0001935493Y0003353276D01*
X0001932819Y0003359731D01*
X0001931456Y0003366585D01*
X0001931456Y0003373572D01*
X0001932819Y0003380425D01*
X0001935493Y0003386881D01*
X0001939375Y0003392691D01*
X0001944316Y0003397632D01*
X0001950126Y0003401514D01*
X0001956582Y0003404188D01*
X0001962460Y0003405357D01*
X0001963435Y0003405551D01*
X0001970422Y0003405551D01*
X0001971398Y0003405357D01*
G37*
G36*
X0001871398Y0003405357D02*
G01*
X0001877276Y0003404188D01*
X0001883731Y0003401514D01*
X0001889541Y0003397632D01*
X0001894482Y0003392691D01*
X0001898364Y0003386881D01*
X0001901038Y0003380425D01*
X0001902401Y0003373572D01*
X0001902401Y0003366585D01*
X0001901038Y0003359731D01*
X0001898364Y0003353276D01*
X0001894482Y0003347466D01*
X0001889541Y0003342525D01*
X0001883731Y0003338643D01*
X0001877276Y0003335969D01*
X0001871398Y0003334800D01*
X0001870422Y0003334606D01*
X0001863435Y0003334606D01*
X0001862460Y0003334800D01*
X0001856582Y0003335969D01*
X0001850126Y0003338643D01*
X0001844316Y0003342525D01*
X0001839375Y0003347466D01*
X0001835493Y0003353276D01*
X0001832819Y0003359731D01*
X0001831456Y0003366585D01*
X0001831456Y0003373572D01*
X0001832819Y0003380425D01*
X0001835493Y0003386881D01*
X0001839375Y0003392691D01*
X0001844316Y0003397632D01*
X0001850126Y0003401514D01*
X0001856582Y0003404188D01*
X0001862460Y0003405357D01*
X0001863435Y0003405551D01*
X0001870422Y0003405551D01*
X0001871398Y0003405357D01*
G37*
G36*
X0001771398Y0003405357D02*
G01*
X0001777276Y0003404188D01*
X0001783731Y0003401514D01*
X0001789541Y0003397632D01*
X0001794482Y0003392691D01*
X0001798364Y0003386881D01*
X0001801038Y0003380425D01*
X0001802401Y0003373572D01*
X0001802401Y0003366585D01*
X0001801038Y0003359731D01*
X0001798364Y0003353276D01*
X0001794482Y0003347466D01*
X0001789541Y0003342525D01*
X0001783731Y0003338643D01*
X0001777276Y0003335969D01*
X0001771398Y0003334800D01*
X0001770422Y0003334606D01*
X0001763435Y0003334606D01*
X0001762460Y0003334800D01*
X0001756582Y0003335969D01*
X0001750126Y0003338643D01*
X0001744316Y0003342525D01*
X0001739375Y0003347466D01*
X0001735493Y0003353276D01*
X0001732819Y0003359731D01*
X0001731456Y0003366585D01*
X0001731456Y0003373572D01*
X0001732819Y0003380425D01*
X0001735493Y0003386881D01*
X0001739375Y0003392691D01*
X0001744316Y0003397632D01*
X0001750126Y0003401514D01*
X0001756582Y0003404188D01*
X0001762460Y0003405357D01*
X0001763435Y0003405551D01*
X0001770422Y0003405551D01*
X0001771398Y0003405357D01*
G37*
G36*
X0001671398Y0003405357D02*
G01*
X0001677276Y0003404188D01*
X0001683731Y0003401514D01*
X0001689541Y0003397632D01*
X0001694482Y0003392691D01*
X0001698364Y0003386881D01*
X0001701038Y0003380425D01*
X0001702401Y0003373572D01*
X0001702401Y0003366585D01*
X0001701038Y0003359731D01*
X0001698364Y0003353276D01*
X0001694482Y0003347466D01*
X0001689541Y0003342525D01*
X0001683731Y0003338643D01*
X0001677276Y0003335969D01*
X0001671398Y0003334800D01*
X0001670422Y0003334606D01*
X0001663435Y0003334606D01*
X0001662460Y0003334800D01*
X0001656582Y0003335969D01*
X0001650126Y0003338643D01*
X0001644316Y0003342525D01*
X0001639375Y0003347466D01*
X0001635493Y0003353276D01*
X0001632819Y0003359731D01*
X0001631456Y0003366585D01*
X0001631456Y0003373572D01*
X0001632819Y0003380425D01*
X0001635493Y0003386881D01*
X0001639375Y0003392691D01*
X0001644316Y0003397632D01*
X0001650126Y0003401514D01*
X0001656582Y0003404188D01*
X0001662460Y0003405357D01*
X0001663435Y0003405551D01*
X0001670422Y0003405551D01*
X0001671398Y0003405357D01*
G37*
G36*
X0001602401Y0003334606D02*
G01*
X0001531456Y0003334606D01*
X0001531456Y0003405551D01*
X0001602401Y0003405551D01*
X0001602401Y0003334606D01*
G37*
G36*
X0001309980Y0003405357D02*
G01*
X0001315858Y0003404188D01*
X0001322314Y0003401514D01*
X0001328124Y0003397632D01*
X0001333065Y0003392691D01*
X0001336947Y0003386881D01*
X0001339621Y0003380425D01*
X0001340984Y0003373572D01*
X0001340984Y0003366585D01*
X0001339621Y0003359731D01*
X0001336947Y0003353276D01*
X0001333065Y0003347466D01*
X0001328124Y0003342525D01*
X0001322314Y0003338643D01*
X0001315858Y0003335969D01*
X0001309980Y0003334800D01*
X0001309005Y0003334606D01*
X0001302018Y0003334606D01*
X0001301042Y0003334800D01*
X0001295164Y0003335969D01*
X0001288709Y0003338643D01*
X0001282899Y0003342525D01*
X0001277958Y0003347466D01*
X0001274076Y0003353276D01*
X0001271402Y0003359731D01*
X0001270039Y0003366585D01*
X0001270039Y0003373572D01*
X0001271402Y0003380425D01*
X0001274076Y0003386881D01*
X0001277958Y0003392691D01*
X0001282899Y0003397632D01*
X0001288709Y0003401514D01*
X0001295164Y0003404188D01*
X0001301042Y0003405357D01*
X0001302018Y0003405551D01*
X0001309005Y0003405551D01*
X0001309980Y0003405357D01*
G37*
G36*
X0001209980Y0003405357D02*
G01*
X0001215858Y0003404188D01*
X0001222314Y0003401514D01*
X0001228124Y0003397632D01*
X0001233065Y0003392691D01*
X0001236947Y0003386881D01*
X0001239621Y0003380425D01*
X0001240984Y0003373572D01*
X0001240984Y0003366585D01*
X0001239621Y0003359731D01*
X0001236947Y0003353276D01*
X0001233065Y0003347466D01*
X0001228124Y0003342525D01*
X0001222314Y0003338643D01*
X0001215858Y0003335969D01*
X0001209980Y0003334800D01*
X0001209005Y0003334606D01*
X0001202018Y0003334606D01*
X0001201042Y0003334800D01*
X0001195164Y0003335969D01*
X0001188709Y0003338643D01*
X0001182899Y0003342525D01*
X0001177958Y0003347466D01*
X0001174076Y0003353276D01*
X0001171402Y0003359731D01*
X0001170039Y0003366585D01*
X0001170039Y0003373572D01*
X0001171402Y0003380425D01*
X0001174076Y0003386881D01*
X0001177958Y0003392691D01*
X0001182899Y0003397632D01*
X0001188709Y0003401514D01*
X0001195164Y0003404188D01*
X0001201042Y0003405357D01*
X0001202018Y0003405551D01*
X0001209005Y0003405551D01*
X0001209980Y0003405357D01*
G37*
G36*
X0001109980Y0003405357D02*
G01*
X0001115858Y0003404188D01*
X0001122314Y0003401514D01*
X0001128124Y0003397632D01*
X0001133065Y0003392691D01*
X0001136947Y0003386881D01*
X0001139621Y0003380425D01*
X0001140984Y0003373572D01*
X0001140984Y0003366585D01*
X0001139621Y0003359731D01*
X0001136947Y0003353276D01*
X0001133065Y0003347466D01*
X0001128124Y0003342525D01*
X0001122314Y0003338643D01*
X0001115858Y0003335969D01*
X0001109980Y0003334800D01*
X0001109005Y0003334606D01*
X0001102018Y0003334606D01*
X0001101042Y0003334800D01*
X0001095164Y0003335969D01*
X0001088709Y0003338643D01*
X0001082899Y0003342525D01*
X0001077958Y0003347466D01*
X0001074076Y0003353276D01*
X0001071402Y0003359731D01*
X0001070039Y0003366585D01*
X0001070039Y0003373572D01*
X0001071402Y0003380425D01*
X0001074076Y0003386881D01*
X0001077958Y0003392691D01*
X0001082899Y0003397632D01*
X0001088709Y0003401514D01*
X0001095164Y0003404188D01*
X0001101042Y0003405357D01*
X0001102018Y0003405551D01*
X0001109005Y0003405551D01*
X0001109980Y0003405357D01*
G37*
G36*
X0001009980Y0003405357D02*
G01*
X0001015858Y0003404188D01*
X0001022314Y0003401514D01*
X0001028124Y0003397632D01*
X0001033065Y0003392691D01*
X0001036947Y0003386881D01*
X0001039621Y0003380425D01*
X0001040984Y0003373572D01*
X0001040984Y0003366585D01*
X0001039621Y0003359731D01*
X0001036947Y0003353276D01*
X0001033065Y0003347466D01*
X0001028124Y0003342525D01*
X0001022314Y0003338643D01*
X0001015858Y0003335969D01*
X0001009980Y0003334800D01*
X0001009005Y0003334606D01*
X0001002018Y0003334606D01*
X0001001042Y0003334800D01*
X0000995164Y0003335969D01*
X0000988709Y0003338643D01*
X0000982899Y0003342525D01*
X0000977958Y0003347466D01*
X0000974076Y0003353276D01*
X0000971402Y0003359731D01*
X0000970039Y0003366585D01*
X0000970039Y0003373572D01*
X0000971402Y0003380425D01*
X0000974076Y0003386881D01*
X0000977958Y0003392691D01*
X0000982899Y0003397632D01*
X0000988709Y0003401514D01*
X0000995164Y0003404188D01*
X0001001042Y0003405357D01*
X0001002018Y0003405551D01*
X0001009005Y0003405551D01*
X0001009980Y0003405357D01*
G37*
G36*
X0000940984Y0003334606D02*
G01*
X0000870039Y0003334606D01*
X0000870039Y0003405551D01*
X0000940984Y0003405551D01*
X0000940984Y0003334606D01*
G37*
G04 next file*
G04 #@! TF.GenerationSoftware,KiCad,Pcbnew,(5.1.5)-3*
G04 #@! TF.CreationDate,2020-01-11T21:56:43-08:00*
G04 #@! TF.ProjectId,frame_corners,6672616d-655f-4636-9f72-6e6572732e6b,rev?*
G04 #@! TF.SameCoordinates,PXe8840980PYdf933800*
G04 #@! TF.FileFunction,Soldermask,Bot*
G04 #@! TF.FilePolarity,Negative*
G04 Gerber Fmt 4.6, Leading zero omitted, Abs format (unit mm)*
G04 Created by KiCad (PCBNEW (5.1.5)-3) date 2020-01-11 21:56:43*
G04 APERTURE LIST*
G04 APERTURE END LIST*
D22*
G36*
X0001083209Y0001493546D02*
G01*
X0001089087Y0001492377D01*
X0001095542Y0001489702D01*
X0001101352Y0001485820D01*
X0001106293Y0001480880D01*
X0001110175Y0001475070D01*
X0001112849Y0001468614D01*
X0001114212Y0001461761D01*
X0001114212Y0001454773D01*
X0001112849Y0001447920D01*
X0001110175Y0001441465D01*
X0001106293Y0001435655D01*
X0001101352Y0001430714D01*
X0001095542Y0001426832D01*
X0001089087Y0001424158D01*
X0001083209Y0001422989D01*
X0001082233Y0001422795D01*
X0001075246Y0001422795D01*
X0001074271Y0001422989D01*
X0001068393Y0001424158D01*
X0001061937Y0001426832D01*
X0001056127Y0001430714D01*
X0001051186Y0001435655D01*
X0001047304Y0001441465D01*
X0001044630Y0001447920D01*
X0001043267Y0001454773D01*
X0001043267Y0001461761D01*
X0001044630Y0001468614D01*
X0001047304Y0001475070D01*
X0001051186Y0001480880D01*
X0001056127Y0001485820D01*
X0001061937Y0001489702D01*
X0001068393Y0001492377D01*
X0001074271Y0001493546D01*
X0001075246Y0001493740D01*
X0001082233Y0001493740D01*
X0001083209Y0001493546D01*
G37*
G36*
X0001183209Y0001493546D02*
G01*
X0001189087Y0001492377D01*
X0001195542Y0001489702D01*
X0001201352Y0001485820D01*
X0001206293Y0001480880D01*
X0001210175Y0001475070D01*
X0001212849Y0001468614D01*
X0001214212Y0001461761D01*
X0001214212Y0001454773D01*
X0001212849Y0001447920D01*
X0001210175Y0001441465D01*
X0001206293Y0001435655D01*
X0001201352Y0001430714D01*
X0001195542Y0001426832D01*
X0001189087Y0001424158D01*
X0001183209Y0001422989D01*
X0001182233Y0001422795D01*
X0001175246Y0001422795D01*
X0001174271Y0001422989D01*
X0001168393Y0001424158D01*
X0001161937Y0001426832D01*
X0001156127Y0001430714D01*
X0001151186Y0001435655D01*
X0001147304Y0001441465D01*
X0001144630Y0001447920D01*
X0001143267Y0001454773D01*
X0001143267Y0001461761D01*
X0001144630Y0001468614D01*
X0001147304Y0001475070D01*
X0001151186Y0001480880D01*
X0001156127Y0001485820D01*
X0001161937Y0001489702D01*
X0001168393Y0001492377D01*
X0001174271Y0001493546D01*
X0001175246Y0001493740D01*
X0001182233Y0001493740D01*
X0001183209Y0001493546D01*
G37*
G36*
X0001183209Y0001593546D02*
G01*
X0001189087Y0001592377D01*
X0001195542Y0001589702D01*
X0001201352Y0001585820D01*
X0001206293Y0001580880D01*
X0001210175Y0001575070D01*
X0001212849Y0001568614D01*
X0001214212Y0001561761D01*
X0001214212Y0001554773D01*
X0001212849Y0001547920D01*
X0001210175Y0001541465D01*
X0001206293Y0001535655D01*
X0001201352Y0001530714D01*
X0001195542Y0001526832D01*
X0001189087Y0001524158D01*
X0001183209Y0001522989D01*
X0001182233Y0001522795D01*
X0001175246Y0001522795D01*
X0001174271Y0001522989D01*
X0001168393Y0001524158D01*
X0001161937Y0001526832D01*
X0001156127Y0001530714D01*
X0001151186Y0001535655D01*
X0001147304Y0001541465D01*
X0001144630Y0001547920D01*
X0001143267Y0001554773D01*
X0001143267Y0001561761D01*
X0001144630Y0001568614D01*
X0001147304Y0001575070D01*
X0001151186Y0001580880D01*
X0001156127Y0001585820D01*
X0001161937Y0001589702D01*
X0001168393Y0001592377D01*
X0001174271Y0001593546D01*
X0001175246Y0001593740D01*
X0001182233Y0001593740D01*
X0001183209Y0001593546D01*
G37*
G36*
X0001083209Y0001593546D02*
G01*
X0001089087Y0001592377D01*
X0001095542Y0001589702D01*
X0001101352Y0001585820D01*
X0001106293Y0001580880D01*
X0001110175Y0001575070D01*
X0001112849Y0001568614D01*
X0001114212Y0001561761D01*
X0001114212Y0001554773D01*
X0001112849Y0001547920D01*
X0001110175Y0001541465D01*
X0001106293Y0001535655D01*
X0001101352Y0001530714D01*
X0001095542Y0001526832D01*
X0001089087Y0001524158D01*
X0001083209Y0001522989D01*
X0001082233Y0001522795D01*
X0001075246Y0001522795D01*
X0001074271Y0001522989D01*
X0001068393Y0001524158D01*
X0001061937Y0001526832D01*
X0001056127Y0001530714D01*
X0001051186Y0001535655D01*
X0001047304Y0001541465D01*
X0001044630Y0001547920D01*
X0001043267Y0001554773D01*
X0001043267Y0001561761D01*
X0001044630Y0001568614D01*
X0001047304Y0001575070D01*
X0001051186Y0001580880D01*
X0001056127Y0001585820D01*
X0001061937Y0001589702D01*
X0001068393Y0001592377D01*
X0001074271Y0001593546D01*
X0001075246Y0001593740D01*
X0001082233Y0001593740D01*
X0001083209Y0001593546D01*
G37*
G36*
X0001183209Y0001693546D02*
G01*
X0001189087Y0001692377D01*
X0001195542Y0001689702D01*
X0001201352Y0001685820D01*
X0001206293Y0001680880D01*
X0001210175Y0001675070D01*
X0001212849Y0001668614D01*
X0001214212Y0001661761D01*
X0001214212Y0001654773D01*
X0001212849Y0001647920D01*
X0001210175Y0001641465D01*
X0001206293Y0001635655D01*
X0001201352Y0001630714D01*
X0001195542Y0001626832D01*
X0001189087Y0001624158D01*
X0001183209Y0001622989D01*
X0001182233Y0001622795D01*
X0001175246Y0001622795D01*
X0001174271Y0001622989D01*
X0001168393Y0001624158D01*
X0001161937Y0001626832D01*
X0001156127Y0001630714D01*
X0001151186Y0001635655D01*
X0001147304Y0001641465D01*
X0001144630Y0001647920D01*
X0001143267Y0001654773D01*
X0001143267Y0001661761D01*
X0001144630Y0001668614D01*
X0001147304Y0001675070D01*
X0001151186Y0001680880D01*
X0001156127Y0001685820D01*
X0001161937Y0001689702D01*
X0001168393Y0001692377D01*
X0001174271Y0001693546D01*
X0001175246Y0001693740D01*
X0001182233Y0001693740D01*
X0001183209Y0001693546D01*
G37*
G36*
X0001083209Y0001693546D02*
G01*
X0001089087Y0001692377D01*
X0001095542Y0001689702D01*
X0001101352Y0001685820D01*
X0001106293Y0001680880D01*
X0001110175Y0001675070D01*
X0001112849Y0001668614D01*
X0001114212Y0001661761D01*
X0001114212Y0001654773D01*
X0001112849Y0001647920D01*
X0001110175Y0001641465D01*
X0001106293Y0001635655D01*
X0001101352Y0001630714D01*
X0001095542Y0001626832D01*
X0001089087Y0001624158D01*
X0001083209Y0001622989D01*
X0001082233Y0001622795D01*
X0001075246Y0001622795D01*
X0001074271Y0001622989D01*
X0001068393Y0001624158D01*
X0001061937Y0001626832D01*
X0001056127Y0001630714D01*
X0001051186Y0001635655D01*
X0001047304Y0001641465D01*
X0001044630Y0001647920D01*
X0001043267Y0001654773D01*
X0001043267Y0001661761D01*
X0001044630Y0001668614D01*
X0001047304Y0001675070D01*
X0001051186Y0001680880D01*
X0001056127Y0001685820D01*
X0001061937Y0001689702D01*
X0001068393Y0001692377D01*
X0001074271Y0001693546D01*
X0001075246Y0001693740D01*
X0001082233Y0001693740D01*
X0001083209Y0001693546D01*
G37*
G36*
X0001083209Y0001793546D02*
G01*
X0001089087Y0001792377D01*
X0001095542Y0001789702D01*
X0001101352Y0001785820D01*
X0001106293Y0001780880D01*
X0001110175Y0001775070D01*
X0001112849Y0001768614D01*
X0001114212Y0001761761D01*
X0001114212Y0001754773D01*
X0001112849Y0001747920D01*
X0001110175Y0001741465D01*
X0001106293Y0001735655D01*
X0001101352Y0001730714D01*
X0001095542Y0001726832D01*
X0001089087Y0001724158D01*
X0001083209Y0001722989D01*
X0001082233Y0001722795D01*
X0001075246Y0001722795D01*
X0001074271Y0001722989D01*
X0001068393Y0001724158D01*
X0001061937Y0001726832D01*
X0001056127Y0001730714D01*
X0001051186Y0001735655D01*
X0001047304Y0001741465D01*
X0001044630Y0001747920D01*
X0001043267Y0001754773D01*
X0001043267Y0001761761D01*
X0001044630Y0001768614D01*
X0001047304Y0001775070D01*
X0001051186Y0001780880D01*
X0001056127Y0001785820D01*
X0001061937Y0001789702D01*
X0001068393Y0001792377D01*
X0001074271Y0001793546D01*
X0001075246Y0001793740D01*
X0001082233Y0001793740D01*
X0001083209Y0001793546D01*
G37*
G36*
X0001183209Y0001793546D02*
G01*
X0001189087Y0001792377D01*
X0001195542Y0001789702D01*
X0001201352Y0001785820D01*
X0001206293Y0001780880D01*
X0001210175Y0001775070D01*
X0001212849Y0001768614D01*
X0001214212Y0001761761D01*
X0001214212Y0001754773D01*
X0001212849Y0001747920D01*
X0001210175Y0001741465D01*
X0001206293Y0001735655D01*
X0001201352Y0001730714D01*
X0001195542Y0001726832D01*
X0001189087Y0001724158D01*
X0001183209Y0001722989D01*
X0001182233Y0001722795D01*
X0001175246Y0001722795D01*
X0001174271Y0001722989D01*
X0001168393Y0001724158D01*
X0001161937Y0001726832D01*
X0001156127Y0001730714D01*
X0001151186Y0001735655D01*
X0001147304Y0001741465D01*
X0001144630Y0001747920D01*
X0001143267Y0001754773D01*
X0001143267Y0001761761D01*
X0001144630Y0001768614D01*
X0001147304Y0001775070D01*
X0001151186Y0001780880D01*
X0001156127Y0001785820D01*
X0001161937Y0001789702D01*
X0001168393Y0001792377D01*
X0001174271Y0001793546D01*
X0001175246Y0001793740D01*
X0001182233Y0001793740D01*
X0001183209Y0001793546D01*
G37*
G36*
X0001114212Y0001822795D02*
G01*
X0001043267Y0001822795D01*
X0001043267Y0001893740D01*
X0001114212Y0001893740D01*
X0001114212Y0001822795D01*
G37*
G36*
X0001183209Y0001893546D02*
G01*
X0001189087Y0001892377D01*
X0001195542Y0001889702D01*
X0001201352Y0001885820D01*
X0001206293Y0001880880D01*
X0001210175Y0001875070D01*
X0001212849Y0001868614D01*
X0001214212Y0001861761D01*
X0001214212Y0001854773D01*
X0001212849Y0001847920D01*
X0001210175Y0001841465D01*
X0001206293Y0001835655D01*
X0001201352Y0001830714D01*
X0001195542Y0001826832D01*
X0001189087Y0001824158D01*
X0001183209Y0001822989D01*
X0001182233Y0001822795D01*
X0001175246Y0001822795D01*
X0001174271Y0001822989D01*
X0001168393Y0001824158D01*
X0001161937Y0001826832D01*
X0001156127Y0001830714D01*
X0001151186Y0001835655D01*
X0001147304Y0001841465D01*
X0001144630Y0001847920D01*
X0001143267Y0001854773D01*
X0001143267Y0001861761D01*
X0001144630Y0001868614D01*
X0001147304Y0001875070D01*
X0001151186Y0001880880D01*
X0001156127Y0001885820D01*
X0001161937Y0001889702D01*
X0001168393Y0001892377D01*
X0001174271Y0001893546D01*
X0001175246Y0001893740D01*
X0001182233Y0001893740D01*
X0001183209Y0001893546D01*
G37*
G36*
X0001268683Y0002012948D02*
G01*
X0001273060Y0002012077D01*
X0001281307Y0002008661D01*
X0001288729Y0002003702D01*
X0001295040Y0001997390D01*
X0001300000Y0001989968D01*
X0001303416Y0001981721D01*
X0001305157Y0001972967D01*
X0001305157Y0001964040D01*
X0001303416Y0001955286D01*
X0001300000Y0001947039D01*
X0001295040Y0001939617D01*
X0001288729Y0001933305D01*
X0001281307Y0001928346D01*
X0001273060Y0001924930D01*
X0001268683Y0001924059D01*
X0001264305Y0001923188D01*
X0001255379Y0001923188D01*
X0001251002Y0001924059D01*
X0001246624Y0001924930D01*
X0001238377Y0001928346D01*
X0001230955Y0001933305D01*
X0001224644Y0001939617D01*
X0001219684Y0001947039D01*
X0001216268Y0001955286D01*
X0001214527Y0001964040D01*
X0001214527Y0001972967D01*
X0001216268Y0001981721D01*
X0001219684Y0001989968D01*
X0001224644Y0001997390D01*
X0001230955Y0002003702D01*
X0001238377Y0002008661D01*
X0001246624Y0002012077D01*
X0001251002Y0002012948D01*
X0001255379Y0002013818D01*
X0001264305Y0002013818D01*
X0001268683Y0002012948D01*
G37*
G36*
X0001083209Y0002154963D02*
G01*
X0001089087Y0002153794D01*
X0001095542Y0002151120D01*
X0001101352Y0002147238D01*
X0001106293Y0002142297D01*
X0001110175Y0002136487D01*
X0001112849Y0002130031D01*
X0001114212Y0002123178D01*
X0001114212Y0002116191D01*
X0001112849Y0002109338D01*
X0001110175Y0002102882D01*
X0001106293Y0002097072D01*
X0001101352Y0002092131D01*
X0001095542Y0002088249D01*
X0001089087Y0002085575D01*
X0001083209Y0002084406D01*
X0001082233Y0002084212D01*
X0001075246Y0002084212D01*
X0001074271Y0002084406D01*
X0001068393Y0002085575D01*
X0001061937Y0002088249D01*
X0001056127Y0002092131D01*
X0001051186Y0002097072D01*
X0001047304Y0002102882D01*
X0001044630Y0002109338D01*
X0001043267Y0002116191D01*
X0001043267Y0002123178D01*
X0001044630Y0002130031D01*
X0001047304Y0002136487D01*
X0001051186Y0002142297D01*
X0001056127Y0002147238D01*
X0001061937Y0002151120D01*
X0001068393Y0002153794D01*
X0001074271Y0002154963D01*
X0001075246Y0002155157D01*
X0001082233Y0002155157D01*
X0001083209Y0002154963D01*
G37*
G36*
X0001183209Y0002154963D02*
G01*
X0001189087Y0002153794D01*
X0001195542Y0002151120D01*
X0001201352Y0002147238D01*
X0001206293Y0002142297D01*
X0001210175Y0002136487D01*
X0001212849Y0002130031D01*
X0001214212Y0002123178D01*
X0001214212Y0002116191D01*
X0001212849Y0002109338D01*
X0001210175Y0002102882D01*
X0001206293Y0002097072D01*
X0001201352Y0002092131D01*
X0001195542Y0002088249D01*
X0001189087Y0002085575D01*
X0001183209Y0002084406D01*
X0001182233Y0002084212D01*
X0001175246Y0002084212D01*
X0001174271Y0002084406D01*
X0001168393Y0002085575D01*
X0001161937Y0002088249D01*
X0001156127Y0002092131D01*
X0001151186Y0002097072D01*
X0001147304Y0002102882D01*
X0001144630Y0002109338D01*
X0001143267Y0002116191D01*
X0001143267Y0002123178D01*
X0001144630Y0002130031D01*
X0001147304Y0002136487D01*
X0001151186Y0002142297D01*
X0001156127Y0002147238D01*
X0001161937Y0002151120D01*
X0001168393Y0002153794D01*
X0001174271Y0002154963D01*
X0001175246Y0002155157D01*
X0001182233Y0002155157D01*
X0001183209Y0002154963D01*
G37*
G36*
X0001083209Y0002254963D02*
G01*
X0001089087Y0002253794D01*
X0001095542Y0002251120D01*
X0001101352Y0002247238D01*
X0001106293Y0002242297D01*
X0001110175Y0002236487D01*
X0001112849Y0002230031D01*
X0001114212Y0002223178D01*
X0001114212Y0002216191D01*
X0001112849Y0002209338D01*
X0001110175Y0002202882D01*
X0001106293Y0002197072D01*
X0001101352Y0002192131D01*
X0001095542Y0002188249D01*
X0001089087Y0002185575D01*
X0001083209Y0002184406D01*
X0001082233Y0002184212D01*
X0001075246Y0002184212D01*
X0001074271Y0002184406D01*
X0001068393Y0002185575D01*
X0001061937Y0002188249D01*
X0001056127Y0002192131D01*
X0001051186Y0002197072D01*
X0001047304Y0002202882D01*
X0001044630Y0002209338D01*
X0001043267Y0002216191D01*
X0001043267Y0002223178D01*
X0001044630Y0002230031D01*
X0001047304Y0002236487D01*
X0001051186Y0002242297D01*
X0001056127Y0002247238D01*
X0001061937Y0002251120D01*
X0001068393Y0002253794D01*
X0001074271Y0002254963D01*
X0001075246Y0002255157D01*
X0001082233Y0002255157D01*
X0001083209Y0002254963D01*
G37*
G36*
X0001183209Y0002254963D02*
G01*
X0001189087Y0002253794D01*
X0001195542Y0002251120D01*
X0001201352Y0002247238D01*
X0001206293Y0002242297D01*
X0001210175Y0002236487D01*
X0001212849Y0002230031D01*
X0001214212Y0002223178D01*
X0001214212Y0002216191D01*
X0001212849Y0002209338D01*
X0001210175Y0002202882D01*
X0001206293Y0002197072D01*
X0001201352Y0002192131D01*
X0001195542Y0002188249D01*
X0001189087Y0002185575D01*
X0001183209Y0002184406D01*
X0001182233Y0002184212D01*
X0001175246Y0002184212D01*
X0001174271Y0002184406D01*
X0001168393Y0002185575D01*
X0001161937Y0002188249D01*
X0001156127Y0002192131D01*
X0001151186Y0002197072D01*
X0001147304Y0002202882D01*
X0001144630Y0002209338D01*
X0001143267Y0002216191D01*
X0001143267Y0002223178D01*
X0001144630Y0002230031D01*
X0001147304Y0002236487D01*
X0001151186Y0002242297D01*
X0001156127Y0002247238D01*
X0001161937Y0002251120D01*
X0001168393Y0002253794D01*
X0001174271Y0002254963D01*
X0001175246Y0002255157D01*
X0001182233Y0002255157D01*
X0001183209Y0002254963D01*
G37*
G36*
X0001083209Y0002354963D02*
G01*
X0001089087Y0002353794D01*
X0001095542Y0002351120D01*
X0001101352Y0002347238D01*
X0001106293Y0002342297D01*
X0001110175Y0002336487D01*
X0001112849Y0002330031D01*
X0001114212Y0002323178D01*
X0001114212Y0002316191D01*
X0001112849Y0002309338D01*
X0001110175Y0002302882D01*
X0001106293Y0002297072D01*
X0001101352Y0002292131D01*
X0001095542Y0002288249D01*
X0001089087Y0002285575D01*
X0001083209Y0002284406D01*
X0001082233Y0002284212D01*
X0001075246Y0002284212D01*
X0001074271Y0002284406D01*
X0001068393Y0002285575D01*
X0001061937Y0002288249D01*
X0001056127Y0002292131D01*
X0001051186Y0002297072D01*
X0001047304Y0002302882D01*
X0001044630Y0002309338D01*
X0001043267Y0002316191D01*
X0001043267Y0002323178D01*
X0001044630Y0002330031D01*
X0001047304Y0002336487D01*
X0001051186Y0002342297D01*
X0001056127Y0002347238D01*
X0001061937Y0002351120D01*
X0001068393Y0002353794D01*
X0001074271Y0002354963D01*
X0001075246Y0002355157D01*
X0001082233Y0002355157D01*
X0001083209Y0002354963D01*
G37*
G36*
X0001183209Y0002354963D02*
G01*
X0001189087Y0002353794D01*
X0001195542Y0002351120D01*
X0001201352Y0002347238D01*
X0001206293Y0002342297D01*
X0001210175Y0002336487D01*
X0001212849Y0002330031D01*
X0001214212Y0002323178D01*
X0001214212Y0002316191D01*
X0001212849Y0002309338D01*
X0001210175Y0002302882D01*
X0001206293Y0002297072D01*
X0001201352Y0002292131D01*
X0001195542Y0002288249D01*
X0001189087Y0002285575D01*
X0001183209Y0002284406D01*
X0001182233Y0002284212D01*
X0001175246Y0002284212D01*
X0001174271Y0002284406D01*
X0001168393Y0002285575D01*
X0001161937Y0002288249D01*
X0001156127Y0002292131D01*
X0001151186Y0002297072D01*
X0001147304Y0002302882D01*
X0001144630Y0002309338D01*
X0001143267Y0002316191D01*
X0001143267Y0002323178D01*
X0001144630Y0002330031D01*
X0001147304Y0002336487D01*
X0001151186Y0002342297D01*
X0001156127Y0002347238D01*
X0001161937Y0002351120D01*
X0001168393Y0002353794D01*
X0001174271Y0002354963D01*
X0001175246Y0002355157D01*
X0001182233Y0002355157D01*
X0001183209Y0002354963D01*
G37*
G36*
X0001183209Y0002454963D02*
G01*
X0001189087Y0002453794D01*
X0001195542Y0002451120D01*
X0001201352Y0002447238D01*
X0001206293Y0002442297D01*
X0001210175Y0002436487D01*
X0001212849Y0002430031D01*
X0001214212Y0002423178D01*
X0001214212Y0002416191D01*
X0001212849Y0002409338D01*
X0001210175Y0002402882D01*
X0001206293Y0002397072D01*
X0001201352Y0002392131D01*
X0001195542Y0002388249D01*
X0001189087Y0002385575D01*
X0001183209Y0002384406D01*
X0001182233Y0002384212D01*
X0001175246Y0002384212D01*
X0001174271Y0002384406D01*
X0001168393Y0002385575D01*
X0001161937Y0002388249D01*
X0001156127Y0002392131D01*
X0001151186Y0002397072D01*
X0001147304Y0002402882D01*
X0001144630Y0002409338D01*
X0001143267Y0002416191D01*
X0001143267Y0002423178D01*
X0001144630Y0002430031D01*
X0001147304Y0002436487D01*
X0001151186Y0002442297D01*
X0001156127Y0002447238D01*
X0001161937Y0002451120D01*
X0001168393Y0002453794D01*
X0001174271Y0002454963D01*
X0001175246Y0002455157D01*
X0001182233Y0002455157D01*
X0001183209Y0002454963D01*
G37*
G36*
X0001083209Y0002454963D02*
G01*
X0001089087Y0002453794D01*
X0001095542Y0002451120D01*
X0001101352Y0002447238D01*
X0001106293Y0002442297D01*
X0001110175Y0002436487D01*
X0001112849Y0002430031D01*
X0001114212Y0002423178D01*
X0001114212Y0002416191D01*
X0001112849Y0002409338D01*
X0001110175Y0002402882D01*
X0001106293Y0002397072D01*
X0001101352Y0002392131D01*
X0001095542Y0002388249D01*
X0001089087Y0002385575D01*
X0001083209Y0002384406D01*
X0001082233Y0002384212D01*
X0001075246Y0002384212D01*
X0001074271Y0002384406D01*
X0001068393Y0002385575D01*
X0001061937Y0002388249D01*
X0001056127Y0002392131D01*
X0001051186Y0002397072D01*
X0001047304Y0002402882D01*
X0001044630Y0002409338D01*
X0001043267Y0002416191D01*
X0001043267Y0002423178D01*
X0001044630Y0002430031D01*
X0001047304Y0002436487D01*
X0001051186Y0002442297D01*
X0001056127Y0002447238D01*
X0001061937Y0002451120D01*
X0001068393Y0002453794D01*
X0001074271Y0002454963D01*
X0001075246Y0002455157D01*
X0001082233Y0002455157D01*
X0001083209Y0002454963D01*
G37*
G36*
X0001183209Y0002554963D02*
G01*
X0001189087Y0002553794D01*
X0001195542Y0002551120D01*
X0001201352Y0002547238D01*
X0001206293Y0002542297D01*
X0001210175Y0002536487D01*
X0001212849Y0002530031D01*
X0001214212Y0002523178D01*
X0001214212Y0002516191D01*
X0001212849Y0002509338D01*
X0001210175Y0002502882D01*
X0001206293Y0002497072D01*
X0001201352Y0002492131D01*
X0001195542Y0002488249D01*
X0001189087Y0002485575D01*
X0001183209Y0002484406D01*
X0001182233Y0002484212D01*
X0001175246Y0002484212D01*
X0001174271Y0002484406D01*
X0001168393Y0002485575D01*
X0001161937Y0002488249D01*
X0001156127Y0002492131D01*
X0001151186Y0002497072D01*
X0001147304Y0002502882D01*
X0001144630Y0002509338D01*
X0001143267Y0002516191D01*
X0001143267Y0002523178D01*
X0001144630Y0002530031D01*
X0001147304Y0002536487D01*
X0001151186Y0002542297D01*
X0001156127Y0002547238D01*
X0001161937Y0002551120D01*
X0001168393Y0002553794D01*
X0001174271Y0002554963D01*
X0001175246Y0002555157D01*
X0001182233Y0002555157D01*
X0001183209Y0002554963D01*
G37*
G36*
X0001114212Y0002484212D02*
G01*
X0001043267Y0002484212D01*
X0001043267Y0002555157D01*
X0001114212Y0002555157D01*
X0001114212Y0002484212D01*
G37*
G36*
X0002914352Y0002721609D02*
G01*
X0002918729Y0002720738D01*
X0002926976Y0002717322D01*
X0002934398Y0002712363D01*
X0002940710Y0002706051D01*
X0002945669Y0002698630D01*
X0002949085Y0002690383D01*
X0002950826Y0002681628D01*
X0002950826Y0002672702D01*
X0002949085Y0002663947D01*
X0002945669Y0002655700D01*
X0002940710Y0002648278D01*
X0002934398Y0002641966D01*
X0002926976Y0002637007D01*
X0002918729Y0002633591D01*
X0002914352Y0002632721D01*
X0002909975Y0002631850D01*
X0002901048Y0002631850D01*
X0002896671Y0002632721D01*
X0002892293Y0002633591D01*
X0002884047Y0002637007D01*
X0002876625Y0002641966D01*
X0002870313Y0002648278D01*
X0002865354Y0002655700D01*
X0002861938Y0002663947D01*
X0002860196Y0002672702D01*
X0002860196Y0002681628D01*
X0002861938Y0002690383D01*
X0002865354Y0002698630D01*
X0002870313Y0002706051D01*
X0002876625Y0002712363D01*
X0002884047Y0002717322D01*
X0002892293Y0002720738D01*
X0002896671Y0002721609D01*
X0002901048Y0002722480D01*
X0002909975Y0002722480D01*
X0002914352Y0002721609D01*
G37*
G36*
X0001268683Y0002721609D02*
G01*
X0001273060Y0002720738D01*
X0001281307Y0002717322D01*
X0001288729Y0002712363D01*
X0001295040Y0002706051D01*
X0001300000Y0002698630D01*
X0001303416Y0002690383D01*
X0001305157Y0002681628D01*
X0001305157Y0002672702D01*
X0001303416Y0002663947D01*
X0001300000Y0002655700D01*
X0001295040Y0002648278D01*
X0001288729Y0002641966D01*
X0001281307Y0002637007D01*
X0001273060Y0002633591D01*
X0001268683Y0002632721D01*
X0001264305Y0002631850D01*
X0001255379Y0002631850D01*
X0001251002Y0002632721D01*
X0001246624Y0002633591D01*
X0001238377Y0002637007D01*
X0001230955Y0002641966D01*
X0001224644Y0002648278D01*
X0001219684Y0002655700D01*
X0001216268Y0002663947D01*
X0001214527Y0002672702D01*
X0001214527Y0002681628D01*
X0001216268Y0002690383D01*
X0001219684Y0002698630D01*
X0001224644Y0002706051D01*
X0001230955Y0002712363D01*
X0001238377Y0002717322D01*
X0001246624Y0002720738D01*
X0001251002Y0002721609D01*
X0001255379Y0002722480D01*
X0001264305Y0002722480D01*
X0001268683Y0002721609D01*
G37*
G36*
X0001977344Y0002721609D02*
G01*
X0001981721Y0002720738D01*
X0001989968Y0002717322D01*
X0001997390Y0002712363D01*
X0002003702Y0002706051D01*
X0002008661Y0002698630D01*
X0002012077Y0002690383D01*
X0002013818Y0002681628D01*
X0002013818Y0002672702D01*
X0002012077Y0002663947D01*
X0002008661Y0002655700D01*
X0002003702Y0002648278D01*
X0001997390Y0002641966D01*
X0001989968Y0002637007D01*
X0001981721Y0002633591D01*
X0001977344Y0002632721D01*
X0001972967Y0002631850D01*
X0001964040Y0002631850D01*
X0001959663Y0002632721D01*
X0001955286Y0002633591D01*
X0001947039Y0002637007D01*
X0001939617Y0002641966D01*
X0001933305Y0002648278D01*
X0001928346Y0002655700D01*
X0001924930Y0002663947D01*
X0001923188Y0002672702D01*
X0001923188Y0002681628D01*
X0001924930Y0002690383D01*
X0001928346Y0002698630D01*
X0001933305Y0002706051D01*
X0001939617Y0002712363D01*
X0001947039Y0002717322D01*
X0001955286Y0002720738D01*
X0001959663Y0002721609D01*
X0001964040Y0002722480D01*
X0001972967Y0002722480D01*
X0001977344Y0002721609D01*
G37*
G36*
X0001821791Y0002793546D02*
G01*
X0001827669Y0002792377D01*
X0001834125Y0002789702D01*
X0001839935Y0002785820D01*
X0001844876Y0002780880D01*
X0001848758Y0002775070D01*
X0001851432Y0002768614D01*
X0001852795Y0002761761D01*
X0001852795Y0002754773D01*
X0001851432Y0002747920D01*
X0001848758Y0002741465D01*
X0001844876Y0002735655D01*
X0001839935Y0002730714D01*
X0001834125Y0002726832D01*
X0001827669Y0002724158D01*
X0001821791Y0002722989D01*
X0001820816Y0002722795D01*
X0001813829Y0002722795D01*
X0001812853Y0002722989D01*
X0001806975Y0002724158D01*
X0001800520Y0002726832D01*
X0001794710Y0002730714D01*
X0001789769Y0002735655D01*
X0001785887Y0002741465D01*
X0001783213Y0002747920D01*
X0001781850Y0002754773D01*
X0001781850Y0002761761D01*
X0001783213Y0002768614D01*
X0001785887Y0002775070D01*
X0001789769Y0002780880D01*
X0001794710Y0002785820D01*
X0001800520Y0002789702D01*
X0001806975Y0002792377D01*
X0001812853Y0002793546D01*
X0001813829Y0002793740D01*
X0001820816Y0002793740D01*
X0001821791Y0002793546D01*
G37*
G36*
X0001421791Y0002793546D02*
G01*
X0001427669Y0002792377D01*
X0001434125Y0002789702D01*
X0001439935Y0002785820D01*
X0001444876Y0002780880D01*
X0001448758Y0002775070D01*
X0001451432Y0002768614D01*
X0001452795Y0002761761D01*
X0001452795Y0002754773D01*
X0001451432Y0002747920D01*
X0001448758Y0002741465D01*
X0001444876Y0002735655D01*
X0001439935Y0002730714D01*
X0001434125Y0002726832D01*
X0001427669Y0002724158D01*
X0001421791Y0002722989D01*
X0001420816Y0002722795D01*
X0001413829Y0002722795D01*
X0001412853Y0002722989D01*
X0001406975Y0002724158D01*
X0001400520Y0002726832D01*
X0001394710Y0002730714D01*
X0001389769Y0002735655D01*
X0001385887Y0002741465D01*
X0001383213Y0002747920D01*
X0001381850Y0002754773D01*
X0001381850Y0002761761D01*
X0001383213Y0002768614D01*
X0001385887Y0002775070D01*
X0001389769Y0002780880D01*
X0001394710Y0002785820D01*
X0001400520Y0002789702D01*
X0001406975Y0002792377D01*
X0001412853Y0002793546D01*
X0001413829Y0002793740D01*
X0001420816Y0002793740D01*
X0001421791Y0002793546D01*
G37*
G36*
X0001521791Y0002793546D02*
G01*
X0001527669Y0002792377D01*
X0001534125Y0002789702D01*
X0001539935Y0002785820D01*
X0001544876Y0002780880D01*
X0001548758Y0002775070D01*
X0001551432Y0002768614D01*
X0001552795Y0002761761D01*
X0001552795Y0002754773D01*
X0001551432Y0002747920D01*
X0001548758Y0002741465D01*
X0001544876Y0002735655D01*
X0001539935Y0002730714D01*
X0001534125Y0002726832D01*
X0001527669Y0002724158D01*
X0001521791Y0002722989D01*
X0001520816Y0002722795D01*
X0001513829Y0002722795D01*
X0001512853Y0002722989D01*
X0001506975Y0002724158D01*
X0001500520Y0002726832D01*
X0001494710Y0002730714D01*
X0001489769Y0002735655D01*
X0001485887Y0002741465D01*
X0001483213Y0002747920D01*
X0001481850Y0002754773D01*
X0001481850Y0002761761D01*
X0001483213Y0002768614D01*
X0001485887Y0002775070D01*
X0001489769Y0002780880D01*
X0001494710Y0002785820D01*
X0001500520Y0002789702D01*
X0001506975Y0002792377D01*
X0001512853Y0002793546D01*
X0001513829Y0002793740D01*
X0001520816Y0002793740D01*
X0001521791Y0002793546D01*
G37*
G36*
X0002083209Y0002793546D02*
G01*
X0002089087Y0002792377D01*
X0002095542Y0002789702D01*
X0002101352Y0002785820D01*
X0002106293Y0002780880D01*
X0002110175Y0002775070D01*
X0002112849Y0002768614D01*
X0002114212Y0002761761D01*
X0002114212Y0002754773D01*
X0002112849Y0002747920D01*
X0002110175Y0002741465D01*
X0002106293Y0002735655D01*
X0002101352Y0002730714D01*
X0002095542Y0002726832D01*
X0002089087Y0002724158D01*
X0002083209Y0002722989D01*
X0002082233Y0002722795D01*
X0002075246Y0002722795D01*
X0002074271Y0002722989D01*
X0002068393Y0002724158D01*
X0002061937Y0002726832D01*
X0002056127Y0002730714D01*
X0002051186Y0002735655D01*
X0002047304Y0002741465D01*
X0002044630Y0002747920D01*
X0002043267Y0002754773D01*
X0002043267Y0002761761D01*
X0002044630Y0002768614D01*
X0002047304Y0002775070D01*
X0002051186Y0002780880D01*
X0002056127Y0002785820D01*
X0002061937Y0002789702D01*
X0002068393Y0002792377D01*
X0002074271Y0002793546D01*
X0002075246Y0002793740D01*
X0002082233Y0002793740D01*
X0002083209Y0002793546D01*
G37*
G36*
X0002283209Y0002793546D02*
G01*
X0002289087Y0002792377D01*
X0002295542Y0002789702D01*
X0002301352Y0002785820D01*
X0002306293Y0002780880D01*
X0002310175Y0002775070D01*
X0002312849Y0002768614D01*
X0002314212Y0002761761D01*
X0002314212Y0002754773D01*
X0002312849Y0002747920D01*
X0002310175Y0002741465D01*
X0002306293Y0002735655D01*
X0002301352Y0002730714D01*
X0002295542Y0002726832D01*
X0002289087Y0002724158D01*
X0002283209Y0002722989D01*
X0002282233Y0002722795D01*
X0002275246Y0002722795D01*
X0002274271Y0002722989D01*
X0002268393Y0002724158D01*
X0002261937Y0002726832D01*
X0002256127Y0002730714D01*
X0002251186Y0002735655D01*
X0002247304Y0002741465D01*
X0002244630Y0002747920D01*
X0002243267Y0002754773D01*
X0002243267Y0002761761D01*
X0002244630Y0002768614D01*
X0002247304Y0002775070D01*
X0002251186Y0002780880D01*
X0002256127Y0002785820D01*
X0002261937Y0002789702D01*
X0002268393Y0002792377D01*
X0002274271Y0002793546D01*
X0002275246Y0002793740D01*
X0002282233Y0002793740D01*
X0002283209Y0002793546D01*
G37*
G36*
X0002383209Y0002793546D02*
G01*
X0002389087Y0002792377D01*
X0002395542Y0002789702D01*
X0002401352Y0002785820D01*
X0002406293Y0002780880D01*
X0002410175Y0002775070D01*
X0002412849Y0002768614D01*
X0002414212Y0002761761D01*
X0002414212Y0002754773D01*
X0002412849Y0002747920D01*
X0002410175Y0002741465D01*
X0002406293Y0002735655D01*
X0002401352Y0002730714D01*
X0002395542Y0002726832D01*
X0002389087Y0002724158D01*
X0002383209Y0002722989D01*
X0002382233Y0002722795D01*
X0002375246Y0002722795D01*
X0002374271Y0002722989D01*
X0002368393Y0002724158D01*
X0002361937Y0002726832D01*
X0002356127Y0002730714D01*
X0002351186Y0002735655D01*
X0002347304Y0002741465D01*
X0002344630Y0002747920D01*
X0002343267Y0002754773D01*
X0002343267Y0002761761D01*
X0002344630Y0002768614D01*
X0002347304Y0002775070D01*
X0002351186Y0002780880D01*
X0002356127Y0002785820D01*
X0002361937Y0002789702D01*
X0002368393Y0002792377D01*
X0002374271Y0002793546D01*
X0002375246Y0002793740D01*
X0002382233Y0002793740D01*
X0002383209Y0002793546D01*
G37*
G36*
X0002483209Y0002793546D02*
G01*
X0002489087Y0002792377D01*
X0002495542Y0002789702D01*
X0002501352Y0002785820D01*
X0002506293Y0002780880D01*
X0002510175Y0002775070D01*
X0002512849Y0002768614D01*
X0002514212Y0002761761D01*
X0002514212Y0002754773D01*
X0002512849Y0002747920D01*
X0002510175Y0002741465D01*
X0002506293Y0002735655D01*
X0002501352Y0002730714D01*
X0002495542Y0002726832D01*
X0002489087Y0002724158D01*
X0002483209Y0002722989D01*
X0002482233Y0002722795D01*
X0002475246Y0002722795D01*
X0002474271Y0002722989D01*
X0002468393Y0002724158D01*
X0002461937Y0002726832D01*
X0002456127Y0002730714D01*
X0002451186Y0002735655D01*
X0002447304Y0002741465D01*
X0002444630Y0002747920D01*
X0002443267Y0002754773D01*
X0002443267Y0002761761D01*
X0002444630Y0002768614D01*
X0002447304Y0002775070D01*
X0002451186Y0002780880D01*
X0002456127Y0002785820D01*
X0002461937Y0002789702D01*
X0002468393Y0002792377D01*
X0002474271Y0002793546D01*
X0002475246Y0002793740D01*
X0002482233Y0002793740D01*
X0002483209Y0002793546D01*
G37*
G36*
X0001621791Y0002793546D02*
G01*
X0001627669Y0002792377D01*
X0001634125Y0002789702D01*
X0001639935Y0002785820D01*
X0001644876Y0002780880D01*
X0001648758Y0002775070D01*
X0001651432Y0002768614D01*
X0001652795Y0002761761D01*
X0001652795Y0002754773D01*
X0001651432Y0002747920D01*
X0001648758Y0002741465D01*
X0001644876Y0002735655D01*
X0001639935Y0002730714D01*
X0001634125Y0002726832D01*
X0001627669Y0002724158D01*
X0001621791Y0002722989D01*
X0001620816Y0002722795D01*
X0001613829Y0002722795D01*
X0001612853Y0002722989D01*
X0001606975Y0002724158D01*
X0001600520Y0002726832D01*
X0001594710Y0002730714D01*
X0001589769Y0002735655D01*
X0001585887Y0002741465D01*
X0001583213Y0002747920D01*
X0001581850Y0002754773D01*
X0001581850Y0002761761D01*
X0001583213Y0002768614D01*
X0001585887Y0002775070D01*
X0001589769Y0002780880D01*
X0001594710Y0002785820D01*
X0001600520Y0002789702D01*
X0001606975Y0002792377D01*
X0001612853Y0002793546D01*
X0001613829Y0002793740D01*
X0001620816Y0002793740D01*
X0001621791Y0002793546D01*
G37*
G36*
X0002183209Y0002793546D02*
G01*
X0002189087Y0002792377D01*
X0002195542Y0002789702D01*
X0002201352Y0002785820D01*
X0002206293Y0002780880D01*
X0002210175Y0002775070D01*
X0002212849Y0002768614D01*
X0002214212Y0002761761D01*
X0002214212Y0002754773D01*
X0002212849Y0002747920D01*
X0002210175Y0002741465D01*
X0002206293Y0002735655D01*
X0002201352Y0002730714D01*
X0002195542Y0002726832D01*
X0002189087Y0002724158D01*
X0002183209Y0002722989D01*
X0002182233Y0002722795D01*
X0002175246Y0002722795D01*
X0002174271Y0002722989D01*
X0002168393Y0002724158D01*
X0002161937Y0002726832D01*
X0002156127Y0002730714D01*
X0002151186Y0002735655D01*
X0002147304Y0002741465D01*
X0002144630Y0002747920D01*
X0002143267Y0002754773D01*
X0002143267Y0002761761D01*
X0002144630Y0002768614D01*
X0002147304Y0002775070D01*
X0002151186Y0002780880D01*
X0002156127Y0002785820D01*
X0002161937Y0002789702D01*
X0002168393Y0002792377D01*
X0002174271Y0002793546D01*
X0002175246Y0002793740D01*
X0002182233Y0002793740D01*
X0002183209Y0002793546D01*
G37*
G36*
X0001721791Y0002793546D02*
G01*
X0001727669Y0002792377D01*
X0001734125Y0002789702D01*
X0001739935Y0002785820D01*
X0001744876Y0002780880D01*
X0001748758Y0002775070D01*
X0001751432Y0002768614D01*
X0001752795Y0002761761D01*
X0001752795Y0002754773D01*
X0001751432Y0002747920D01*
X0001748758Y0002741465D01*
X0001744876Y0002735655D01*
X0001739935Y0002730714D01*
X0001734125Y0002726832D01*
X0001727669Y0002724158D01*
X0001721791Y0002722989D01*
X0001720816Y0002722795D01*
X0001713829Y0002722795D01*
X0001712853Y0002722989D01*
X0001706975Y0002724158D01*
X0001700520Y0002726832D01*
X0001694710Y0002730714D01*
X0001689769Y0002735655D01*
X0001685887Y0002741465D01*
X0001683213Y0002747920D01*
X0001681850Y0002754773D01*
X0001681850Y0002761761D01*
X0001683213Y0002768614D01*
X0001685887Y0002775070D01*
X0001689769Y0002780880D01*
X0001694710Y0002785820D01*
X0001700520Y0002789702D01*
X0001706975Y0002792377D01*
X0001712853Y0002793546D01*
X0001713829Y0002793740D01*
X0001720816Y0002793740D01*
X0001721791Y0002793546D01*
G37*
G36*
X0002483209Y0002893546D02*
G01*
X0002489087Y0002892377D01*
X0002495542Y0002889702D01*
X0002501352Y0002885820D01*
X0002506293Y0002880880D01*
X0002510175Y0002875070D01*
X0002512849Y0002868614D01*
X0002514212Y0002861761D01*
X0002514212Y0002854773D01*
X0002512849Y0002847920D01*
X0002510175Y0002841465D01*
X0002506293Y0002835655D01*
X0002501352Y0002830714D01*
X0002495542Y0002826832D01*
X0002489087Y0002824158D01*
X0002483209Y0002822989D01*
X0002482233Y0002822795D01*
X0002475246Y0002822795D01*
X0002474271Y0002822989D01*
X0002468393Y0002824158D01*
X0002461937Y0002826832D01*
X0002456127Y0002830714D01*
X0002451186Y0002835655D01*
X0002447304Y0002841465D01*
X0002444630Y0002847920D01*
X0002443267Y0002854773D01*
X0002443267Y0002861761D01*
X0002444630Y0002868614D01*
X0002447304Y0002875070D01*
X0002451186Y0002880880D01*
X0002456127Y0002885820D01*
X0002461937Y0002889702D01*
X0002468393Y0002892377D01*
X0002474271Y0002893546D01*
X0002475246Y0002893740D01*
X0002482233Y0002893740D01*
X0002483209Y0002893546D01*
G37*
G36*
X0002383209Y0002893546D02*
G01*
X0002389087Y0002892377D01*
X0002395542Y0002889702D01*
X0002401352Y0002885820D01*
X0002406293Y0002880880D01*
X0002410175Y0002875070D01*
X0002412849Y0002868614D01*
X0002414212Y0002861761D01*
X0002414212Y0002854773D01*
X0002412849Y0002847920D01*
X0002410175Y0002841465D01*
X0002406293Y0002835655D01*
X0002401352Y0002830714D01*
X0002395542Y0002826832D01*
X0002389087Y0002824158D01*
X0002383209Y0002822989D01*
X0002382233Y0002822795D01*
X0002375246Y0002822795D01*
X0002374271Y0002822989D01*
X0002368393Y0002824158D01*
X0002361937Y0002826832D01*
X0002356127Y0002830714D01*
X0002351186Y0002835655D01*
X0002347304Y0002841465D01*
X0002344630Y0002847920D01*
X0002343267Y0002854773D01*
X0002343267Y0002861761D01*
X0002344630Y0002868614D01*
X0002347304Y0002875070D01*
X0002351186Y0002880880D01*
X0002356127Y0002885820D01*
X0002361937Y0002889702D01*
X0002368393Y0002892377D01*
X0002374271Y0002893546D01*
X0002375246Y0002893740D01*
X0002382233Y0002893740D01*
X0002383209Y0002893546D01*
G37*
G36*
X0002283209Y0002893546D02*
G01*
X0002289087Y0002892377D01*
X0002295542Y0002889702D01*
X0002301352Y0002885820D01*
X0002306293Y0002880880D01*
X0002310175Y0002875070D01*
X0002312849Y0002868614D01*
X0002314212Y0002861761D01*
X0002314212Y0002854773D01*
X0002312849Y0002847920D01*
X0002310175Y0002841465D01*
X0002306293Y0002835655D01*
X0002301352Y0002830714D01*
X0002295542Y0002826832D01*
X0002289087Y0002824158D01*
X0002283209Y0002822989D01*
X0002282233Y0002822795D01*
X0002275246Y0002822795D01*
X0002274271Y0002822989D01*
X0002268393Y0002824158D01*
X0002261937Y0002826832D01*
X0002256127Y0002830714D01*
X0002251186Y0002835655D01*
X0002247304Y0002841465D01*
X0002244630Y0002847920D01*
X0002243267Y0002854773D01*
X0002243267Y0002861761D01*
X0002244630Y0002868614D01*
X0002247304Y0002875070D01*
X0002251186Y0002880880D01*
X0002256127Y0002885820D01*
X0002261937Y0002889702D01*
X0002268393Y0002892377D01*
X0002274271Y0002893546D01*
X0002275246Y0002893740D01*
X0002282233Y0002893740D01*
X0002283209Y0002893546D01*
G37*
G36*
X0002183209Y0002893546D02*
G01*
X0002189087Y0002892377D01*
X0002195542Y0002889702D01*
X0002201352Y0002885820D01*
X0002206293Y0002880880D01*
X0002210175Y0002875070D01*
X0002212849Y0002868614D01*
X0002214212Y0002861761D01*
X0002214212Y0002854773D01*
X0002212849Y0002847920D01*
X0002210175Y0002841465D01*
X0002206293Y0002835655D01*
X0002201352Y0002830714D01*
X0002195542Y0002826832D01*
X0002189087Y0002824158D01*
X0002183209Y0002822989D01*
X0002182233Y0002822795D01*
X0002175246Y0002822795D01*
X0002174271Y0002822989D01*
X0002168393Y0002824158D01*
X0002161937Y0002826832D01*
X0002156127Y0002830714D01*
X0002151186Y0002835655D01*
X0002147304Y0002841465D01*
X0002144630Y0002847920D01*
X0002143267Y0002854773D01*
X0002143267Y0002861761D01*
X0002144630Y0002868614D01*
X0002147304Y0002875070D01*
X0002151186Y0002880880D01*
X0002156127Y0002885820D01*
X0002161937Y0002889702D01*
X0002168393Y0002892377D01*
X0002174271Y0002893546D01*
X0002175246Y0002893740D01*
X0002182233Y0002893740D01*
X0002183209Y0002893546D01*
G37*
G36*
X0002114212Y0002822795D02*
G01*
X0002043267Y0002822795D01*
X0002043267Y0002893740D01*
X0002114212Y0002893740D01*
X0002114212Y0002822795D01*
G37*
G36*
X0001821791Y0002893546D02*
G01*
X0001827669Y0002892377D01*
X0001834125Y0002889702D01*
X0001839935Y0002885820D01*
X0001844876Y0002880880D01*
X0001848758Y0002875070D01*
X0001851432Y0002868614D01*
X0001852795Y0002861761D01*
X0001852795Y0002854773D01*
X0001851432Y0002847920D01*
X0001848758Y0002841465D01*
X0001844876Y0002835655D01*
X0001839935Y0002830714D01*
X0001834125Y0002826832D01*
X0001827669Y0002824158D01*
X0001821791Y0002822989D01*
X0001820816Y0002822795D01*
X0001813829Y0002822795D01*
X0001812853Y0002822989D01*
X0001806975Y0002824158D01*
X0001800520Y0002826832D01*
X0001794710Y0002830714D01*
X0001789769Y0002835655D01*
X0001785887Y0002841465D01*
X0001783213Y0002847920D01*
X0001781850Y0002854773D01*
X0001781850Y0002861761D01*
X0001783213Y0002868614D01*
X0001785887Y0002875070D01*
X0001789769Y0002880880D01*
X0001794710Y0002885820D01*
X0001800520Y0002889702D01*
X0001806975Y0002892377D01*
X0001812853Y0002893546D01*
X0001813829Y0002893740D01*
X0001820816Y0002893740D01*
X0001821791Y0002893546D01*
G37*
G36*
X0001721791Y0002893546D02*
G01*
X0001727669Y0002892377D01*
X0001734125Y0002889702D01*
X0001739935Y0002885820D01*
X0001744876Y0002880880D01*
X0001748758Y0002875070D01*
X0001751432Y0002868614D01*
X0001752795Y0002861761D01*
X0001752795Y0002854773D01*
X0001751432Y0002847920D01*
X0001748758Y0002841465D01*
X0001744876Y0002835655D01*
X0001739935Y0002830714D01*
X0001734125Y0002826832D01*
X0001727669Y0002824158D01*
X0001721791Y0002822989D01*
X0001720816Y0002822795D01*
X0001713829Y0002822795D01*
X0001712853Y0002822989D01*
X0001706975Y0002824158D01*
X0001700520Y0002826832D01*
X0001694710Y0002830714D01*
X0001689769Y0002835655D01*
X0001685887Y0002841465D01*
X0001683213Y0002847920D01*
X0001681850Y0002854773D01*
X0001681850Y0002861761D01*
X0001683213Y0002868614D01*
X0001685887Y0002875070D01*
X0001689769Y0002880880D01*
X0001694710Y0002885820D01*
X0001700520Y0002889702D01*
X0001706975Y0002892377D01*
X0001712853Y0002893546D01*
X0001713829Y0002893740D01*
X0001720816Y0002893740D01*
X0001721791Y0002893546D01*
G37*
G36*
X0001621791Y0002893546D02*
G01*
X0001627669Y0002892377D01*
X0001634125Y0002889702D01*
X0001639935Y0002885820D01*
X0001644876Y0002880880D01*
X0001648758Y0002875070D01*
X0001651432Y0002868614D01*
X0001652795Y0002861761D01*
X0001652795Y0002854773D01*
X0001651432Y0002847920D01*
X0001648758Y0002841465D01*
X0001644876Y0002835655D01*
X0001639935Y0002830714D01*
X0001634125Y0002826832D01*
X0001627669Y0002824158D01*
X0001621791Y0002822989D01*
X0001620816Y0002822795D01*
X0001613829Y0002822795D01*
X0001612853Y0002822989D01*
X0001606975Y0002824158D01*
X0001600520Y0002826832D01*
X0001594710Y0002830714D01*
X0001589769Y0002835655D01*
X0001585887Y0002841465D01*
X0001583213Y0002847920D01*
X0001581850Y0002854773D01*
X0001581850Y0002861761D01*
X0001583213Y0002868614D01*
X0001585887Y0002875070D01*
X0001589769Y0002880880D01*
X0001594710Y0002885820D01*
X0001600520Y0002889702D01*
X0001606975Y0002892377D01*
X0001612853Y0002893546D01*
X0001613829Y0002893740D01*
X0001620816Y0002893740D01*
X0001621791Y0002893546D01*
G37*
G36*
X0001521791Y0002893546D02*
G01*
X0001527669Y0002892377D01*
X0001534125Y0002889702D01*
X0001539935Y0002885820D01*
X0001544876Y0002880880D01*
X0001548758Y0002875070D01*
X0001551432Y0002868614D01*
X0001552795Y0002861761D01*
X0001552795Y0002854773D01*
X0001551432Y0002847920D01*
X0001548758Y0002841465D01*
X0001544876Y0002835655D01*
X0001539935Y0002830714D01*
X0001534125Y0002826832D01*
X0001527669Y0002824158D01*
X0001521791Y0002822989D01*
X0001520816Y0002822795D01*
X0001513829Y0002822795D01*
X0001512853Y0002822989D01*
X0001506975Y0002824158D01*
X0001500520Y0002826832D01*
X0001494710Y0002830714D01*
X0001489769Y0002835655D01*
X0001485887Y0002841465D01*
X0001483213Y0002847920D01*
X0001481850Y0002854773D01*
X0001481850Y0002861761D01*
X0001483213Y0002868614D01*
X0001485887Y0002875070D01*
X0001489769Y0002880880D01*
X0001494710Y0002885820D01*
X0001500520Y0002889702D01*
X0001506975Y0002892377D01*
X0001512853Y0002893546D01*
X0001513829Y0002893740D01*
X0001520816Y0002893740D01*
X0001521791Y0002893546D01*
G37*
G36*
X0001452795Y0002822795D02*
G01*
X0001381850Y0002822795D01*
X0001381850Y0002893740D01*
X0001452795Y0002893740D01*
X0001452795Y0002822795D01*
G37*
M02*