%MOIN*%
%OFA0B0*%
%FSLAX44Y44*%
%IPPOS*%
%LPD*%
%ADD10C,0*%
D10*
X00026377Y00034251D02*
X00026377Y00034251D01*
X00021352Y00034251D01*
X00021319Y00034253D01*
X00021287Y00034257D01*
X00021255Y00034264D01*
X00021223Y00034273D01*
X00021192Y00034285D01*
X00021163Y00034300D01*
X00021135Y00034317D01*
X00021108Y00034336D01*
X00021083Y00034358D01*
X00021060Y00034381D01*
X00021039Y00034407D01*
X00021020Y00034434D01*
X00021004Y00034462D01*
X00020990Y00034492D01*
X00020978Y00034523D01*
X00020969Y00034554D01*
X00020963Y00034587D01*
X00020959Y00034619D01*
X00020959Y00034652D01*
X00020961Y00034685D01*
X00021043Y00035494D01*
X00021047Y00035518D01*
X00021051Y00035542D01*
X00021057Y00035565D01*
X00021065Y00035588D01*
X00021074Y00035611D01*
X00021084Y00035633D01*
X00021096Y00035654D01*
X00021109Y00035674D01*
X00021123Y00035694D01*
X00021139Y00035713D01*
X00021155Y00035731D01*
X00021173Y00035747D01*
X00021191Y00035763D01*
X00021211Y00035777D01*
X00021231Y00035791D01*
X00021252Y00035802D01*
X00021274Y00035813D01*
X00021297Y00035822D01*
X00021320Y00035830D01*
X00021343Y00035836D01*
X00021381Y00035846D01*
X00021438Y00035869D01*
X00021491Y00035901D01*
X00021538Y00035942D01*
X00021578Y00035989D01*
X00021610Y00036041D01*
X00021634Y00036098D01*
X00021648Y00036158D01*
X00021653Y00036220D01*
X00021653Y00038976D01*
X00021648Y00039037D01*
X00021634Y00039098D01*
X00021610Y00039155D01*
X00021578Y00039207D01*
X00021538Y00039254D01*
X00021491Y00039294D01*
X00021438Y00039327D01*
X00021381Y00039350D01*
X00021321Y00039365D01*
X00021259Y00039370D01*
X00000393Y00039370D01*
X00000332Y00039365D01*
X00000272Y00039350D01*
X00000214Y00039327D01*
X00000162Y00039294D01*
X00000115Y00039254D01*
X00000075Y00039207D01*
X00000042Y00039155D01*
X00000019Y00039098D01*
X00000004Y00039037D01*
X00000000Y00038976D01*
X00000000Y00024015D01*
X00000004Y00023954D01*
X00000019Y00023894D01*
X00000042Y00023837D01*
X00000075Y00023784D01*
X00000115Y00023737D01*
X00000162Y00023697D01*
X00000214Y00023664D01*
X00000272Y00023641D01*
X00000332Y00023626D01*
X00000393Y00023622D01*
X00003149Y00023622D01*
X00003211Y00023626D01*
X00003271Y00023641D01*
X00003328Y00023664D01*
X00003381Y00023697D01*
X00003427Y00023737D01*
X00003468Y00023784D01*
X00003500Y00023837D01*
X00003524Y00023894D01*
X00003533Y00023932D01*
X00003539Y00023955D01*
X00003547Y00023978D01*
X00003556Y00024000D01*
X00003567Y00024022D01*
X00003579Y00024043D01*
X00003592Y00024064D01*
X00003606Y00024083D01*
X00003622Y00024102D01*
X00003639Y00024119D01*
X00003656Y00024136D01*
X00003675Y00024151D01*
X00003695Y00024166D01*
X00003715Y00024179D01*
X00003736Y00024190D01*
X00003758Y00024201D01*
X00003781Y00024210D01*
X00003804Y00024217D01*
X00003828Y00024223D01*
X00003851Y00024228D01*
X00003875Y00024231D01*
X00004684Y00024314D01*
X00004717Y00024316D01*
X00004750Y00024315D01*
X00004782Y00024312D01*
X00004815Y00024305D01*
X00004846Y00024296D01*
X00004877Y00024285D01*
X00004907Y00024271D01*
X00004935Y00024254D01*
X00004962Y00024236D01*
X00004988Y00024215D01*
X00005011Y00024191D01*
X00005033Y00024167D01*
X00005052Y00024140D01*
X00005069Y00024112D01*
X00005084Y00024082D01*
X00005096Y00024052D01*
X00005105Y00024020D01*
X00005112Y00023988D01*
X00005116Y00023955D01*
X00005118Y00023922D01*
X00005118Y00018897D01*
X00005122Y00018836D01*
X00005137Y00018775D01*
X00005161Y00018718D01*
X00005193Y00018666D01*
X00005233Y00018619D01*
X00005280Y00018579D01*
X00005333Y00018546D01*
X00005390Y00018523D01*
X00005450Y00018508D01*
X00005511Y00018503D01*
X00008267Y00018503D01*
X00008329Y00018508D01*
X00008389Y00018523D01*
X00008446Y00018546D01*
X00008499Y00018579D01*
X00008546Y00018619D01*
X00008586Y00018666D01*
X00008618Y00018718D01*
X00008642Y00018775D01*
X00008651Y00018813D01*
X00008657Y00018837D01*
X00008665Y00018860D01*
X00008674Y00018882D01*
X00008685Y00018904D01*
X00008697Y00018925D01*
X00008710Y00018946D01*
X00008724Y00018965D01*
X00008740Y00018984D01*
X00008757Y00019001D01*
X00008774Y00019018D01*
X00008793Y00019033D01*
X00008813Y00019047D01*
X00008833Y00019060D01*
X00008855Y00019072D01*
X00008877Y00019083D01*
X00008899Y00019092D01*
X00008922Y00019099D01*
X00008946Y00019105D01*
X00008969Y00019110D01*
X00008994Y00019113D01*
X00009802Y00019196D01*
X00009835Y00019198D01*
X00009868Y00019197D01*
X00009900Y00019194D01*
X00009933Y00019187D01*
X00009964Y00019178D01*
X00009995Y00019167D01*
X00010025Y00019153D01*
X00010054Y00019136D01*
X00010081Y00019117D01*
X00010106Y00019096D01*
X00010129Y00019073D01*
X00010151Y00019048D01*
X00010170Y00019022D01*
X00010187Y00018994D01*
X00010202Y00018964D01*
X00010214Y00018933D01*
X00010223Y00018902D01*
X00010230Y00018870D01*
X00010234Y00018837D01*
X00010236Y00018804D01*
X00010236Y00013779D01*
X00010241Y00013717D01*
X00010255Y00013657D01*
X00010279Y00013600D01*
X00010311Y00013548D01*
X00010351Y00013501D01*
X00010398Y00013461D01*
X00010451Y00013428D01*
X00010508Y00013405D01*
X00010568Y00013390D01*
X00010629Y00013385D01*
X00013385Y00013385D01*
X00013447Y00013390D01*
X00013507Y00013405D01*
X00013564Y00013428D01*
X00013617Y00013461D01*
X00013664Y00013501D01*
X00013704Y00013548D01*
X00013736Y00013600D01*
X00013760Y00013657D01*
X00013774Y00013717D01*
X00013779Y00013779D01*
X00013779Y00020078D01*
X00013774Y00020140D01*
X00013760Y00020200D01*
X00013736Y00020257D01*
X00013704Y00020310D01*
X00013664Y00020357D01*
X00013617Y00020397D01*
X00013564Y00020429D01*
X00013507Y00020453D01*
X00013447Y00020467D01*
X00013385Y00020472D01*
X00013385Y00020472D01*
X00013324Y00020477D01*
X00013264Y00020491D01*
X00013207Y00020515D01*
X00013154Y00020547D01*
X00013107Y00020587D01*
X00013067Y00020634D01*
X00013035Y00020687D01*
X00013011Y00020744D01*
X00012996Y00020804D01*
X00012992Y00020866D01*
X00012992Y00025984D01*
X00012996Y00026045D01*
X00013011Y00026105D01*
X00013035Y00026162D01*
X00013067Y00026215D01*
X00013107Y00026262D01*
X00013154Y00026302D01*
X00013207Y00026335D01*
X00013264Y00026358D01*
X00013324Y00026373D01*
X00013385Y00026377D01*
X00018503Y00026377D01*
X00018565Y00026373D01*
X00018625Y00026358D01*
X00018682Y00026335D01*
X00018735Y00026302D01*
X00018782Y00026262D01*
X00018822Y00026215D01*
X00018854Y00026162D01*
X00018878Y00026105D01*
X00018892Y00026045D01*
X00018897Y00025984D01*
X00018897Y00025984D01*
X00018902Y00025922D01*
X00018916Y00025862D01*
X00018940Y00025805D01*
X00018972Y00025752D01*
X00019012Y00025705D01*
X00019059Y00025665D01*
X00019112Y00025633D01*
X00019169Y00025609D01*
X00019229Y00025595D01*
X00019291Y00025590D01*
X00031496Y00025590D01*
X00031557Y00025595D01*
X00031617Y00025609D01*
X00031674Y00025633D01*
X00031727Y00025665D01*
X00031774Y00025705D01*
X00031814Y00025752D01*
X00031846Y00025805D01*
X00031870Y00025862D01*
X00031884Y00025922D01*
X00031889Y00025984D01*
X00031889Y00028740D01*
X00031884Y00028801D01*
X00031870Y00028861D01*
X00031846Y00028918D01*
X00031814Y00028971D01*
X00031774Y00029018D01*
X00031727Y00029058D01*
X00031674Y00029090D01*
X00031617Y00029114D01*
X00031557Y00029129D01*
X00031496Y00029133D01*
X00026470Y00029133D01*
X00026438Y00029135D01*
X00026405Y00029139D01*
X00026373Y00029146D01*
X00026341Y00029155D01*
X00026311Y00029167D01*
X00026281Y00029182D01*
X00026253Y00029199D01*
X00026226Y00029218D01*
X00026201Y00029240D01*
X00026178Y00029263D01*
X00026157Y00029289D01*
X00026138Y00029316D01*
X00026122Y00029344D01*
X00026108Y00029374D01*
X00026096Y00029405D01*
X00026087Y00029436D01*
X00026081Y00029469D01*
X00026078Y00029501D01*
X00026077Y00029534D01*
X00026079Y00029567D01*
X00026161Y00030376D01*
X00026165Y00030400D01*
X00026169Y00030423D01*
X00026175Y00030447D01*
X00026183Y00030470D01*
X00026192Y00030493D01*
X00026202Y00030514D01*
X00026214Y00030536D01*
X00026227Y00030556D01*
X00026241Y00030576D01*
X00026257Y00030595D01*
X00026273Y00030612D01*
X00026291Y00030629D01*
X00026309Y00030645D01*
X00026329Y00030659D01*
X00026349Y00030672D01*
X00026371Y00030684D01*
X00026392Y00030695D01*
X00026415Y00030704D01*
X00026438Y00030712D01*
X00026461Y00030718D01*
X00026499Y00030727D01*
X00026556Y00030751D01*
X00026609Y00030783D01*
X00026656Y00030823D01*
X00026696Y00030870D01*
X00026728Y00030923D01*
X00026752Y00030980D01*
X00026766Y00031040D01*
X00026771Y00031102D01*
X00026771Y00033858D01*
X00026766Y00033919D01*
X00026752Y00033979D01*
X00026728Y00034037D01*
X00026696Y00034089D01*
X00026656Y00034136D01*
X00026609Y00034176D01*
X00026556Y00034209D01*
X00026499Y00034232D01*
X00026439Y00034247D01*
X00026377Y00034251D01*
X00008661Y00020565D02*
X00008661Y00020565D01*
X00008661Y00025196D01*
X00008656Y00025258D01*
X00008642Y00025318D01*
X00008618Y00025375D01*
X00008586Y00025428D01*
X00008546Y00025475D01*
X00008499Y00025515D01*
X00008446Y00025547D01*
X00008389Y00025571D01*
X00008329Y00025585D01*
X00008267Y00025590D01*
X00008267Y00025590D01*
X00008206Y00025595D01*
X00008146Y00025609D01*
X00008088Y00025633D01*
X00008036Y00025665D01*
X00007989Y00025705D01*
X00007949Y00025752D01*
X00007916Y00025805D01*
X00007893Y00025862D01*
X00007878Y00025922D01*
X00007874Y00025984D01*
X00007874Y00031102D01*
X00007878Y00031163D01*
X00007893Y00031224D01*
X00007916Y00031281D01*
X00007949Y00031333D01*
X00007989Y00031380D01*
X00008036Y00031420D01*
X00008088Y00031453D01*
X00008146Y00031476D01*
X00008206Y00031491D01*
X00008267Y00031496D01*
X00013385Y00031496D01*
X00013447Y00031491D01*
X00013507Y00031476D01*
X00013564Y00031453D01*
X00013617Y00031420D01*
X00013664Y00031380D01*
X00013704Y00031333D01*
X00013736Y00031281D01*
X00013760Y00031224D01*
X00013774Y00031163D01*
X00013779Y00031102D01*
X00013779Y00031102D01*
X00013784Y00031040D01*
X00013798Y00030980D01*
X00013822Y00030923D01*
X00013854Y00030870D01*
X00013894Y00030823D01*
X00013941Y00030783D01*
X00013994Y00030751D01*
X00014051Y00030727D01*
X00014089Y00030718D01*
X00014112Y00030712D01*
X00014135Y00030704D01*
X00014158Y00030695D01*
X00014180Y00030684D01*
X00014201Y00030672D01*
X00014221Y00030659D01*
X00014241Y00030645D01*
X00014259Y00030629D01*
X00014277Y00030612D01*
X00014293Y00030595D01*
X00014309Y00030576D01*
X00014323Y00030556D01*
X00014336Y00030536D01*
X00014348Y00030514D01*
X00014358Y00030493D01*
X00014367Y00030470D01*
X00014375Y00030447D01*
X00014381Y00030423D01*
X00014386Y00030400D01*
X00014389Y00030376D01*
X00014471Y00029567D01*
X00014473Y00029534D01*
X00014473Y00029501D01*
X00014469Y00029469D01*
X00014463Y00029436D01*
X00014454Y00029405D01*
X00014442Y00029374D01*
X00014428Y00029344D01*
X00014412Y00029316D01*
X00014393Y00029289D01*
X00014372Y00029263D01*
X00014349Y00029240D01*
X00014324Y00029218D01*
X00014297Y00029199D01*
X00014269Y00029182D01*
X00014240Y00029167D01*
X00014209Y00029155D01*
X00014178Y00029146D01*
X00014145Y00029139D01*
X00014113Y00029135D01*
X00014080Y00029133D01*
X00010629Y00029133D01*
X00010568Y00029129D01*
X00010508Y00029114D01*
X00010451Y00029090D01*
X00010398Y00029058D01*
X00010351Y00029018D01*
X00010311Y00028971D01*
X00010279Y00028918D01*
X00010255Y00028861D01*
X00010241Y00028801D01*
X00010236Y00028740D01*
X00010236Y00020565D01*
X00010235Y00020534D01*
X00010231Y00020503D01*
X00010225Y00020473D01*
X00010216Y00020443D01*
X00010206Y00020414D01*
X00010193Y00020386D01*
X00010178Y00020359D01*
X00010161Y00020333D01*
X00010141Y00020309D01*
X00010120Y00020286D01*
X00010098Y00020266D01*
X00010073Y00020246D01*
X00010048Y00020229D01*
X00010021Y00020214D01*
X00009993Y00020201D01*
X00009964Y00020190D01*
X00009934Y00020182D01*
X00009904Y00020176D01*
X00009873Y00020172D01*
X00009842Y00020171D01*
X00009055Y00020171D01*
X00009024Y00020172D01*
X00008993Y00020176D01*
X00008963Y00020182D01*
X00008933Y00020190D01*
X00008904Y00020201D01*
X00008876Y00020214D01*
X00008849Y00020229D01*
X00008823Y00020246D01*
X00008799Y00020266D01*
X00008776Y00020286D01*
X00008755Y00020309D01*
X00008736Y00020333D01*
X00008719Y00020359D01*
X00008704Y00020386D01*
X00008691Y00020414D01*
X00008680Y00020443D01*
X00008672Y00020473D01*
X00008666Y00020503D01*
X00008662Y00020534D01*
X00008661Y00020565D01*
X00024710Y00030708D02*
X00024710Y00030708D01*
X00024741Y00030707D01*
X00024771Y00030703D01*
X00024802Y00030697D01*
X00024831Y00030689D01*
X00024860Y00030678D01*
X00024888Y00030665D01*
X00024915Y00030650D01*
X00024941Y00030633D01*
X00024965Y00030614D01*
X00024988Y00030593D01*
X00025009Y00030570D01*
X00025028Y00030546D01*
X00025045Y00030520D01*
X00025060Y00030493D01*
X00025073Y00030465D01*
X00025084Y00030436D01*
X00025093Y00030406D01*
X00025099Y00030376D01*
X00025102Y00030345D01*
X00025103Y00030314D01*
X00025103Y00029527D01*
X00025102Y00029496D01*
X00025099Y00029465D01*
X00025093Y00029435D01*
X00025084Y00029405D01*
X00025073Y00029376D01*
X00025060Y00029348D01*
X00025045Y00029321D01*
X00025028Y00029296D01*
X00025009Y00029271D01*
X00024988Y00029249D01*
X00024965Y00029228D01*
X00024941Y00029209D01*
X00024915Y00029191D01*
X00024888Y00029176D01*
X00024860Y00029163D01*
X00024831Y00029153D01*
X00024802Y00029144D01*
X00024771Y00029138D01*
X00024741Y00029135D01*
X00024710Y00029133D01*
X00015840Y00029133D01*
X00015810Y00029135D01*
X00015779Y00029138D01*
X00015749Y00029144D01*
X00015719Y00029153D01*
X00015690Y00029163D01*
X00015662Y00029176D01*
X00015635Y00029191D01*
X00015609Y00029209D01*
X00015585Y00029228D01*
X00015562Y00029249D01*
X00015541Y00029271D01*
X00015522Y00029296D01*
X00015505Y00029321D01*
X00015490Y00029348D01*
X00015477Y00029376D01*
X00015466Y00029405D01*
X00015458Y00029435D01*
X00015452Y00029465D01*
X00015448Y00029496D01*
X00015447Y00029527D01*
X00015447Y00030314D01*
X00015448Y00030345D01*
X00015452Y00030376D01*
X00015458Y00030406D01*
X00015466Y00030436D01*
X00015477Y00030465D01*
X00015490Y00030493D01*
X00015505Y00030520D01*
X00015522Y00030546D01*
X00015541Y00030570D01*
X00015562Y00030593D01*
X00015585Y00030614D01*
X00015609Y00030633D01*
X00015635Y00030650D01*
X00015662Y00030665D01*
X00015690Y00030678D01*
X00015719Y00030689D01*
X00015749Y00030697D01*
X00015779Y00030703D01*
X00015810Y00030707D01*
X00015840Y00030708D01*
X00024710Y00030708D01*
X00010722Y00034251D02*
X00010722Y00034251D01*
X00010691Y00034253D01*
X00010661Y00034256D01*
X00010630Y00034262D01*
X00010601Y00034271D01*
X00010572Y00034281D01*
X00010544Y00034294D01*
X00010517Y00034309D01*
X00010491Y00034327D01*
X00010467Y00034346D01*
X00010444Y00034367D01*
X00010423Y00034389D01*
X00010404Y00034414D01*
X00010387Y00034439D01*
X00010372Y00034466D01*
X00010359Y00034495D01*
X00010348Y00034524D01*
X00010340Y00034553D01*
X00010334Y00034584D01*
X00010330Y00034614D01*
X00010329Y00034645D01*
X00010329Y00035433D01*
X00010330Y00035463D01*
X00010334Y00035494D01*
X00010340Y00035524D01*
X00010348Y00035554D01*
X00010359Y00035583D01*
X00010372Y00035611D01*
X00010387Y00035638D01*
X00010404Y00035664D01*
X00010423Y00035688D01*
X00010444Y00035711D01*
X00010467Y00035732D01*
X00010491Y00035751D01*
X00010517Y00035768D01*
X00010544Y00035783D01*
X00010572Y00035796D01*
X00010601Y00035807D01*
X00010630Y00035815D01*
X00010661Y00035821D01*
X00010691Y00035825D01*
X00010722Y00035826D01*
X00019592Y00035826D01*
X00019622Y00035825D01*
X00019653Y00035821D01*
X00019684Y00035815D01*
X00019713Y00035807D01*
X00019742Y00035796D01*
X00019770Y00035783D01*
X00019797Y00035768D01*
X00019823Y00035751D01*
X00019847Y00035732D01*
X00019870Y00035711D01*
X00019891Y00035688D01*
X00019910Y00035664D01*
X00019927Y00035638D01*
X00019942Y00035611D01*
X00019955Y00035583D01*
X00019966Y00035554D01*
X00019974Y00035524D01*
X00019980Y00035494D01*
X00019984Y00035463D01*
X00019985Y00035433D01*
X00019985Y00034645D01*
X00019984Y00034614D01*
X00019980Y00034584D01*
X00019974Y00034553D01*
X00019966Y00034524D01*
X00019955Y00034495D01*
X00019942Y00034466D01*
X00019927Y00034439D01*
X00019910Y00034414D01*
X00019891Y00034389D01*
X00019870Y00034367D01*
X00019847Y00034346D01*
X00019823Y00034327D01*
X00019797Y00034309D01*
X00019770Y00034294D01*
X00019742Y00034281D01*
X00019713Y00034271D01*
X00019684Y00034262D01*
X00019653Y00034256D01*
X00019622Y00034253D01*
X00019592Y00034251D01*
X00010722Y00034251D01*
X00008971Y00035836D02*
X00008971Y00035836D01*
X00008994Y00035830D01*
X00009017Y00035822D01*
X00009040Y00035813D01*
X00009062Y00035802D01*
X00009083Y00035790D01*
X00009103Y00035777D01*
X00009123Y00035763D01*
X00009141Y00035747D01*
X00009159Y00035731D01*
X00009175Y00035713D01*
X00009191Y00035694D01*
X00009205Y00035674D01*
X00009218Y00035654D01*
X00009230Y00035633D01*
X00009240Y00035611D01*
X00009249Y00035588D01*
X00009257Y00035565D01*
X00009263Y00035542D01*
X00009267Y00035518D01*
X00009271Y00035494D01*
X00009353Y00034685D01*
X00009355Y00034652D01*
X00009355Y00034619D01*
X00009351Y00034587D01*
X00009345Y00034554D01*
X00009336Y00034523D01*
X00009324Y00034492D01*
X00009310Y00034462D01*
X00009294Y00034434D01*
X00009275Y00034407D01*
X00009254Y00034381D01*
X00009231Y00034358D01*
X00009206Y00034336D01*
X00009179Y00034317D01*
X00009151Y00034300D01*
X00009122Y00034285D01*
X00009091Y00034273D01*
X00009059Y00034264D01*
X00009027Y00034257D01*
X00008995Y00034253D01*
X00008962Y00034251D01*
X00005511Y00034251D01*
X00005450Y00034247D01*
X00005390Y00034232D01*
X00005333Y00034209D01*
X00005280Y00034176D01*
X00005233Y00034136D01*
X00005193Y00034089D01*
X00005161Y00034037D01*
X00005137Y00033979D01*
X00005122Y00033919D01*
X00005118Y00033858D01*
X00005118Y00025683D01*
X00005116Y00025652D01*
X00005113Y00025621D01*
X00005107Y00025591D01*
X00005098Y00025561D01*
X00005088Y00025532D01*
X00005075Y00025504D01*
X00005060Y00025477D01*
X00005042Y00025452D01*
X00005023Y00025427D01*
X00005002Y00025405D01*
X00004980Y00025384D01*
X00004955Y00025364D01*
X00004930Y00025347D01*
X00004903Y00025332D01*
X00004875Y00025319D01*
X00004846Y00025309D01*
X00004816Y00025300D01*
X00004785Y00025294D01*
X00004755Y00025291D01*
X00004724Y00025289D01*
X00003937Y00025289D01*
X00003906Y00025291D01*
X00003875Y00025294D01*
X00003845Y00025300D01*
X00003815Y00025309D01*
X00003786Y00025319D01*
X00003758Y00025332D01*
X00003731Y00025347D01*
X00003705Y00025364D01*
X00003681Y00025384D01*
X00003658Y00025405D01*
X00003637Y00025427D01*
X00003618Y00025452D01*
X00003601Y00025477D01*
X00003586Y00025504D01*
X00003573Y00025532D01*
X00003562Y00025561D01*
X00003554Y00025591D01*
X00003548Y00025621D01*
X00003544Y00025652D01*
X00003543Y00025683D01*
X00003543Y00030314D01*
X00003538Y00030376D01*
X00003524Y00030436D01*
X00003500Y00030493D01*
X00003468Y00030546D01*
X00003427Y00030593D01*
X00003381Y00030633D01*
X00003328Y00030665D01*
X00003271Y00030689D01*
X00003211Y00030703D01*
X00003149Y00030708D01*
X00003149Y00030708D01*
X00003088Y00030713D01*
X00003027Y00030727D01*
X00002970Y00030751D01*
X00002918Y00030783D01*
X00002871Y00030823D01*
X00002831Y00030870D01*
X00002798Y00030923D01*
X00002775Y00030980D01*
X00002760Y00031040D01*
X00002755Y00031102D01*
X00002755Y00036220D01*
X00002760Y00036282D01*
X00002775Y00036342D01*
X00002798Y00036399D01*
X00002831Y00036451D01*
X00002871Y00036498D01*
X00002918Y00036538D01*
X00002970Y00036571D01*
X00003027Y00036594D01*
X00003088Y00036609D01*
X00003149Y00036614D01*
X00008267Y00036614D01*
X00008329Y00036609D01*
X00008389Y00036594D01*
X00008446Y00036571D01*
X00008499Y00036538D01*
X00008546Y00036498D01*
X00008586Y00036451D01*
X00008618Y00036399D01*
X00008642Y00036342D01*
X00008656Y00036282D01*
X00008661Y00036220D01*
X00008661Y00036220D01*
X00008666Y00036158D01*
X00008680Y00036098D01*
X00008704Y00036041D01*
X00008736Y00035989D01*
X00008776Y00035942D01*
X00008823Y00035901D01*
X00008876Y00035869D01*
X00008933Y00035846D01*
X00008971Y00035836D01*
M02*