%
M48
METRIC,000.000
T01C0.50
%
T01
X023588Y090750
X024588Y090750
X025588Y090750
X026588Y090750
X027334Y087250
X026334Y087250
X025334Y087250
X024334Y087250
X023334Y087250
X049588Y090750
X050588Y090750
X051588Y090750
X052588Y090750
X053588Y090750
X054334Y087250
X053334Y087250
X052334Y087250
X051334Y087250
X050334Y087250
X009250Y061038
X009250Y062038
X009250Y063038
X009250Y064038
X009250Y065038
X012750Y065296
X012750Y064296
X012750Y063296
X012750Y062296
X012750Y061296
X062588Y077750
X063588Y077750
X064588Y077750
X065588Y077750
X066588Y077750
X067334Y074250
X066334Y074250
X065334Y074250
X064334Y074250
X063334Y074250
X022250Y048038
X022250Y049038
X022250Y050038
X022250Y051038
X022250Y052038
X025750Y052296
X025750Y051296
X025750Y050296
X025750Y049296
X025750Y048296
X036588Y077750
X037588Y077750
X038588Y077750
X039588Y077750
X040334Y074250
X039334Y074250
X038334Y074250
X037334Y074250
X036334Y074250
M30