%
M48
METRIC,000.000
T01C2.20
T10C1.00
%
T01
X006000Y075999
X047800Y094000
X024000Y094000
X006000Y094000
X019000Y062999
X060800Y081000
X037000Y081000
X019000Y081000
X032000Y049999
X073800Y068000
X050000Y068000
X032000Y068000
T10
X001400Y073199
X001400Y070659
X001400Y068119
X001400Y065579
X001400Y063039
X003940Y073199
X003940Y070659
X003940Y068119
X003940Y065579
X003940Y063039
X026800Y098599
X026800Y096059
X029340Y098599
X029340Y096059
X031880Y098599
X031880Y096059
X034420Y098599
X034420Y096059
X036960Y098599
X036960Y096059
X001400Y089999
X001400Y087459
X001400Y084919
X001400Y082379
X001400Y079839
X003940Y089999
X003940Y087459
X003940Y084919
X003940Y082379
X003940Y079839
X010000Y098599
X010000Y096059
X012540Y098599
X012540Y096059
X015080Y098599
X015080Y096059
X017620Y098599
X017620Y096059
X020160Y098599
X020160Y096059
X014400Y060199
X014400Y057659
X014400Y055119
X014400Y052579
X014400Y050039
X016940Y060199
X016940Y057659
X016940Y055119
X016940Y052579
X016940Y050039
X039800Y085599
X039800Y083059
X042340Y085599
X042340Y083059
X044880Y085599
X044880Y083059
X047420Y085599
X047420Y083059
X049960Y085599
X049960Y083059
X014400Y076999
X014400Y074459
X014400Y071919
X014400Y069379
X014400Y066839
X016940Y076999
X016940Y074459
X016940Y071919
X016940Y069379
X016940Y066839
X023000Y085599
X023000Y083059
X025540Y085599
X025540Y083059
X028080Y085599
X028080Y083059
X030620Y085599
X030620Y083059
X033160Y085599
X033160Y083059
X027400Y047199
X027400Y044659
X027400Y042119
X027400Y039579
X027400Y037039
X029940Y047199
X029940Y044659
X029940Y042119
X029940Y039579
X029940Y037039
X052800Y072599
X052800Y070059
X055340Y072599
X055340Y070059
X057880Y072599
X057880Y070059
X060420Y072599
X060420Y070059
X062960Y072599
X062960Y070059
X027400Y063999
X027400Y061459
X027400Y058919
X027400Y056379
X027400Y053839
X029940Y063999
X029940Y061459
X029940Y058919
X029940Y056379
X029940Y053839
X036000Y072599
X036000Y070059
X038540Y072599
X038540Y070059
X041080Y072599
X041080Y070059
X043620Y072599
X043620Y070059
X046160Y072599
X046160Y070059
M30