%MOIN*%
%OFA0B0*%
%FSLAX44Y44*%
%IPPOS*%
%LPD*%
G36*
X00008460Y00037270D02*
G01*
X00008467Y00037271D01*
X00008474Y00037275D01*
X00008479Y00037280D01*
X00008482Y00037287D01*
X00008484Y00037294D01*
X00008484Y00039341D01*
X00008482Y00039348D01*
X00008479Y00039355D01*
X00008474Y00039360D01*
X00008467Y00039364D01*
X00008460Y00039365D01*
X00008453Y00039364D01*
X00008446Y00039360D01*
X00008441Y00039355D01*
X00008437Y00039348D01*
X00008436Y00039341D01*
X00008436Y00037294D01*
X00008437Y00037287D01*
X00008441Y00037280D01*
X00008446Y00037275D01*
X00008453Y00037271D01*
X00008460Y00037270D01*
G37*
G36*
X00008460Y00039318D02*
G01*
X00008467Y00039319D01*
X00008474Y00039322D01*
X00008479Y00039327D01*
X00008482Y00039334D01*
X00008484Y00039341D01*
X00008482Y00039348D01*
X00008479Y00039355D01*
X00008474Y00039360D01*
X00008467Y00039364D01*
X00008460Y00039365D01*
X00004436Y00039365D01*
X00004429Y00039364D01*
X00004422Y00039360D01*
X00004417Y00039355D01*
X00004414Y00039348D01*
X00004413Y00039341D01*
X00004414Y00039334D01*
X00004417Y00039327D01*
X00004422Y00039322D01*
X00004429Y00039319D01*
X00004436Y00039318D01*
X00008460Y00039318D01*
G37*
G36*
X00008460Y00037270D02*
G01*
X00008467Y00037271D01*
X00008474Y00037275D01*
X00008479Y00037280D01*
X00008482Y00037287D01*
X00008484Y00037294D01*
X00008482Y00037301D01*
X00008479Y00037308D01*
X00008474Y00037313D01*
X00008467Y00037316D01*
X00008460Y00037318D01*
X00003413Y00037318D01*
X00003405Y00037316D01*
X00003399Y00037313D01*
X00003394Y00037308D01*
X00003390Y00037301D01*
X00003388Y00037294D01*
X00003390Y00037287D01*
X00003394Y00037280D01*
X00003399Y00037275D01*
X00003405Y00037271D01*
X00003413Y00037270D01*
X00008460Y00037270D01*
G37*
G36*
X00004436Y00038294D02*
G01*
X00004444Y00038295D01*
X00004450Y00038298D01*
X00004455Y00038304D01*
X00004459Y00038309D01*
X00004460Y00038317D01*
X00004460Y00039341D01*
X00004459Y00039348D01*
X00004455Y00039355D01*
X00004450Y00039360D01*
X00004444Y00039364D01*
X00004436Y00039365D01*
X00004429Y00039364D01*
X00004422Y00039360D01*
X00004417Y00039355D01*
X00004414Y00039348D01*
X00004413Y00039341D01*
X00004413Y00038317D01*
X00004414Y00038309D01*
X00004417Y00038304D01*
X00004422Y00038298D01*
X00004429Y00038295D01*
X00004436Y00038294D01*
G37*
G36*
X00004436Y00038294D02*
G01*
X00004444Y00038295D01*
X00004450Y00038298D01*
X00004455Y00038304D01*
X00004459Y00038309D01*
X00004460Y00038317D01*
X00004459Y00038325D01*
X00004455Y00038331D01*
X00004450Y00038337D01*
X00004444Y00038340D01*
X00004436Y00038341D01*
X00003413Y00038341D01*
X00003405Y00038340D01*
X00003399Y00038337D01*
X00003394Y00038331D01*
X00003390Y00038325D01*
X00003388Y00038317D01*
X00003390Y00038309D01*
X00003394Y00038304D01*
X00003399Y00038298D01*
X00003405Y00038295D01*
X00003413Y00038294D01*
X00004436Y00038294D01*
G37*
G36*
X00003413Y00037270D02*
G01*
X00003420Y00037271D01*
X00003427Y00037275D01*
X00003431Y00037280D01*
X00003435Y00037287D01*
X00003436Y00037294D01*
X00003436Y00038317D01*
X00003435Y00038325D01*
X00003431Y00038331D01*
X00003427Y00038337D01*
X00003420Y00038340D01*
X00003413Y00038341D01*
X00003405Y00038340D01*
X00003399Y00038337D01*
X00003394Y00038331D01*
X00003390Y00038325D01*
X00003388Y00038317D01*
X00003388Y00037294D01*
X00003390Y00037287D01*
X00003394Y00037280D01*
X00003399Y00037275D01*
X00003405Y00037271D01*
X00003413Y00037270D01*
G37*
G36*
X00003936Y00039318D02*
G01*
X00003943Y00039319D01*
X00003950Y00039322D01*
X00003955Y00039327D01*
X00003958Y00039334D01*
X00003960Y00039341D01*
X00003958Y00039348D01*
X00003955Y00039355D01*
X00003950Y00039360D01*
X00003943Y00039364D01*
X00003936Y00039365D01*
X00003413Y00039365D01*
X00003405Y00039364D01*
X00003399Y00039360D01*
X00003394Y00039355D01*
X00003390Y00039348D01*
X00003388Y00039341D01*
X00003390Y00039334D01*
X00003394Y00039327D01*
X00003399Y00039322D01*
X00003405Y00039319D01*
X00003413Y00039318D01*
X00003936Y00039318D01*
G37*
G36*
X00003413Y00038793D02*
G01*
X00003420Y00038795D01*
X00003427Y00038797D01*
X00003431Y00038804D01*
X00003435Y00038809D01*
X00003436Y00038818D01*
X00003436Y00039341D01*
X00003435Y00039348D01*
X00003431Y00039355D01*
X00003427Y00039360D01*
X00003420Y00039364D01*
X00003413Y00039365D01*
X00003405Y00039364D01*
X00003399Y00039360D01*
X00003394Y00039355D01*
X00003390Y00039348D01*
X00003388Y00039341D01*
X00003388Y00038818D01*
X00003390Y00038809D01*
X00003394Y00038804D01*
X00003399Y00038797D01*
X00003405Y00038795D01*
X00003413Y00038793D01*
G37*
G36*
X00010027Y00038793D02*
G01*
X00010034Y00038795D01*
X00010041Y00038797D01*
X00010046Y00038804D01*
X00010048Y00038809D01*
X00010049Y00038818D01*
X00010049Y00039341D01*
X00010048Y00039348D01*
X00010046Y00039355D01*
X00010041Y00039360D01*
X00010034Y00039364D01*
X00010027Y00039365D01*
X00010020Y00039364D01*
X00010013Y00039360D01*
X00010008Y00039355D01*
X00010004Y00039348D01*
X00010003Y00039341D01*
X00010003Y00038818D01*
X00010004Y00038809D01*
X00010008Y00038804D01*
X00010013Y00038797D01*
X00010020Y00038795D01*
X00010027Y00038793D01*
G37*
G36*
X00010550Y00039318D02*
G01*
X00010558Y00039319D01*
X00010564Y00039322D01*
X00010570Y00039327D01*
X00010572Y00039334D01*
X00010573Y00039341D01*
X00010572Y00039348D01*
X00010570Y00039355D01*
X00010564Y00039360D01*
X00010558Y00039364D01*
X00010550Y00039365D01*
X00010027Y00039365D01*
X00010020Y00039364D01*
X00010013Y00039360D01*
X00010008Y00039355D01*
X00010004Y00039348D01*
X00010003Y00039341D01*
X00010004Y00039334D01*
X00010008Y00039327D01*
X00010013Y00039322D01*
X00010020Y00039319D01*
X00010027Y00039318D01*
X00010550Y00039318D01*
G37*
G36*
X00010027Y00037270D02*
G01*
X00010034Y00037271D01*
X00010041Y00037275D01*
X00010046Y00037280D01*
X00010048Y00037287D01*
X00010049Y00037294D01*
X00010049Y00038317D01*
X00010048Y00038325D01*
X00010046Y00038331D01*
X00010041Y00038337D01*
X00010034Y00038340D01*
X00010027Y00038341D01*
X00010020Y00038340D01*
X00010013Y00038337D01*
X00010008Y00038331D01*
X00010004Y00038325D01*
X00010003Y00038317D01*
X00010003Y00037294D01*
X00010004Y00037287D01*
X00010008Y00037280D01*
X00010013Y00037275D01*
X00010020Y00037271D01*
X00010027Y00037270D01*
G37*
G36*
X00011050Y00038294D02*
G01*
X00011057Y00038295D01*
X00011064Y00038298D01*
X00011070Y00038304D01*
X00011073Y00038309D01*
X00011074Y00038317D01*
X00011073Y00038325D01*
X00011070Y00038331D01*
X00011064Y00038337D01*
X00011057Y00038340D01*
X00011050Y00038341D01*
X00010027Y00038341D01*
X00010020Y00038340D01*
X00010013Y00038337D01*
X00010008Y00038331D01*
X00010004Y00038325D01*
X00010003Y00038317D01*
X00010004Y00038309D01*
X00010008Y00038304D01*
X00010013Y00038298D01*
X00010020Y00038295D01*
X00010027Y00038294D01*
X00011050Y00038294D01*
G37*
G36*
X00011050Y00038294D02*
G01*
X00011057Y00038295D01*
X00011064Y00038298D01*
X00011070Y00038304D01*
X00011073Y00038309D01*
X00011074Y00038317D01*
X00011074Y00039341D01*
X00011073Y00039348D01*
X00011070Y00039355D01*
X00011064Y00039360D01*
X00011057Y00039364D01*
X00011050Y00039365D01*
X00011043Y00039364D01*
X00011036Y00039360D01*
X00011031Y00039355D01*
X00011028Y00039348D01*
X00011027Y00039341D01*
X00011027Y00038317D01*
X00011028Y00038309D01*
X00011031Y00038304D01*
X00011036Y00038298D01*
X00011043Y00038295D01*
X00011050Y00038294D01*
G37*
G36*
X00015074Y00037270D02*
G01*
X00015081Y00037271D01*
X00015088Y00037275D01*
X00015093Y00037280D01*
X00015097Y00037287D01*
X00015098Y00037294D01*
X00015097Y00037301D01*
X00015093Y00037308D01*
X00015088Y00037313D01*
X00015081Y00037316D01*
X00015074Y00037318D01*
X00010027Y00037318D01*
X00010020Y00037316D01*
X00010013Y00037313D01*
X00010008Y00037308D01*
X00010004Y00037301D01*
X00010003Y00037294D01*
X00010004Y00037287D01*
X00010008Y00037280D01*
X00010013Y00037275D01*
X00010020Y00037271D01*
X00010027Y00037270D01*
X00015074Y00037270D01*
G37*
G36*
X00015074Y00039318D02*
G01*
X00015081Y00039319D01*
X00015088Y00039322D01*
X00015093Y00039327D01*
X00015097Y00039334D01*
X00015098Y00039341D01*
X00015097Y00039348D01*
X00015093Y00039355D01*
X00015088Y00039360D01*
X00015081Y00039364D01*
X00015074Y00039365D01*
X00011050Y00039365D01*
X00011043Y00039364D01*
X00011036Y00039360D01*
X00011031Y00039355D01*
X00011028Y00039348D01*
X00011027Y00039341D01*
X00011028Y00039334D01*
X00011031Y00039327D01*
X00011036Y00039322D01*
X00011043Y00039319D01*
X00011050Y00039318D01*
X00015074Y00039318D01*
G37*
G36*
X00015074Y00037270D02*
G01*
X00015081Y00037271D01*
X00015088Y00037275D01*
X00015093Y00037280D01*
X00015097Y00037287D01*
X00015098Y00037294D01*
X00015098Y00039341D01*
X00015097Y00039348D01*
X00015093Y00039355D01*
X00015088Y00039360D01*
X00015081Y00039364D01*
X00015074Y00039365D01*
X00015067Y00039364D01*
X00015060Y00039360D01*
X00015055Y00039355D01*
X00015052Y00039348D01*
X00015049Y00039341D01*
X00015049Y00037294D01*
X00015052Y00037287D01*
X00015055Y00037280D01*
X00015060Y00037275D01*
X00015067Y00037271D01*
X00015074Y00037270D01*
G37*
G04 next file*
G36*
X00013577Y00032152D02*
G01*
X00013585Y00032152D01*
X00013592Y00032156D01*
X00013596Y00032162D01*
X00013600Y00032168D01*
X00013601Y00032176D01*
X00013601Y00034223D01*
X00013600Y00034230D01*
X00013596Y00034237D01*
X00013592Y00034242D01*
X00013585Y00034246D01*
X00013577Y00034247D01*
X00013571Y00034246D01*
X00013564Y00034242D01*
X00013559Y00034237D01*
X00013555Y00034230D01*
X00013553Y00034223D01*
X00013553Y00032176D01*
X00013555Y00032168D01*
X00013559Y00032162D01*
X00013564Y00032156D01*
X00013571Y00032152D01*
X00013577Y00032152D01*
G37*
G36*
X00013577Y00034200D02*
G01*
X00013585Y00034201D01*
X00013592Y00034204D01*
X00013596Y00034209D01*
X00013600Y00034216D01*
X00013601Y00034223D01*
X00013600Y00034230D01*
X00013596Y00034237D01*
X00013592Y00034242D01*
X00013585Y00034246D01*
X00013577Y00034247D01*
X00009554Y00034247D01*
X00009547Y00034246D01*
X00009540Y00034242D01*
X00009535Y00034237D01*
X00009532Y00034230D01*
X00009531Y00034223D01*
X00009532Y00034216D01*
X00009535Y00034209D01*
X00009540Y00034204D01*
X00009547Y00034201D01*
X00009554Y00034200D01*
X00013577Y00034200D01*
G37*
G36*
X00013577Y00032152D02*
G01*
X00013585Y00032152D01*
X00013592Y00032156D01*
X00013596Y00032162D01*
X00013600Y00032168D01*
X00013601Y00032176D01*
X00013600Y00032183D01*
X00013596Y00032190D01*
X00013592Y00032195D01*
X00013585Y00032198D01*
X00013577Y00032200D01*
X00008531Y00032200D01*
X00008523Y00032198D01*
X00008517Y00032195D01*
X00008512Y00032190D01*
X00008508Y00032183D01*
X00008507Y00032176D01*
X00008508Y00032168D01*
X00008512Y00032162D01*
X00008517Y00032156D01*
X00008523Y00032152D01*
X00008531Y00032152D01*
X00013577Y00032152D01*
G37*
G36*
X00009554Y00033176D02*
G01*
X00009562Y00033177D01*
X00009568Y00033180D01*
X00009573Y00033186D01*
X00009577Y00033192D01*
X00009578Y00033200D01*
X00009578Y00034223D01*
X00009577Y00034230D01*
X00009573Y00034237D01*
X00009568Y00034242D01*
X00009562Y00034246D01*
X00009554Y00034247D01*
X00009547Y00034246D01*
X00009540Y00034242D01*
X00009535Y00034237D01*
X00009532Y00034230D01*
X00009531Y00034223D01*
X00009531Y00033200D01*
X00009532Y00033192D01*
X00009535Y00033186D01*
X00009540Y00033180D01*
X00009547Y00033177D01*
X00009554Y00033176D01*
G37*
G36*
X00009554Y00033176D02*
G01*
X00009562Y00033177D01*
X00009568Y00033180D01*
X00009573Y00033186D01*
X00009577Y00033192D01*
X00009578Y00033200D01*
X00009577Y00033207D01*
X00009573Y00033213D01*
X00009568Y00033219D01*
X00009562Y00033221D01*
X00009554Y00033223D01*
X00008531Y00033223D01*
X00008523Y00033221D01*
X00008517Y00033219D01*
X00008512Y00033213D01*
X00008508Y00033207D01*
X00008507Y00033200D01*
X00008508Y00033192D01*
X00008512Y00033186D01*
X00008517Y00033180D01*
X00008523Y00033177D01*
X00008531Y00033176D01*
X00009554Y00033176D01*
G37*
G36*
X00008531Y00032152D02*
G01*
X00008538Y00032152D01*
X00008545Y00032156D01*
X00008550Y00032162D01*
X00008553Y00032168D01*
X00008554Y00032176D01*
X00008554Y00033200D01*
X00008553Y00033207D01*
X00008550Y00033213D01*
X00008545Y00033219D01*
X00008538Y00033221D01*
X00008531Y00033223D01*
X00008523Y00033221D01*
X00008517Y00033219D01*
X00008512Y00033213D01*
X00008508Y00033207D01*
X00008507Y00033200D01*
X00008507Y00032176D01*
X00008508Y00032168D01*
X00008512Y00032162D01*
X00008517Y00032156D01*
X00008523Y00032152D01*
X00008531Y00032152D01*
G37*
G36*
X00009054Y00034200D02*
G01*
X00009062Y00034201D01*
X00009068Y00034204D01*
X00009073Y00034209D01*
X00009077Y00034216D01*
X00009078Y00034223D01*
X00009077Y00034230D01*
X00009073Y00034237D01*
X00009068Y00034242D01*
X00009062Y00034246D01*
X00009054Y00034247D01*
X00008531Y00034247D01*
X00008523Y00034246D01*
X00008517Y00034242D01*
X00008512Y00034237D01*
X00008508Y00034230D01*
X00008507Y00034223D01*
X00008508Y00034216D01*
X00008512Y00034209D01*
X00008517Y00034204D01*
X00008523Y00034201D01*
X00008531Y00034200D01*
X00009054Y00034200D01*
G37*
G36*
X00008531Y00033676D02*
G01*
X00008538Y00033677D01*
X00008545Y00033680D01*
X00008550Y00033686D01*
X00008553Y00033692D01*
X00008554Y00033700D01*
X00008554Y00034223D01*
X00008553Y00034230D01*
X00008550Y00034237D01*
X00008545Y00034242D01*
X00008538Y00034246D01*
X00008531Y00034247D01*
X00008523Y00034246D01*
X00008517Y00034242D01*
X00008512Y00034237D01*
X00008508Y00034230D01*
X00008507Y00034223D01*
X00008507Y00033700D01*
X00008508Y00033692D01*
X00008512Y00033686D01*
X00008517Y00033680D01*
X00008523Y00033677D01*
X00008531Y00033676D01*
G37*
G36*
X00015145Y00033676D02*
G01*
X00015152Y00033677D01*
X00015159Y00033680D01*
X00015164Y00033686D01*
X00015167Y00033692D01*
X00015168Y00033700D01*
X00015168Y00034223D01*
X00015167Y00034230D01*
X00015164Y00034237D01*
X00015159Y00034242D01*
X00015152Y00034246D01*
X00015145Y00034247D01*
X00015138Y00034246D01*
X00015130Y00034242D01*
X00015125Y00034237D01*
X00015121Y00034230D01*
X00015121Y00034223D01*
X00015121Y00033700D01*
X00015121Y00033692D01*
X00015125Y00033686D01*
X00015130Y00033680D01*
X00015138Y00033677D01*
X00015145Y00033676D01*
G37*
G36*
X00015668Y00034200D02*
G01*
X00015676Y00034201D01*
X00015682Y00034204D01*
X00015688Y00034209D01*
X00015691Y00034216D01*
X00015692Y00034223D01*
X00015691Y00034230D01*
X00015688Y00034237D01*
X00015682Y00034242D01*
X00015676Y00034246D01*
X00015668Y00034247D01*
X00015145Y00034247D01*
X00015138Y00034246D01*
X00015130Y00034242D01*
X00015125Y00034237D01*
X00015121Y00034230D01*
X00015121Y00034223D01*
X00015121Y00034216D01*
X00015125Y00034209D01*
X00015130Y00034204D01*
X00015138Y00034201D01*
X00015145Y00034200D01*
X00015668Y00034200D01*
G37*
G36*
X00015145Y00032152D02*
G01*
X00015152Y00032152D01*
X00015159Y00032156D01*
X00015164Y00032162D01*
X00015167Y00032168D01*
X00015168Y00032176D01*
X00015168Y00033200D01*
X00015167Y00033207D01*
X00015164Y00033213D01*
X00015159Y00033219D01*
X00015152Y00033221D01*
X00015145Y00033223D01*
X00015138Y00033221D01*
X00015130Y00033219D01*
X00015125Y00033213D01*
X00015121Y00033207D01*
X00015121Y00033200D01*
X00015121Y00032176D01*
X00015121Y00032168D01*
X00015125Y00032162D01*
X00015130Y00032156D01*
X00015138Y00032152D01*
X00015145Y00032152D01*
G37*
G36*
X00016168Y00033176D02*
G01*
X00016176Y00033177D01*
X00016182Y00033180D01*
X00016188Y00033186D01*
X00016191Y00033192D01*
X00016192Y00033200D01*
X00016191Y00033207D01*
X00016188Y00033213D01*
X00016182Y00033219D01*
X00016176Y00033221D01*
X00016168Y00033223D01*
X00015145Y00033223D01*
X00015138Y00033221D01*
X00015130Y00033219D01*
X00015125Y00033213D01*
X00015121Y00033207D01*
X00015121Y00033200D01*
X00015121Y00033192D01*
X00015125Y00033186D01*
X00015130Y00033180D01*
X00015138Y00033177D01*
X00015145Y00033176D01*
X00016168Y00033176D01*
G37*
G36*
X00016168Y00033176D02*
G01*
X00016176Y00033177D01*
X00016182Y00033180D01*
X00016188Y00033186D01*
X00016191Y00033192D01*
X00016192Y00033200D01*
X00016192Y00034223D01*
X00016191Y00034230D01*
X00016188Y00034237D01*
X00016182Y00034242D01*
X00016176Y00034246D01*
X00016168Y00034247D01*
X00016161Y00034246D01*
X00016155Y00034242D01*
X00016149Y00034237D01*
X00016146Y00034230D01*
X00016145Y00034223D01*
X00016145Y00033200D01*
X00016146Y00033192D01*
X00016149Y00033186D01*
X00016155Y00033180D01*
X00016161Y00033177D01*
X00016168Y00033176D01*
G37*
G36*
X00020192Y00032152D02*
G01*
X00020198Y00032152D01*
X00020206Y00032156D01*
X00020211Y00032162D01*
X00020215Y00032168D01*
X00020216Y00032176D01*
X00020215Y00032183D01*
X00020211Y00032190D01*
X00020206Y00032195D01*
X00020198Y00032198D01*
X00020192Y00032200D01*
X00015145Y00032200D01*
X00015138Y00032198D01*
X00015130Y00032195D01*
X00015125Y00032190D01*
X00015121Y00032183D01*
X00015121Y00032176D01*
X00015121Y00032168D01*
X00015125Y00032162D01*
X00015130Y00032156D01*
X00015138Y00032152D01*
X00015145Y00032152D01*
X00020192Y00032152D01*
G37*
G36*
X00020192Y00034200D02*
G01*
X00020198Y00034201D01*
X00020206Y00034204D01*
X00020211Y00034209D01*
X00020215Y00034216D01*
X00020216Y00034223D01*
X00020215Y00034230D01*
X00020211Y00034237D01*
X00020206Y00034242D01*
X00020198Y00034246D01*
X00020192Y00034247D01*
X00016168Y00034247D01*
X00016161Y00034246D01*
X00016155Y00034242D01*
X00016149Y00034237D01*
X00016146Y00034230D01*
X00016145Y00034223D01*
X00016146Y00034216D01*
X00016149Y00034209D01*
X00016155Y00034204D01*
X00016161Y00034201D01*
X00016168Y00034200D01*
X00020192Y00034200D01*
G37*
G36*
X00020192Y00032152D02*
G01*
X00020198Y00032152D01*
X00020206Y00032156D01*
X00020211Y00032162D01*
X00020215Y00032168D01*
X00020216Y00032176D01*
X00020216Y00034223D01*
X00020215Y00034230D01*
X00020211Y00034237D01*
X00020206Y00034242D01*
X00020198Y00034246D01*
X00020192Y00034247D01*
X00020185Y00034246D01*
X00020177Y00034242D01*
X00020173Y00034237D01*
X00020170Y00034230D01*
X00020168Y00034223D01*
X00020168Y00032176D01*
X00020170Y00032168D01*
X00020173Y00032162D01*
X00020177Y00032156D01*
X00020185Y00032152D01*
X00020192Y00032152D01*
G37*
G04 next file*
G36*
X00018696Y00027034D02*
G01*
X00018703Y00027035D01*
X00018710Y00027039D01*
X00018715Y00027044D01*
X00018718Y00027051D01*
X00018720Y00027058D01*
X00018720Y00029105D01*
X00018718Y00029112D01*
X00018715Y00029119D01*
X00018710Y00029124D01*
X00018703Y00029128D01*
X00018696Y00029128D01*
X00018689Y00029128D01*
X00018682Y00029124D01*
X00018676Y00029119D01*
X00018672Y00029112D01*
X00018672Y00029105D01*
X00018672Y00027058D01*
X00018672Y00027051D01*
X00018676Y00027044D01*
X00018682Y00027039D01*
X00018689Y00027035D01*
X00018696Y00027034D01*
G37*
G36*
X00018696Y00029082D02*
G01*
X00018703Y00029083D01*
X00018710Y00029086D01*
X00018715Y00029091D01*
X00018718Y00029098D01*
X00018720Y00029105D01*
X00018718Y00029112D01*
X00018715Y00029119D01*
X00018710Y00029124D01*
X00018703Y00029128D01*
X00018696Y00029128D01*
X00014672Y00029128D01*
X00014665Y00029128D01*
X00014658Y00029124D01*
X00014653Y00029119D01*
X00014650Y00029112D01*
X00014649Y00029105D01*
X00014650Y00029098D01*
X00014653Y00029091D01*
X00014658Y00029086D01*
X00014665Y00029083D01*
X00014672Y00029082D01*
X00018696Y00029082D01*
G37*
G36*
X00018696Y00027034D02*
G01*
X00018703Y00027035D01*
X00018710Y00027039D01*
X00018715Y00027044D01*
X00018718Y00027051D01*
X00018720Y00027058D01*
X00018718Y00027064D01*
X00018715Y00027072D01*
X00018710Y00027077D01*
X00018703Y00027080D01*
X00018696Y00027082D01*
X00013649Y00027082D01*
X00013641Y00027080D01*
X00013635Y00027077D01*
X00013630Y00027072D01*
X00013626Y00027064D01*
X00013625Y00027058D01*
X00013626Y00027051D01*
X00013630Y00027044D01*
X00013635Y00027039D01*
X00013641Y00027035D01*
X00013649Y00027034D01*
X00018696Y00027034D01*
G37*
G36*
X00014672Y00028058D02*
G01*
X00014680Y00028059D01*
X00014685Y00028062D01*
X00014691Y00028067D01*
X00014695Y00028074D01*
X00014695Y00028081D01*
X00014695Y00029105D01*
X00014695Y00029112D01*
X00014691Y00029119D01*
X00014685Y00029124D01*
X00014680Y00029128D01*
X00014672Y00029128D01*
X00014665Y00029128D01*
X00014658Y00029124D01*
X00014653Y00029119D01*
X00014650Y00029112D01*
X00014649Y00029105D01*
X00014649Y00028081D01*
X00014650Y00028074D01*
X00014653Y00028067D01*
X00014658Y00028062D01*
X00014665Y00028059D01*
X00014672Y00028058D01*
G37*
G36*
X00014672Y00028058D02*
G01*
X00014680Y00028059D01*
X00014685Y00028062D01*
X00014691Y00028067D01*
X00014695Y00028074D01*
X00014695Y00028081D01*
X00014695Y00028089D01*
X00014691Y00028095D01*
X00014685Y00028101D01*
X00014680Y00028104D01*
X00014672Y00028105D01*
X00013649Y00028105D01*
X00013641Y00028104D01*
X00013635Y00028101D01*
X00013630Y00028095D01*
X00013626Y00028089D01*
X00013625Y00028081D01*
X00013626Y00028074D01*
X00013630Y00028067D01*
X00013635Y00028062D01*
X00013641Y00028059D01*
X00013649Y00028058D01*
X00014672Y00028058D01*
G37*
G36*
X00013649Y00027034D02*
G01*
X00013656Y00027035D01*
X00013663Y00027039D01*
X00013667Y00027044D01*
X00013671Y00027051D01*
X00013671Y00027058D01*
X00013671Y00028081D01*
X00013671Y00028089D01*
X00013667Y00028095D01*
X00013663Y00028101D01*
X00013656Y00028104D01*
X00013649Y00028105D01*
X00013641Y00028104D01*
X00013635Y00028101D01*
X00013630Y00028095D01*
X00013626Y00028089D01*
X00013625Y00028081D01*
X00013625Y00027058D01*
X00013626Y00027051D01*
X00013630Y00027044D01*
X00013635Y00027039D01*
X00013641Y00027035D01*
X00013649Y00027034D01*
G37*
G36*
X00014172Y00029082D02*
G01*
X00014180Y00029083D01*
X00014186Y00029086D01*
X00014191Y00029091D01*
X00014195Y00029098D01*
X00014196Y00029105D01*
X00014195Y00029112D01*
X00014191Y00029119D01*
X00014186Y00029124D01*
X00014180Y00029128D01*
X00014172Y00029128D01*
X00013649Y00029128D01*
X00013641Y00029128D01*
X00013635Y00029124D01*
X00013630Y00029119D01*
X00013626Y00029112D01*
X00013625Y00029105D01*
X00013626Y00029098D01*
X00013630Y00029091D01*
X00013635Y00029086D01*
X00013641Y00029083D01*
X00013649Y00029082D01*
X00014172Y00029082D01*
G37*
G36*
X00013649Y00028558D02*
G01*
X00013656Y00028559D01*
X00013663Y00028562D01*
X00013667Y00028567D01*
X00013671Y00028574D01*
X00013671Y00028582D01*
X00013671Y00029105D01*
X00013671Y00029112D01*
X00013667Y00029119D01*
X00013663Y00029124D01*
X00013656Y00029128D01*
X00013649Y00029128D01*
X00013641Y00029128D01*
X00013635Y00029124D01*
X00013630Y00029119D01*
X00013626Y00029112D01*
X00013625Y00029105D01*
X00013625Y00028582D01*
X00013626Y00028574D01*
X00013630Y00028567D01*
X00013635Y00028562D01*
X00013641Y00028559D01*
X00013649Y00028558D01*
G37*
G36*
X00020263Y00028558D02*
G01*
X00020270Y00028559D01*
X00020277Y00028562D01*
X00020282Y00028567D01*
X00020285Y00028574D01*
X00020286Y00028582D01*
X00020286Y00029105D01*
X00020285Y00029112D01*
X00020282Y00029119D01*
X00020277Y00029124D01*
X00020270Y00029128D01*
X00020263Y00029128D01*
X00020256Y00029128D01*
X00020249Y00029124D01*
X00020244Y00029119D01*
X00020240Y00029112D01*
X00020238Y00029105D01*
X00020238Y00028582D01*
X00020240Y00028574D01*
X00020244Y00028567D01*
X00020249Y00028562D01*
X00020256Y00028559D01*
X00020263Y00028558D01*
G37*
G36*
X00020785Y00029082D02*
G01*
X00020794Y00029083D01*
X00020800Y00029086D01*
X00020806Y00029091D01*
X00020809Y00029098D01*
X00020810Y00029105D01*
X00020809Y00029112D01*
X00020806Y00029119D01*
X00020800Y00029124D01*
X00020794Y00029128D01*
X00020785Y00029128D01*
X00020263Y00029128D01*
X00020256Y00029128D01*
X00020249Y00029124D01*
X00020244Y00029119D01*
X00020240Y00029112D01*
X00020238Y00029105D01*
X00020240Y00029098D01*
X00020244Y00029091D01*
X00020249Y00029086D01*
X00020256Y00029083D01*
X00020263Y00029082D01*
X00020785Y00029082D01*
G37*
G36*
X00020263Y00027034D02*
G01*
X00020270Y00027035D01*
X00020277Y00027039D01*
X00020282Y00027044D01*
X00020285Y00027051D01*
X00020286Y00027058D01*
X00020286Y00028081D01*
X00020285Y00028089D01*
X00020282Y00028095D01*
X00020277Y00028101D01*
X00020270Y00028104D01*
X00020263Y00028105D01*
X00020256Y00028104D01*
X00020249Y00028101D01*
X00020244Y00028095D01*
X00020240Y00028089D01*
X00020238Y00028081D01*
X00020238Y00027058D01*
X00020240Y00027051D01*
X00020244Y00027044D01*
X00020249Y00027039D01*
X00020256Y00027035D01*
X00020263Y00027034D01*
G37*
G36*
X00021286Y00028058D02*
G01*
X00021294Y00028059D01*
X00021300Y00028062D01*
X00021306Y00028067D01*
X00021309Y00028074D01*
X00021309Y00028081D01*
X00021309Y00028089D01*
X00021306Y00028095D01*
X00021300Y00028101D01*
X00021294Y00028104D01*
X00021286Y00028105D01*
X00020263Y00028105D01*
X00020256Y00028104D01*
X00020249Y00028101D01*
X00020244Y00028095D01*
X00020240Y00028089D01*
X00020238Y00028081D01*
X00020240Y00028074D01*
X00020244Y00028067D01*
X00020249Y00028062D01*
X00020256Y00028059D01*
X00020263Y00028058D01*
X00021286Y00028058D01*
G37*
G36*
X00021286Y00028058D02*
G01*
X00021294Y00028059D01*
X00021300Y00028062D01*
X00021306Y00028067D01*
X00021309Y00028074D01*
X00021309Y00028081D01*
X00021309Y00029105D01*
X00021309Y00029112D01*
X00021306Y00029119D01*
X00021300Y00029124D01*
X00021294Y00029128D01*
X00021286Y00029128D01*
X00021279Y00029128D01*
X00021273Y00029124D01*
X00021267Y00029119D01*
X00021264Y00029112D01*
X00021263Y00029105D01*
X00021263Y00028081D01*
X00021264Y00028074D01*
X00021267Y00028067D01*
X00021273Y00028062D01*
X00021279Y00028059D01*
X00021286Y00028058D01*
G37*
G36*
X00025310Y00027034D02*
G01*
X00025317Y00027035D01*
X00025324Y00027039D01*
X00025329Y00027044D01*
X00025333Y00027051D01*
X00025334Y00027058D01*
X00025333Y00027064D01*
X00025329Y00027072D01*
X00025324Y00027077D01*
X00025317Y00027080D01*
X00025310Y00027082D01*
X00020263Y00027082D01*
X00020256Y00027080D01*
X00020249Y00027077D01*
X00020244Y00027072D01*
X00020240Y00027064D01*
X00020238Y00027058D01*
X00020240Y00027051D01*
X00020244Y00027044D01*
X00020249Y00027039D01*
X00020256Y00027035D01*
X00020263Y00027034D01*
X00025310Y00027034D01*
G37*
G36*
X00025310Y00029082D02*
G01*
X00025317Y00029083D01*
X00025324Y00029086D01*
X00025329Y00029091D01*
X00025333Y00029098D01*
X00025334Y00029105D01*
X00025333Y00029112D01*
X00025329Y00029119D01*
X00025324Y00029124D01*
X00025317Y00029128D01*
X00025310Y00029128D01*
X00021286Y00029128D01*
X00021279Y00029128D01*
X00021273Y00029124D01*
X00021267Y00029119D01*
X00021264Y00029112D01*
X00021263Y00029105D01*
X00021264Y00029098D01*
X00021267Y00029091D01*
X00021273Y00029086D01*
X00021279Y00029083D01*
X00021286Y00029082D01*
X00025310Y00029082D01*
G37*
G36*
X00025310Y00027034D02*
G01*
X00025317Y00027035D01*
X00025324Y00027039D01*
X00025329Y00027044D01*
X00025333Y00027051D01*
X00025334Y00027058D01*
X00025334Y00029105D01*
X00025333Y00029112D01*
X00025329Y00029119D01*
X00025324Y00029124D01*
X00025317Y00029128D01*
X00025310Y00029128D01*
X00025303Y00029128D01*
X00025296Y00029124D01*
X00025291Y00029119D01*
X00025287Y00029112D01*
X00025286Y00029105D01*
X00025286Y00027058D01*
X00025287Y00027051D01*
X00025291Y00027044D01*
X00025296Y00027039D01*
X00025303Y00027035D01*
X00025310Y00027034D01*
G37*
M02*