%MOIN*%
%OFA0B0*%
%FSLAX44Y44*%
%IPPOS*%
%LPD*%
G36*
X00002440Y00029897D02*
G01*
X00002448Y00029897D01*
X00002454Y00029902D01*
X00002459Y00029907D01*
X00002463Y00029914D01*
X00002464Y00029921D01*
X00002463Y00029928D01*
X00002459Y00029935D01*
X00002454Y00029940D01*
X00002448Y00029943D01*
X00002440Y00029945D01*
X00002433Y00029943D01*
X00002426Y00029940D01*
X00002421Y00029935D01*
X00002418Y00029928D01*
X00002417Y00029921D01*
X00002418Y00029914D01*
X00002421Y00029907D01*
X00002426Y00029902D01*
X00002433Y00029897D01*
X00002440Y00029897D01*
G37*
G36*
X00002440Y00029897D02*
G01*
X00002448Y00029897D01*
X00002454Y00029902D01*
X00002459Y00029907D01*
X00002463Y00029914D01*
X00002464Y00029921D01*
X00002462Y00029937D01*
X00002461Y00029945D01*
X00002458Y00029952D01*
X00002452Y00029956D01*
X00002446Y00029960D01*
X00002438Y00029960D01*
X00002431Y00029960D01*
X00002425Y00029956D01*
X00002419Y00029952D01*
X00002416Y00029945D01*
X00002415Y00029937D01*
X00002417Y00029921D01*
X00002418Y00029914D01*
X00002421Y00029907D01*
X00002426Y00029902D01*
X00002433Y00029897D01*
X00002440Y00029897D01*
G37*
G36*
X00002438Y00029914D02*
G01*
X00002446Y00029915D01*
X00002452Y00029919D01*
X00002458Y00029924D01*
X00002461Y00029931D01*
X00002462Y00029937D01*
X00002461Y00029945D01*
X00002455Y00029960D01*
X00002452Y00029968D01*
X00002447Y00029972D01*
X00002440Y00029976D01*
X00002433Y00029977D01*
X00002426Y00029976D01*
X00002419Y00029972D01*
X00002414Y00029968D01*
X00002410Y00029960D01*
X00002409Y00029954D01*
X00002410Y00029947D01*
X00002416Y00029931D01*
X00002419Y00029924D01*
X00002425Y00029919D01*
X00002431Y00029915D01*
X00002438Y00029914D01*
G37*
G36*
X00002433Y00029930D02*
G01*
X00002440Y00029931D01*
X00002447Y00029935D01*
X00002452Y00029940D01*
X00002455Y00029947D01*
X00002457Y00029954D01*
X00002455Y00029960D01*
X00002452Y00029968D01*
X00002443Y00029982D01*
X00002438Y00029988D01*
X00002431Y00029991D01*
X00002424Y00029992D01*
X00002417Y00029991D01*
X00002410Y00029988D01*
X00002405Y00029982D01*
X00002402Y00029976D01*
X00002401Y00029968D01*
X00002402Y00029960D01*
X00002405Y00029955D01*
X00002414Y00029940D01*
X00002419Y00029935D01*
X00002426Y00029931D01*
X00002433Y00029930D01*
G37*
G36*
X00002424Y00029945D02*
G01*
X00002431Y00029946D01*
X00002438Y00029949D01*
X00002443Y00029955D01*
X00002447Y00029960D01*
X00002448Y00029968D01*
X00002447Y00029976D01*
X00002443Y00029982D01*
X00002432Y00029995D01*
X00002426Y00029999D01*
X00002420Y00030003D01*
X00002412Y00030005D01*
X00002405Y00030003D01*
X00002399Y00029999D01*
X00002393Y00029995D01*
X00002390Y00029988D01*
X00002389Y00029980D01*
X00002390Y00029974D01*
X00002393Y00029967D01*
X00002405Y00029955D01*
X00002410Y00029949D01*
X00002417Y00029946D01*
X00002424Y00029945D01*
G37*
G36*
X00002412Y00029956D02*
G01*
X00002420Y00029958D01*
X00002426Y00029962D01*
X00002432Y00029967D01*
X00002435Y00029974D01*
X00002436Y00029980D01*
X00002435Y00029988D01*
X00002432Y00029995D01*
X00002426Y00029999D01*
X00002412Y00030010D01*
X00002406Y00030013D01*
X00002398Y00030014D01*
X00002391Y00030013D01*
X00002384Y00030010D01*
X00002379Y00030003D01*
X00002376Y00029998D01*
X00002375Y00029990D01*
X00002376Y00029983D01*
X00002379Y00029976D01*
X00002384Y00029971D01*
X00002399Y00029962D01*
X00002405Y00029958D01*
X00002412Y00029956D01*
G37*
G36*
X00002398Y00029967D02*
G01*
X00002406Y00029968D01*
X00002412Y00029971D01*
X00002417Y00029976D01*
X00002421Y00029983D01*
X00002422Y00029990D01*
X00002421Y00029998D01*
X00002417Y00030003D01*
X00002412Y00030010D01*
X00002406Y00030013D01*
X00002390Y00030019D01*
X00002383Y00030019D01*
X00002375Y00030019D01*
X00002369Y00030015D01*
X00002363Y00030011D01*
X00002361Y00030003D01*
X00002360Y00029996D01*
X00002361Y00029989D01*
X00002363Y00029983D01*
X00002369Y00029977D01*
X00002375Y00029974D01*
X00002391Y00029968D01*
X00002398Y00029967D01*
G37*
G36*
X00002383Y00029972D02*
G01*
X00002390Y00029974D01*
X00002396Y00029977D01*
X00002402Y00029983D01*
X00002405Y00029989D01*
X00002406Y00029996D01*
X00002405Y00030003D01*
X00002402Y00030011D01*
X00002396Y00030015D01*
X00002390Y00030019D01*
X00002373Y00030022D01*
X00002366Y00030023D01*
X00002359Y00030022D01*
X00002353Y00030019D01*
X00002348Y00030013D01*
X00002344Y00030007D01*
X00002343Y00029999D01*
X00002344Y00029992D01*
X00002348Y00029986D01*
X00002353Y00029980D01*
X00002359Y00029976D01*
X00002375Y00029974D01*
X00002383Y00029972D01*
G37*
G36*
X00002350Y00029975D02*
G01*
X00002366Y00029976D01*
X00002373Y00029976D01*
X00002380Y00029980D01*
X00002385Y00029986D01*
X00002388Y00029992D01*
X00002389Y00029999D01*
X00002388Y00030007D01*
X00002385Y00030013D01*
X00002380Y00030019D01*
X00002373Y00030022D01*
X00002366Y00030023D01*
X00002350Y00030022D01*
X00002342Y00030021D01*
X00002336Y00030017D01*
X00002331Y00030011D01*
X00002327Y00030006D01*
X00002326Y00029998D01*
X00002327Y00029991D01*
X00002331Y00029984D01*
X00002336Y00029979D01*
X00002342Y00029976D01*
X00002350Y00029975D01*
G37*
G36*
X00002333Y00029970D02*
G01*
X00002341Y00029972D01*
X00002357Y00029976D01*
X00002363Y00029979D01*
X00002368Y00029984D01*
X00002371Y00029991D01*
X00002372Y00029998D01*
X00002371Y00030006D01*
X00002368Y00030011D01*
X00002363Y00030017D01*
X00002357Y00030021D01*
X00002350Y00030022D01*
X00002342Y00030021D01*
X00002326Y00030017D01*
X00002319Y00030013D01*
X00002314Y00030007D01*
X00002311Y00030001D01*
X00002310Y00029994D01*
X00002311Y00029987D01*
X00002314Y00029980D01*
X00002319Y00029975D01*
X00002326Y00029972D01*
X00002333Y00029970D01*
G37*
G36*
X00002318Y00029962D02*
G01*
X00002326Y00029964D01*
X00002332Y00029967D01*
X00002347Y00029975D01*
X00002352Y00029980D01*
X00002356Y00029987D01*
X00002357Y00029994D01*
X00002356Y00030001D01*
X00002352Y00030007D01*
X00002347Y00030013D01*
X00002341Y00030017D01*
X00002333Y00030017D01*
X00002326Y00030017D01*
X00002319Y00030013D01*
X00002304Y00030005D01*
X00002299Y00029999D01*
X00002296Y00029993D01*
X00002295Y00029986D01*
X00002296Y00029979D01*
X00002299Y00029972D01*
X00002304Y00029967D01*
X00002311Y00029964D01*
X00002318Y00029962D01*
G37*
G36*
X00002305Y00029951D02*
G01*
X00002313Y00029953D01*
X00002319Y00029956D01*
X00002332Y00029967D01*
X00002337Y00029972D01*
X00002341Y00029979D01*
X00002342Y00029986D01*
X00002341Y00029993D01*
X00002337Y00029999D01*
X00002332Y00030005D01*
X00002326Y00030009D01*
X00002318Y00030010D01*
X00002311Y00030009D01*
X00002304Y00030005D01*
X00002291Y00029994D01*
X00002286Y00029989D01*
X00002283Y00029982D01*
X00002282Y00029975D01*
X00002283Y00029968D01*
X00002286Y00029960D01*
X00002291Y00029956D01*
X00002298Y00029953D01*
X00002305Y00029951D01*
G37*
G36*
X00002295Y00029937D02*
G01*
X00002302Y00029939D01*
X00002309Y00029942D01*
X00002314Y00029948D01*
X00002324Y00029960D01*
X00002328Y00029968D01*
X00002329Y00029975D01*
X00002328Y00029982D01*
X00002324Y00029989D01*
X00002319Y00029994D01*
X00002313Y00029998D01*
X00002305Y00029998D01*
X00002298Y00029998D01*
X00002291Y00029994D01*
X00002286Y00029989D01*
X00002276Y00029975D01*
X00002273Y00029968D01*
X00002271Y00029960D01*
X00002273Y00029954D01*
X00002276Y00029948D01*
X00002281Y00029942D01*
X00002288Y00029939D01*
X00002295Y00029937D01*
G37*
G36*
X00002288Y00029922D02*
G01*
X00002295Y00029924D01*
X00002302Y00029927D01*
X00002307Y00029932D01*
X00002310Y00029939D01*
X00002318Y00029954D01*
X00002319Y00029960D01*
X00002318Y00029968D01*
X00002314Y00029975D01*
X00002309Y00029980D01*
X00002302Y00029984D01*
X00002295Y00029984D01*
X00002288Y00029984D01*
X00002281Y00029980D01*
X00002276Y00029975D01*
X00002273Y00029968D01*
X00002265Y00029953D01*
X00002264Y00029946D01*
X00002265Y00029939D01*
X00002269Y00029932D01*
X00002274Y00029927D01*
X00002281Y00029924D01*
X00002288Y00029922D01*
G37*
G36*
X00002284Y00029906D02*
G01*
X00002292Y00029907D01*
X00002298Y00029910D01*
X00002303Y00029916D01*
X00002307Y00029922D01*
X00002310Y00029939D01*
X00002312Y00029946D01*
X00002310Y00029953D01*
X00002307Y00029960D01*
X00002302Y00029964D01*
X00002295Y00029968D01*
X00002288Y00029970D01*
X00002281Y00029968D01*
X00002274Y00029964D01*
X00002269Y00029960D01*
X00002265Y00029953D01*
X00002262Y00029937D01*
X00002261Y00029929D01*
X00002262Y00029922D01*
X00002265Y00029916D01*
X00002270Y00029910D01*
X00002277Y00029907D01*
X00002284Y00029906D01*
G37*
G36*
X00002284Y00029889D02*
G01*
X00002292Y00029890D01*
X00002298Y00029893D01*
X00002303Y00029897D01*
X00002307Y00029905D01*
X00002308Y00029912D01*
X00002308Y00029929D01*
X00002307Y00029937D01*
X00002303Y00029943D01*
X00002298Y00029949D01*
X00002292Y00029952D01*
X00002284Y00029953D01*
X00002277Y00029952D01*
X00002270Y00029949D01*
X00002265Y00029943D01*
X00002262Y00029937D01*
X00002261Y00029929D01*
X00002261Y00029912D01*
X00002262Y00029905D01*
X00002265Y00029897D01*
X00002270Y00029893D01*
X00002277Y00029890D01*
X00002284Y00029889D01*
G37*
G36*
X00002288Y00029872D02*
G01*
X00002295Y00029873D01*
X00002302Y00029876D01*
X00002307Y00029882D01*
X00002310Y00029887D01*
X00002312Y00029895D01*
X00002310Y00029903D01*
X00002307Y00029920D01*
X00002303Y00029926D01*
X00002298Y00029931D01*
X00002292Y00029935D01*
X00002284Y00029935D01*
X00002277Y00029935D01*
X00002270Y00029931D01*
X00002265Y00029926D01*
X00002262Y00029920D01*
X00002261Y00029912D01*
X00002262Y00029905D01*
X00002265Y00029887D01*
X00002269Y00029882D01*
X00002274Y00029876D01*
X00002281Y00029873D01*
X00002288Y00029872D01*
G37*
G36*
X00002295Y00029856D02*
G01*
X00002302Y00029857D01*
X00002309Y00029860D01*
X00002314Y00029866D01*
X00002318Y00029873D01*
X00002319Y00029879D01*
X00002318Y00029887D01*
X00002310Y00029903D01*
X00002307Y00029910D01*
X00002302Y00029915D01*
X00002295Y00029918D01*
X00002288Y00029919D01*
X00002281Y00029918D01*
X00002274Y00029915D01*
X00002269Y00029910D01*
X00002265Y00029903D01*
X00002264Y00029895D01*
X00002265Y00029887D01*
X00002273Y00029873D01*
X00002276Y00029866D01*
X00002281Y00029860D01*
X00002288Y00029857D01*
X00002295Y00029856D01*
G37*
G36*
X00002305Y00029843D02*
G01*
X00002313Y00029844D01*
X00002319Y00029848D01*
X00002324Y00029852D01*
X00002328Y00029859D01*
X00002329Y00029867D01*
X00002328Y00029874D01*
X00002324Y00029881D01*
X00002314Y00029894D01*
X00002309Y00029899D01*
X00002302Y00029903D01*
X00002295Y00029904D01*
X00002288Y00029903D01*
X00002281Y00029899D01*
X00002276Y00029894D01*
X00002273Y00029887D01*
X00002271Y00029879D01*
X00002273Y00029873D01*
X00002276Y00029866D01*
X00002286Y00029852D01*
X00002291Y00029848D01*
X00002298Y00029844D01*
X00002305Y00029843D01*
G37*
G36*
X00002318Y00029832D02*
G01*
X00002326Y00029833D01*
X00002332Y00029836D01*
X00002337Y00029842D01*
X00002341Y00029848D01*
X00002342Y00029855D01*
X00002341Y00029863D01*
X00002337Y00029870D01*
X00002332Y00029875D01*
X00002319Y00029886D01*
X00002313Y00029889D01*
X00002305Y00029890D01*
X00002298Y00029889D01*
X00002291Y00029886D01*
X00002286Y00029881D01*
X00002283Y00029874D01*
X00002282Y00029867D01*
X00002283Y00029859D01*
X00002286Y00029852D01*
X00002291Y00029848D01*
X00002304Y00029836D01*
X00002311Y00029833D01*
X00002318Y00029832D01*
G37*
G36*
X00002333Y00029824D02*
G01*
X00002341Y00029825D01*
X00002347Y00029829D01*
X00002352Y00029834D01*
X00002356Y00029840D01*
X00002357Y00029848D01*
X00002356Y00029855D01*
X00002352Y00029862D01*
X00002347Y00029867D01*
X00002332Y00029875D01*
X00002326Y00029878D01*
X00002318Y00029878D01*
X00002311Y00029878D01*
X00002304Y00029875D01*
X00002299Y00029870D01*
X00002296Y00029863D01*
X00002295Y00029855D01*
X00002296Y00029848D01*
X00002299Y00029842D01*
X00002304Y00029836D01*
X00002319Y00029829D01*
X00002326Y00029825D01*
X00002333Y00029824D01*
G37*
G36*
X00002350Y00029820D02*
G01*
X00002357Y00029821D01*
X00002363Y00029824D01*
X00002368Y00029829D01*
X00002371Y00029836D01*
X00002372Y00029843D01*
X00002371Y00029850D01*
X00002368Y00029856D01*
X00002363Y00029862D01*
X00002357Y00029866D01*
X00002341Y00029870D01*
X00002333Y00029871D01*
X00002326Y00029870D01*
X00002319Y00029867D01*
X00002314Y00029862D01*
X00002311Y00029855D01*
X00002310Y00029848D01*
X00002311Y00029840D01*
X00002314Y00029834D01*
X00002319Y00029829D01*
X00002326Y00029825D01*
X00002342Y00029821D01*
X00002350Y00029820D01*
G37*
G36*
X00002366Y00029819D02*
G01*
X00002373Y00029820D01*
X00002380Y00029823D01*
X00002385Y00029828D01*
X00002388Y00029835D01*
X00002389Y00029842D01*
X00002388Y00029850D01*
X00002385Y00029855D01*
X00002380Y00029860D01*
X00002373Y00029865D01*
X00002366Y00029866D01*
X00002350Y00029867D01*
X00002342Y00029866D01*
X00002336Y00029862D01*
X00002331Y00029856D01*
X00002327Y00029850D01*
X00002326Y00029843D01*
X00002327Y00029836D01*
X00002331Y00029829D01*
X00002336Y00029824D01*
X00002342Y00029821D01*
X00002350Y00029820D01*
X00002366Y00029819D01*
G37*
G36*
X00002366Y00029819D02*
G01*
X00002373Y00029820D01*
X00002390Y00029823D01*
X00002396Y00029826D01*
X00002402Y00029831D01*
X00002405Y00029838D01*
X00002406Y00029844D01*
X00002405Y00029852D01*
X00002402Y00029859D01*
X00002396Y00029864D01*
X00002390Y00029867D01*
X00002383Y00029869D01*
X00002375Y00029867D01*
X00002359Y00029865D01*
X00002353Y00029860D01*
X00002348Y00029855D01*
X00002344Y00029850D01*
X00002343Y00029842D01*
X00002344Y00029835D01*
X00002348Y00029828D01*
X00002353Y00029823D01*
X00002359Y00029820D01*
X00002366Y00029819D01*
G37*
G36*
X00002383Y00029821D02*
G01*
X00002390Y00029823D01*
X00002406Y00029829D01*
X00002412Y00029832D01*
X00002417Y00029836D01*
X00002421Y00029844D01*
X00002422Y00029851D01*
X00002421Y00029859D01*
X00002417Y00029865D01*
X00002412Y00029870D01*
X00002406Y00029874D01*
X00002398Y00029875D01*
X00002391Y00029874D01*
X00002375Y00029867D01*
X00002369Y00029864D01*
X00002363Y00029859D01*
X00002361Y00029852D01*
X00002360Y00029844D01*
X00002361Y00029838D01*
X00002363Y00029831D01*
X00002369Y00029826D01*
X00002375Y00029823D01*
X00002383Y00029821D01*
G37*
G36*
X00002398Y00029828D02*
G01*
X00002406Y00029829D01*
X00002412Y00029832D01*
X00002426Y00029842D01*
X00002432Y00029847D01*
X00002435Y00029854D01*
X00002436Y00029860D01*
X00002435Y00029868D01*
X00002432Y00029875D01*
X00002426Y00029879D01*
X00002420Y00029883D01*
X00002412Y00029883D01*
X00002405Y00029883D01*
X00002399Y00029879D01*
X00002384Y00029870D01*
X00002379Y00029865D01*
X00002376Y00029859D01*
X00002375Y00029851D01*
X00002376Y00029844D01*
X00002379Y00029836D01*
X00002384Y00029832D01*
X00002391Y00029829D01*
X00002398Y00029828D01*
G37*
G36*
X00002412Y00029836D02*
G01*
X00002420Y00029838D01*
X00002426Y00029842D01*
X00002432Y00029847D01*
X00002443Y00029859D01*
X00002447Y00029866D01*
X00002448Y00029873D01*
X00002447Y00029881D01*
X00002443Y00029887D01*
X00002438Y00029891D01*
X00002431Y00029895D01*
X00002424Y00029897D01*
X00002417Y00029895D01*
X00002410Y00029891D01*
X00002405Y00029887D01*
X00002393Y00029875D01*
X00002390Y00029868D01*
X00002389Y00029860D01*
X00002390Y00029854D01*
X00002393Y00029847D01*
X00002399Y00029842D01*
X00002405Y00029838D01*
X00002412Y00029836D01*
G37*
G36*
X00002424Y00029850D02*
G01*
X00002431Y00029851D01*
X00002438Y00029854D01*
X00002443Y00029859D01*
X00002452Y00029874D01*
X00002455Y00029881D01*
X00002457Y00029887D01*
X00002455Y00029895D01*
X00002452Y00029902D01*
X00002447Y00029907D01*
X00002440Y00029910D01*
X00002433Y00029911D01*
X00002426Y00029910D01*
X00002419Y00029907D01*
X00002414Y00029902D01*
X00002405Y00029887D01*
X00002402Y00029881D01*
X00002401Y00029873D01*
X00002402Y00029866D01*
X00002405Y00029859D01*
X00002410Y00029854D01*
X00002417Y00029851D01*
X00002424Y00029850D01*
G37*
G36*
X00002433Y00029864D02*
G01*
X00002440Y00029865D01*
X00002447Y00029869D01*
X00002452Y00029874D01*
X00002455Y00029881D01*
X00002461Y00029897D01*
X00002462Y00029904D01*
X00002461Y00029911D01*
X00002458Y00029918D01*
X00002452Y00029923D01*
X00002446Y00029926D01*
X00002438Y00029928D01*
X00002431Y00029926D01*
X00002425Y00029923D01*
X00002419Y00029918D01*
X00002416Y00029911D01*
X00002410Y00029895D01*
X00002409Y00029887D01*
X00002410Y00029881D01*
X00002414Y00029874D01*
X00002419Y00029869D01*
X00002426Y00029865D01*
X00002433Y00029864D01*
G37*
G36*
X00002438Y00029879D02*
G01*
X00002446Y00029881D01*
X00002452Y00029885D01*
X00002458Y00029890D01*
X00002461Y00029897D01*
X00002462Y00029904D01*
X00002464Y00029921D01*
X00002463Y00029928D01*
X00002459Y00029935D01*
X00002454Y00029940D01*
X00002448Y00029943D01*
X00002440Y00029945D01*
X00002433Y00029943D01*
X00002426Y00029940D01*
X00002421Y00029935D01*
X00002418Y00029928D01*
X00002417Y00029921D01*
X00002415Y00029904D01*
X00002416Y00029897D01*
X00002419Y00029890D01*
X00002425Y00029885D01*
X00002431Y00029881D01*
X00002438Y00029879D01*
G37*
G36*
X00002362Y00029976D02*
G01*
X00002369Y00029976D01*
X00002375Y00029980D01*
X00002381Y00029986D01*
X00002384Y00029992D01*
X00002385Y00029999D01*
X00002385Y00036929D01*
X00002384Y00036936D01*
X00002381Y00036943D01*
X00002375Y00036948D01*
X00002369Y00036951D01*
X00002362Y00036952D01*
X00002355Y00036951D01*
X00002349Y00036948D01*
X00002343Y00036943D01*
X00002340Y00036936D01*
X00002339Y00036929D01*
X00002339Y00029999D01*
X00002340Y00029992D01*
X00002343Y00029986D01*
X00002349Y00029980D01*
X00002355Y00029976D01*
X00002362Y00029976D01*
G37*
G36*
X00018818Y00037062D02*
G01*
X00018825Y00037063D01*
X00018832Y00037066D01*
X00018837Y00037071D01*
X00018841Y00037078D01*
X00018842Y00037085D01*
X00018842Y00039369D01*
X00018794Y00039369D01*
X00018794Y00037085D01*
X00018796Y00037078D01*
X00018798Y00037071D01*
X00018804Y00037066D01*
X00018811Y00037063D01*
X00018818Y00037062D01*
G37*
G36*
X00018738Y00036984D02*
G01*
X00018747Y00036985D01*
X00018753Y00036988D01*
X00018759Y00036994D01*
X00018762Y00037000D01*
X00018763Y00037007D01*
X00018762Y00037014D01*
X00018759Y00037020D01*
X00018753Y00037026D01*
X00018747Y00037029D01*
X00018738Y00037030D01*
X00002440Y00037030D01*
X00002433Y00037029D01*
X00002426Y00037026D01*
X00002421Y00037020D01*
X00002418Y00037014D01*
X00002417Y00037007D01*
X00002418Y00037000D01*
X00002421Y00036994D01*
X00002426Y00036988D01*
X00002433Y00036985D01*
X00002440Y00036984D01*
X00018738Y00036984D01*
G37*
G36*
X00018897Y00036984D02*
G01*
X00018904Y00036985D01*
X00018910Y00036988D01*
X00018916Y00036994D01*
X00018918Y00037000D01*
X00018920Y00037007D01*
X00018918Y00037014D01*
X00018916Y00037020D01*
X00018910Y00037026D01*
X00018904Y00037029D01*
X00018897Y00037030D01*
X00018890Y00037029D01*
X00018883Y00037026D01*
X00018878Y00037020D01*
X00018874Y00037014D01*
X00018873Y00037007D01*
X00018874Y00037000D01*
X00018878Y00036994D01*
X00018883Y00036988D01*
X00018890Y00036985D01*
X00018897Y00036984D01*
G37*
G36*
X00018897Y00036984D02*
G01*
X00018904Y00036985D01*
X00018910Y00036988D01*
X00018916Y00036994D01*
X00018918Y00037000D01*
X00018920Y00037007D01*
X00018918Y00037023D01*
X00018918Y00037031D01*
X00018914Y00037037D01*
X00018908Y00037043D01*
X00018902Y00037046D01*
X00018895Y00037047D01*
X00018888Y00037046D01*
X00018881Y00037043D01*
X00018876Y00037037D01*
X00018873Y00037031D01*
X00018871Y00037023D01*
X00018873Y00037007D01*
X00018874Y00037000D01*
X00018878Y00036994D01*
X00018883Y00036988D01*
X00018890Y00036985D01*
X00018897Y00036984D01*
G37*
G36*
X00018895Y00037001D02*
G01*
X00018902Y00037002D01*
X00018908Y00037005D01*
X00018914Y00037010D01*
X00018918Y00037016D01*
X00018918Y00037023D01*
X00018918Y00037031D01*
X00018912Y00037047D01*
X00018908Y00037053D01*
X00018904Y00037059D01*
X00018897Y00037062D01*
X00018890Y00037063D01*
X00018882Y00037062D01*
X00018876Y00037059D01*
X00018871Y00037053D01*
X00018867Y00037047D01*
X00018866Y00037040D01*
X00018867Y00037032D01*
X00018873Y00037016D01*
X00018876Y00037010D01*
X00018881Y00037005D01*
X00018888Y00037002D01*
X00018895Y00037001D01*
G37*
G36*
X00018890Y00037016D02*
G01*
X00018897Y00037017D01*
X00018904Y00037020D01*
X00018908Y00037026D01*
X00018912Y00037032D01*
X00018912Y00037040D01*
X00018912Y00037047D01*
X00018908Y00037053D01*
X00018900Y00037068D01*
X00018895Y00037073D01*
X00018888Y00037077D01*
X00018881Y00037078D01*
X00018874Y00037077D01*
X00018867Y00037073D01*
X00018862Y00037068D01*
X00018858Y00037061D01*
X00018856Y00037054D01*
X00018858Y00037047D01*
X00018862Y00037040D01*
X00018871Y00037026D01*
X00018876Y00037020D01*
X00018882Y00037017D01*
X00018890Y00037016D01*
G37*
G36*
X00018881Y00037031D02*
G01*
X00018888Y00037032D01*
X00018895Y00037035D01*
X00018900Y00037040D01*
X00018903Y00037047D01*
X00018904Y00037054D01*
X00018903Y00037061D01*
X00018900Y00037068D01*
X00018888Y00037080D01*
X00018883Y00037086D01*
X00018876Y00037089D01*
X00018869Y00037089D01*
X00018862Y00037089D01*
X00018854Y00037086D01*
X00018850Y00037080D01*
X00018847Y00037074D01*
X00018846Y00037067D01*
X00018847Y00037059D01*
X00018850Y00037053D01*
X00018862Y00037040D01*
X00018867Y00037035D01*
X00018874Y00037032D01*
X00018881Y00037031D01*
G37*
G36*
X00018869Y00037043D02*
G01*
X00018876Y00037044D01*
X00018883Y00037047D01*
X00018888Y00037053D01*
X00018892Y00037059D01*
X00018893Y00037067D01*
X00018892Y00037074D01*
X00018888Y00037080D01*
X00018883Y00037086D01*
X00018869Y00037095D01*
X00018862Y00037099D01*
X00018854Y00037100D01*
X00018848Y00037099D01*
X00018841Y00037095D01*
X00018836Y00037089D01*
X00018833Y00037083D01*
X00018831Y00037076D01*
X00018833Y00037069D01*
X00018836Y00037062D01*
X00018841Y00037057D01*
X00018854Y00037047D01*
X00018862Y00037044D01*
X00018869Y00037043D01*
G37*
G36*
X00018854Y00037052D02*
G01*
X00018862Y00037054D01*
X00018869Y00037057D01*
X00018874Y00037062D01*
X00018878Y00037069D01*
X00018879Y00037076D01*
X00018878Y00037083D01*
X00018874Y00037089D01*
X00018869Y00037095D01*
X00018862Y00037099D01*
X00018847Y00037105D01*
X00018839Y00037105D01*
X00018832Y00037105D01*
X00018825Y00037101D01*
X00018820Y00037096D01*
X00018817Y00037089D01*
X00018816Y00037082D01*
X00018817Y00037075D01*
X00018820Y00037068D01*
X00018825Y00037063D01*
X00018832Y00037060D01*
X00018848Y00037054D01*
X00018854Y00037052D01*
G37*
G36*
X00018839Y00037059D02*
G01*
X00018847Y00037060D01*
X00018852Y00037063D01*
X00018858Y00037068D01*
X00018862Y00037075D01*
X00018863Y00037082D01*
X00018862Y00037089D01*
X00018858Y00037096D01*
X00018852Y00037101D01*
X00018847Y00037105D01*
X00018830Y00037108D01*
X00018822Y00037109D01*
X00018815Y00037108D01*
X00018809Y00037104D01*
X00018803Y00037099D01*
X00018800Y00037092D01*
X00018798Y00037085D01*
X00018800Y00037078D01*
X00018803Y00037071D01*
X00018809Y00037066D01*
X00018815Y00037063D01*
X00018832Y00037060D01*
X00018839Y00037059D01*
G37*
G36*
X00018805Y00037061D02*
G01*
X00018822Y00037061D01*
X00018830Y00037063D01*
X00018836Y00037066D01*
X00018842Y00037071D01*
X00018845Y00037078D01*
X00018846Y00037085D01*
X00018845Y00037092D01*
X00018842Y00037099D01*
X00018836Y00037104D01*
X00018830Y00037108D01*
X00018822Y00037109D01*
X00018805Y00037108D01*
X00018798Y00037107D01*
X00018792Y00037103D01*
X00018786Y00037097D01*
X00018783Y00037092D01*
X00018782Y00037084D01*
X00018783Y00037077D01*
X00018786Y00037070D01*
X00018792Y00037065D01*
X00018798Y00037062D01*
X00018805Y00037061D01*
G37*
G36*
X00018788Y00037056D02*
G01*
X00018796Y00037057D01*
X00018813Y00037062D01*
X00018819Y00037065D01*
X00018825Y00037070D01*
X00018828Y00037077D01*
X00018829Y00037084D01*
X00018828Y00037092D01*
X00018825Y00037097D01*
X00018819Y00037103D01*
X00018813Y00037107D01*
X00018805Y00037108D01*
X00018798Y00037107D01*
X00018782Y00037101D01*
X00018775Y00037099D01*
X00018770Y00037093D01*
X00018767Y00037087D01*
X00018765Y00037080D01*
X00018767Y00037072D01*
X00018770Y00037066D01*
X00018775Y00037061D01*
X00018782Y00037057D01*
X00018788Y00037056D01*
G37*
G36*
X00018774Y00037048D02*
G01*
X00018781Y00037049D01*
X00018788Y00037053D01*
X00018803Y00037061D01*
X00018808Y00037066D01*
X00018812Y00037072D01*
X00018813Y00037080D01*
X00018812Y00037087D01*
X00018808Y00037093D01*
X00018803Y00037099D01*
X00018796Y00037101D01*
X00018788Y00037103D01*
X00018782Y00037101D01*
X00018775Y00037099D01*
X00018760Y00037091D01*
X00018755Y00037086D01*
X00018752Y00037079D01*
X00018750Y00037072D01*
X00018752Y00037064D01*
X00018755Y00037058D01*
X00018760Y00037053D01*
X00018767Y00037049D01*
X00018774Y00037048D01*
G37*
G36*
X00018761Y00037037D02*
G01*
X00018768Y00037038D01*
X00018775Y00037042D01*
X00018788Y00037053D01*
X00018792Y00037058D01*
X00018796Y00037064D01*
X00018798Y00037072D01*
X00018796Y00037079D01*
X00018792Y00037086D01*
X00018788Y00037091D01*
X00018781Y00037093D01*
X00018774Y00037095D01*
X00018767Y00037093D01*
X00018760Y00037091D01*
X00018747Y00037080D01*
X00018742Y00037075D01*
X00018738Y00037068D01*
X00018736Y00037061D01*
X00018738Y00037053D01*
X00018742Y00037047D01*
X00018747Y00037042D01*
X00018754Y00037038D01*
X00018761Y00037037D01*
G37*
G36*
X00018751Y00037023D02*
G01*
X00018758Y00037025D01*
X00018765Y00037028D01*
X00018770Y00037033D01*
X00018780Y00037047D01*
X00018783Y00037053D01*
X00018785Y00037061D01*
X00018783Y00037068D01*
X00018780Y00037075D01*
X00018775Y00037080D01*
X00018768Y00037083D01*
X00018761Y00037084D01*
X00018754Y00037083D01*
X00018747Y00037080D01*
X00018742Y00037075D01*
X00018732Y00037061D01*
X00018728Y00037054D01*
X00018726Y00037047D01*
X00018728Y00037040D01*
X00018732Y00037033D01*
X00018736Y00037028D01*
X00018743Y00037025D01*
X00018751Y00037023D01*
G37*
G36*
X00018744Y00037008D02*
G01*
X00018751Y00037008D01*
X00018757Y00037012D01*
X00018763Y00037018D01*
X00018766Y00037024D01*
X00018773Y00037040D01*
X00018774Y00037047D01*
X00018773Y00037054D01*
X00018770Y00037061D01*
X00018765Y00037066D01*
X00018758Y00037070D01*
X00018751Y00037071D01*
X00018743Y00037070D01*
X00018736Y00037066D01*
X00018732Y00037061D01*
X00018728Y00037054D01*
X00018721Y00037039D01*
X00018720Y00037032D01*
X00018721Y00037024D01*
X00018724Y00037018D01*
X00018730Y00037012D01*
X00018736Y00037008D01*
X00018744Y00037008D01*
G37*
G36*
X00018740Y00036992D02*
G01*
X00018747Y00036994D01*
X00018754Y00036997D01*
X00018759Y00037002D01*
X00018762Y00037008D01*
X00018766Y00037024D01*
X00018767Y00037032D01*
X00018766Y00037039D01*
X00018763Y00037046D01*
X00018757Y00037051D01*
X00018751Y00037054D01*
X00018744Y00037055D01*
X00018736Y00037054D01*
X00018730Y00037051D01*
X00018724Y00037046D01*
X00018721Y00037039D01*
X00018717Y00037022D01*
X00018716Y00037015D01*
X00018717Y00037008D01*
X00018721Y00037002D01*
X00018726Y00036997D01*
X00018732Y00036994D01*
X00018740Y00036992D01*
G37*
G36*
X00018740Y00036975D02*
G01*
X00018747Y00036977D01*
X00018754Y00036980D01*
X00018759Y00036985D01*
X00018762Y00036992D01*
X00018764Y00036999D01*
X00018764Y00037015D01*
X00018762Y00037022D01*
X00018759Y00037029D01*
X00018754Y00037034D01*
X00018747Y00037037D01*
X00018740Y00037039D01*
X00018732Y00037037D01*
X00018726Y00037034D01*
X00018721Y00037029D01*
X00018717Y00037022D01*
X00018716Y00037015D01*
X00018716Y00036999D01*
X00018717Y00036992D01*
X00018721Y00036985D01*
X00018726Y00036980D01*
X00018732Y00036977D01*
X00018740Y00036975D01*
G37*
G36*
X00018744Y00036959D02*
G01*
X00018751Y00036960D01*
X00018757Y00036963D01*
X00018763Y00036968D01*
X00018766Y00036975D01*
X00018767Y00036981D01*
X00018766Y00036989D01*
X00018762Y00037006D01*
X00018759Y00037012D01*
X00018754Y00037017D01*
X00018747Y00037020D01*
X00018740Y00037022D01*
X00018732Y00037020D01*
X00018726Y00037017D01*
X00018721Y00037012D01*
X00018717Y00037006D01*
X00018716Y00036999D01*
X00018717Y00036992D01*
X00018721Y00036975D01*
X00018724Y00036968D01*
X00018730Y00036963D01*
X00018736Y00036960D01*
X00018744Y00036959D01*
G37*
G36*
X00018751Y00036943D02*
G01*
X00018758Y00036944D01*
X00018765Y00036948D01*
X00018770Y00036953D01*
X00018773Y00036960D01*
X00018774Y00036967D01*
X00018773Y00036973D01*
X00018766Y00036989D01*
X00018763Y00036996D01*
X00018757Y00037001D01*
X00018751Y00037005D01*
X00018744Y00037006D01*
X00018736Y00037005D01*
X00018730Y00037001D01*
X00018724Y00036996D01*
X00018721Y00036989D01*
X00018720Y00036981D01*
X00018721Y00036975D01*
X00018728Y00036960D01*
X00018732Y00036953D01*
X00018736Y00036948D01*
X00018743Y00036944D01*
X00018751Y00036943D01*
G37*
G36*
X00018761Y00036930D02*
G01*
X00018768Y00036931D01*
X00018775Y00036934D01*
X00018780Y00036939D01*
X00018783Y00036946D01*
X00018785Y00036953D01*
X00018783Y00036961D01*
X00018780Y00036967D01*
X00018770Y00036981D01*
X00018765Y00036985D01*
X00018758Y00036989D01*
X00018751Y00036991D01*
X00018743Y00036989D01*
X00018736Y00036985D01*
X00018732Y00036981D01*
X00018728Y00036973D01*
X00018726Y00036967D01*
X00018728Y00036960D01*
X00018732Y00036953D01*
X00018742Y00036939D01*
X00018747Y00036934D01*
X00018754Y00036931D01*
X00018761Y00036930D01*
G37*
G36*
X00018774Y00036919D02*
G01*
X00018781Y00036920D01*
X00018788Y00036923D01*
X00018792Y00036928D01*
X00018796Y00036935D01*
X00018798Y00036942D01*
X00018796Y00036950D01*
X00018792Y00036956D01*
X00018788Y00036961D01*
X00018775Y00036972D01*
X00018768Y00036976D01*
X00018761Y00036977D01*
X00018754Y00036976D01*
X00018747Y00036972D01*
X00018742Y00036967D01*
X00018738Y00036961D01*
X00018736Y00036953D01*
X00018738Y00036946D01*
X00018742Y00036939D01*
X00018747Y00036934D01*
X00018760Y00036923D01*
X00018767Y00036920D01*
X00018774Y00036919D01*
G37*
G36*
X00018788Y00036911D02*
G01*
X00018796Y00036912D01*
X00018803Y00036915D01*
X00018808Y00036920D01*
X00018812Y00036927D01*
X00018813Y00036934D01*
X00018812Y00036942D01*
X00018808Y00036948D01*
X00018803Y00036953D01*
X00018788Y00036961D01*
X00018781Y00036965D01*
X00018774Y00036966D01*
X00018767Y00036965D01*
X00018760Y00036961D01*
X00018755Y00036956D01*
X00018752Y00036950D01*
X00018750Y00036942D01*
X00018752Y00036935D01*
X00018755Y00036928D01*
X00018760Y00036923D01*
X00018775Y00036915D01*
X00018782Y00036912D01*
X00018788Y00036911D01*
G37*
G36*
X00018805Y00036906D02*
G01*
X00018813Y00036907D01*
X00018819Y00036911D01*
X00018825Y00036916D01*
X00018828Y00036922D01*
X00018829Y00036930D01*
X00018828Y00036937D01*
X00018825Y00036944D01*
X00018819Y00036949D01*
X00018813Y00036952D01*
X00018796Y00036957D01*
X00018788Y00036958D01*
X00018782Y00036957D01*
X00018775Y00036953D01*
X00018770Y00036948D01*
X00018767Y00036942D01*
X00018765Y00036934D01*
X00018767Y00036927D01*
X00018770Y00036920D01*
X00018775Y00036915D01*
X00018782Y00036912D01*
X00018798Y00036907D01*
X00018805Y00036906D01*
G37*
G36*
X00018822Y00036905D02*
G01*
X00018830Y00036906D01*
X00018836Y00036910D01*
X00018842Y00036915D01*
X00018845Y00036922D01*
X00018846Y00036929D01*
X00018845Y00036936D01*
X00018842Y00036943D01*
X00018836Y00036948D01*
X00018830Y00036951D01*
X00018822Y00036953D01*
X00018805Y00036953D01*
X00018798Y00036952D01*
X00018792Y00036949D01*
X00018786Y00036944D01*
X00018783Y00036937D01*
X00018782Y00036930D01*
X00018783Y00036922D01*
X00018786Y00036916D01*
X00018792Y00036911D01*
X00018798Y00036907D01*
X00018805Y00036906D01*
X00018822Y00036905D01*
G37*
G36*
X00018822Y00036905D02*
G01*
X00018830Y00036906D01*
X00018847Y00036909D01*
X00018852Y00036913D01*
X00018858Y00036918D01*
X00018862Y00036924D01*
X00018863Y00036932D01*
X00018862Y00036939D01*
X00018858Y00036946D01*
X00018852Y00036951D01*
X00018847Y00036954D01*
X00018839Y00036955D01*
X00018832Y00036954D01*
X00018815Y00036951D01*
X00018809Y00036948D01*
X00018803Y00036943D01*
X00018800Y00036936D01*
X00018798Y00036929D01*
X00018800Y00036922D01*
X00018803Y00036915D01*
X00018809Y00036910D01*
X00018815Y00036906D01*
X00018822Y00036905D01*
G37*
G36*
X00018839Y00036908D02*
G01*
X00018847Y00036909D01*
X00018862Y00036915D01*
X00018869Y00036919D01*
X00018874Y00036924D01*
X00018878Y00036931D01*
X00018879Y00036938D01*
X00018878Y00036945D01*
X00018874Y00036952D01*
X00018869Y00036957D01*
X00018862Y00036960D01*
X00018854Y00036962D01*
X00018848Y00036960D01*
X00018832Y00036954D01*
X00018825Y00036951D01*
X00018820Y00036946D01*
X00018817Y00036939D01*
X00018816Y00036932D01*
X00018817Y00036924D01*
X00018820Y00036918D01*
X00018825Y00036913D01*
X00018832Y00036909D01*
X00018839Y00036908D01*
G37*
G36*
X00018854Y00036914D02*
G01*
X00018862Y00036915D01*
X00018869Y00036919D01*
X00018883Y00036928D01*
X00018888Y00036934D01*
X00018892Y00036940D01*
X00018893Y00036947D01*
X00018892Y00036955D01*
X00018888Y00036961D01*
X00018883Y00036967D01*
X00018876Y00036969D01*
X00018869Y00036971D01*
X00018862Y00036969D01*
X00018854Y00036967D01*
X00018841Y00036957D01*
X00018836Y00036952D01*
X00018833Y00036945D01*
X00018831Y00036938D01*
X00018833Y00036931D01*
X00018836Y00036924D01*
X00018841Y00036919D01*
X00018848Y00036915D01*
X00018854Y00036914D01*
G37*
G36*
X00018869Y00036924D02*
G01*
X00018876Y00036925D01*
X00018883Y00036928D01*
X00018888Y00036934D01*
X00018900Y00036946D01*
X00018903Y00036953D01*
X00018904Y00036960D01*
X00018903Y00036967D01*
X00018900Y00036973D01*
X00018895Y00036979D01*
X00018888Y00036981D01*
X00018881Y00036983D01*
X00018874Y00036981D01*
X00018867Y00036979D01*
X00018862Y00036973D01*
X00018850Y00036961D01*
X00018847Y00036955D01*
X00018846Y00036947D01*
X00018847Y00036940D01*
X00018850Y00036934D01*
X00018854Y00036928D01*
X00018862Y00036925D01*
X00018869Y00036924D01*
G37*
G36*
X00018881Y00036936D02*
G01*
X00018888Y00036937D01*
X00018895Y00036941D01*
X00018900Y00036946D01*
X00018908Y00036961D01*
X00018912Y00036967D01*
X00018912Y00036973D01*
X00018912Y00036981D01*
X00018908Y00036988D01*
X00018904Y00036994D01*
X00018897Y00036997D01*
X00018890Y00036998D01*
X00018882Y00036997D01*
X00018876Y00036994D01*
X00018871Y00036988D01*
X00018862Y00036973D01*
X00018858Y00036967D01*
X00018856Y00036960D01*
X00018858Y00036953D01*
X00018862Y00036946D01*
X00018867Y00036941D01*
X00018874Y00036937D01*
X00018881Y00036936D01*
G37*
G36*
X00018890Y00036951D02*
G01*
X00018897Y00036952D01*
X00018904Y00036955D01*
X00018908Y00036961D01*
X00018912Y00036967D01*
X00018918Y00036983D01*
X00018918Y00036991D01*
X00018918Y00036998D01*
X00018914Y00037004D01*
X00018908Y00037008D01*
X00018902Y00037012D01*
X00018895Y00037012D01*
X00018888Y00037012D01*
X00018881Y00037008D01*
X00018876Y00037004D01*
X00018873Y00036998D01*
X00018867Y00036981D01*
X00018866Y00036973D01*
X00018867Y00036967D01*
X00018871Y00036961D01*
X00018876Y00036955D01*
X00018882Y00036952D01*
X00018890Y00036951D01*
G37*
G36*
X00018895Y00036967D02*
G01*
X00018902Y00036968D01*
X00018908Y00036971D01*
X00018914Y00036977D01*
X00018918Y00036983D01*
X00018918Y00036991D01*
X00018920Y00037007D01*
X00018918Y00037014D01*
X00018916Y00037020D01*
X00018910Y00037026D01*
X00018904Y00037029D01*
X00018897Y00037030D01*
X00018890Y00037029D01*
X00018883Y00037026D01*
X00018878Y00037020D01*
X00018874Y00037014D01*
X00018873Y00037007D01*
X00018871Y00036991D01*
X00018873Y00036983D01*
X00018876Y00036977D01*
X00018881Y00036971D01*
X00018888Y00036968D01*
X00018895Y00036967D01*
G37*
G36*
X00002440Y00036984D02*
G01*
X00002448Y00036985D01*
X00002454Y00036988D01*
X00002459Y00036994D01*
X00002463Y00037000D01*
X00002464Y00037007D01*
X00002463Y00037014D01*
X00002459Y00037020D01*
X00002454Y00037026D01*
X00002448Y00037029D01*
X00002440Y00037030D01*
X00002433Y00037029D01*
X00002426Y00037026D01*
X00002421Y00037020D01*
X00002418Y00037014D01*
X00002417Y00037007D01*
X00002418Y00037000D01*
X00002421Y00036994D01*
X00002426Y00036988D01*
X00002433Y00036985D01*
X00002440Y00036984D01*
G37*
G36*
X00002440Y00036984D02*
G01*
X00002448Y00036985D01*
X00002454Y00036988D01*
X00002459Y00036994D01*
X00002463Y00037000D01*
X00002464Y00037007D01*
X00002462Y00037023D01*
X00002461Y00037031D01*
X00002458Y00037037D01*
X00002452Y00037043D01*
X00002446Y00037046D01*
X00002438Y00037047D01*
X00002431Y00037046D01*
X00002425Y00037043D01*
X00002419Y00037037D01*
X00002416Y00037031D01*
X00002415Y00037023D01*
X00002417Y00037007D01*
X00002418Y00037000D01*
X00002421Y00036994D01*
X00002426Y00036988D01*
X00002433Y00036985D01*
X00002440Y00036984D01*
G37*
G36*
X00002438Y00037001D02*
G01*
X00002446Y00037002D01*
X00002452Y00037005D01*
X00002458Y00037010D01*
X00002461Y00037016D01*
X00002462Y00037023D01*
X00002461Y00037031D01*
X00002455Y00037047D01*
X00002452Y00037053D01*
X00002447Y00037059D01*
X00002440Y00037062D01*
X00002433Y00037063D01*
X00002426Y00037062D01*
X00002419Y00037059D01*
X00002414Y00037053D01*
X00002410Y00037047D01*
X00002409Y00037040D01*
X00002410Y00037032D01*
X00002416Y00037016D01*
X00002419Y00037010D01*
X00002425Y00037005D01*
X00002431Y00037002D01*
X00002438Y00037001D01*
G37*
G36*
X00002433Y00037016D02*
G01*
X00002440Y00037017D01*
X00002447Y00037020D01*
X00002452Y00037026D01*
X00002455Y00037032D01*
X00002457Y00037040D01*
X00002455Y00037047D01*
X00002452Y00037053D01*
X00002443Y00037068D01*
X00002438Y00037073D01*
X00002431Y00037077D01*
X00002424Y00037078D01*
X00002417Y00037077D01*
X00002410Y00037073D01*
X00002405Y00037068D01*
X00002402Y00037061D01*
X00002401Y00037054D01*
X00002402Y00037047D01*
X00002405Y00037040D01*
X00002414Y00037026D01*
X00002419Y00037020D01*
X00002426Y00037017D01*
X00002433Y00037016D01*
G37*
G36*
X00002424Y00037031D02*
G01*
X00002431Y00037032D01*
X00002438Y00037035D01*
X00002443Y00037040D01*
X00002447Y00037047D01*
X00002448Y00037054D01*
X00002447Y00037061D01*
X00002443Y00037068D01*
X00002432Y00037080D01*
X00002426Y00037086D01*
X00002420Y00037089D01*
X00002412Y00037089D01*
X00002405Y00037089D01*
X00002399Y00037086D01*
X00002393Y00037080D01*
X00002390Y00037074D01*
X00002389Y00037067D01*
X00002390Y00037059D01*
X00002393Y00037053D01*
X00002405Y00037040D01*
X00002410Y00037035D01*
X00002417Y00037032D01*
X00002424Y00037031D01*
G37*
G36*
X00002412Y00037043D02*
G01*
X00002420Y00037044D01*
X00002426Y00037047D01*
X00002432Y00037053D01*
X00002435Y00037059D01*
X00002436Y00037067D01*
X00002435Y00037074D01*
X00002432Y00037080D01*
X00002426Y00037086D01*
X00002412Y00037095D01*
X00002406Y00037099D01*
X00002398Y00037100D01*
X00002391Y00037099D01*
X00002384Y00037095D01*
X00002379Y00037089D01*
X00002376Y00037083D01*
X00002375Y00037076D01*
X00002376Y00037069D01*
X00002379Y00037062D01*
X00002384Y00037057D01*
X00002399Y00037047D01*
X00002405Y00037044D01*
X00002412Y00037043D01*
G37*
G36*
X00002398Y00037052D02*
G01*
X00002406Y00037054D01*
X00002412Y00037057D01*
X00002417Y00037062D01*
X00002421Y00037069D01*
X00002422Y00037076D01*
X00002421Y00037083D01*
X00002417Y00037089D01*
X00002412Y00037095D01*
X00002406Y00037099D01*
X00002390Y00037105D01*
X00002383Y00037105D01*
X00002375Y00037105D01*
X00002369Y00037101D01*
X00002363Y00037096D01*
X00002361Y00037089D01*
X00002360Y00037082D01*
X00002361Y00037075D01*
X00002363Y00037068D01*
X00002369Y00037063D01*
X00002375Y00037060D01*
X00002391Y00037054D01*
X00002398Y00037052D01*
G37*
G36*
X00002383Y00037059D02*
G01*
X00002390Y00037060D01*
X00002396Y00037063D01*
X00002402Y00037068D01*
X00002405Y00037075D01*
X00002406Y00037082D01*
X00002405Y00037089D01*
X00002402Y00037096D01*
X00002396Y00037101D01*
X00002390Y00037105D01*
X00002373Y00037108D01*
X00002366Y00037109D01*
X00002359Y00037108D01*
X00002353Y00037104D01*
X00002348Y00037099D01*
X00002344Y00037092D01*
X00002343Y00037085D01*
X00002344Y00037078D01*
X00002348Y00037071D01*
X00002353Y00037066D01*
X00002359Y00037063D01*
X00002375Y00037060D01*
X00002383Y00037059D01*
G37*
G36*
X00002350Y00037061D02*
G01*
X00002366Y00037061D01*
X00002373Y00037063D01*
X00002380Y00037066D01*
X00002385Y00037071D01*
X00002388Y00037078D01*
X00002389Y00037085D01*
X00002388Y00037092D01*
X00002385Y00037099D01*
X00002380Y00037104D01*
X00002373Y00037108D01*
X00002366Y00037109D01*
X00002350Y00037108D01*
X00002342Y00037107D01*
X00002336Y00037103D01*
X00002331Y00037097D01*
X00002327Y00037092D01*
X00002326Y00037084D01*
X00002327Y00037077D01*
X00002331Y00037070D01*
X00002336Y00037065D01*
X00002342Y00037062D01*
X00002350Y00037061D01*
G37*
G36*
X00002333Y00037056D02*
G01*
X00002341Y00037057D01*
X00002357Y00037062D01*
X00002363Y00037065D01*
X00002368Y00037070D01*
X00002371Y00037077D01*
X00002372Y00037084D01*
X00002371Y00037092D01*
X00002368Y00037097D01*
X00002363Y00037103D01*
X00002357Y00037107D01*
X00002350Y00037108D01*
X00002342Y00037107D01*
X00002326Y00037101D01*
X00002319Y00037099D01*
X00002314Y00037093D01*
X00002311Y00037087D01*
X00002310Y00037080D01*
X00002311Y00037072D01*
X00002314Y00037066D01*
X00002319Y00037061D01*
X00002326Y00037057D01*
X00002333Y00037056D01*
G37*
G36*
X00002318Y00037048D02*
G01*
X00002326Y00037049D01*
X00002332Y00037053D01*
X00002347Y00037061D01*
X00002352Y00037066D01*
X00002356Y00037072D01*
X00002357Y00037080D01*
X00002356Y00037087D01*
X00002352Y00037093D01*
X00002347Y00037099D01*
X00002341Y00037101D01*
X00002333Y00037103D01*
X00002326Y00037101D01*
X00002319Y00037099D01*
X00002304Y00037091D01*
X00002299Y00037086D01*
X00002296Y00037079D01*
X00002295Y00037072D01*
X00002296Y00037064D01*
X00002299Y00037058D01*
X00002304Y00037053D01*
X00002311Y00037049D01*
X00002318Y00037048D01*
G37*
G36*
X00002305Y00037037D02*
G01*
X00002313Y00037038D01*
X00002319Y00037042D01*
X00002332Y00037053D01*
X00002337Y00037058D01*
X00002341Y00037064D01*
X00002342Y00037072D01*
X00002341Y00037079D01*
X00002337Y00037086D01*
X00002332Y00037091D01*
X00002326Y00037093D01*
X00002318Y00037095D01*
X00002311Y00037093D01*
X00002304Y00037091D01*
X00002291Y00037080D01*
X00002286Y00037075D01*
X00002283Y00037068D01*
X00002282Y00037061D01*
X00002283Y00037053D01*
X00002286Y00037047D01*
X00002291Y00037042D01*
X00002298Y00037038D01*
X00002305Y00037037D01*
G37*
G36*
X00002295Y00037023D02*
G01*
X00002302Y00037025D01*
X00002309Y00037028D01*
X00002314Y00037033D01*
X00002324Y00037047D01*
X00002328Y00037053D01*
X00002329Y00037061D01*
X00002328Y00037068D01*
X00002324Y00037075D01*
X00002319Y00037080D01*
X00002313Y00037083D01*
X00002305Y00037084D01*
X00002298Y00037083D01*
X00002291Y00037080D01*
X00002286Y00037075D01*
X00002276Y00037061D01*
X00002273Y00037054D01*
X00002271Y00037047D01*
X00002273Y00037040D01*
X00002276Y00037033D01*
X00002281Y00037028D01*
X00002288Y00037025D01*
X00002295Y00037023D01*
G37*
G36*
X00002288Y00037008D02*
G01*
X00002295Y00037008D01*
X00002302Y00037012D01*
X00002307Y00037018D01*
X00002310Y00037024D01*
X00002318Y00037040D01*
X00002319Y00037047D01*
X00002318Y00037054D01*
X00002314Y00037061D01*
X00002309Y00037066D01*
X00002302Y00037070D01*
X00002295Y00037071D01*
X00002288Y00037070D01*
X00002281Y00037066D01*
X00002276Y00037061D01*
X00002273Y00037054D01*
X00002265Y00037039D01*
X00002264Y00037032D01*
X00002265Y00037024D01*
X00002269Y00037018D01*
X00002274Y00037012D01*
X00002281Y00037008D01*
X00002288Y00037008D01*
G37*
G36*
X00002284Y00036992D02*
G01*
X00002292Y00036994D01*
X00002298Y00036997D01*
X00002303Y00037002D01*
X00002307Y00037008D01*
X00002310Y00037024D01*
X00002312Y00037032D01*
X00002310Y00037039D01*
X00002307Y00037046D01*
X00002302Y00037051D01*
X00002295Y00037054D01*
X00002288Y00037055D01*
X00002281Y00037054D01*
X00002274Y00037051D01*
X00002269Y00037046D01*
X00002265Y00037039D01*
X00002262Y00037022D01*
X00002261Y00037015D01*
X00002262Y00037008D01*
X00002265Y00037002D01*
X00002270Y00036997D01*
X00002277Y00036994D01*
X00002284Y00036992D01*
G37*
G36*
X00002284Y00036975D02*
G01*
X00002292Y00036977D01*
X00002298Y00036980D01*
X00002303Y00036985D01*
X00002307Y00036992D01*
X00002308Y00036999D01*
X00002308Y00037015D01*
X00002307Y00037022D01*
X00002303Y00037029D01*
X00002298Y00037034D01*
X00002292Y00037037D01*
X00002284Y00037039D01*
X00002277Y00037037D01*
X00002270Y00037034D01*
X00002265Y00037029D01*
X00002262Y00037022D01*
X00002261Y00037015D01*
X00002261Y00036999D01*
X00002262Y00036992D01*
X00002265Y00036985D01*
X00002270Y00036980D01*
X00002277Y00036977D01*
X00002284Y00036975D01*
G37*
G36*
X00002288Y00036959D02*
G01*
X00002295Y00036960D01*
X00002302Y00036963D01*
X00002307Y00036968D01*
X00002310Y00036975D01*
X00002312Y00036981D01*
X00002310Y00036989D01*
X00002307Y00037006D01*
X00002303Y00037012D01*
X00002298Y00037017D01*
X00002292Y00037020D01*
X00002284Y00037022D01*
X00002277Y00037020D01*
X00002270Y00037017D01*
X00002265Y00037012D01*
X00002262Y00037006D01*
X00002261Y00036999D01*
X00002262Y00036992D01*
X00002265Y00036975D01*
X00002269Y00036968D01*
X00002274Y00036963D01*
X00002281Y00036960D01*
X00002288Y00036959D01*
G37*
G36*
X00002295Y00036943D02*
G01*
X00002302Y00036944D01*
X00002309Y00036948D01*
X00002314Y00036953D01*
X00002318Y00036960D01*
X00002319Y00036967D01*
X00002318Y00036973D01*
X00002310Y00036989D01*
X00002307Y00036996D01*
X00002302Y00037001D01*
X00002295Y00037005D01*
X00002288Y00037006D01*
X00002281Y00037005D01*
X00002274Y00037001D01*
X00002269Y00036996D01*
X00002265Y00036989D01*
X00002264Y00036981D01*
X00002265Y00036975D01*
X00002273Y00036960D01*
X00002276Y00036953D01*
X00002281Y00036948D01*
X00002288Y00036944D01*
X00002295Y00036943D01*
G37*
G36*
X00002305Y00036930D02*
G01*
X00002313Y00036931D01*
X00002319Y00036934D01*
X00002324Y00036939D01*
X00002328Y00036946D01*
X00002329Y00036953D01*
X00002328Y00036961D01*
X00002324Y00036967D01*
X00002314Y00036981D01*
X00002309Y00036985D01*
X00002302Y00036989D01*
X00002295Y00036991D01*
X00002288Y00036989D01*
X00002281Y00036985D01*
X00002276Y00036981D01*
X00002273Y00036973D01*
X00002271Y00036967D01*
X00002273Y00036960D01*
X00002276Y00036953D01*
X00002286Y00036939D01*
X00002291Y00036934D01*
X00002298Y00036931D01*
X00002305Y00036930D01*
G37*
G36*
X00002318Y00036919D02*
G01*
X00002326Y00036920D01*
X00002332Y00036923D01*
X00002337Y00036928D01*
X00002341Y00036935D01*
X00002342Y00036942D01*
X00002341Y00036950D01*
X00002337Y00036956D01*
X00002332Y00036961D01*
X00002319Y00036972D01*
X00002313Y00036976D01*
X00002305Y00036977D01*
X00002298Y00036976D01*
X00002291Y00036972D01*
X00002286Y00036967D01*
X00002283Y00036961D01*
X00002282Y00036953D01*
X00002283Y00036946D01*
X00002286Y00036939D01*
X00002291Y00036934D01*
X00002304Y00036923D01*
X00002311Y00036920D01*
X00002318Y00036919D01*
G37*
G36*
X00002333Y00036911D02*
G01*
X00002341Y00036912D01*
X00002347Y00036915D01*
X00002352Y00036920D01*
X00002356Y00036927D01*
X00002357Y00036934D01*
X00002356Y00036942D01*
X00002352Y00036948D01*
X00002347Y00036953D01*
X00002332Y00036961D01*
X00002326Y00036965D01*
X00002318Y00036966D01*
X00002311Y00036965D01*
X00002304Y00036961D01*
X00002299Y00036956D01*
X00002296Y00036950D01*
X00002295Y00036942D01*
X00002296Y00036935D01*
X00002299Y00036928D01*
X00002304Y00036923D01*
X00002319Y00036915D01*
X00002326Y00036912D01*
X00002333Y00036911D01*
G37*
G36*
X00002350Y00036906D02*
G01*
X00002357Y00036907D01*
X00002363Y00036911D01*
X00002368Y00036916D01*
X00002371Y00036922D01*
X00002372Y00036930D01*
X00002371Y00036937D01*
X00002368Y00036944D01*
X00002363Y00036949D01*
X00002357Y00036952D01*
X00002341Y00036957D01*
X00002333Y00036958D01*
X00002326Y00036957D01*
X00002319Y00036953D01*
X00002314Y00036948D01*
X00002311Y00036942D01*
X00002310Y00036934D01*
X00002311Y00036927D01*
X00002314Y00036920D01*
X00002319Y00036915D01*
X00002326Y00036912D01*
X00002342Y00036907D01*
X00002350Y00036906D01*
G37*
G36*
X00002366Y00036905D02*
G01*
X00002373Y00036906D01*
X00002380Y00036910D01*
X00002385Y00036915D01*
X00002388Y00036922D01*
X00002389Y00036929D01*
X00002388Y00036936D01*
X00002385Y00036943D01*
X00002380Y00036948D01*
X00002373Y00036951D01*
X00002366Y00036953D01*
X00002350Y00036953D01*
X00002342Y00036952D01*
X00002336Y00036949D01*
X00002331Y00036944D01*
X00002327Y00036937D01*
X00002326Y00036930D01*
X00002327Y00036922D01*
X00002331Y00036916D01*
X00002336Y00036911D01*
X00002342Y00036907D01*
X00002350Y00036906D01*
X00002366Y00036905D01*
G37*
G36*
X00002366Y00036905D02*
G01*
X00002373Y00036906D01*
X00002390Y00036909D01*
X00002396Y00036913D01*
X00002402Y00036918D01*
X00002405Y00036924D01*
X00002406Y00036932D01*
X00002405Y00036939D01*
X00002402Y00036946D01*
X00002396Y00036951D01*
X00002390Y00036954D01*
X00002383Y00036955D01*
X00002375Y00036954D01*
X00002359Y00036951D01*
X00002353Y00036948D01*
X00002348Y00036943D01*
X00002344Y00036936D01*
X00002343Y00036929D01*
X00002344Y00036922D01*
X00002348Y00036915D01*
X00002353Y00036910D01*
X00002359Y00036906D01*
X00002366Y00036905D01*
G37*
G36*
X00002383Y00036908D02*
G01*
X00002390Y00036909D01*
X00002406Y00036915D01*
X00002412Y00036919D01*
X00002417Y00036924D01*
X00002421Y00036931D01*
X00002422Y00036938D01*
X00002421Y00036945D01*
X00002417Y00036952D01*
X00002412Y00036957D01*
X00002406Y00036960D01*
X00002398Y00036962D01*
X00002391Y00036960D01*
X00002375Y00036954D01*
X00002369Y00036951D01*
X00002363Y00036946D01*
X00002361Y00036939D01*
X00002360Y00036932D01*
X00002361Y00036924D01*
X00002363Y00036918D01*
X00002369Y00036913D01*
X00002375Y00036909D01*
X00002383Y00036908D01*
G37*
G36*
X00002398Y00036914D02*
G01*
X00002406Y00036915D01*
X00002412Y00036919D01*
X00002426Y00036928D01*
X00002432Y00036934D01*
X00002435Y00036940D01*
X00002436Y00036947D01*
X00002435Y00036955D01*
X00002432Y00036961D01*
X00002426Y00036967D01*
X00002420Y00036969D01*
X00002412Y00036971D01*
X00002405Y00036969D01*
X00002399Y00036967D01*
X00002384Y00036957D01*
X00002379Y00036952D01*
X00002376Y00036945D01*
X00002375Y00036938D01*
X00002376Y00036931D01*
X00002379Y00036924D01*
X00002384Y00036919D01*
X00002391Y00036915D01*
X00002398Y00036914D01*
G37*
G36*
X00002412Y00036924D02*
G01*
X00002420Y00036925D01*
X00002426Y00036928D01*
X00002432Y00036934D01*
X00002443Y00036946D01*
X00002447Y00036953D01*
X00002448Y00036960D01*
X00002447Y00036967D01*
X00002443Y00036973D01*
X00002438Y00036979D01*
X00002431Y00036981D01*
X00002424Y00036983D01*
X00002417Y00036981D01*
X00002410Y00036979D01*
X00002405Y00036973D01*
X00002393Y00036961D01*
X00002390Y00036955D01*
X00002389Y00036947D01*
X00002390Y00036940D01*
X00002393Y00036934D01*
X00002399Y00036928D01*
X00002405Y00036925D01*
X00002412Y00036924D01*
G37*
G36*
X00002424Y00036936D02*
G01*
X00002431Y00036937D01*
X00002438Y00036941D01*
X00002443Y00036946D01*
X00002452Y00036961D01*
X00002455Y00036967D01*
X00002457Y00036973D01*
X00002455Y00036981D01*
X00002452Y00036988D01*
X00002447Y00036994D01*
X00002440Y00036997D01*
X00002433Y00036998D01*
X00002426Y00036997D01*
X00002419Y00036994D01*
X00002414Y00036988D01*
X00002405Y00036973D01*
X00002402Y00036967D01*
X00002401Y00036960D01*
X00002402Y00036953D01*
X00002405Y00036946D01*
X00002410Y00036941D01*
X00002417Y00036937D01*
X00002424Y00036936D01*
G37*
G36*
X00002433Y00036951D02*
G01*
X00002440Y00036952D01*
X00002447Y00036955D01*
X00002452Y00036961D01*
X00002455Y00036967D01*
X00002461Y00036983D01*
X00002462Y00036991D01*
X00002461Y00036998D01*
X00002458Y00037004D01*
X00002452Y00037008D01*
X00002446Y00037012D01*
X00002438Y00037012D01*
X00002431Y00037012D01*
X00002425Y00037008D01*
X00002419Y00037004D01*
X00002416Y00036998D01*
X00002410Y00036981D01*
X00002409Y00036973D01*
X00002410Y00036967D01*
X00002414Y00036961D01*
X00002419Y00036955D01*
X00002426Y00036952D01*
X00002433Y00036951D01*
G37*
G36*
X00002438Y00036967D02*
G01*
X00002446Y00036968D01*
X00002452Y00036971D01*
X00002458Y00036977D01*
X00002461Y00036983D01*
X00002462Y00036991D01*
X00002464Y00037007D01*
X00002463Y00037014D01*
X00002459Y00037020D01*
X00002454Y00037026D01*
X00002448Y00037029D01*
X00002440Y00037030D01*
X00002433Y00037029D01*
X00002426Y00037026D01*
X00002421Y00037020D01*
X00002418Y00037014D01*
X00002417Y00037007D01*
X00002415Y00036991D01*
X00002416Y00036983D01*
X00002419Y00036977D01*
X00002425Y00036971D01*
X00002431Y00036968D01*
X00002438Y00036967D01*
G37*
G36*
X00002362Y00037062D02*
G01*
X00002369Y00037063D01*
X00002375Y00037066D01*
X00002381Y00037071D01*
X00002384Y00037078D01*
X00002385Y00037085D01*
X00002385Y00039369D01*
X00002339Y00039369D01*
X00002339Y00037085D01*
X00002340Y00037078D01*
X00002343Y00037071D01*
X00002349Y00037066D01*
X00002355Y00037063D01*
X00002362Y00037062D01*
G37*
G36*
X00002284Y00036984D02*
G01*
X00002291Y00036985D01*
X00002298Y00036988D01*
X00002303Y00036994D01*
X00002306Y00037000D01*
X00002307Y00037007D01*
X00002306Y00037014D01*
X00002303Y00037020D01*
X00002298Y00037026D01*
X00002291Y00037029D01*
X00002284Y00037030D01*
X00000000Y00037030D01*
X00000000Y00036984D01*
X00002284Y00036984D01*
G37*
G36*
X00002075Y00030884D02*
G01*
X00002082Y00030887D01*
X00002089Y00030890D01*
X00002094Y00030895D01*
X00002098Y00030902D01*
X00002099Y00030909D01*
X00002098Y00030916D01*
X00002094Y00030923D01*
X00002089Y00030928D01*
X00002082Y00030932D01*
X00002075Y00030932D01*
X00000027Y00030932D01*
X00000021Y00030932D01*
X00000013Y00030928D01*
X00000009Y00030923D01*
X00000005Y00030916D01*
X00000004Y00030909D01*
X00000005Y00030902D01*
X00000009Y00030895D01*
X00000013Y00030890D01*
X00000021Y00030887D01*
X00000027Y00030884D01*
X00002075Y00030884D01*
G37*
G36*
X00000027Y00030884D02*
G01*
X00000035Y00030887D01*
X00000042Y00030890D01*
X00000047Y00030895D01*
X00000050Y00030902D01*
X00000050Y00030909D01*
X00000050Y00034933D01*
X00000050Y00034940D01*
X00000047Y00034947D01*
X00000042Y00034952D01*
X00000035Y00034955D01*
X00000027Y00034956D01*
X00000021Y00034955D01*
X00000013Y00034952D01*
X00000009Y00034947D01*
X00000005Y00034940D01*
X00000004Y00034933D01*
X00000004Y00030909D01*
X00000005Y00030902D01*
X00000009Y00030895D01*
X00000013Y00030890D01*
X00000021Y00030887D01*
X00000027Y00030884D01*
G37*
G36*
X00002075Y00030884D02*
G01*
X00002082Y00030887D01*
X00002089Y00030890D01*
X00002094Y00030895D01*
X00002098Y00030902D01*
X00002099Y00030909D01*
X00002099Y00035956D01*
X00002098Y00035964D01*
X00002094Y00035970D01*
X00002089Y00035975D01*
X00002082Y00035979D01*
X00002075Y00035980D01*
X00002068Y00035979D01*
X00002061Y00035975D01*
X00002056Y00035970D01*
X00002053Y00035964D01*
X00002051Y00035956D01*
X00002051Y00030909D01*
X00002053Y00030902D01*
X00002056Y00030895D01*
X00002061Y00030890D01*
X00002068Y00030887D01*
X00002075Y00030884D01*
G37*
G36*
X00001051Y00034909D02*
G01*
X00001059Y00034910D01*
X00001065Y00034913D01*
X00001071Y00034919D01*
X00001074Y00034925D01*
X00001075Y00034933D01*
X00001074Y00034940D01*
X00001071Y00034947D01*
X00001065Y00034952D01*
X00001059Y00034955D01*
X00001051Y00034956D01*
X00000027Y00034956D01*
X00000021Y00034955D01*
X00000013Y00034952D01*
X00000009Y00034947D01*
X00000005Y00034940D01*
X00000004Y00034933D01*
X00000005Y00034925D01*
X00000009Y00034919D01*
X00000013Y00034913D01*
X00000021Y00034910D01*
X00000027Y00034909D01*
X00001051Y00034909D01*
G37*
G36*
X00001051Y00034909D02*
G01*
X00001059Y00034910D01*
X00001065Y00034913D01*
X00001071Y00034919D01*
X00001074Y00034925D01*
X00001075Y00034933D01*
X00001075Y00035956D01*
X00001074Y00035964D01*
X00001071Y00035970D01*
X00001065Y00035975D01*
X00001059Y00035979D01*
X00001051Y00035980D01*
X00001044Y00035979D01*
X00001038Y00035975D01*
X00001032Y00035970D01*
X00001029Y00035964D01*
X00001028Y00035956D01*
X00001028Y00034933D01*
X00001029Y00034925D01*
X00001032Y00034919D01*
X00001038Y00034913D01*
X00001044Y00034910D01*
X00001051Y00034909D01*
G37*
G36*
X00002075Y00035933D02*
G01*
X00002082Y00035934D01*
X00002089Y00035937D01*
X00002094Y00035942D01*
X00002098Y00035949D01*
X00002099Y00035956D01*
X00002098Y00035964D01*
X00002094Y00035970D01*
X00002089Y00035975D01*
X00002082Y00035979D01*
X00002075Y00035980D01*
X00001051Y00035980D01*
X00001044Y00035979D01*
X00001038Y00035975D01*
X00001032Y00035970D01*
X00001029Y00035964D01*
X00001028Y00035956D01*
X00001029Y00035949D01*
X00001032Y00035942D01*
X00001038Y00035937D01*
X00001044Y00035934D01*
X00001051Y00035933D01*
X00002075Y00035933D01*
G37*
G36*
X00000027Y00035409D02*
G01*
X00000035Y00035409D01*
X00000042Y00035414D01*
X00000047Y00035419D01*
X00000050Y00035425D01*
X00000050Y00035432D01*
X00000050Y00035956D01*
X00000050Y00035964D01*
X00000047Y00035970D01*
X00000042Y00035975D01*
X00000035Y00035979D01*
X00000027Y00035980D01*
X00000021Y00035979D01*
X00000013Y00035975D01*
X00000009Y00035970D01*
X00000005Y00035964D01*
X00000004Y00035956D01*
X00000004Y00035432D01*
X00000005Y00035425D01*
X00000009Y00035419D01*
X00000013Y00035414D01*
X00000021Y00035409D01*
X00000027Y00035409D01*
G37*
G36*
X00000551Y00035933D02*
G01*
X00000559Y00035934D01*
X00000565Y00035937D01*
X00000571Y00035942D01*
X00000574Y00035949D01*
X00000575Y00035956D01*
X00000574Y00035964D01*
X00000571Y00035970D01*
X00000565Y00035975D01*
X00000559Y00035979D01*
X00000551Y00035980D01*
X00000027Y00035980D01*
X00000021Y00035979D01*
X00000013Y00035975D01*
X00000009Y00035970D01*
X00000005Y00035964D01*
X00000004Y00035956D01*
X00000005Y00035949D01*
X00000009Y00035942D01*
X00000013Y00035937D01*
X00000021Y00035934D01*
X00000027Y00035933D01*
X00000551Y00035933D01*
G37*
G36*
X00000551Y00029319D02*
G01*
X00000559Y00029320D01*
X00000565Y00029323D01*
X00000571Y00029328D01*
X00000574Y00029335D01*
X00000575Y00029342D01*
X00000574Y00029349D01*
X00000571Y00029356D01*
X00000565Y00029360D01*
X00000559Y00029364D01*
X00000551Y00029366D01*
X00000027Y00029366D01*
X00000021Y00029364D01*
X00000013Y00029360D01*
X00000009Y00029356D01*
X00000005Y00029349D01*
X00000004Y00029342D01*
X00000005Y00029335D01*
X00000009Y00029328D01*
X00000013Y00029323D01*
X00000021Y00029320D01*
X00000027Y00029319D01*
X00000551Y00029319D01*
G37*
G36*
X00000027Y00028795D02*
G01*
X00000035Y00028795D01*
X00000042Y00028799D01*
X00000047Y00028805D01*
X00000050Y00028811D01*
X00000050Y00028819D01*
X00000050Y00029342D01*
X00000050Y00029349D01*
X00000047Y00029356D01*
X00000042Y00029360D01*
X00000035Y00029364D01*
X00000027Y00029366D01*
X00000021Y00029364D01*
X00000013Y00029360D01*
X00000009Y00029356D01*
X00000005Y00029349D01*
X00000004Y00029342D01*
X00000004Y00028819D01*
X00000005Y00028811D01*
X00000009Y00028805D01*
X00000013Y00028799D01*
X00000021Y00028795D01*
X00000027Y00028795D01*
G37*
G36*
X00002075Y00029319D02*
G01*
X00002082Y00029320D01*
X00002089Y00029323D01*
X00002094Y00029328D01*
X00002098Y00029335D01*
X00002099Y00029342D01*
X00002098Y00029349D01*
X00002094Y00029356D01*
X00002089Y00029360D01*
X00002082Y00029364D01*
X00002075Y00029366D01*
X00001051Y00029366D01*
X00001044Y00029364D01*
X00001038Y00029360D01*
X00001032Y00029356D01*
X00001029Y00029349D01*
X00001028Y00029342D01*
X00001029Y00029335D01*
X00001032Y00029328D01*
X00001038Y00029323D01*
X00001044Y00029320D01*
X00001051Y00029319D01*
X00002075Y00029319D01*
G37*
G36*
X00001051Y00028295D02*
G01*
X00001059Y00028296D01*
X00001065Y00028299D01*
X00001071Y00028304D01*
X00001074Y00028311D01*
X00001075Y00028319D01*
X00001075Y00029342D01*
X00001074Y00029349D01*
X00001071Y00029356D01*
X00001065Y00029360D01*
X00001059Y00029364D01*
X00001051Y00029366D01*
X00001044Y00029364D01*
X00001038Y00029360D01*
X00001032Y00029356D01*
X00001029Y00029349D01*
X00001028Y00029342D01*
X00001028Y00028319D01*
X00001029Y00028311D01*
X00001032Y00028304D01*
X00001038Y00028299D01*
X00001044Y00028296D01*
X00001051Y00028295D01*
G37*
G36*
X00001051Y00028295D02*
G01*
X00001059Y00028296D01*
X00001065Y00028299D01*
X00001071Y00028304D01*
X00001074Y00028311D01*
X00001075Y00028319D01*
X00001074Y00028325D01*
X00001071Y00028332D01*
X00001065Y00028338D01*
X00001059Y00028341D01*
X00001051Y00028342D01*
X00000027Y00028342D01*
X00000021Y00028341D01*
X00000013Y00028338D01*
X00000009Y00028332D01*
X00000005Y00028325D01*
X00000004Y00028319D01*
X00000005Y00028311D01*
X00000009Y00028304D01*
X00000013Y00028299D01*
X00000021Y00028296D01*
X00000027Y00028295D01*
X00001051Y00028295D01*
G37*
G36*
X00002075Y00024270D02*
G01*
X00002082Y00024272D01*
X00002089Y00024276D01*
X00002094Y00024281D01*
X00002098Y00024288D01*
X00002099Y00024295D01*
X00002099Y00029342D01*
X00002098Y00029349D01*
X00002094Y00029356D01*
X00002089Y00029360D01*
X00002082Y00029364D01*
X00002075Y00029366D01*
X00002068Y00029364D01*
X00002061Y00029360D01*
X00002056Y00029356D01*
X00002053Y00029349D01*
X00002051Y00029342D01*
X00002051Y00024295D01*
X00002053Y00024288D01*
X00002056Y00024281D01*
X00002061Y00024276D01*
X00002068Y00024272D01*
X00002075Y00024270D01*
G37*
G36*
X00000027Y00024270D02*
G01*
X00000035Y00024272D01*
X00000042Y00024276D01*
X00000047Y00024281D01*
X00000050Y00024288D01*
X00000050Y00024295D01*
X00000050Y00028319D01*
X00000050Y00028325D01*
X00000047Y00028332D01*
X00000042Y00028338D01*
X00000035Y00028341D01*
X00000027Y00028342D01*
X00000021Y00028341D01*
X00000013Y00028338D01*
X00000009Y00028332D01*
X00000005Y00028325D01*
X00000004Y00028319D01*
X00000004Y00024295D01*
X00000005Y00024288D01*
X00000009Y00024281D01*
X00000013Y00024276D01*
X00000021Y00024272D01*
X00000027Y00024270D01*
G37*
G36*
X00002075Y00024270D02*
G01*
X00002082Y00024272D01*
X00002089Y00024276D01*
X00002094Y00024281D01*
X00002098Y00024288D01*
X00002099Y00024295D01*
X00002098Y00024302D01*
X00002094Y00024309D01*
X00002089Y00024314D01*
X00002082Y00024317D01*
X00002075Y00024319D01*
X00000027Y00024319D01*
X00000021Y00024317D01*
X00000013Y00024314D01*
X00000009Y00024309D01*
X00000005Y00024302D01*
X00000004Y00024295D01*
X00000005Y00024288D01*
X00000009Y00024281D01*
X00000013Y00024276D01*
X00000021Y00024272D01*
X00000027Y00024270D01*
X00002075Y00024270D01*
G37*
G04 next file*
G36*
X00007558Y00024779D02*
G01*
X00007566Y00024780D01*
X00007572Y00024784D01*
X00007577Y00024789D01*
X00007581Y00024796D01*
X00007582Y00024803D01*
X00007581Y00024810D01*
X00007577Y00024817D01*
X00007572Y00024822D01*
X00007566Y00024825D01*
X00007558Y00024827D01*
X00007551Y00024825D01*
X00007544Y00024822D01*
X00007539Y00024817D01*
X00007536Y00024810D01*
X00007534Y00024803D01*
X00007536Y00024796D01*
X00007539Y00024789D01*
X00007544Y00024784D01*
X00007551Y00024780D01*
X00007558Y00024779D01*
G37*
G36*
X00007558Y00024779D02*
G01*
X00007566Y00024780D01*
X00007572Y00024784D01*
X00007577Y00024789D01*
X00007581Y00024796D01*
X00007582Y00024803D01*
X00007580Y00024820D01*
X00007579Y00024827D01*
X00007576Y00024834D01*
X00007570Y00024839D01*
X00007563Y00024842D01*
X00007556Y00024843D01*
X00007549Y00024842D01*
X00007543Y00024839D01*
X00007537Y00024834D01*
X00007533Y00024827D01*
X00007532Y00024820D01*
X00007534Y00024803D01*
X00007536Y00024796D01*
X00007539Y00024789D01*
X00007544Y00024784D01*
X00007551Y00024780D01*
X00007558Y00024779D01*
G37*
G36*
X00007556Y00024796D02*
G01*
X00007563Y00024796D01*
X00007570Y00024801D01*
X00007576Y00024806D01*
X00007579Y00024813D01*
X00007580Y00024820D01*
X00007579Y00024827D01*
X00007573Y00024843D01*
X00007570Y00024850D01*
X00007564Y00024855D01*
X00007558Y00024857D01*
X00007551Y00024860D01*
X00007544Y00024857D01*
X00007537Y00024855D01*
X00007531Y00024850D01*
X00007528Y00024843D01*
X00007527Y00024836D01*
X00007528Y00024829D01*
X00007533Y00024813D01*
X00007537Y00024806D01*
X00007543Y00024801D01*
X00007549Y00024796D01*
X00007556Y00024796D01*
G37*
G36*
X00007551Y00024812D02*
G01*
X00007558Y00024813D01*
X00007564Y00024817D01*
X00007570Y00024822D01*
X00007573Y00024829D01*
X00007574Y00024836D01*
X00007573Y00024843D01*
X00007570Y00024850D01*
X00007560Y00024864D01*
X00007556Y00024870D01*
X00007549Y00024873D01*
X00007542Y00024874D01*
X00007534Y00024873D01*
X00007528Y00024870D01*
X00007523Y00024864D01*
X00007520Y00024857D01*
X00007519Y00024851D01*
X00007520Y00024843D01*
X00007523Y00024836D01*
X00007531Y00024822D01*
X00007537Y00024817D01*
X00007544Y00024813D01*
X00007551Y00024812D01*
G37*
G36*
X00007542Y00024827D02*
G01*
X00007549Y00024828D01*
X00007556Y00024831D01*
X00007560Y00024836D01*
X00007564Y00024843D01*
X00007566Y00024851D01*
X00007564Y00024857D01*
X00007560Y00024864D01*
X00007550Y00024876D01*
X00007544Y00024882D01*
X00007538Y00024885D01*
X00007530Y00024887D01*
X00007523Y00024885D01*
X00007517Y00024882D01*
X00007511Y00024876D01*
X00007508Y00024870D01*
X00007507Y00024863D01*
X00007508Y00024855D01*
X00007511Y00024849D01*
X00007523Y00024836D01*
X00007528Y00024831D01*
X00007534Y00024828D01*
X00007542Y00024827D01*
G37*
G36*
X00007530Y00024839D02*
G01*
X00007538Y00024840D01*
X00007544Y00024844D01*
X00007550Y00024849D01*
X00007553Y00024855D01*
X00007554Y00024863D01*
X00007553Y00024870D01*
X00007550Y00024876D01*
X00007544Y00024882D01*
X00007530Y00024892D01*
X00007524Y00024895D01*
X00007516Y00024895D01*
X00007509Y00024895D01*
X00007501Y00024892D01*
X00007497Y00024886D01*
X00007494Y00024880D01*
X00007493Y00024872D01*
X00007494Y00024865D01*
X00007497Y00024859D01*
X00007501Y00024853D01*
X00007517Y00024844D01*
X00007523Y00024840D01*
X00007530Y00024839D01*
G37*
G36*
X00007516Y00024849D02*
G01*
X00007524Y00024850D01*
X00007530Y00024853D01*
X00007534Y00024859D01*
X00007539Y00024865D01*
X00007540Y00024872D01*
X00007539Y00024880D01*
X00007534Y00024886D01*
X00007530Y00024892D01*
X00007524Y00024895D01*
X00007508Y00024901D01*
X00007500Y00024902D01*
X00007493Y00024901D01*
X00007487Y00024897D01*
X00007481Y00024893D01*
X00007479Y00024886D01*
X00007478Y00024878D01*
X00007479Y00024871D01*
X00007481Y00024865D01*
X00007487Y00024860D01*
X00007493Y00024855D01*
X00007509Y00024850D01*
X00007516Y00024849D01*
G37*
G36*
X00007500Y00024855D02*
G01*
X00007508Y00024855D01*
X00007514Y00024860D01*
X00007520Y00024865D01*
X00007523Y00024871D01*
X00007524Y00024878D01*
X00007523Y00024886D01*
X00007520Y00024893D01*
X00007514Y00024897D01*
X00007508Y00024901D01*
X00007491Y00024904D01*
X00007483Y00024905D01*
X00007477Y00024904D01*
X00007470Y00024901D01*
X00007466Y00024895D01*
X00007462Y00024889D01*
X00007461Y00024882D01*
X00007462Y00024874D01*
X00007466Y00024868D01*
X00007470Y00024862D01*
X00007477Y00024859D01*
X00007493Y00024855D01*
X00007500Y00024855D01*
G37*
G36*
X00007468Y00024857D02*
G01*
X00007483Y00024857D01*
X00007491Y00024859D01*
X00007498Y00024862D01*
X00007502Y00024868D01*
X00007506Y00024874D01*
X00007507Y00024882D01*
X00007506Y00024889D01*
X00007502Y00024895D01*
X00007498Y00024901D01*
X00007491Y00024904D01*
X00007483Y00024905D01*
X00007468Y00024904D01*
X00007460Y00024903D01*
X00007453Y00024900D01*
X00007449Y00024894D01*
X00007445Y00024888D01*
X00007443Y00024881D01*
X00007445Y00024873D01*
X00007449Y00024867D01*
X00007453Y00024861D01*
X00007460Y00024857D01*
X00007468Y00024857D01*
G37*
G36*
X00007451Y00024852D02*
G01*
X00007459Y00024854D01*
X00007475Y00024857D01*
X00007481Y00024861D01*
X00007486Y00024867D01*
X00007489Y00024873D01*
X00007490Y00024881D01*
X00007489Y00024888D01*
X00007486Y00024894D01*
X00007481Y00024900D01*
X00007475Y00024903D01*
X00007468Y00024904D01*
X00007460Y00024903D01*
X00007443Y00024899D01*
X00007437Y00024895D01*
X00007432Y00024890D01*
X00007429Y00024883D01*
X00007428Y00024876D01*
X00007429Y00024869D01*
X00007432Y00024862D01*
X00007437Y00024857D01*
X00007443Y00024854D01*
X00007451Y00024852D01*
G37*
G36*
X00007436Y00024844D02*
G01*
X00007443Y00024846D01*
X00007450Y00024849D01*
X00007465Y00024857D01*
X00007469Y00024862D01*
X00007473Y00024869D01*
X00007475Y00024876D01*
X00007473Y00024883D01*
X00007469Y00024890D01*
X00007465Y00024895D01*
X00007459Y00024899D01*
X00007451Y00024900D01*
X00007443Y00024899D01*
X00007437Y00024895D01*
X00007422Y00024887D01*
X00007417Y00024882D01*
X00007413Y00024875D01*
X00007412Y00024868D01*
X00007413Y00024861D01*
X00007417Y00024854D01*
X00007422Y00024849D01*
X00007429Y00024846D01*
X00007436Y00024844D01*
G37*
G36*
X00007423Y00024833D02*
G01*
X00007431Y00024835D01*
X00007437Y00024838D01*
X00007450Y00024849D01*
X00007455Y00024854D01*
X00007459Y00024861D01*
X00007460Y00024868D01*
X00007459Y00024875D01*
X00007455Y00024882D01*
X00007450Y00024887D01*
X00007443Y00024891D01*
X00007436Y00024892D01*
X00007429Y00024891D01*
X00007422Y00024887D01*
X00007408Y00024876D01*
X00007403Y00024871D01*
X00007401Y00024864D01*
X00007400Y00024857D01*
X00007401Y00024850D01*
X00007403Y00024843D01*
X00007408Y00024838D01*
X00007416Y00024835D01*
X00007423Y00024833D01*
G37*
G36*
X00007412Y00024820D02*
G01*
X00007420Y00024821D01*
X00007427Y00024824D01*
X00007432Y00024830D01*
X00007441Y00024843D01*
X00007446Y00024850D01*
X00007447Y00024857D01*
X00007446Y00024864D01*
X00007441Y00024871D01*
X00007437Y00024876D01*
X00007431Y00024880D01*
X00007423Y00024881D01*
X00007416Y00024880D01*
X00007408Y00024876D01*
X00007403Y00024871D01*
X00007393Y00024857D01*
X00007391Y00024851D01*
X00007389Y00024843D01*
X00007391Y00024836D01*
X00007393Y00024830D01*
X00007399Y00024824D01*
X00007406Y00024821D01*
X00007412Y00024820D01*
G37*
G36*
X00007406Y00024804D02*
G01*
X00007412Y00024806D01*
X00007420Y00024809D01*
X00007425Y00024814D01*
X00007428Y00024821D01*
X00007436Y00024836D01*
X00007437Y00024843D01*
X00007436Y00024851D01*
X00007432Y00024857D01*
X00007427Y00024863D01*
X00007420Y00024866D01*
X00007412Y00024867D01*
X00007406Y00024866D01*
X00007399Y00024863D01*
X00007393Y00024857D01*
X00007391Y00024851D01*
X00007382Y00024835D01*
X00007381Y00024828D01*
X00007382Y00024821D01*
X00007387Y00024814D01*
X00007392Y00024809D01*
X00007399Y00024806D01*
X00007406Y00024804D01*
G37*
G36*
X00007402Y00024788D02*
G01*
X00007409Y00024789D01*
X00007416Y00024792D01*
X00007421Y00024798D01*
X00007425Y00024804D01*
X00007428Y00024821D01*
X00007430Y00024828D01*
X00007428Y00024835D01*
X00007425Y00024842D01*
X00007420Y00024847D01*
X00007412Y00024850D01*
X00007406Y00024852D01*
X00007399Y00024850D01*
X00007392Y00024847D01*
X00007387Y00024842D01*
X00007382Y00024835D01*
X00007379Y00024819D01*
X00007378Y00024811D01*
X00007379Y00024804D01*
X00007382Y00024798D01*
X00007388Y00024792D01*
X00007395Y00024789D01*
X00007402Y00024788D01*
G37*
G36*
X00007402Y00024771D02*
G01*
X00007409Y00024772D01*
X00007416Y00024775D01*
X00007421Y00024780D01*
X00007425Y00024787D01*
X00007426Y00024794D01*
X00007426Y00024811D01*
X00007425Y00024819D01*
X00007421Y00024825D01*
X00007416Y00024831D01*
X00007409Y00024834D01*
X00007402Y00024835D01*
X00007395Y00024834D01*
X00007388Y00024831D01*
X00007382Y00024825D01*
X00007379Y00024819D01*
X00007378Y00024811D01*
X00007378Y00024794D01*
X00007379Y00024787D01*
X00007382Y00024780D01*
X00007388Y00024775D01*
X00007395Y00024772D01*
X00007402Y00024771D01*
G37*
G36*
X00007406Y00024754D02*
G01*
X00007412Y00024754D01*
X00007420Y00024759D01*
X00007425Y00024764D01*
X00007428Y00024770D01*
X00007430Y00024777D01*
X00007428Y00024785D01*
X00007425Y00024802D01*
X00007421Y00024808D01*
X00007416Y00024813D01*
X00007409Y00024817D01*
X00007402Y00024817D01*
X00007395Y00024817D01*
X00007388Y00024813D01*
X00007382Y00024808D01*
X00007379Y00024802D01*
X00007378Y00024794D01*
X00007379Y00024787D01*
X00007382Y00024770D01*
X00007387Y00024764D01*
X00007392Y00024759D01*
X00007399Y00024754D01*
X00007406Y00024754D01*
G37*
G36*
X00007412Y00024739D02*
G01*
X00007420Y00024740D01*
X00007427Y00024743D01*
X00007432Y00024748D01*
X00007436Y00024754D01*
X00007437Y00024762D01*
X00007436Y00024770D01*
X00007428Y00024785D01*
X00007425Y00024792D01*
X00007420Y00024796D01*
X00007412Y00024800D01*
X00007406Y00024801D01*
X00007399Y00024800D01*
X00007392Y00024796D01*
X00007387Y00024792D01*
X00007382Y00024785D01*
X00007381Y00024777D01*
X00007382Y00024770D01*
X00007391Y00024754D01*
X00007393Y00024748D01*
X00007399Y00024743D01*
X00007406Y00024740D01*
X00007412Y00024739D01*
G37*
G36*
X00007423Y00024725D02*
G01*
X00007431Y00024726D01*
X00007437Y00024730D01*
X00007441Y00024735D01*
X00007446Y00024741D01*
X00007447Y00024749D01*
X00007446Y00024756D01*
X00007441Y00024763D01*
X00007432Y00024775D01*
X00007427Y00024781D01*
X00007420Y00024785D01*
X00007412Y00024786D01*
X00007406Y00024785D01*
X00007399Y00024781D01*
X00007393Y00024775D01*
X00007391Y00024770D01*
X00007389Y00024762D01*
X00007391Y00024754D01*
X00007393Y00024748D01*
X00007403Y00024735D01*
X00007408Y00024730D01*
X00007416Y00024726D01*
X00007423Y00024725D01*
G37*
G36*
X00007436Y00024714D02*
G01*
X00007443Y00024714D01*
X00007450Y00024719D01*
X00007455Y00024724D01*
X00007459Y00024730D01*
X00007460Y00024738D01*
X00007459Y00024745D01*
X00007455Y00024752D01*
X00007450Y00024756D01*
X00007437Y00024768D01*
X00007431Y00024771D01*
X00007423Y00024772D01*
X00007416Y00024771D01*
X00007408Y00024768D01*
X00007403Y00024763D01*
X00007401Y00024756D01*
X00007400Y00024749D01*
X00007401Y00024741D01*
X00007403Y00024735D01*
X00007408Y00024730D01*
X00007422Y00024719D01*
X00007429Y00024714D01*
X00007436Y00024714D01*
G37*
G36*
X00007451Y00024706D02*
G01*
X00007459Y00024707D01*
X00007465Y00024711D01*
X00007469Y00024716D01*
X00007473Y00024722D01*
X00007475Y00024730D01*
X00007473Y00024737D01*
X00007469Y00024744D01*
X00007465Y00024749D01*
X00007450Y00024756D01*
X00007443Y00024760D01*
X00007436Y00024761D01*
X00007429Y00024760D01*
X00007422Y00024756D01*
X00007417Y00024752D01*
X00007413Y00024745D01*
X00007412Y00024738D01*
X00007413Y00024730D01*
X00007417Y00024724D01*
X00007422Y00024719D01*
X00007437Y00024711D01*
X00007443Y00024707D01*
X00007451Y00024706D01*
G37*
G36*
X00007468Y00024702D02*
G01*
X00007475Y00024703D01*
X00007481Y00024706D01*
X00007486Y00024711D01*
X00007489Y00024718D01*
X00007490Y00024725D01*
X00007489Y00024732D01*
X00007486Y00024739D01*
X00007481Y00024744D01*
X00007475Y00024748D01*
X00007459Y00024752D01*
X00007451Y00024753D01*
X00007443Y00024752D01*
X00007437Y00024749D01*
X00007432Y00024744D01*
X00007429Y00024737D01*
X00007428Y00024730D01*
X00007429Y00024722D01*
X00007432Y00024716D01*
X00007437Y00024711D01*
X00007443Y00024707D01*
X00007460Y00024703D01*
X00007468Y00024702D01*
G37*
G36*
X00007483Y00024701D02*
G01*
X00007491Y00024702D01*
X00007498Y00024705D01*
X00007502Y00024710D01*
X00007506Y00024716D01*
X00007507Y00024724D01*
X00007506Y00024732D01*
X00007502Y00024738D01*
X00007498Y00024743D01*
X00007491Y00024747D01*
X00007483Y00024748D01*
X00007468Y00024749D01*
X00007460Y00024748D01*
X00007453Y00024744D01*
X00007449Y00024739D01*
X00007445Y00024732D01*
X00007443Y00024725D01*
X00007445Y00024718D01*
X00007449Y00024711D01*
X00007453Y00024706D01*
X00007460Y00024703D01*
X00007468Y00024702D01*
X00007483Y00024701D01*
G37*
G36*
X00007483Y00024701D02*
G01*
X00007491Y00024702D01*
X00007508Y00024705D01*
X00007514Y00024708D01*
X00007520Y00024713D01*
X00007523Y00024720D01*
X00007524Y00024727D01*
X00007523Y00024734D01*
X00007520Y00024741D01*
X00007514Y00024746D01*
X00007508Y00024749D01*
X00007500Y00024751D01*
X00007493Y00024749D01*
X00007477Y00024747D01*
X00007470Y00024743D01*
X00007466Y00024738D01*
X00007462Y00024732D01*
X00007461Y00024724D01*
X00007462Y00024716D01*
X00007466Y00024710D01*
X00007470Y00024705D01*
X00007477Y00024702D01*
X00007483Y00024701D01*
G37*
G36*
X00007500Y00024703D02*
G01*
X00007508Y00024705D01*
X00007524Y00024711D01*
X00007530Y00024714D01*
X00007534Y00024719D01*
X00007539Y00024726D01*
X00007540Y00024733D01*
X00007539Y00024741D01*
X00007534Y00024747D01*
X00007530Y00024752D01*
X00007524Y00024756D01*
X00007516Y00024756D01*
X00007509Y00024756D01*
X00007493Y00024749D01*
X00007487Y00024746D01*
X00007481Y00024741D01*
X00007479Y00024734D01*
X00007478Y00024727D01*
X00007479Y00024720D01*
X00007481Y00024713D01*
X00007487Y00024708D01*
X00007493Y00024705D01*
X00007500Y00024703D01*
G37*
G36*
X00007516Y00024710D02*
G01*
X00007524Y00024711D01*
X00007530Y00024714D01*
X00007544Y00024724D01*
X00007550Y00024729D01*
X00007553Y00024735D01*
X00007554Y00024743D01*
X00007553Y00024750D01*
X00007550Y00024756D01*
X00007544Y00024762D01*
X00007538Y00024765D01*
X00007530Y00024766D01*
X00007523Y00024765D01*
X00007517Y00024762D01*
X00007501Y00024752D01*
X00007497Y00024747D01*
X00007494Y00024741D01*
X00007493Y00024733D01*
X00007494Y00024726D01*
X00007497Y00024719D01*
X00007501Y00024714D01*
X00007509Y00024711D01*
X00007516Y00024710D01*
G37*
G36*
X00007530Y00024719D02*
G01*
X00007538Y00024720D01*
X00007544Y00024724D01*
X00007550Y00024729D01*
X00007560Y00024741D01*
X00007564Y00024748D01*
X00007566Y00024754D01*
X00007564Y00024763D01*
X00007560Y00024769D01*
X00007556Y00024774D01*
X00007549Y00024777D01*
X00007542Y00024779D01*
X00007534Y00024777D01*
X00007528Y00024774D01*
X00007523Y00024769D01*
X00007511Y00024756D01*
X00007508Y00024750D01*
X00007507Y00024743D01*
X00007508Y00024735D01*
X00007511Y00024729D01*
X00007517Y00024724D01*
X00007523Y00024720D01*
X00007530Y00024719D01*
G37*
G36*
X00007542Y00024732D02*
G01*
X00007549Y00024733D01*
X00007556Y00024735D01*
X00007560Y00024741D01*
X00007570Y00024756D01*
X00007573Y00024763D01*
X00007574Y00024770D01*
X00007573Y00024777D01*
X00007570Y00024784D01*
X00007564Y00024789D01*
X00007558Y00024792D01*
X00007551Y00024793D01*
X00007544Y00024792D01*
X00007537Y00024789D01*
X00007531Y00024784D01*
X00007523Y00024769D01*
X00007520Y00024763D01*
X00007519Y00024754D01*
X00007520Y00024748D01*
X00007523Y00024741D01*
X00007528Y00024735D01*
X00007534Y00024733D01*
X00007542Y00024732D01*
G37*
G36*
X00007551Y00024746D02*
G01*
X00007558Y00024747D01*
X00007564Y00024751D01*
X00007570Y00024756D01*
X00007573Y00024763D01*
X00007579Y00024779D01*
X00007580Y00024786D01*
X00007579Y00024793D01*
X00007576Y00024800D01*
X00007570Y00024805D01*
X00007563Y00024808D01*
X00007556Y00024810D01*
X00007549Y00024808D01*
X00007543Y00024805D01*
X00007537Y00024800D01*
X00007533Y00024793D01*
X00007528Y00024777D01*
X00007527Y00024770D01*
X00007528Y00024763D01*
X00007531Y00024756D01*
X00007537Y00024751D01*
X00007544Y00024747D01*
X00007551Y00024746D01*
G37*
G36*
X00007556Y00024762D02*
G01*
X00007563Y00024763D01*
X00007570Y00024767D01*
X00007576Y00024772D01*
X00007579Y00024779D01*
X00007580Y00024786D01*
X00007582Y00024803D01*
X00007581Y00024810D01*
X00007577Y00024817D01*
X00007572Y00024822D01*
X00007566Y00024825D01*
X00007558Y00024827D01*
X00007551Y00024825D01*
X00007544Y00024822D01*
X00007539Y00024817D01*
X00007536Y00024810D01*
X00007534Y00024803D01*
X00007532Y00024786D01*
X00007533Y00024779D01*
X00007537Y00024772D01*
X00007543Y00024767D01*
X00007549Y00024763D01*
X00007556Y00024762D01*
G37*
G36*
X00007480Y00024857D02*
G01*
X00007487Y00024859D01*
X00007493Y00024863D01*
X00007499Y00024868D01*
X00007501Y00024874D01*
X00007502Y00024882D01*
X00007502Y00031810D01*
X00007501Y00031818D01*
X00007499Y00031825D01*
X00007493Y00031830D01*
X00007487Y00031833D01*
X00007480Y00031833D01*
X00007472Y00031833D01*
X00007467Y00031830D01*
X00007461Y00031825D01*
X00007458Y00031818D01*
X00007457Y00031810D01*
X00007457Y00024882D01*
X00007458Y00024874D01*
X00007461Y00024868D01*
X00007467Y00024863D01*
X00007472Y00024859D01*
X00007480Y00024857D01*
G37*
G36*
X00023936Y00031944D02*
G01*
X00023943Y00031945D01*
X00023950Y00031947D01*
X00023955Y00031953D01*
X00023959Y00031960D01*
X00023960Y00031967D01*
X00023960Y00034251D01*
X00023913Y00034251D01*
X00023913Y00031967D01*
X00023914Y00031960D01*
X00023917Y00031953D01*
X00023922Y00031947D01*
X00023929Y00031945D01*
X00023936Y00031944D01*
G37*
G36*
X00023857Y00031866D02*
G01*
X00023865Y00031867D01*
X00023871Y00031870D01*
X00023877Y00031876D01*
X00023880Y00031881D01*
X00023881Y00031889D01*
X00023880Y00031896D01*
X00023877Y00031902D01*
X00023871Y00031908D01*
X00023865Y00031911D01*
X00023857Y00031911D01*
X00007558Y00031911D01*
X00007551Y00031911D01*
X00007544Y00031908D01*
X00007539Y00031902D01*
X00007536Y00031896D01*
X00007534Y00031889D01*
X00007536Y00031881D01*
X00007539Y00031876D01*
X00007544Y00031870D01*
X00007551Y00031867D01*
X00007558Y00031866D01*
X00023857Y00031866D01*
G37*
G36*
X00024015Y00031866D02*
G01*
X00024022Y00031867D01*
X00024028Y00031870D01*
X00024034Y00031876D01*
X00024037Y00031881D01*
X00024039Y00031889D01*
X00024037Y00031896D01*
X00024034Y00031902D01*
X00024028Y00031908D01*
X00024022Y00031911D01*
X00024015Y00031911D01*
X00024008Y00031911D01*
X00024001Y00031908D01*
X00023996Y00031902D01*
X00023992Y00031896D01*
X00023990Y00031889D01*
X00023992Y00031881D01*
X00023996Y00031876D01*
X00024001Y00031870D01*
X00024008Y00031867D01*
X00024015Y00031866D01*
G37*
G36*
X00024015Y00031866D02*
G01*
X00024022Y00031867D01*
X00024028Y00031870D01*
X00024034Y00031876D01*
X00024037Y00031881D01*
X00024039Y00031889D01*
X00024037Y00031904D01*
X00024036Y00031912D01*
X00024032Y00031919D01*
X00024027Y00031924D01*
X00024020Y00031928D01*
X00024013Y00031928D01*
X00024006Y00031928D01*
X00023999Y00031924D01*
X00023994Y00031919D01*
X00023990Y00031912D01*
X00023988Y00031904D01*
X00023990Y00031889D01*
X00023992Y00031881D01*
X00023996Y00031876D01*
X00024001Y00031870D01*
X00024008Y00031867D01*
X00024015Y00031866D01*
G37*
G36*
X00024013Y00031883D02*
G01*
X00024020Y00031884D01*
X00024027Y00031887D01*
X00024032Y00031892D01*
X00024036Y00031898D01*
X00024037Y00031904D01*
X00024036Y00031912D01*
X00024030Y00031928D01*
X00024027Y00031934D01*
X00024022Y00031941D01*
X00024015Y00031944D01*
X00024008Y00031945D01*
X00024000Y00031944D01*
X00023994Y00031941D01*
X00023988Y00031934D01*
X00023985Y00031928D01*
X00023984Y00031922D01*
X00023985Y00031913D01*
X00023990Y00031898D01*
X00023994Y00031892D01*
X00023999Y00031887D01*
X00024006Y00031884D01*
X00024013Y00031883D01*
G37*
G36*
X00024008Y00031898D02*
G01*
X00024015Y00031899D01*
X00024022Y00031902D01*
X00024027Y00031908D01*
X00024030Y00031913D01*
X00024030Y00031922D01*
X00024030Y00031928D01*
X00024027Y00031934D01*
X00024018Y00031950D01*
X00024013Y00031955D01*
X00024006Y00031959D01*
X00023999Y00031960D01*
X00023992Y00031959D01*
X00023985Y00031955D01*
X00023980Y00031950D01*
X00023976Y00031943D01*
X00023975Y00031936D01*
X00023976Y00031928D01*
X00023980Y00031922D01*
X00023988Y00031908D01*
X00023994Y00031902D01*
X00024000Y00031899D01*
X00024008Y00031898D01*
G37*
G36*
X00023999Y00031912D02*
G01*
X00024006Y00031913D01*
X00024013Y00031916D01*
X00024018Y00031922D01*
X00024021Y00031928D01*
X00024022Y00031936D01*
X00024021Y00031943D01*
X00024018Y00031950D01*
X00024006Y00031962D01*
X00024001Y00031968D01*
X00023994Y00031971D01*
X00023987Y00031972D01*
X00023980Y00031971D01*
X00023973Y00031968D01*
X00023968Y00031962D01*
X00023965Y00031956D01*
X00023964Y00031949D01*
X00023965Y00031941D01*
X00023968Y00031934D01*
X00023980Y00031922D01*
X00023985Y00031916D01*
X00023992Y00031913D01*
X00023999Y00031912D01*
G37*
G36*
X00023987Y00031924D02*
G01*
X00023994Y00031926D01*
X00024001Y00031928D01*
X00024006Y00031934D01*
X00024009Y00031941D01*
X00024011Y00031949D01*
X00024009Y00031956D01*
X00024006Y00031962D01*
X00024001Y00031968D01*
X00023987Y00031977D01*
X00023980Y00031981D01*
X00023973Y00031982D01*
X00023966Y00031981D01*
X00023959Y00031977D01*
X00023954Y00031972D01*
X00023950Y00031965D01*
X00023948Y00031958D01*
X00023950Y00031951D01*
X00023954Y00031944D01*
X00023959Y00031939D01*
X00023973Y00031928D01*
X00023980Y00031926D01*
X00023987Y00031924D01*
G37*
G36*
X00023973Y00031934D02*
G01*
X00023980Y00031936D01*
X00023987Y00031939D01*
X00023992Y00031944D01*
X00023996Y00031951D01*
X00023997Y00031958D01*
X00023996Y00031965D01*
X00023992Y00031972D01*
X00023987Y00031977D01*
X00023980Y00031981D01*
X00023965Y00031987D01*
X00023957Y00031988D01*
X00023950Y00031987D01*
X00023943Y00031983D01*
X00023938Y00031978D01*
X00023935Y00031972D01*
X00023934Y00031964D01*
X00023935Y00031957D01*
X00023938Y00031950D01*
X00023943Y00031945D01*
X00023950Y00031942D01*
X00023966Y00031936D01*
X00023973Y00031934D01*
G37*
G36*
X00023957Y00031941D02*
G01*
X00023965Y00031942D01*
X00023971Y00031945D01*
X00023976Y00031950D01*
X00023980Y00031957D01*
X00023981Y00031964D01*
X00023980Y00031972D01*
X00023976Y00031978D01*
X00023971Y00031983D01*
X00023965Y00031987D01*
X00023948Y00031990D01*
X00023940Y00031991D01*
X00023933Y00031990D01*
X00023927Y00031986D01*
X00023921Y00031981D01*
X00023918Y00031974D01*
X00023917Y00031967D01*
X00023918Y00031960D01*
X00023921Y00031953D01*
X00023927Y00031947D01*
X00023933Y00031945D01*
X00023950Y00031942D01*
X00023957Y00031941D01*
G37*
G36*
X00023923Y00031943D02*
G01*
X00023940Y00031943D01*
X00023948Y00031945D01*
X00023954Y00031947D01*
X00023960Y00031953D01*
X00023963Y00031960D01*
X00023964Y00031967D01*
X00023963Y00031974D01*
X00023960Y00031981D01*
X00023954Y00031986D01*
X00023948Y00031990D01*
X00023940Y00031991D01*
X00023923Y00031990D01*
X00023916Y00031989D01*
X00023910Y00031985D01*
X00023904Y00031980D01*
X00023901Y00031974D01*
X00023900Y00031966D01*
X00023901Y00031959D01*
X00023904Y00031951D01*
X00023910Y00031947D01*
X00023916Y00031944D01*
X00023923Y00031943D01*
G37*
G36*
X00023907Y00031938D02*
G01*
X00023914Y00031939D01*
X00023931Y00031944D01*
X00023937Y00031947D01*
X00023943Y00031951D01*
X00023946Y00031959D01*
X00023947Y00031966D01*
X00023946Y00031974D01*
X00023943Y00031980D01*
X00023937Y00031985D01*
X00023931Y00031989D01*
X00023923Y00031990D01*
X00023916Y00031989D01*
X00023900Y00031984D01*
X00023893Y00031981D01*
X00023887Y00031976D01*
X00023885Y00031969D01*
X00023883Y00031962D01*
X00023885Y00031953D01*
X00023887Y00031947D01*
X00023893Y00031943D01*
X00023900Y00031939D01*
X00023907Y00031938D01*
G37*
G36*
X00023892Y00031930D02*
G01*
X00023899Y00031931D01*
X00023906Y00031934D01*
X00023921Y00031943D01*
X00023926Y00031947D01*
X00023929Y00031953D01*
X00023931Y00031962D01*
X00023929Y00031969D01*
X00023926Y00031976D01*
X00023921Y00031981D01*
X00023914Y00031984D01*
X00023907Y00031985D01*
X00023900Y00031984D01*
X00023893Y00031981D01*
X00023878Y00031972D01*
X00023873Y00031968D01*
X00023870Y00031961D01*
X00023868Y00031953D01*
X00023870Y00031946D01*
X00023873Y00031940D01*
X00023878Y00031934D01*
X00023885Y00031931D01*
X00023892Y00031930D01*
G37*
G36*
X00023879Y00031919D02*
G01*
X00023886Y00031920D01*
X00023893Y00031924D01*
X00023906Y00031934D01*
X00023910Y00031940D01*
X00023914Y00031946D01*
X00023916Y00031953D01*
X00023914Y00031961D01*
X00023910Y00031968D01*
X00023906Y00031972D01*
X00023899Y00031976D01*
X00023892Y00031977D01*
X00023885Y00031976D01*
X00023878Y00031972D01*
X00023865Y00031962D01*
X00023860Y00031957D01*
X00023857Y00031950D01*
X00023855Y00031943D01*
X00023857Y00031934D01*
X00023860Y00031928D01*
X00023865Y00031924D01*
X00023872Y00031920D01*
X00023879Y00031919D01*
G37*
G36*
X00023868Y00031904D02*
G01*
X00023876Y00031907D01*
X00023883Y00031910D01*
X00023887Y00031915D01*
X00023898Y00031928D01*
X00023901Y00031934D01*
X00023903Y00031943D01*
X00023901Y00031950D01*
X00023898Y00031957D01*
X00023893Y00031962D01*
X00023886Y00031965D01*
X00023879Y00031966D01*
X00023872Y00031965D01*
X00023865Y00031962D01*
X00023860Y00031957D01*
X00023849Y00031943D01*
X00023846Y00031936D01*
X00023845Y00031928D01*
X00023846Y00031922D01*
X00023849Y00031915D01*
X00023855Y00031910D01*
X00023861Y00031907D01*
X00023868Y00031904D01*
G37*
G36*
X00023862Y00031890D02*
G01*
X00023868Y00031891D01*
X00023875Y00031894D01*
X00023881Y00031900D01*
X00023884Y00031906D01*
X00023891Y00031922D01*
X00023892Y00031928D01*
X00023891Y00031936D01*
X00023887Y00031943D01*
X00023883Y00031947D01*
X00023876Y00031951D01*
X00023868Y00031953D01*
X00023861Y00031951D01*
X00023855Y00031947D01*
X00023849Y00031943D01*
X00023846Y00031936D01*
X00023839Y00031920D01*
X00023838Y00031913D01*
X00023839Y00031906D01*
X00023842Y00031900D01*
X00023847Y00031894D01*
X00023854Y00031891D01*
X00023862Y00031890D01*
G37*
G36*
X00023858Y00031873D02*
G01*
X00023865Y00031876D01*
X00023872Y00031879D01*
X00023877Y00031884D01*
X00023880Y00031890D01*
X00023884Y00031906D01*
X00023885Y00031913D01*
X00023884Y00031920D01*
X00023881Y00031928D01*
X00023875Y00031932D01*
X00023868Y00031936D01*
X00023862Y00031937D01*
X00023854Y00031936D01*
X00023847Y00031932D01*
X00023842Y00031928D01*
X00023839Y00031920D01*
X00023835Y00031904D01*
X00023834Y00031897D01*
X00023835Y00031890D01*
X00023839Y00031884D01*
X00023844Y00031879D01*
X00023851Y00031876D01*
X00023858Y00031873D01*
G37*
G36*
X00023858Y00031857D02*
G01*
X00023865Y00031859D01*
X00023872Y00031862D01*
X00023877Y00031867D01*
X00023880Y00031873D01*
X00023882Y00031881D01*
X00023882Y00031897D01*
X00023880Y00031904D01*
X00023877Y00031911D01*
X00023872Y00031916D01*
X00023865Y00031919D01*
X00023858Y00031920D01*
X00023851Y00031919D01*
X00023844Y00031916D01*
X00023839Y00031911D01*
X00023835Y00031904D01*
X00023834Y00031897D01*
X00023834Y00031881D01*
X00023835Y00031873D01*
X00023839Y00031867D01*
X00023844Y00031862D01*
X00023851Y00031859D01*
X00023858Y00031857D01*
G37*
G36*
X00023862Y00031841D02*
G01*
X00023868Y00031842D01*
X00023875Y00031845D01*
X00023881Y00031850D01*
X00023884Y00031857D01*
X00023885Y00031864D01*
X00023884Y00031871D01*
X00023880Y00031888D01*
X00023877Y00031894D01*
X00023872Y00031899D01*
X00023865Y00031902D01*
X00023858Y00031904D01*
X00023851Y00031902D01*
X00023844Y00031899D01*
X00023839Y00031894D01*
X00023835Y00031888D01*
X00023834Y00031881D01*
X00023835Y00031873D01*
X00023839Y00031857D01*
X00023842Y00031850D01*
X00023847Y00031845D01*
X00023854Y00031842D01*
X00023862Y00031841D01*
G37*
G36*
X00023868Y00031825D02*
G01*
X00023876Y00031826D01*
X00023883Y00031830D01*
X00023887Y00031835D01*
X00023891Y00031842D01*
X00023892Y00031849D01*
X00023891Y00031856D01*
X00023884Y00031871D01*
X00023881Y00031877D01*
X00023875Y00031883D01*
X00023868Y00031887D01*
X00023862Y00031888D01*
X00023854Y00031887D01*
X00023847Y00031883D01*
X00023842Y00031877D01*
X00023839Y00031871D01*
X00023838Y00031864D01*
X00023839Y00031857D01*
X00023846Y00031842D01*
X00023849Y00031835D01*
X00023855Y00031830D01*
X00023861Y00031826D01*
X00023868Y00031825D01*
G37*
G36*
X00023879Y00031812D02*
G01*
X00023886Y00031812D01*
X00023893Y00031816D01*
X00023898Y00031821D01*
X00023901Y00031827D01*
X00023903Y00031835D01*
X00023901Y00031843D01*
X00023898Y00031849D01*
X00023887Y00031863D01*
X00023883Y00031868D01*
X00023876Y00031871D01*
X00023868Y00031873D01*
X00023861Y00031871D01*
X00023855Y00031868D01*
X00023849Y00031863D01*
X00023846Y00031856D01*
X00023845Y00031849D01*
X00023846Y00031842D01*
X00023849Y00031835D01*
X00023860Y00031821D01*
X00023865Y00031816D01*
X00023872Y00031812D01*
X00023879Y00031812D01*
G37*
G36*
X00023892Y00031800D02*
G01*
X00023899Y00031802D01*
X00023906Y00031804D01*
X00023910Y00031810D01*
X00023914Y00031817D01*
X00023916Y00031824D01*
X00023914Y00031831D01*
X00023910Y00031838D01*
X00023906Y00031843D01*
X00023893Y00031854D01*
X00023886Y00031858D01*
X00023879Y00031859D01*
X00023872Y00031858D01*
X00023865Y00031854D01*
X00023860Y00031849D01*
X00023857Y00031843D01*
X00023855Y00031835D01*
X00023857Y00031827D01*
X00023860Y00031821D01*
X00023865Y00031816D01*
X00023878Y00031804D01*
X00023885Y00031802D01*
X00023892Y00031800D01*
G37*
G36*
X00023907Y00031792D02*
G01*
X00023914Y00031793D01*
X00023921Y00031796D01*
X00023926Y00031802D01*
X00023929Y00031808D01*
X00023931Y00031816D01*
X00023929Y00031824D01*
X00023926Y00031830D01*
X00023921Y00031835D01*
X00023906Y00031843D01*
X00023899Y00031847D01*
X00023892Y00031848D01*
X00023885Y00031847D01*
X00023878Y00031843D01*
X00023873Y00031838D01*
X00023870Y00031831D01*
X00023868Y00031824D01*
X00023870Y00031817D01*
X00023873Y00031810D01*
X00023878Y00031804D01*
X00023893Y00031796D01*
X00023900Y00031793D01*
X00023907Y00031792D01*
G37*
G36*
X00023923Y00031788D02*
G01*
X00023931Y00031788D01*
X00023937Y00031792D01*
X00023943Y00031798D01*
X00023946Y00031804D01*
X00023947Y00031812D01*
X00023946Y00031819D01*
X00023943Y00031826D01*
X00023937Y00031831D01*
X00023931Y00031833D01*
X00023914Y00031839D01*
X00023907Y00031840D01*
X00023900Y00031839D01*
X00023893Y00031835D01*
X00023887Y00031830D01*
X00023885Y00031824D01*
X00023883Y00031816D01*
X00023885Y00031808D01*
X00023887Y00031802D01*
X00023893Y00031796D01*
X00023900Y00031793D01*
X00023916Y00031788D01*
X00023923Y00031788D01*
G37*
G36*
X00023940Y00031787D02*
G01*
X00023948Y00031788D01*
X00023954Y00031791D01*
X00023960Y00031796D01*
X00023963Y00031804D01*
X00023964Y00031810D01*
X00023963Y00031818D01*
X00023960Y00031825D01*
X00023954Y00031830D01*
X00023948Y00031833D01*
X00023940Y00031835D01*
X00023923Y00031835D01*
X00023916Y00031833D01*
X00023910Y00031831D01*
X00023904Y00031826D01*
X00023901Y00031819D01*
X00023900Y00031812D01*
X00023901Y00031804D01*
X00023904Y00031798D01*
X00023910Y00031792D01*
X00023916Y00031788D01*
X00023923Y00031788D01*
X00023940Y00031787D01*
G37*
G36*
X00023940Y00031787D02*
G01*
X00023948Y00031788D01*
X00023965Y00031791D01*
X00023971Y00031795D01*
X00023976Y00031800D01*
X00023980Y00031806D01*
X00023981Y00031814D01*
X00023980Y00031821D01*
X00023976Y00031827D01*
X00023971Y00031833D01*
X00023965Y00031836D01*
X00023957Y00031837D01*
X00023950Y00031836D01*
X00023933Y00031833D01*
X00023927Y00031830D01*
X00023921Y00031825D01*
X00023918Y00031818D01*
X00023917Y00031810D01*
X00023918Y00031804D01*
X00023921Y00031796D01*
X00023927Y00031791D01*
X00023933Y00031788D01*
X00023940Y00031787D01*
G37*
G36*
X00023957Y00031790D02*
G01*
X00023965Y00031791D01*
X00023980Y00031796D01*
X00023987Y00031800D01*
X00023992Y00031806D01*
X00023996Y00031812D01*
X00023997Y00031820D01*
X00023996Y00031827D01*
X00023992Y00031833D01*
X00023987Y00031839D01*
X00023980Y00031842D01*
X00023973Y00031844D01*
X00023966Y00031842D01*
X00023950Y00031836D01*
X00023943Y00031833D01*
X00023938Y00031827D01*
X00023935Y00031821D01*
X00023934Y00031814D01*
X00023935Y00031806D01*
X00023938Y00031800D01*
X00023943Y00031795D01*
X00023950Y00031791D01*
X00023957Y00031790D01*
G37*
G36*
X00023973Y00031796D02*
G01*
X00023980Y00031796D01*
X00023987Y00031800D01*
X00024001Y00031810D01*
X00024006Y00031816D01*
X00024009Y00031822D01*
X00024011Y00031829D01*
X00024009Y00031837D01*
X00024006Y00031843D01*
X00024001Y00031849D01*
X00023994Y00031852D01*
X00023987Y00031852D01*
X00023980Y00031852D01*
X00023973Y00031849D01*
X00023959Y00031839D01*
X00023954Y00031833D01*
X00023950Y00031827D01*
X00023948Y00031820D01*
X00023950Y00031812D01*
X00023954Y00031806D01*
X00023959Y00031800D01*
X00023966Y00031796D01*
X00023973Y00031796D01*
G37*
G36*
X00023987Y00031806D02*
G01*
X00023994Y00031807D01*
X00024001Y00031810D01*
X00024006Y00031816D01*
X00024018Y00031827D01*
X00024021Y00031835D01*
X00024022Y00031842D01*
X00024021Y00031849D01*
X00024018Y00031856D01*
X00024013Y00031861D01*
X00024006Y00031864D01*
X00023999Y00031865D01*
X00023992Y00031864D01*
X00023985Y00031861D01*
X00023980Y00031856D01*
X00023968Y00031843D01*
X00023965Y00031837D01*
X00023964Y00031829D01*
X00023965Y00031822D01*
X00023968Y00031816D01*
X00023973Y00031810D01*
X00023980Y00031807D01*
X00023987Y00031806D01*
G37*
G36*
X00023999Y00031818D02*
G01*
X00024006Y00031819D01*
X00024013Y00031823D01*
X00024018Y00031827D01*
X00024027Y00031843D01*
X00024030Y00031849D01*
X00024030Y00031856D01*
X00024030Y00031864D01*
X00024027Y00031870D01*
X00024022Y00031876D01*
X00024015Y00031879D01*
X00024008Y00031880D01*
X00024000Y00031879D01*
X00023994Y00031876D01*
X00023988Y00031870D01*
X00023980Y00031856D01*
X00023976Y00031849D01*
X00023975Y00031842D01*
X00023976Y00031835D01*
X00023980Y00031827D01*
X00023985Y00031823D01*
X00023992Y00031819D01*
X00023999Y00031818D01*
G37*
G36*
X00024008Y00031833D02*
G01*
X00024015Y00031833D01*
X00024022Y00031837D01*
X00024027Y00031843D01*
X00024030Y00031849D01*
X00024036Y00031865D01*
X00024037Y00031873D01*
X00024036Y00031880D01*
X00024032Y00031886D01*
X00024027Y00031891D01*
X00024020Y00031894D01*
X00024013Y00031894D01*
X00024006Y00031894D01*
X00023999Y00031891D01*
X00023994Y00031886D01*
X00023990Y00031880D01*
X00023985Y00031864D01*
X00023984Y00031856D01*
X00023985Y00031849D01*
X00023988Y00031843D01*
X00023994Y00031837D01*
X00024000Y00031833D01*
X00024008Y00031833D01*
G37*
G36*
X00024013Y00031849D02*
G01*
X00024020Y00031850D01*
X00024027Y00031852D01*
X00024032Y00031859D01*
X00024036Y00031865D01*
X00024037Y00031873D01*
X00024039Y00031889D01*
X00024037Y00031896D01*
X00024034Y00031902D01*
X00024028Y00031908D01*
X00024022Y00031911D01*
X00024015Y00031911D01*
X00024008Y00031911D01*
X00024001Y00031908D01*
X00023996Y00031902D01*
X00023992Y00031896D01*
X00023990Y00031889D01*
X00023988Y00031873D01*
X00023990Y00031865D01*
X00023994Y00031859D01*
X00023999Y00031852D01*
X00024006Y00031850D01*
X00024013Y00031849D01*
G37*
G36*
X00007558Y00031866D02*
G01*
X00007566Y00031867D01*
X00007572Y00031870D01*
X00007577Y00031876D01*
X00007581Y00031881D01*
X00007582Y00031889D01*
X00007581Y00031896D01*
X00007577Y00031902D01*
X00007572Y00031908D01*
X00007566Y00031911D01*
X00007558Y00031911D01*
X00007551Y00031911D01*
X00007544Y00031908D01*
X00007539Y00031902D01*
X00007536Y00031896D01*
X00007534Y00031889D01*
X00007536Y00031881D01*
X00007539Y00031876D01*
X00007544Y00031870D01*
X00007551Y00031867D01*
X00007558Y00031866D01*
G37*
G36*
X00007558Y00031866D02*
G01*
X00007566Y00031867D01*
X00007572Y00031870D01*
X00007577Y00031876D01*
X00007581Y00031881D01*
X00007582Y00031889D01*
X00007580Y00031904D01*
X00007579Y00031912D01*
X00007576Y00031919D01*
X00007570Y00031924D01*
X00007563Y00031928D01*
X00007556Y00031928D01*
X00007549Y00031928D01*
X00007543Y00031924D01*
X00007537Y00031919D01*
X00007533Y00031912D01*
X00007532Y00031904D01*
X00007534Y00031889D01*
X00007536Y00031881D01*
X00007539Y00031876D01*
X00007544Y00031870D01*
X00007551Y00031867D01*
X00007558Y00031866D01*
G37*
G36*
X00007556Y00031883D02*
G01*
X00007563Y00031884D01*
X00007570Y00031887D01*
X00007576Y00031892D01*
X00007579Y00031898D01*
X00007580Y00031904D01*
X00007579Y00031912D01*
X00007573Y00031928D01*
X00007570Y00031934D01*
X00007564Y00031941D01*
X00007558Y00031944D01*
X00007551Y00031945D01*
X00007544Y00031944D01*
X00007537Y00031941D01*
X00007531Y00031934D01*
X00007528Y00031928D01*
X00007527Y00031922D01*
X00007528Y00031913D01*
X00007533Y00031898D01*
X00007537Y00031892D01*
X00007543Y00031887D01*
X00007549Y00031884D01*
X00007556Y00031883D01*
G37*
G36*
X00007551Y00031898D02*
G01*
X00007558Y00031899D01*
X00007564Y00031902D01*
X00007570Y00031908D01*
X00007573Y00031913D01*
X00007574Y00031922D01*
X00007573Y00031928D01*
X00007570Y00031934D01*
X00007560Y00031950D01*
X00007556Y00031955D01*
X00007549Y00031959D01*
X00007542Y00031960D01*
X00007534Y00031959D01*
X00007528Y00031955D01*
X00007523Y00031950D01*
X00007520Y00031943D01*
X00007519Y00031936D01*
X00007520Y00031928D01*
X00007523Y00031922D01*
X00007531Y00031908D01*
X00007537Y00031902D01*
X00007544Y00031899D01*
X00007551Y00031898D01*
G37*
G36*
X00007542Y00031912D02*
G01*
X00007549Y00031913D01*
X00007556Y00031916D01*
X00007560Y00031922D01*
X00007564Y00031928D01*
X00007566Y00031936D01*
X00007564Y00031943D01*
X00007560Y00031950D01*
X00007550Y00031962D01*
X00007544Y00031968D01*
X00007538Y00031971D01*
X00007530Y00031972D01*
X00007523Y00031971D01*
X00007517Y00031968D01*
X00007511Y00031962D01*
X00007508Y00031956D01*
X00007507Y00031949D01*
X00007508Y00031941D01*
X00007511Y00031934D01*
X00007523Y00031922D01*
X00007528Y00031916D01*
X00007534Y00031913D01*
X00007542Y00031912D01*
G37*
G36*
X00007530Y00031924D02*
G01*
X00007538Y00031926D01*
X00007544Y00031928D01*
X00007550Y00031934D01*
X00007553Y00031941D01*
X00007554Y00031949D01*
X00007553Y00031956D01*
X00007550Y00031962D01*
X00007544Y00031968D01*
X00007530Y00031977D01*
X00007524Y00031981D01*
X00007516Y00031982D01*
X00007509Y00031981D01*
X00007501Y00031977D01*
X00007497Y00031972D01*
X00007494Y00031965D01*
X00007493Y00031958D01*
X00007494Y00031951D01*
X00007497Y00031944D01*
X00007501Y00031939D01*
X00007517Y00031928D01*
X00007523Y00031926D01*
X00007530Y00031924D01*
G37*
G36*
X00007516Y00031934D02*
G01*
X00007524Y00031936D01*
X00007530Y00031939D01*
X00007534Y00031944D01*
X00007539Y00031951D01*
X00007540Y00031958D01*
X00007539Y00031965D01*
X00007534Y00031972D01*
X00007530Y00031977D01*
X00007524Y00031981D01*
X00007508Y00031987D01*
X00007500Y00031988D01*
X00007493Y00031987D01*
X00007487Y00031983D01*
X00007481Y00031978D01*
X00007479Y00031972D01*
X00007478Y00031964D01*
X00007479Y00031957D01*
X00007481Y00031950D01*
X00007487Y00031945D01*
X00007493Y00031942D01*
X00007509Y00031936D01*
X00007516Y00031934D01*
G37*
G36*
X00007500Y00031941D02*
G01*
X00007508Y00031942D01*
X00007514Y00031945D01*
X00007520Y00031950D01*
X00007523Y00031957D01*
X00007524Y00031964D01*
X00007523Y00031972D01*
X00007520Y00031978D01*
X00007514Y00031983D01*
X00007508Y00031987D01*
X00007491Y00031990D01*
X00007483Y00031991D01*
X00007477Y00031990D01*
X00007470Y00031986D01*
X00007466Y00031981D01*
X00007462Y00031974D01*
X00007461Y00031967D01*
X00007462Y00031960D01*
X00007466Y00031953D01*
X00007470Y00031947D01*
X00007477Y00031945D01*
X00007493Y00031942D01*
X00007500Y00031941D01*
G37*
G36*
X00007468Y00031943D02*
G01*
X00007483Y00031943D01*
X00007491Y00031945D01*
X00007498Y00031947D01*
X00007502Y00031953D01*
X00007506Y00031960D01*
X00007507Y00031967D01*
X00007506Y00031974D01*
X00007502Y00031981D01*
X00007498Y00031986D01*
X00007491Y00031990D01*
X00007483Y00031991D01*
X00007468Y00031990D01*
X00007460Y00031989D01*
X00007453Y00031985D01*
X00007449Y00031980D01*
X00007445Y00031974D01*
X00007443Y00031966D01*
X00007445Y00031959D01*
X00007449Y00031951D01*
X00007453Y00031947D01*
X00007460Y00031944D01*
X00007468Y00031943D01*
G37*
G36*
X00007451Y00031938D02*
G01*
X00007459Y00031939D01*
X00007475Y00031944D01*
X00007481Y00031947D01*
X00007486Y00031951D01*
X00007489Y00031959D01*
X00007490Y00031966D01*
X00007489Y00031974D01*
X00007486Y00031980D01*
X00007481Y00031985D01*
X00007475Y00031989D01*
X00007468Y00031990D01*
X00007460Y00031989D01*
X00007443Y00031984D01*
X00007437Y00031981D01*
X00007432Y00031976D01*
X00007429Y00031969D01*
X00007428Y00031962D01*
X00007429Y00031953D01*
X00007432Y00031947D01*
X00007437Y00031943D01*
X00007443Y00031939D01*
X00007451Y00031938D01*
G37*
G36*
X00007436Y00031930D02*
G01*
X00007443Y00031931D01*
X00007450Y00031934D01*
X00007465Y00031943D01*
X00007469Y00031947D01*
X00007473Y00031953D01*
X00007475Y00031962D01*
X00007473Y00031969D01*
X00007469Y00031976D01*
X00007465Y00031981D01*
X00007459Y00031984D01*
X00007451Y00031985D01*
X00007443Y00031984D01*
X00007437Y00031981D01*
X00007422Y00031972D01*
X00007417Y00031968D01*
X00007413Y00031961D01*
X00007412Y00031953D01*
X00007413Y00031946D01*
X00007417Y00031940D01*
X00007422Y00031934D01*
X00007429Y00031931D01*
X00007436Y00031930D01*
G37*
G36*
X00007423Y00031919D02*
G01*
X00007431Y00031920D01*
X00007437Y00031924D01*
X00007450Y00031934D01*
X00007455Y00031940D01*
X00007459Y00031946D01*
X00007460Y00031953D01*
X00007459Y00031961D01*
X00007455Y00031968D01*
X00007450Y00031972D01*
X00007443Y00031976D01*
X00007436Y00031977D01*
X00007429Y00031976D01*
X00007422Y00031972D01*
X00007408Y00031962D01*
X00007403Y00031957D01*
X00007401Y00031950D01*
X00007400Y00031943D01*
X00007401Y00031934D01*
X00007403Y00031928D01*
X00007408Y00031924D01*
X00007416Y00031920D01*
X00007423Y00031919D01*
G37*
G36*
X00007412Y00031904D02*
G01*
X00007420Y00031907D01*
X00007427Y00031910D01*
X00007432Y00031915D01*
X00007441Y00031928D01*
X00007446Y00031934D01*
X00007447Y00031943D01*
X00007446Y00031950D01*
X00007441Y00031957D01*
X00007437Y00031962D01*
X00007431Y00031965D01*
X00007423Y00031966D01*
X00007416Y00031965D01*
X00007408Y00031962D01*
X00007403Y00031957D01*
X00007393Y00031943D01*
X00007391Y00031936D01*
X00007389Y00031928D01*
X00007391Y00031922D01*
X00007393Y00031915D01*
X00007399Y00031910D01*
X00007406Y00031907D01*
X00007412Y00031904D01*
G37*
G36*
X00007406Y00031890D02*
G01*
X00007412Y00031891D01*
X00007420Y00031894D01*
X00007425Y00031900D01*
X00007428Y00031906D01*
X00007436Y00031922D01*
X00007437Y00031928D01*
X00007436Y00031936D01*
X00007432Y00031943D01*
X00007427Y00031947D01*
X00007420Y00031951D01*
X00007412Y00031953D01*
X00007406Y00031951D01*
X00007399Y00031947D01*
X00007393Y00031943D01*
X00007391Y00031936D01*
X00007382Y00031920D01*
X00007381Y00031913D01*
X00007382Y00031906D01*
X00007387Y00031900D01*
X00007392Y00031894D01*
X00007399Y00031891D01*
X00007406Y00031890D01*
G37*
G36*
X00007402Y00031873D02*
G01*
X00007409Y00031876D01*
X00007416Y00031879D01*
X00007421Y00031884D01*
X00007425Y00031890D01*
X00007428Y00031906D01*
X00007430Y00031913D01*
X00007428Y00031920D01*
X00007425Y00031928D01*
X00007420Y00031932D01*
X00007412Y00031936D01*
X00007406Y00031937D01*
X00007399Y00031936D01*
X00007392Y00031932D01*
X00007387Y00031928D01*
X00007382Y00031920D01*
X00007379Y00031904D01*
X00007378Y00031897D01*
X00007379Y00031890D01*
X00007382Y00031884D01*
X00007388Y00031879D01*
X00007395Y00031876D01*
X00007402Y00031873D01*
G37*
G36*
X00007402Y00031857D02*
G01*
X00007409Y00031859D01*
X00007416Y00031862D01*
X00007421Y00031867D01*
X00007425Y00031873D01*
X00007426Y00031881D01*
X00007426Y00031897D01*
X00007425Y00031904D01*
X00007421Y00031911D01*
X00007416Y00031916D01*
X00007409Y00031919D01*
X00007402Y00031920D01*
X00007395Y00031919D01*
X00007388Y00031916D01*
X00007382Y00031911D01*
X00007379Y00031904D01*
X00007378Y00031897D01*
X00007378Y00031881D01*
X00007379Y00031873D01*
X00007382Y00031867D01*
X00007388Y00031862D01*
X00007395Y00031859D01*
X00007402Y00031857D01*
G37*
G36*
X00007406Y00031841D02*
G01*
X00007412Y00031842D01*
X00007420Y00031845D01*
X00007425Y00031850D01*
X00007428Y00031857D01*
X00007430Y00031864D01*
X00007428Y00031871D01*
X00007425Y00031888D01*
X00007421Y00031894D01*
X00007416Y00031899D01*
X00007409Y00031902D01*
X00007402Y00031904D01*
X00007395Y00031902D01*
X00007388Y00031899D01*
X00007382Y00031894D01*
X00007379Y00031888D01*
X00007378Y00031881D01*
X00007379Y00031873D01*
X00007382Y00031857D01*
X00007387Y00031850D01*
X00007392Y00031845D01*
X00007399Y00031842D01*
X00007406Y00031841D01*
G37*
G36*
X00007412Y00031825D02*
G01*
X00007420Y00031826D01*
X00007427Y00031830D01*
X00007432Y00031835D01*
X00007436Y00031842D01*
X00007437Y00031849D01*
X00007436Y00031856D01*
X00007428Y00031871D01*
X00007425Y00031877D01*
X00007420Y00031883D01*
X00007412Y00031887D01*
X00007406Y00031888D01*
X00007399Y00031887D01*
X00007392Y00031883D01*
X00007387Y00031877D01*
X00007382Y00031871D01*
X00007381Y00031864D01*
X00007382Y00031857D01*
X00007391Y00031842D01*
X00007393Y00031835D01*
X00007399Y00031830D01*
X00007406Y00031826D01*
X00007412Y00031825D01*
G37*
G36*
X00007423Y00031812D02*
G01*
X00007431Y00031812D01*
X00007437Y00031816D01*
X00007441Y00031821D01*
X00007446Y00031827D01*
X00007447Y00031835D01*
X00007446Y00031843D01*
X00007441Y00031849D01*
X00007432Y00031863D01*
X00007427Y00031868D01*
X00007420Y00031871D01*
X00007412Y00031873D01*
X00007406Y00031871D01*
X00007399Y00031868D01*
X00007393Y00031863D01*
X00007391Y00031856D01*
X00007389Y00031849D01*
X00007391Y00031842D01*
X00007393Y00031835D01*
X00007403Y00031821D01*
X00007408Y00031816D01*
X00007416Y00031812D01*
X00007423Y00031812D01*
G37*
G36*
X00007436Y00031800D02*
G01*
X00007443Y00031802D01*
X00007450Y00031804D01*
X00007455Y00031810D01*
X00007459Y00031817D01*
X00007460Y00031824D01*
X00007459Y00031831D01*
X00007455Y00031838D01*
X00007450Y00031843D01*
X00007437Y00031854D01*
X00007431Y00031858D01*
X00007423Y00031859D01*
X00007416Y00031858D01*
X00007408Y00031854D01*
X00007403Y00031849D01*
X00007401Y00031843D01*
X00007400Y00031835D01*
X00007401Y00031827D01*
X00007403Y00031821D01*
X00007408Y00031816D01*
X00007422Y00031804D01*
X00007429Y00031802D01*
X00007436Y00031800D01*
G37*
G36*
X00007451Y00031792D02*
G01*
X00007459Y00031793D01*
X00007465Y00031796D01*
X00007469Y00031802D01*
X00007473Y00031808D01*
X00007475Y00031816D01*
X00007473Y00031824D01*
X00007469Y00031830D01*
X00007465Y00031835D01*
X00007450Y00031843D01*
X00007443Y00031847D01*
X00007436Y00031848D01*
X00007429Y00031847D01*
X00007422Y00031843D01*
X00007417Y00031838D01*
X00007413Y00031831D01*
X00007412Y00031824D01*
X00007413Y00031817D01*
X00007417Y00031810D01*
X00007422Y00031804D01*
X00007437Y00031796D01*
X00007443Y00031793D01*
X00007451Y00031792D01*
G37*
G36*
X00007468Y00031788D02*
G01*
X00007475Y00031788D01*
X00007481Y00031792D01*
X00007486Y00031798D01*
X00007489Y00031804D01*
X00007490Y00031812D01*
X00007489Y00031819D01*
X00007486Y00031826D01*
X00007481Y00031831D01*
X00007475Y00031833D01*
X00007459Y00031839D01*
X00007451Y00031840D01*
X00007443Y00031839D01*
X00007437Y00031835D01*
X00007432Y00031830D01*
X00007429Y00031824D01*
X00007428Y00031816D01*
X00007429Y00031808D01*
X00007432Y00031802D01*
X00007437Y00031796D01*
X00007443Y00031793D01*
X00007460Y00031788D01*
X00007468Y00031788D01*
G37*
G36*
X00007483Y00031787D02*
G01*
X00007491Y00031788D01*
X00007498Y00031791D01*
X00007502Y00031796D01*
X00007506Y00031804D01*
X00007507Y00031810D01*
X00007506Y00031818D01*
X00007502Y00031825D01*
X00007498Y00031830D01*
X00007491Y00031833D01*
X00007483Y00031835D01*
X00007468Y00031835D01*
X00007460Y00031833D01*
X00007453Y00031831D01*
X00007449Y00031826D01*
X00007445Y00031819D01*
X00007443Y00031812D01*
X00007445Y00031804D01*
X00007449Y00031798D01*
X00007453Y00031792D01*
X00007460Y00031788D01*
X00007468Y00031788D01*
X00007483Y00031787D01*
G37*
G36*
X00007483Y00031787D02*
G01*
X00007491Y00031788D01*
X00007508Y00031791D01*
X00007514Y00031795D01*
X00007520Y00031800D01*
X00007523Y00031806D01*
X00007524Y00031814D01*
X00007523Y00031821D01*
X00007520Y00031827D01*
X00007514Y00031833D01*
X00007508Y00031836D01*
X00007500Y00031837D01*
X00007493Y00031836D01*
X00007477Y00031833D01*
X00007470Y00031830D01*
X00007466Y00031825D01*
X00007462Y00031818D01*
X00007461Y00031810D01*
X00007462Y00031804D01*
X00007466Y00031796D01*
X00007470Y00031791D01*
X00007477Y00031788D01*
X00007483Y00031787D01*
G37*
G36*
X00007500Y00031790D02*
G01*
X00007508Y00031791D01*
X00007524Y00031796D01*
X00007530Y00031800D01*
X00007534Y00031806D01*
X00007539Y00031812D01*
X00007540Y00031820D01*
X00007539Y00031827D01*
X00007534Y00031833D01*
X00007530Y00031839D01*
X00007524Y00031842D01*
X00007516Y00031844D01*
X00007509Y00031842D01*
X00007493Y00031836D01*
X00007487Y00031833D01*
X00007481Y00031827D01*
X00007479Y00031821D01*
X00007478Y00031814D01*
X00007479Y00031806D01*
X00007481Y00031800D01*
X00007487Y00031795D01*
X00007493Y00031791D01*
X00007500Y00031790D01*
G37*
G36*
X00007516Y00031796D02*
G01*
X00007524Y00031796D01*
X00007530Y00031800D01*
X00007544Y00031810D01*
X00007550Y00031816D01*
X00007553Y00031822D01*
X00007554Y00031829D01*
X00007553Y00031837D01*
X00007550Y00031843D01*
X00007544Y00031849D01*
X00007538Y00031852D01*
X00007530Y00031852D01*
X00007523Y00031852D01*
X00007517Y00031849D01*
X00007501Y00031839D01*
X00007497Y00031833D01*
X00007494Y00031827D01*
X00007493Y00031820D01*
X00007494Y00031812D01*
X00007497Y00031806D01*
X00007501Y00031800D01*
X00007509Y00031796D01*
X00007516Y00031796D01*
G37*
G36*
X00007530Y00031806D02*
G01*
X00007538Y00031807D01*
X00007544Y00031810D01*
X00007550Y00031816D01*
X00007560Y00031827D01*
X00007564Y00031835D01*
X00007566Y00031842D01*
X00007564Y00031849D01*
X00007560Y00031856D01*
X00007556Y00031861D01*
X00007549Y00031864D01*
X00007542Y00031865D01*
X00007534Y00031864D01*
X00007528Y00031861D01*
X00007523Y00031856D01*
X00007511Y00031843D01*
X00007508Y00031837D01*
X00007507Y00031829D01*
X00007508Y00031822D01*
X00007511Y00031816D01*
X00007517Y00031810D01*
X00007523Y00031807D01*
X00007530Y00031806D01*
G37*
G36*
X00007542Y00031818D02*
G01*
X00007549Y00031819D01*
X00007556Y00031823D01*
X00007560Y00031827D01*
X00007570Y00031843D01*
X00007573Y00031849D01*
X00007574Y00031856D01*
X00007573Y00031864D01*
X00007570Y00031870D01*
X00007564Y00031876D01*
X00007558Y00031879D01*
X00007551Y00031880D01*
X00007544Y00031879D01*
X00007537Y00031876D01*
X00007531Y00031870D01*
X00007523Y00031856D01*
X00007520Y00031849D01*
X00007519Y00031842D01*
X00007520Y00031835D01*
X00007523Y00031827D01*
X00007528Y00031823D01*
X00007534Y00031819D01*
X00007542Y00031818D01*
G37*
G36*
X00007551Y00031833D02*
G01*
X00007558Y00031833D01*
X00007564Y00031837D01*
X00007570Y00031843D01*
X00007573Y00031849D01*
X00007579Y00031865D01*
X00007580Y00031873D01*
X00007579Y00031880D01*
X00007576Y00031886D01*
X00007570Y00031891D01*
X00007563Y00031894D01*
X00007556Y00031894D01*
X00007549Y00031894D01*
X00007543Y00031891D01*
X00007537Y00031886D01*
X00007533Y00031880D01*
X00007528Y00031864D01*
X00007527Y00031856D01*
X00007528Y00031849D01*
X00007531Y00031843D01*
X00007537Y00031837D01*
X00007544Y00031833D01*
X00007551Y00031833D01*
G37*
G36*
X00007556Y00031849D02*
G01*
X00007563Y00031850D01*
X00007570Y00031852D01*
X00007576Y00031859D01*
X00007579Y00031865D01*
X00007580Y00031873D01*
X00007582Y00031889D01*
X00007581Y00031896D01*
X00007577Y00031902D01*
X00007572Y00031908D01*
X00007566Y00031911D01*
X00007558Y00031911D01*
X00007551Y00031911D01*
X00007544Y00031908D01*
X00007539Y00031902D01*
X00007536Y00031896D01*
X00007534Y00031889D01*
X00007532Y00031873D01*
X00007533Y00031865D01*
X00007537Y00031859D01*
X00007543Y00031852D01*
X00007549Y00031850D01*
X00007556Y00031849D01*
G37*
G36*
X00007480Y00031944D02*
G01*
X00007487Y00031945D01*
X00007493Y00031947D01*
X00007499Y00031953D01*
X00007501Y00031960D01*
X00007502Y00031967D01*
X00007502Y00034251D01*
X00007457Y00034251D01*
X00007457Y00031967D01*
X00007458Y00031960D01*
X00007461Y00031953D01*
X00007467Y00031947D01*
X00007472Y00031945D01*
X00007480Y00031944D01*
G37*
G36*
X00007402Y00031866D02*
G01*
X00007408Y00031867D01*
X00007416Y00031870D01*
X00007421Y00031876D01*
X00007423Y00031881D01*
X00007425Y00031889D01*
X00007423Y00031896D01*
X00007421Y00031902D01*
X00007416Y00031908D01*
X00007408Y00031911D01*
X00007402Y00031911D01*
X00005118Y00031911D01*
X00005118Y00031866D01*
X00007402Y00031866D01*
G37*
G36*
X00007193Y00025767D02*
G01*
X00007199Y00025769D01*
X00007207Y00025771D01*
X00007211Y00025777D01*
X00007216Y00025783D01*
X00007217Y00025790D01*
X00007216Y00025798D01*
X00007211Y00025804D01*
X00007207Y00025810D01*
X00007199Y00025814D01*
X00007193Y00025815D01*
X00005145Y00025815D01*
X00005139Y00025814D01*
X00005132Y00025810D01*
X00005127Y00025804D01*
X00005123Y00025798D01*
X00005122Y00025790D01*
X00005123Y00025783D01*
X00005127Y00025777D01*
X00005132Y00025771D01*
X00005139Y00025769D01*
X00005145Y00025767D01*
X00007193Y00025767D01*
G37*
G36*
X00005145Y00025767D02*
G01*
X00005153Y00025769D01*
X00005160Y00025771D01*
X00005165Y00025777D01*
X00005168Y00025783D01*
X00005169Y00025790D01*
X00005169Y00029815D01*
X00005168Y00029822D01*
X00005165Y00029829D01*
X00005160Y00029834D01*
X00005153Y00029836D01*
X00005145Y00029838D01*
X00005139Y00029836D01*
X00005132Y00029834D01*
X00005127Y00029829D01*
X00005123Y00029822D01*
X00005122Y00029815D01*
X00005122Y00025790D01*
X00005123Y00025783D01*
X00005127Y00025777D01*
X00005132Y00025771D01*
X00005139Y00025769D01*
X00005145Y00025767D01*
G37*
G36*
X00007193Y00025767D02*
G01*
X00007199Y00025769D01*
X00007207Y00025771D01*
X00007211Y00025777D01*
X00007216Y00025783D01*
X00007217Y00025790D01*
X00007217Y00030838D01*
X00007216Y00030846D01*
X00007211Y00030851D01*
X00007207Y00030857D01*
X00007199Y00030861D01*
X00007193Y00030862D01*
X00007186Y00030861D01*
X00007179Y00030857D01*
X00007174Y00030851D01*
X00007170Y00030846D01*
X00007168Y00030838D01*
X00007168Y00025790D01*
X00007170Y00025783D01*
X00007174Y00025777D01*
X00007179Y00025771D01*
X00007186Y00025769D01*
X00007193Y00025767D01*
G37*
G36*
X00006169Y00029791D02*
G01*
X00006177Y00029792D01*
X00006183Y00029796D01*
X00006189Y00029801D01*
X00006192Y00029807D01*
X00006193Y00029815D01*
X00006192Y00029822D01*
X00006189Y00029829D01*
X00006183Y00029834D01*
X00006177Y00029836D01*
X00006169Y00029838D01*
X00005145Y00029838D01*
X00005139Y00029836D01*
X00005132Y00029834D01*
X00005127Y00029829D01*
X00005123Y00029822D01*
X00005122Y00029815D01*
X00005123Y00029807D01*
X00005127Y00029801D01*
X00005132Y00029796D01*
X00005139Y00029792D01*
X00005145Y00029791D01*
X00006169Y00029791D01*
G37*
G36*
X00006169Y00029791D02*
G01*
X00006177Y00029792D01*
X00006183Y00029796D01*
X00006189Y00029801D01*
X00006192Y00029807D01*
X00006193Y00029815D01*
X00006193Y00030838D01*
X00006192Y00030846D01*
X00006189Y00030851D01*
X00006183Y00030857D01*
X00006177Y00030861D01*
X00006169Y00030862D01*
X00006162Y00030861D01*
X00006156Y00030857D01*
X00006150Y00030851D01*
X00006147Y00030846D01*
X00006146Y00030838D01*
X00006146Y00029815D01*
X00006147Y00029807D01*
X00006150Y00029801D01*
X00006156Y00029796D01*
X00006162Y00029792D01*
X00006169Y00029791D01*
G37*
G36*
X00007193Y00030815D02*
G01*
X00007199Y00030816D01*
X00007207Y00030819D01*
X00007211Y00030823D01*
X00007216Y00030831D01*
X00007217Y00030838D01*
X00007216Y00030846D01*
X00007211Y00030851D01*
X00007207Y00030857D01*
X00007199Y00030861D01*
X00007193Y00030862D01*
X00006169Y00030862D01*
X00006162Y00030861D01*
X00006156Y00030857D01*
X00006150Y00030851D01*
X00006147Y00030846D01*
X00006146Y00030838D01*
X00006147Y00030831D01*
X00006150Y00030823D01*
X00006156Y00030819D01*
X00006162Y00030816D01*
X00006169Y00030815D01*
X00007193Y00030815D01*
G37*
G36*
X00005145Y00030291D02*
G01*
X00005153Y00030292D01*
X00005160Y00030296D01*
X00005165Y00030301D01*
X00005168Y00030307D01*
X00005169Y00030315D01*
X00005169Y00030838D01*
X00005168Y00030846D01*
X00005165Y00030851D01*
X00005160Y00030857D01*
X00005153Y00030861D01*
X00005145Y00030862D01*
X00005139Y00030861D01*
X00005132Y00030857D01*
X00005127Y00030851D01*
X00005123Y00030846D01*
X00005122Y00030838D01*
X00005122Y00030315D01*
X00005123Y00030307D01*
X00005127Y00030301D01*
X00005132Y00030296D01*
X00005139Y00030292D01*
X00005145Y00030291D01*
G37*
G36*
X00005669Y00030815D02*
G01*
X00005677Y00030816D01*
X00005683Y00030819D01*
X00005689Y00030823D01*
X00005692Y00030831D01*
X00005693Y00030838D01*
X00005692Y00030846D01*
X00005689Y00030851D01*
X00005683Y00030857D01*
X00005677Y00030861D01*
X00005669Y00030862D01*
X00005145Y00030862D01*
X00005139Y00030861D01*
X00005132Y00030857D01*
X00005127Y00030851D01*
X00005123Y00030846D01*
X00005122Y00030838D01*
X00005123Y00030831D01*
X00005127Y00030823D01*
X00005132Y00030819D01*
X00005139Y00030816D01*
X00005145Y00030815D01*
X00005669Y00030815D01*
G37*
G36*
X00005669Y00024201D02*
G01*
X00005677Y00024202D01*
X00005683Y00024205D01*
X00005689Y00024210D01*
X00005692Y00024217D01*
X00005693Y00024224D01*
X00005692Y00024230D01*
X00005689Y00024238D01*
X00005683Y00024243D01*
X00005677Y00024247D01*
X00005669Y00024248D01*
X00005145Y00024248D01*
X00005139Y00024247D01*
X00005132Y00024243D01*
X00005127Y00024238D01*
X00005123Y00024230D01*
X00005122Y00024224D01*
X00005123Y00024217D01*
X00005127Y00024210D01*
X00005132Y00024205D01*
X00005139Y00024202D01*
X00005145Y00024201D01*
X00005669Y00024201D01*
G37*
G36*
X00005145Y00023677D02*
G01*
X00005153Y00023678D01*
X00005160Y00023681D01*
X00005165Y00023687D01*
X00005168Y00023693D01*
X00005169Y00023701D01*
X00005169Y00024224D01*
X00005168Y00024230D01*
X00005165Y00024238D01*
X00005160Y00024243D01*
X00005153Y00024247D01*
X00005145Y00024248D01*
X00005139Y00024247D01*
X00005132Y00024243D01*
X00005127Y00024238D01*
X00005123Y00024230D01*
X00005122Y00024224D01*
X00005122Y00023701D01*
X00005123Y00023693D01*
X00005127Y00023687D01*
X00005132Y00023681D01*
X00005139Y00023678D01*
X00005145Y00023677D01*
G37*
G36*
X00007193Y00024201D02*
G01*
X00007199Y00024202D01*
X00007207Y00024205D01*
X00007211Y00024210D01*
X00007216Y00024217D01*
X00007217Y00024224D01*
X00007216Y00024230D01*
X00007211Y00024238D01*
X00007207Y00024243D01*
X00007199Y00024247D01*
X00007193Y00024248D01*
X00006169Y00024248D01*
X00006162Y00024247D01*
X00006156Y00024243D01*
X00006150Y00024238D01*
X00006147Y00024230D01*
X00006146Y00024224D01*
X00006147Y00024217D01*
X00006150Y00024210D01*
X00006156Y00024205D01*
X00006162Y00024202D01*
X00006169Y00024201D01*
X00007193Y00024201D01*
G37*
G36*
X00006169Y00023177D02*
G01*
X00006177Y00023178D01*
X00006183Y00023181D01*
X00006189Y00023187D01*
X00006192Y00023193D01*
X00006193Y00023201D01*
X00006193Y00024224D01*
X00006192Y00024230D01*
X00006189Y00024238D01*
X00006183Y00024243D01*
X00006177Y00024247D01*
X00006169Y00024248D01*
X00006162Y00024247D01*
X00006156Y00024243D01*
X00006150Y00024238D01*
X00006147Y00024230D01*
X00006146Y00024224D01*
X00006146Y00023201D01*
X00006147Y00023193D01*
X00006150Y00023187D01*
X00006156Y00023181D01*
X00006162Y00023178D01*
X00006169Y00023177D01*
G37*
G36*
X00006169Y00023177D02*
G01*
X00006177Y00023178D01*
X00006183Y00023181D01*
X00006189Y00023187D01*
X00006192Y00023193D01*
X00006193Y00023201D01*
X00006192Y00023208D01*
X00006189Y00023214D01*
X00006183Y00023220D01*
X00006177Y00023222D01*
X00006169Y00023224D01*
X00005145Y00023224D01*
X00005139Y00023222D01*
X00005132Y00023220D01*
X00005127Y00023214D01*
X00005123Y00023208D01*
X00005122Y00023201D01*
X00005123Y00023193D01*
X00005127Y00023187D01*
X00005132Y00023181D01*
X00005139Y00023178D01*
X00005145Y00023177D01*
X00006169Y00023177D01*
G37*
G36*
X00007193Y00019152D02*
G01*
X00007199Y00019154D01*
X00007207Y00019158D01*
X00007211Y00019162D01*
X00007216Y00019170D01*
X00007217Y00019177D01*
X00007217Y00024224D01*
X00007216Y00024230D01*
X00007211Y00024238D01*
X00007207Y00024243D01*
X00007199Y00024247D01*
X00007193Y00024248D01*
X00007186Y00024247D01*
X00007179Y00024243D01*
X00007174Y00024238D01*
X00007170Y00024230D01*
X00007168Y00024224D01*
X00007168Y00019177D01*
X00007170Y00019170D01*
X00007174Y00019162D01*
X00007179Y00019158D01*
X00007186Y00019154D01*
X00007193Y00019152D01*
G37*
G36*
X00005145Y00019152D02*
G01*
X00005153Y00019154D01*
X00005160Y00019158D01*
X00005165Y00019162D01*
X00005168Y00019170D01*
X00005169Y00019177D01*
X00005169Y00023201D01*
X00005168Y00023208D01*
X00005165Y00023214D01*
X00005160Y00023220D01*
X00005153Y00023222D01*
X00005145Y00023224D01*
X00005139Y00023222D01*
X00005132Y00023220D01*
X00005127Y00023214D01*
X00005123Y00023208D01*
X00005122Y00023201D01*
X00005122Y00019177D01*
X00005123Y00019170D01*
X00005127Y00019162D01*
X00005132Y00019158D01*
X00005139Y00019154D01*
X00005145Y00019152D01*
G37*
G36*
X00007193Y00019152D02*
G01*
X00007199Y00019154D01*
X00007207Y00019158D01*
X00007211Y00019162D01*
X00007216Y00019170D01*
X00007217Y00019177D01*
X00007216Y00019184D01*
X00007211Y00019191D01*
X00007207Y00019196D01*
X00007199Y00019199D01*
X00007193Y00019201D01*
X00005145Y00019201D01*
X00005139Y00019199D01*
X00005132Y00019196D01*
X00005127Y00019191D01*
X00005123Y00019184D01*
X00005122Y00019177D01*
X00005123Y00019170D01*
X00005127Y00019162D01*
X00005132Y00019158D01*
X00005139Y00019154D01*
X00005145Y00019152D01*
X00007193Y00019152D01*
G37*
G04 next file*
G36*
X00012676Y00019661D02*
G01*
X00012684Y00019662D01*
X00012689Y00019666D01*
X00012695Y00019671D01*
X00012699Y00019678D01*
X00012699Y00019685D01*
X00012699Y00019692D01*
X00012695Y00019698D01*
X00012689Y00019704D01*
X00012684Y00019706D01*
X00012676Y00019709D01*
X00012669Y00019706D01*
X00012662Y00019704D01*
X00012657Y00019698D01*
X00012654Y00019692D01*
X00012653Y00019685D01*
X00012654Y00019678D01*
X00012657Y00019671D01*
X00012662Y00019666D01*
X00012669Y00019662D01*
X00012676Y00019661D01*
G37*
G36*
X00012676Y00019661D02*
G01*
X00012684Y00019662D01*
X00012689Y00019666D01*
X00012695Y00019671D01*
X00012699Y00019678D01*
X00012699Y00019685D01*
X00012697Y00019702D01*
X00012697Y00019709D01*
X00012693Y00019716D01*
X00012688Y00019721D01*
X00012682Y00019724D01*
X00012674Y00019725D01*
X00012667Y00019724D01*
X00012661Y00019721D01*
X00012655Y00019716D01*
X00012652Y00019709D01*
X00012650Y00019702D01*
X00012653Y00019685D01*
X00012654Y00019678D01*
X00012657Y00019671D01*
X00012662Y00019666D01*
X00012669Y00019662D01*
X00012676Y00019661D01*
G37*
G36*
X00012674Y00019678D02*
G01*
X00012682Y00019679D01*
X00012688Y00019683D01*
X00012693Y00019688D01*
X00012697Y00019695D01*
X00012697Y00019702D01*
X00012697Y00019709D01*
X00012690Y00019725D01*
X00012688Y00019732D01*
X00012683Y00019737D01*
X00012676Y00019740D01*
X00012669Y00019742D01*
X00012662Y00019740D01*
X00012655Y00019737D01*
X00012649Y00019732D01*
X00012646Y00019725D01*
X00012645Y00019718D01*
X00012646Y00019711D01*
X00012652Y00019695D01*
X00012655Y00019688D01*
X00012661Y00019683D01*
X00012667Y00019679D01*
X00012674Y00019678D01*
G37*
G36*
X00012669Y00019694D02*
G01*
X00012676Y00019695D01*
X00012683Y00019698D01*
X00012688Y00019704D01*
X00012690Y00019711D01*
X00012693Y00019718D01*
X00012690Y00019725D01*
X00012688Y00019732D01*
X00012679Y00019746D01*
X00012674Y00019752D01*
X00012667Y00019755D01*
X00012660Y00019756D01*
X00012653Y00019755D01*
X00012646Y00019752D01*
X00012641Y00019746D01*
X00012637Y00019740D01*
X00012637Y00019733D01*
X00012637Y00019725D01*
X00012641Y00019719D01*
X00012649Y00019704D01*
X00012655Y00019698D01*
X00012662Y00019695D01*
X00012669Y00019694D01*
G37*
G36*
X00012660Y00019709D02*
G01*
X00012667Y00019710D01*
X00012674Y00019713D01*
X00012679Y00019719D01*
X00012683Y00019725D01*
X00012684Y00019733D01*
X00012683Y00019740D01*
X00012679Y00019746D01*
X00012668Y00019758D01*
X00012662Y00019764D01*
X00012656Y00019766D01*
X00012648Y00019769D01*
X00012641Y00019766D01*
X00012635Y00019764D01*
X00012629Y00019758D01*
X00012626Y00019752D01*
X00012625Y00019745D01*
X00012626Y00019738D01*
X00012629Y00019731D01*
X00012641Y00019719D01*
X00012646Y00019713D01*
X00012653Y00019710D01*
X00012660Y00019709D01*
G37*
G36*
X00012648Y00019721D02*
G01*
X00012656Y00019722D01*
X00012662Y00019726D01*
X00012668Y00019731D01*
X00012671Y00019738D01*
X00012672Y00019745D01*
X00012671Y00019752D01*
X00012668Y00019758D01*
X00012662Y00019764D01*
X00012648Y00019774D01*
X00012641Y00019777D01*
X00012633Y00019778D01*
X00012627Y00019777D01*
X00012620Y00019774D01*
X00012615Y00019768D01*
X00012612Y00019762D01*
X00012611Y00019754D01*
X00012612Y00019747D01*
X00012615Y00019741D01*
X00012620Y00019735D01*
X00012635Y00019726D01*
X00012641Y00019722D01*
X00012648Y00019721D01*
G37*
G36*
X00012633Y00019731D02*
G01*
X00012641Y00019732D01*
X00012648Y00019735D01*
X00012653Y00019741D01*
X00012657Y00019747D01*
X00012658Y00019754D01*
X00012657Y00019762D01*
X00012653Y00019768D01*
X00012648Y00019774D01*
X00012641Y00019777D01*
X00012626Y00019783D01*
X00012619Y00019784D01*
X00012611Y00019783D01*
X00012605Y00019780D01*
X00012599Y00019775D01*
X00012597Y00019768D01*
X00012596Y00019760D01*
X00012597Y00019753D01*
X00012599Y00019747D01*
X00012605Y00019742D01*
X00012611Y00019738D01*
X00012627Y00019732D01*
X00012633Y00019731D01*
G37*
G36*
X00012619Y00019737D02*
G01*
X00012626Y00019738D01*
X00012631Y00019742D01*
X00012637Y00019747D01*
X00012641Y00019753D01*
X00012641Y00019760D01*
X00012641Y00019768D01*
X00012637Y00019775D01*
X00012631Y00019780D01*
X00012626Y00019783D01*
X00012609Y00019786D01*
X00012602Y00019787D01*
X00012595Y00019786D01*
X00012588Y00019783D01*
X00012584Y00019777D01*
X00012580Y00019771D01*
X00012579Y00019764D01*
X00012580Y00019756D01*
X00012584Y00019750D01*
X00012588Y00019744D01*
X00012595Y00019741D01*
X00012611Y00019738D01*
X00012619Y00019737D01*
G37*
G36*
X00012586Y00019739D02*
G01*
X00012602Y00019740D01*
X00012609Y00019741D01*
X00012616Y00019744D01*
X00012621Y00019750D01*
X00012624Y00019756D01*
X00012625Y00019764D01*
X00012624Y00019771D01*
X00012621Y00019777D01*
X00012616Y00019783D01*
X00012609Y00019786D01*
X00012602Y00019787D01*
X00012586Y00019786D01*
X00012578Y00019785D01*
X00012572Y00019782D01*
X00012567Y00019776D01*
X00012563Y00019770D01*
X00012562Y00019762D01*
X00012563Y00019755D01*
X00012567Y00019749D01*
X00012572Y00019743D01*
X00012578Y00019740D01*
X00012586Y00019739D01*
G37*
G36*
X00012568Y00019734D02*
G01*
X00012577Y00019736D01*
X00012593Y00019740D01*
X00012599Y00019743D01*
X00012604Y00019749D01*
X00012607Y00019755D01*
X00012608Y00019762D01*
X00012607Y00019770D01*
X00012604Y00019776D01*
X00012599Y00019782D01*
X00012593Y00019785D01*
X00012586Y00019786D01*
X00012578Y00019785D01*
X00012562Y00019781D01*
X00012555Y00019777D01*
X00012549Y00019772D01*
X00012547Y00019764D01*
X00012546Y00019758D01*
X00012547Y00019751D01*
X00012549Y00019744D01*
X00012555Y00019739D01*
X00012562Y00019736D01*
X00012568Y00019734D01*
G37*
G36*
X00012554Y00019726D02*
G01*
X00012562Y00019728D01*
X00012568Y00019731D01*
X00012583Y00019739D01*
X00012588Y00019744D01*
X00012592Y00019751D01*
X00012593Y00019758D01*
X00012592Y00019764D01*
X00012588Y00019772D01*
X00012583Y00019777D01*
X00012577Y00019781D01*
X00012568Y00019782D01*
X00012562Y00019781D01*
X00012555Y00019777D01*
X00012540Y00019769D01*
X00012535Y00019764D01*
X00012532Y00019756D01*
X00012531Y00019750D01*
X00012532Y00019743D01*
X00012535Y00019736D01*
X00012540Y00019731D01*
X00012547Y00019728D01*
X00012554Y00019726D01*
G37*
G36*
X00012541Y00019715D02*
G01*
X00012548Y00019717D01*
X00012555Y00019720D01*
X00012568Y00019731D01*
X00012573Y00019736D01*
X00012577Y00019743D01*
X00012578Y00019750D01*
X00012577Y00019756D01*
X00012573Y00019764D01*
X00012568Y00019769D01*
X00012562Y00019773D01*
X00012554Y00019774D01*
X00012547Y00019773D01*
X00012540Y00019769D01*
X00012527Y00019758D01*
X00012522Y00019753D01*
X00012519Y00019746D01*
X00012518Y00019739D01*
X00012519Y00019732D01*
X00012522Y00019725D01*
X00012527Y00019720D01*
X00012534Y00019717D01*
X00012541Y00019715D01*
G37*
G36*
X00012531Y00019702D02*
G01*
X00012538Y00019702D01*
X00012545Y00019706D01*
X00012549Y00019712D01*
X00012560Y00019725D01*
X00012564Y00019732D01*
X00012565Y00019739D01*
X00012564Y00019746D01*
X00012560Y00019753D01*
X00012555Y00019758D01*
X00012548Y00019762D01*
X00012541Y00019762D01*
X00012534Y00019762D01*
X00012527Y00019758D01*
X00012522Y00019753D01*
X00012512Y00019739D01*
X00012508Y00019733D01*
X00012507Y00019725D01*
X00012508Y00019718D01*
X00012512Y00019712D01*
X00012517Y00019706D01*
X00012524Y00019702D01*
X00012531Y00019702D01*
G37*
G36*
X00012524Y00019686D02*
G01*
X00012531Y00019688D01*
X00012538Y00019691D01*
X00012543Y00019696D01*
X00012546Y00019702D01*
X00012554Y00019718D01*
X00012555Y00019725D01*
X00012554Y00019733D01*
X00012549Y00019739D01*
X00012545Y00019745D01*
X00012538Y00019748D01*
X00012531Y00019749D01*
X00012524Y00019748D01*
X00012517Y00019745D01*
X00012512Y00019739D01*
X00012508Y00019733D01*
X00012501Y00019717D01*
X00012500Y00019710D01*
X00012501Y00019702D01*
X00012505Y00019696D01*
X00012509Y00019691D01*
X00012517Y00019688D01*
X00012524Y00019686D01*
G37*
G36*
X00012520Y00019670D02*
G01*
X00012528Y00019671D01*
X00012534Y00019674D01*
X00012539Y00019680D01*
X00012543Y00019686D01*
X00012546Y00019702D01*
X00012548Y00019710D01*
X00012546Y00019717D01*
X00012543Y00019724D01*
X00012538Y00019729D01*
X00012531Y00019732D01*
X00012524Y00019734D01*
X00012517Y00019732D01*
X00012509Y00019729D01*
X00012505Y00019724D01*
X00012501Y00019717D01*
X00012498Y00019700D01*
X00012497Y00019693D01*
X00012498Y00019686D01*
X00012501Y00019680D01*
X00012506Y00019674D01*
X00012513Y00019671D01*
X00012520Y00019670D01*
G37*
G36*
X00012520Y00019653D02*
G01*
X00012528Y00019654D01*
X00012534Y00019657D01*
X00012539Y00019662D01*
X00012543Y00019669D01*
X00012544Y00019676D01*
X00012544Y00019693D01*
X00012543Y00019700D01*
X00012539Y00019706D01*
X00012534Y00019713D01*
X00012528Y00019716D01*
X00012520Y00019717D01*
X00012513Y00019716D01*
X00012506Y00019713D01*
X00012501Y00019706D01*
X00012498Y00019700D01*
X00012497Y00019693D01*
X00012497Y00019676D01*
X00012498Y00019669D01*
X00012501Y00019662D01*
X00012506Y00019657D01*
X00012513Y00019654D01*
X00012520Y00019653D01*
G37*
G36*
X00012524Y00019636D02*
G01*
X00012531Y00019636D01*
X00012538Y00019640D01*
X00012543Y00019646D01*
X00012546Y00019652D01*
X00012548Y00019660D01*
X00012546Y00019667D01*
X00012543Y00019684D01*
X00012539Y00019690D01*
X00012534Y00019695D01*
X00012528Y00019698D01*
X00012520Y00019700D01*
X00012513Y00019698D01*
X00012506Y00019695D01*
X00012501Y00019690D01*
X00012498Y00019684D01*
X00012497Y00019676D01*
X00012498Y00019669D01*
X00012501Y00019652D01*
X00012505Y00019646D01*
X00012509Y00019640D01*
X00012517Y00019636D01*
X00012524Y00019636D01*
G37*
G36*
X00012531Y00019621D02*
G01*
X00012538Y00019622D01*
X00012545Y00019625D01*
X00012549Y00019630D01*
X00012554Y00019636D01*
X00012555Y00019644D01*
X00012554Y00019652D01*
X00012546Y00019667D01*
X00012543Y00019674D01*
X00012538Y00019679D01*
X00012531Y00019682D01*
X00012524Y00019683D01*
X00012517Y00019682D01*
X00012509Y00019679D01*
X00012505Y00019674D01*
X00012501Y00019667D01*
X00012500Y00019660D01*
X00012501Y00019652D01*
X00012508Y00019636D01*
X00012512Y00019630D01*
X00012517Y00019625D01*
X00012524Y00019622D01*
X00012531Y00019621D01*
G37*
G36*
X00012541Y00019607D02*
G01*
X00012548Y00019608D01*
X00012555Y00019612D01*
X00012560Y00019617D01*
X00012564Y00019623D01*
X00012565Y00019631D01*
X00012564Y00019638D01*
X00012560Y00019644D01*
X00012549Y00019658D01*
X00012545Y00019663D01*
X00012538Y00019667D01*
X00012531Y00019668D01*
X00012524Y00019667D01*
X00012517Y00019663D01*
X00012512Y00019658D01*
X00012508Y00019652D01*
X00012507Y00019644D01*
X00012508Y00019636D01*
X00012512Y00019630D01*
X00012522Y00019617D01*
X00012527Y00019612D01*
X00012534Y00019608D01*
X00012541Y00019607D01*
G37*
G36*
X00012554Y00019596D02*
G01*
X00012562Y00019597D01*
X00012568Y00019601D01*
X00012573Y00019606D01*
X00012577Y00019612D01*
X00012578Y00019620D01*
X00012577Y00019627D01*
X00012573Y00019634D01*
X00012568Y00019638D01*
X00012555Y00019650D01*
X00012548Y00019653D01*
X00012541Y00019654D01*
X00012534Y00019653D01*
X00012527Y00019650D01*
X00012522Y00019644D01*
X00012519Y00019638D01*
X00012518Y00019631D01*
X00012519Y00019623D01*
X00012522Y00019617D01*
X00012527Y00019612D01*
X00012540Y00019601D01*
X00012547Y00019597D01*
X00012554Y00019596D01*
G37*
G36*
X00012568Y00019588D02*
G01*
X00012577Y00019589D01*
X00012583Y00019593D01*
X00012588Y00019598D01*
X00012592Y00019604D01*
X00012593Y00019612D01*
X00012592Y00019619D01*
X00012588Y00019626D01*
X00012583Y00019631D01*
X00012568Y00019638D01*
X00012562Y00019642D01*
X00012554Y00019642D01*
X00012547Y00019642D01*
X00012540Y00019638D01*
X00012535Y00019634D01*
X00012532Y00019627D01*
X00012531Y00019620D01*
X00012532Y00019612D01*
X00012535Y00019606D01*
X00012540Y00019601D01*
X00012555Y00019593D01*
X00012562Y00019589D01*
X00012568Y00019588D01*
G37*
G36*
X00012586Y00019584D02*
G01*
X00012593Y00019584D01*
X00012599Y00019588D01*
X00012604Y00019593D01*
X00012607Y00019600D01*
X00012608Y00019607D01*
X00012607Y00019614D01*
X00012604Y00019621D01*
X00012599Y00019626D01*
X00012593Y00019630D01*
X00012577Y00019634D01*
X00012568Y00019635D01*
X00012562Y00019634D01*
X00012555Y00019631D01*
X00012549Y00019626D01*
X00012547Y00019619D01*
X00012546Y00019612D01*
X00012547Y00019604D01*
X00012549Y00019598D01*
X00012555Y00019593D01*
X00012562Y00019589D01*
X00012578Y00019584D01*
X00012586Y00019584D01*
G37*
G36*
X00012602Y00019582D02*
G01*
X00012609Y00019584D01*
X00012616Y00019587D01*
X00012621Y00019592D01*
X00012624Y00019599D01*
X00012625Y00019606D01*
X00012624Y00019614D01*
X00012621Y00019620D01*
X00012616Y00019625D01*
X00012609Y00019629D01*
X00012602Y00019630D01*
X00012586Y00019631D01*
X00012578Y00019630D01*
X00012572Y00019626D01*
X00012567Y00019621D01*
X00012563Y00019614D01*
X00012562Y00019607D01*
X00012563Y00019600D01*
X00012567Y00019593D01*
X00012572Y00019588D01*
X00012578Y00019584D01*
X00012586Y00019584D01*
X00012602Y00019582D01*
G37*
G36*
X00012602Y00019582D02*
G01*
X00012609Y00019584D01*
X00012626Y00019587D01*
X00012631Y00019590D01*
X00012637Y00019595D01*
X00012641Y00019602D01*
X00012641Y00019609D01*
X00012641Y00019616D01*
X00012637Y00019623D01*
X00012631Y00019628D01*
X00012626Y00019631D01*
X00012619Y00019633D01*
X00012611Y00019631D01*
X00012595Y00019629D01*
X00012588Y00019625D01*
X00012584Y00019620D01*
X00012580Y00019614D01*
X00012579Y00019606D01*
X00012580Y00019599D01*
X00012584Y00019592D01*
X00012588Y00019587D01*
X00012595Y00019584D01*
X00012602Y00019582D01*
G37*
G36*
X00012619Y00019584D02*
G01*
X00012626Y00019587D01*
X00012641Y00019593D01*
X00012648Y00019596D01*
X00012653Y00019601D01*
X00012657Y00019608D01*
X00012658Y00019615D01*
X00012657Y00019623D01*
X00012653Y00019629D01*
X00012648Y00019634D01*
X00012641Y00019638D01*
X00012633Y00019638D01*
X00012627Y00019638D01*
X00012611Y00019631D01*
X00012605Y00019628D01*
X00012599Y00019623D01*
X00012597Y00019616D01*
X00012596Y00019609D01*
X00012597Y00019602D01*
X00012599Y00019595D01*
X00012605Y00019590D01*
X00012611Y00019587D01*
X00012619Y00019584D01*
G37*
G36*
X00012633Y00019592D02*
G01*
X00012641Y00019593D01*
X00012648Y00019596D01*
X00012662Y00019606D01*
X00012668Y00019611D01*
X00012671Y00019618D01*
X00012672Y00019625D01*
X00012671Y00019632D01*
X00012668Y00019638D01*
X00012662Y00019644D01*
X00012656Y00019646D01*
X00012648Y00019648D01*
X00012641Y00019646D01*
X00012635Y00019644D01*
X00012620Y00019634D01*
X00012615Y00019629D01*
X00012612Y00019623D01*
X00012611Y00019615D01*
X00012612Y00019608D01*
X00012615Y00019601D01*
X00012620Y00019596D01*
X00012627Y00019593D01*
X00012633Y00019592D01*
G37*
G36*
X00012648Y00019601D02*
G01*
X00012656Y00019602D01*
X00012662Y00019606D01*
X00012668Y00019611D01*
X00012679Y00019623D01*
X00012683Y00019630D01*
X00012684Y00019636D01*
X00012683Y00019644D01*
X00012679Y00019651D01*
X00012674Y00019656D01*
X00012667Y00019660D01*
X00012660Y00019661D01*
X00012653Y00019660D01*
X00012646Y00019656D01*
X00012641Y00019651D01*
X00012629Y00019638D01*
X00012626Y00019632D01*
X00012625Y00019625D01*
X00012626Y00019618D01*
X00012629Y00019611D01*
X00012635Y00019606D01*
X00012641Y00019602D01*
X00012648Y00019601D01*
G37*
G36*
X00012660Y00019614D02*
G01*
X00012667Y00019615D01*
X00012674Y00019618D01*
X00012679Y00019623D01*
X00012688Y00019638D01*
X00012690Y00019644D01*
X00012693Y00019652D01*
X00012690Y00019659D01*
X00012688Y00019666D01*
X00012683Y00019671D01*
X00012676Y00019674D01*
X00012669Y00019675D01*
X00012662Y00019674D01*
X00012655Y00019671D01*
X00012649Y00019666D01*
X00012641Y00019651D01*
X00012637Y00019644D01*
X00012637Y00019636D01*
X00012637Y00019630D01*
X00012641Y00019623D01*
X00012646Y00019618D01*
X00012653Y00019615D01*
X00012660Y00019614D01*
G37*
G36*
X00012669Y00019628D02*
G01*
X00012676Y00019629D01*
X00012683Y00019633D01*
X00012688Y00019638D01*
X00012690Y00019644D01*
X00012697Y00019661D01*
X00012697Y00019668D01*
X00012697Y00019675D01*
X00012693Y00019682D01*
X00012688Y00019687D01*
X00012682Y00019690D01*
X00012674Y00019692D01*
X00012667Y00019690D01*
X00012661Y00019687D01*
X00012655Y00019682D01*
X00012652Y00019675D01*
X00012646Y00019659D01*
X00012645Y00019652D01*
X00012646Y00019644D01*
X00012649Y00019638D01*
X00012655Y00019633D01*
X00012662Y00019629D01*
X00012669Y00019628D01*
G37*
G36*
X00012674Y00019644D02*
G01*
X00012682Y00019644D01*
X00012688Y00019649D01*
X00012693Y00019654D01*
X00012697Y00019661D01*
X00012697Y00019668D01*
X00012699Y00019685D01*
X00012699Y00019692D01*
X00012695Y00019698D01*
X00012689Y00019704D01*
X00012684Y00019706D01*
X00012676Y00019709D01*
X00012669Y00019706D01*
X00012662Y00019704D01*
X00012657Y00019698D01*
X00012654Y00019692D01*
X00012653Y00019685D01*
X00012650Y00019668D01*
X00012652Y00019661D01*
X00012655Y00019654D01*
X00012661Y00019649D01*
X00012667Y00019644D01*
X00012674Y00019644D01*
G37*
G36*
X00012598Y00019740D02*
G01*
X00012605Y00019741D01*
X00012611Y00019745D01*
X00012617Y00019750D01*
X00012620Y00019756D01*
X00012621Y00019764D01*
X00012621Y00026692D01*
X00012620Y00026700D01*
X00012617Y00026707D01*
X00012611Y00026711D01*
X00012605Y00026715D01*
X00012598Y00026716D01*
X00012591Y00026715D01*
X00012585Y00026711D01*
X00012579Y00026707D01*
X00012576Y00026700D01*
X00012575Y00026692D01*
X00012575Y00019764D01*
X00012576Y00019756D01*
X00012579Y00019750D01*
X00012585Y00019745D01*
X00012591Y00019741D01*
X00012598Y00019740D01*
G37*
G36*
X00029054Y00026826D02*
G01*
X00029061Y00026827D01*
X00029068Y00026830D01*
X00029073Y00026835D01*
X00029077Y00026842D01*
X00029078Y00026849D01*
X00029078Y00029132D01*
X00029030Y00029132D01*
X00029030Y00026849D01*
X00029031Y00026842D01*
X00029035Y00026835D01*
X00029039Y00026830D01*
X00029047Y00026827D01*
X00029054Y00026826D01*
G37*
G36*
X00028975Y00026747D02*
G01*
X00028983Y00026749D01*
X00028988Y00026751D01*
X00028995Y00026758D01*
X00028998Y00026764D01*
X00028999Y00026770D01*
X00028998Y00026778D01*
X00028995Y00026784D01*
X00028988Y00026790D01*
X00028983Y00026793D01*
X00028975Y00026794D01*
X00012676Y00026794D01*
X00012669Y00026793D01*
X00012662Y00026790D01*
X00012657Y00026784D01*
X00012654Y00026778D01*
X00012653Y00026770D01*
X00012654Y00026764D01*
X00012657Y00026758D01*
X00012662Y00026751D01*
X00012669Y00026749D01*
X00012676Y00026747D01*
X00028975Y00026747D01*
G37*
G36*
X00029132Y00026747D02*
G01*
X00029140Y00026749D01*
X00029147Y00026751D01*
X00029151Y00026758D01*
X00029155Y00026764D01*
X00029157Y00026770D01*
X00029155Y00026778D01*
X00029151Y00026784D01*
X00029147Y00026790D01*
X00029140Y00026793D01*
X00029132Y00026794D01*
X00029126Y00026793D01*
X00029119Y00026790D01*
X00029114Y00026784D01*
X00029110Y00026778D01*
X00029109Y00026770D01*
X00029110Y00026764D01*
X00029114Y00026758D01*
X00029119Y00026751D01*
X00029126Y00026749D01*
X00029132Y00026747D01*
G37*
G36*
X00029132Y00026747D02*
G01*
X00029140Y00026749D01*
X00029147Y00026751D01*
X00029151Y00026758D01*
X00029155Y00026764D01*
X00029157Y00026770D01*
X00029155Y00026787D01*
X00029154Y00026795D01*
X00029150Y00026801D01*
X00029145Y00026807D01*
X00029138Y00026810D01*
X00029131Y00026810D01*
X00029124Y00026810D01*
X00029116Y00026807D01*
X00029112Y00026801D01*
X00029109Y00026795D01*
X00029107Y00026787D01*
X00029109Y00026770D01*
X00029110Y00026764D01*
X00029114Y00026758D01*
X00029119Y00026751D01*
X00029126Y00026749D01*
X00029132Y00026747D01*
G37*
G36*
X00029131Y00026765D02*
G01*
X00029138Y00026766D01*
X00029145Y00026769D01*
X00029150Y00026774D01*
X00029154Y00026780D01*
X00029155Y00026787D01*
X00029154Y00026795D01*
X00029148Y00026810D01*
X00029145Y00026816D01*
X00029140Y00026823D01*
X00029132Y00026826D01*
X00029126Y00026827D01*
X00029118Y00026826D01*
X00029112Y00026823D01*
X00029107Y00026816D01*
X00029103Y00026810D01*
X00029102Y00026804D01*
X00029103Y00026796D01*
X00029109Y00026780D01*
X00029112Y00026774D01*
X00029116Y00026769D01*
X00029124Y00026766D01*
X00029131Y00026765D01*
G37*
G36*
X00029126Y00026780D02*
G01*
X00029132Y00026781D01*
X00029140Y00026784D01*
X00029145Y00026790D01*
X00029148Y00026796D01*
X00029149Y00026804D01*
X00029148Y00026810D01*
X00029145Y00026816D01*
X00029136Y00026831D01*
X00029131Y00026837D01*
X00029124Y00026841D01*
X00029116Y00026842D01*
X00029110Y00026841D01*
X00029103Y00026837D01*
X00029098Y00026831D01*
X00029094Y00026825D01*
X00029093Y00026818D01*
X00029094Y00026810D01*
X00029098Y00026804D01*
X00029107Y00026790D01*
X00029112Y00026784D01*
X00029118Y00026781D01*
X00029126Y00026780D01*
G37*
G36*
X00029116Y00026795D02*
G01*
X00029124Y00026796D01*
X00029131Y00026799D01*
X00029136Y00026804D01*
X00029139Y00026810D01*
X00029140Y00026818D01*
X00029139Y00026825D01*
X00029136Y00026831D01*
X00029124Y00026843D01*
X00029119Y00026850D01*
X00029112Y00026852D01*
X00029105Y00026854D01*
X00029098Y00026852D01*
X00029091Y00026850D01*
X00029086Y00026843D01*
X00029083Y00026838D01*
X00029082Y00026831D01*
X00029083Y00026823D01*
X00029086Y00026816D01*
X00029098Y00026804D01*
X00029103Y00026799D01*
X00029110Y00026796D01*
X00029116Y00026795D01*
G37*
G36*
X00029105Y00026807D02*
G01*
X00029112Y00026808D01*
X00029119Y00026810D01*
X00029124Y00026816D01*
X00029128Y00026823D01*
X00029128Y00026831D01*
X00029128Y00026838D01*
X00029124Y00026843D01*
X00029119Y00026850D01*
X00029105Y00026859D01*
X00029098Y00026863D01*
X00029091Y00026863D01*
X00029084Y00026863D01*
X00029077Y00026859D01*
X00029072Y00026854D01*
X00029068Y00026847D01*
X00029067Y00026839D01*
X00029068Y00026833D01*
X00029072Y00026826D01*
X00029077Y00026820D01*
X00029091Y00026810D01*
X00029098Y00026808D01*
X00029105Y00026807D01*
G37*
G36*
X00029091Y00026816D02*
G01*
X00029098Y00026818D01*
X00029105Y00026820D01*
X00029110Y00026826D01*
X00029114Y00026833D01*
X00029115Y00026839D01*
X00029114Y00026847D01*
X00029110Y00026854D01*
X00029105Y00026859D01*
X00029098Y00026863D01*
X00029083Y00026869D01*
X00029075Y00026870D01*
X00029068Y00026869D01*
X00029061Y00026865D01*
X00029056Y00026859D01*
X00029053Y00026854D01*
X00029051Y00026846D01*
X00029053Y00026839D01*
X00029056Y00026831D01*
X00029061Y00026827D01*
X00029068Y00026824D01*
X00029084Y00026818D01*
X00029091Y00026816D01*
G37*
G36*
X00029075Y00026823D02*
G01*
X00029083Y00026824D01*
X00029089Y00026827D01*
X00029094Y00026831D01*
X00029098Y00026839D01*
X00029099Y00026846D01*
X00029098Y00026854D01*
X00029094Y00026859D01*
X00029089Y00026865D01*
X00029083Y00026869D01*
X00029066Y00026871D01*
X00029058Y00026873D01*
X00029051Y00026871D01*
X00029045Y00026867D01*
X00029039Y00026863D01*
X00029035Y00026855D01*
X00029035Y00026849D01*
X00029035Y00026842D01*
X00029039Y00026835D01*
X00029045Y00026830D01*
X00029051Y00026827D01*
X00029068Y00026824D01*
X00029075Y00026823D01*
G37*
G36*
X00029041Y00026825D02*
G01*
X00029058Y00026825D01*
X00029066Y00026827D01*
X00029072Y00026830D01*
X00029078Y00026835D01*
X00029081Y00026842D01*
X00029082Y00026849D01*
X00029081Y00026855D01*
X00029078Y00026863D01*
X00029072Y00026867D01*
X00029066Y00026871D01*
X00029058Y00026873D01*
X00029041Y00026871D01*
X00029034Y00026871D01*
X00029027Y00026867D01*
X00029022Y00026862D01*
X00029019Y00026855D01*
X00029018Y00026847D01*
X00029019Y00026841D01*
X00029022Y00026833D01*
X00029027Y00026829D01*
X00029034Y00026826D01*
X00029041Y00026825D01*
G37*
G36*
X00029025Y00026820D02*
G01*
X00029031Y00026820D01*
X00029049Y00026826D01*
X00029055Y00026829D01*
X00029061Y00026833D01*
X00029064Y00026841D01*
X00029065Y00026847D01*
X00029064Y00026855D01*
X00029061Y00026862D01*
X00029055Y00026867D01*
X00029049Y00026871D01*
X00029041Y00026871D01*
X00029034Y00026871D01*
X00029018Y00026866D01*
X00029011Y00026863D01*
X00029006Y00026858D01*
X00029003Y00026851D01*
X00029000Y00026843D01*
X00029003Y00026836D01*
X00029006Y00026830D01*
X00029011Y00026825D01*
X00029018Y00026820D01*
X00029025Y00026820D01*
G37*
G36*
X00029009Y00026812D02*
G01*
X00029017Y00026812D01*
X00029024Y00026816D01*
X00029039Y00026825D01*
X00029043Y00026830D01*
X00029047Y00026836D01*
X00029049Y00026843D01*
X00029047Y00026851D01*
X00029043Y00026858D01*
X00029039Y00026863D01*
X00029031Y00026866D01*
X00029025Y00026867D01*
X00029018Y00026866D01*
X00029011Y00026863D01*
X00028996Y00026855D01*
X00028990Y00026850D01*
X00028988Y00026843D01*
X00028986Y00026836D01*
X00028988Y00026828D01*
X00028990Y00026822D01*
X00028996Y00026816D01*
X00029003Y00026812D01*
X00029009Y00026812D01*
G37*
G36*
X00028996Y00026801D02*
G01*
X00029004Y00026802D01*
X00029011Y00026806D01*
X00029024Y00026816D01*
X00029028Y00026822D01*
X00029031Y00026828D01*
X00029034Y00026836D01*
X00029031Y00026843D01*
X00029028Y00026850D01*
X00029024Y00026855D01*
X00029017Y00026858D01*
X00029009Y00026859D01*
X00029003Y00026858D01*
X00028996Y00026855D01*
X00028983Y00026843D01*
X00028978Y00026839D01*
X00028975Y00026831D01*
X00028973Y00026825D01*
X00028975Y00026816D01*
X00028978Y00026810D01*
X00028983Y00026806D01*
X00028990Y00026802D01*
X00028996Y00026801D01*
G37*
G36*
X00028987Y00026787D02*
G01*
X00028994Y00026789D01*
X00029000Y00026791D01*
X00029006Y00026797D01*
X00029016Y00026810D01*
X00029019Y00026816D01*
X00029021Y00026825D01*
X00029019Y00026831D01*
X00029016Y00026839D01*
X00029011Y00026843D01*
X00029004Y00026847D01*
X00028996Y00026847D01*
X00028990Y00026847D01*
X00028983Y00026843D01*
X00028978Y00026839D01*
X00028968Y00026825D01*
X00028964Y00026818D01*
X00028963Y00026810D01*
X00028964Y00026804D01*
X00028968Y00026797D01*
X00028973Y00026791D01*
X00028979Y00026789D01*
X00028987Y00026787D01*
G37*
G36*
X00028980Y00026772D02*
G01*
X00028987Y00026772D01*
X00028992Y00026777D01*
X00028999Y00026782D01*
X00029002Y00026788D01*
X00029008Y00026804D01*
X00029009Y00026810D01*
X00029008Y00026818D01*
X00029006Y00026825D01*
X00029000Y00026830D01*
X00028994Y00026833D01*
X00028987Y00026835D01*
X00028979Y00026833D01*
X00028973Y00026830D01*
X00028968Y00026825D01*
X00028964Y00026818D01*
X00028957Y00026803D01*
X00028956Y00026796D01*
X00028957Y00026788D01*
X00028960Y00026782D01*
X00028966Y00026777D01*
X00028972Y00026772D01*
X00028980Y00026772D01*
G37*
G36*
X00028976Y00026756D02*
G01*
X00028983Y00026758D01*
X00028990Y00026761D01*
X00028995Y00026766D01*
X00028998Y00026772D01*
X00029002Y00026788D01*
X00029003Y00026796D01*
X00029002Y00026803D01*
X00028999Y00026810D01*
X00028992Y00026815D01*
X00028987Y00026818D01*
X00028980Y00026819D01*
X00028972Y00026818D01*
X00028966Y00026815D01*
X00028960Y00026810D01*
X00028957Y00026803D01*
X00028953Y00026786D01*
X00028952Y00026779D01*
X00028953Y00026772D01*
X00028957Y00026766D01*
X00028962Y00026761D01*
X00028969Y00026758D01*
X00028976Y00026756D01*
G37*
G36*
X00028976Y00026739D02*
G01*
X00028983Y00026741D01*
X00028990Y00026743D01*
X00028995Y00026749D01*
X00028998Y00026756D01*
X00029000Y00026763D01*
X00029000Y00026779D01*
X00028998Y00026786D01*
X00028995Y00026793D01*
X00028990Y00026798D01*
X00028983Y00026801D01*
X00028976Y00026803D01*
X00028969Y00026801D01*
X00028962Y00026798D01*
X00028957Y00026793D01*
X00028953Y00026786D01*
X00028952Y00026779D01*
X00028952Y00026763D01*
X00028953Y00026756D01*
X00028957Y00026749D01*
X00028962Y00026743D01*
X00028969Y00026741D01*
X00028976Y00026739D01*
G37*
G36*
X00028980Y00026723D02*
G01*
X00028987Y00026723D01*
X00028992Y00026727D01*
X00028999Y00026731D01*
X00029002Y00026739D01*
X00029003Y00026746D01*
X00029002Y00026753D01*
X00028998Y00026770D01*
X00028995Y00026776D01*
X00028990Y00026781D01*
X00028983Y00026784D01*
X00028976Y00026786D01*
X00028969Y00026784D01*
X00028962Y00026781D01*
X00028957Y00026776D01*
X00028953Y00026770D01*
X00028952Y00026763D01*
X00028953Y00026756D01*
X00028957Y00026739D01*
X00028960Y00026731D01*
X00028966Y00026727D01*
X00028972Y00026723D01*
X00028980Y00026723D01*
G37*
G36*
X00028987Y00026707D02*
G01*
X00028994Y00026708D01*
X00029000Y00026711D01*
X00029006Y00026717D01*
X00029008Y00026723D01*
X00029009Y00026730D01*
X00029008Y00026738D01*
X00029002Y00026753D01*
X00028999Y00026760D01*
X00028992Y00026765D01*
X00028987Y00026769D01*
X00028980Y00026770D01*
X00028972Y00026769D01*
X00028966Y00026765D01*
X00028960Y00026760D01*
X00028957Y00026753D01*
X00028956Y00026746D01*
X00028957Y00026739D01*
X00028964Y00026723D01*
X00028968Y00026717D01*
X00028973Y00026711D01*
X00028979Y00026708D01*
X00028987Y00026707D01*
G37*
G36*
X00028996Y00026694D02*
G01*
X00029004Y00026695D01*
X00029011Y00026698D01*
X00029016Y00026703D01*
X00029019Y00026710D01*
X00029021Y00026717D01*
X00029019Y00026725D01*
X00029016Y00026730D01*
X00029006Y00026745D01*
X00029000Y00026750D01*
X00028994Y00026753D01*
X00028987Y00026755D01*
X00028979Y00026753D01*
X00028973Y00026750D01*
X00028968Y00026745D01*
X00028964Y00026738D01*
X00028963Y00026730D01*
X00028964Y00026723D01*
X00028968Y00026717D01*
X00028978Y00026703D01*
X00028983Y00026698D01*
X00028990Y00026695D01*
X00028996Y00026694D01*
G37*
G36*
X00029009Y00026683D02*
G01*
X00029017Y00026684D01*
X00029024Y00026687D01*
X00029028Y00026692D01*
X00029031Y00026699D01*
X00029034Y00026706D01*
X00029031Y00026714D01*
X00029028Y00026719D01*
X00029024Y00026725D01*
X00029011Y00026735D01*
X00029004Y00026739D01*
X00028996Y00026741D01*
X00028990Y00026739D01*
X00028983Y00026735D01*
X00028978Y00026730D01*
X00028975Y00026725D01*
X00028973Y00026717D01*
X00028975Y00026710D01*
X00028978Y00026703D01*
X00028983Y00026698D01*
X00028996Y00026687D01*
X00029003Y00026684D01*
X00029009Y00026683D01*
G37*
G36*
X00029025Y00026675D02*
G01*
X00029031Y00026676D01*
X00029039Y00026679D01*
X00029043Y00026684D01*
X00029047Y00026690D01*
X00029049Y00026698D01*
X00029047Y00026706D01*
X00029043Y00026711D01*
X00029039Y00026717D01*
X00029024Y00026725D01*
X00029017Y00026729D01*
X00029009Y00026730D01*
X00029003Y00026729D01*
X00028996Y00026725D01*
X00028990Y00026719D01*
X00028988Y00026714D01*
X00028986Y00026706D01*
X00028988Y00026699D01*
X00028990Y00026692D01*
X00028996Y00026687D01*
X00029011Y00026679D01*
X00029018Y00026676D01*
X00029025Y00026675D01*
G37*
G36*
X00029041Y00026670D02*
G01*
X00029049Y00026671D01*
X00029055Y00026675D01*
X00029061Y00026680D01*
X00029064Y00026686D01*
X00029065Y00026694D01*
X00029064Y00026700D01*
X00029061Y00026708D01*
X00029055Y00026713D01*
X00029049Y00026716D01*
X00029031Y00026721D01*
X00029025Y00026722D01*
X00029018Y00026721D01*
X00029011Y00026717D01*
X00029006Y00026711D01*
X00029003Y00026706D01*
X00029000Y00026698D01*
X00029003Y00026690D01*
X00029006Y00026684D01*
X00029011Y00026679D01*
X00029018Y00026676D01*
X00029034Y00026671D01*
X00029041Y00026670D01*
G37*
G36*
X00029058Y00026669D02*
G01*
X00029066Y00026670D01*
X00029072Y00026674D01*
X00029078Y00026679D01*
X00029081Y00026686D01*
X00029082Y00026692D01*
X00029081Y00026700D01*
X00029078Y00026707D01*
X00029072Y00026711D01*
X00029066Y00026715D01*
X00029058Y00026717D01*
X00029041Y00026717D01*
X00029034Y00026716D01*
X00029027Y00026713D01*
X00029022Y00026708D01*
X00029019Y00026700D01*
X00029018Y00026694D01*
X00029019Y00026686D01*
X00029022Y00026680D01*
X00029027Y00026675D01*
X00029034Y00026671D01*
X00029041Y00026670D01*
X00029058Y00026669D01*
G37*
G36*
X00029058Y00026669D02*
G01*
X00029066Y00026670D01*
X00029083Y00026673D01*
X00029089Y00026677D01*
X00029094Y00026682D01*
X00029098Y00026688D01*
X00029099Y00026696D01*
X00029098Y00026703D01*
X00029094Y00026710D01*
X00029089Y00026715D01*
X00029083Y00026718D01*
X00029075Y00026719D01*
X00029068Y00026718D01*
X00029051Y00026715D01*
X00029045Y00026711D01*
X00029039Y00026707D01*
X00029035Y00026700D01*
X00029035Y00026692D01*
X00029035Y00026686D01*
X00029039Y00026679D01*
X00029045Y00026674D01*
X00029051Y00026670D01*
X00029058Y00026669D01*
G37*
G36*
X00029075Y00026671D02*
G01*
X00029083Y00026673D01*
X00029098Y00026679D01*
X00029105Y00026683D01*
X00029110Y00026688D01*
X00029114Y00026695D01*
X00029115Y00026702D01*
X00029114Y00026709D01*
X00029110Y00026716D01*
X00029105Y00026721D01*
X00029098Y00026723D01*
X00029091Y00026726D01*
X00029084Y00026723D01*
X00029068Y00026718D01*
X00029061Y00026715D01*
X00029056Y00026710D01*
X00029053Y00026703D01*
X00029051Y00026696D01*
X00029053Y00026688D01*
X00029056Y00026682D01*
X00029061Y00026677D01*
X00029068Y00026673D01*
X00029075Y00026671D01*
G37*
G36*
X00029091Y00026678D02*
G01*
X00029098Y00026679D01*
X00029105Y00026683D01*
X00029119Y00026692D01*
X00029124Y00026698D01*
X00029128Y00026704D01*
X00029128Y00026711D01*
X00029128Y00026719D01*
X00029124Y00026725D01*
X00029119Y00026730D01*
X00029112Y00026734D01*
X00029105Y00026735D01*
X00029098Y00026734D01*
X00029091Y00026730D01*
X00029077Y00026721D01*
X00029072Y00026716D01*
X00029068Y00026709D01*
X00029067Y00026702D01*
X00029068Y00026695D01*
X00029072Y00026688D01*
X00029077Y00026683D01*
X00029084Y00026679D01*
X00029091Y00026678D01*
G37*
G36*
X00029105Y00026688D02*
G01*
X00029112Y00026689D01*
X00029119Y00026692D01*
X00029124Y00026698D01*
X00029136Y00026710D01*
X00029139Y00026717D01*
X00029140Y00026723D01*
X00029139Y00026730D01*
X00029136Y00026738D01*
X00029131Y00026743D01*
X00029124Y00026746D01*
X00029116Y00026747D01*
X00029110Y00026746D01*
X00029103Y00026743D01*
X00029098Y00026738D01*
X00029086Y00026725D01*
X00029083Y00026719D01*
X00029082Y00026711D01*
X00029083Y00026704D01*
X00029086Y00026698D01*
X00029091Y00026692D01*
X00029098Y00026689D01*
X00029105Y00026688D01*
G37*
G36*
X00029116Y00026700D02*
G01*
X00029124Y00026700D01*
X00029131Y00026705D01*
X00029136Y00026710D01*
X00029145Y00026725D01*
X00029148Y00026730D01*
X00029149Y00026738D01*
X00029148Y00026746D01*
X00029145Y00026751D01*
X00029140Y00026758D01*
X00029132Y00026761D01*
X00029126Y00026762D01*
X00029118Y00026761D01*
X00029112Y00026758D01*
X00029107Y00026751D01*
X00029098Y00026738D01*
X00029094Y00026730D01*
X00029093Y00026723D01*
X00029094Y00026717D01*
X00029098Y00026710D01*
X00029103Y00026705D01*
X00029110Y00026700D01*
X00029116Y00026700D01*
G37*
G36*
X00029126Y00026715D02*
G01*
X00029132Y00026716D01*
X00029140Y00026719D01*
X00029145Y00026725D01*
X00029148Y00026730D01*
X00029154Y00026747D01*
X00029155Y00026755D01*
X00029154Y00026762D01*
X00029150Y00026768D01*
X00029145Y00026772D01*
X00029138Y00026776D01*
X00029131Y00026777D01*
X00029124Y00026776D01*
X00029116Y00026772D01*
X00029112Y00026768D01*
X00029109Y00026762D01*
X00029103Y00026746D01*
X00029102Y00026738D01*
X00029103Y00026730D01*
X00029107Y00026725D01*
X00029112Y00026719D01*
X00029118Y00026716D01*
X00029126Y00026715D01*
G37*
G36*
X00029131Y00026730D02*
G01*
X00029138Y00026731D01*
X00029145Y00026735D01*
X00029150Y00026741D01*
X00029154Y00026747D01*
X00029155Y00026755D01*
X00029157Y00026770D01*
X00029155Y00026778D01*
X00029151Y00026784D01*
X00029147Y00026790D01*
X00029140Y00026793D01*
X00029132Y00026794D01*
X00029126Y00026793D01*
X00029119Y00026790D01*
X00029114Y00026784D01*
X00029110Y00026778D01*
X00029109Y00026770D01*
X00029107Y00026755D01*
X00029109Y00026747D01*
X00029112Y00026741D01*
X00029116Y00026735D01*
X00029124Y00026731D01*
X00029131Y00026730D01*
G37*
G36*
X00012676Y00026747D02*
G01*
X00012684Y00026749D01*
X00012689Y00026751D01*
X00012695Y00026758D01*
X00012699Y00026764D01*
X00012699Y00026770D01*
X00012699Y00026778D01*
X00012695Y00026784D01*
X00012689Y00026790D01*
X00012684Y00026793D01*
X00012676Y00026794D01*
X00012669Y00026793D01*
X00012662Y00026790D01*
X00012657Y00026784D01*
X00012654Y00026778D01*
X00012653Y00026770D01*
X00012654Y00026764D01*
X00012657Y00026758D01*
X00012662Y00026751D01*
X00012669Y00026749D01*
X00012676Y00026747D01*
G37*
G36*
X00012676Y00026747D02*
G01*
X00012684Y00026749D01*
X00012689Y00026751D01*
X00012695Y00026758D01*
X00012699Y00026764D01*
X00012699Y00026770D01*
X00012697Y00026787D01*
X00012697Y00026795D01*
X00012693Y00026801D01*
X00012688Y00026807D01*
X00012682Y00026810D01*
X00012674Y00026810D01*
X00012667Y00026810D01*
X00012661Y00026807D01*
X00012655Y00026801D01*
X00012652Y00026795D01*
X00012650Y00026787D01*
X00012653Y00026770D01*
X00012654Y00026764D01*
X00012657Y00026758D01*
X00012662Y00026751D01*
X00012669Y00026749D01*
X00012676Y00026747D01*
G37*
G36*
X00012674Y00026765D02*
G01*
X00012682Y00026766D01*
X00012688Y00026769D01*
X00012693Y00026774D01*
X00012697Y00026780D01*
X00012697Y00026787D01*
X00012697Y00026795D01*
X00012690Y00026810D01*
X00012688Y00026816D01*
X00012683Y00026823D01*
X00012676Y00026826D01*
X00012669Y00026827D01*
X00012662Y00026826D01*
X00012655Y00026823D01*
X00012649Y00026816D01*
X00012646Y00026810D01*
X00012645Y00026804D01*
X00012646Y00026796D01*
X00012652Y00026780D01*
X00012655Y00026774D01*
X00012661Y00026769D01*
X00012667Y00026766D01*
X00012674Y00026765D01*
G37*
G36*
X00012669Y00026780D02*
G01*
X00012676Y00026781D01*
X00012683Y00026784D01*
X00012688Y00026790D01*
X00012690Y00026796D01*
X00012693Y00026804D01*
X00012690Y00026810D01*
X00012688Y00026816D01*
X00012679Y00026831D01*
X00012674Y00026837D01*
X00012667Y00026841D01*
X00012660Y00026842D01*
X00012653Y00026841D01*
X00012646Y00026837D01*
X00012641Y00026831D01*
X00012637Y00026825D01*
X00012637Y00026818D01*
X00012637Y00026810D01*
X00012641Y00026804D01*
X00012649Y00026790D01*
X00012655Y00026784D01*
X00012662Y00026781D01*
X00012669Y00026780D01*
G37*
G36*
X00012660Y00026795D02*
G01*
X00012667Y00026796D01*
X00012674Y00026799D01*
X00012679Y00026804D01*
X00012683Y00026810D01*
X00012684Y00026818D01*
X00012683Y00026825D01*
X00012679Y00026831D01*
X00012668Y00026843D01*
X00012662Y00026850D01*
X00012656Y00026852D01*
X00012648Y00026854D01*
X00012641Y00026852D01*
X00012635Y00026850D01*
X00012629Y00026843D01*
X00012626Y00026838D01*
X00012625Y00026831D01*
X00012626Y00026823D01*
X00012629Y00026816D01*
X00012641Y00026804D01*
X00012646Y00026799D01*
X00012653Y00026796D01*
X00012660Y00026795D01*
G37*
G36*
X00012648Y00026807D02*
G01*
X00012656Y00026808D01*
X00012662Y00026810D01*
X00012668Y00026816D01*
X00012671Y00026823D01*
X00012672Y00026831D01*
X00012671Y00026838D01*
X00012668Y00026843D01*
X00012662Y00026850D01*
X00012648Y00026859D01*
X00012641Y00026863D01*
X00012633Y00026863D01*
X00012627Y00026863D01*
X00012620Y00026859D01*
X00012615Y00026854D01*
X00012612Y00026847D01*
X00012611Y00026839D01*
X00012612Y00026833D01*
X00012615Y00026826D01*
X00012620Y00026820D01*
X00012635Y00026810D01*
X00012641Y00026808D01*
X00012648Y00026807D01*
G37*
G36*
X00012633Y00026816D02*
G01*
X00012641Y00026818D01*
X00012648Y00026820D01*
X00012653Y00026826D01*
X00012657Y00026833D01*
X00012658Y00026839D01*
X00012657Y00026847D01*
X00012653Y00026854D01*
X00012648Y00026859D01*
X00012641Y00026863D01*
X00012626Y00026869D01*
X00012619Y00026870D01*
X00012611Y00026869D01*
X00012605Y00026865D01*
X00012599Y00026859D01*
X00012597Y00026854D01*
X00012596Y00026846D01*
X00012597Y00026839D01*
X00012599Y00026831D01*
X00012605Y00026827D01*
X00012611Y00026824D01*
X00012627Y00026818D01*
X00012633Y00026816D01*
G37*
G36*
X00012619Y00026823D02*
G01*
X00012626Y00026824D01*
X00012631Y00026827D01*
X00012637Y00026831D01*
X00012641Y00026839D01*
X00012641Y00026846D01*
X00012641Y00026854D01*
X00012637Y00026859D01*
X00012631Y00026865D01*
X00012626Y00026869D01*
X00012609Y00026871D01*
X00012602Y00026873D01*
X00012595Y00026871D01*
X00012588Y00026867D01*
X00012584Y00026863D01*
X00012580Y00026855D01*
X00012579Y00026849D01*
X00012580Y00026842D01*
X00012584Y00026835D01*
X00012588Y00026830D01*
X00012595Y00026827D01*
X00012611Y00026824D01*
X00012619Y00026823D01*
G37*
G36*
X00012586Y00026825D02*
G01*
X00012602Y00026825D01*
X00012609Y00026827D01*
X00012616Y00026830D01*
X00012621Y00026835D01*
X00012624Y00026842D01*
X00012625Y00026849D01*
X00012624Y00026855D01*
X00012621Y00026863D01*
X00012616Y00026867D01*
X00012609Y00026871D01*
X00012602Y00026873D01*
X00012586Y00026871D01*
X00012578Y00026871D01*
X00012572Y00026867D01*
X00012567Y00026862D01*
X00012563Y00026855D01*
X00012562Y00026847D01*
X00012563Y00026841D01*
X00012567Y00026833D01*
X00012572Y00026829D01*
X00012578Y00026826D01*
X00012586Y00026825D01*
G37*
G36*
X00012568Y00026820D02*
G01*
X00012577Y00026820D01*
X00012593Y00026826D01*
X00012599Y00026829D01*
X00012604Y00026833D01*
X00012607Y00026841D01*
X00012608Y00026847D01*
X00012607Y00026855D01*
X00012604Y00026862D01*
X00012599Y00026867D01*
X00012593Y00026871D01*
X00012586Y00026871D01*
X00012578Y00026871D01*
X00012562Y00026866D01*
X00012555Y00026863D01*
X00012549Y00026858D01*
X00012547Y00026851D01*
X00012546Y00026843D01*
X00012547Y00026836D01*
X00012549Y00026830D01*
X00012555Y00026825D01*
X00012562Y00026820D01*
X00012568Y00026820D01*
G37*
G36*
X00012554Y00026812D02*
G01*
X00012562Y00026812D01*
X00012568Y00026816D01*
X00012583Y00026825D01*
X00012588Y00026830D01*
X00012592Y00026836D01*
X00012593Y00026843D01*
X00012592Y00026851D01*
X00012588Y00026858D01*
X00012583Y00026863D01*
X00012577Y00026866D01*
X00012568Y00026867D01*
X00012562Y00026866D01*
X00012555Y00026863D01*
X00012540Y00026855D01*
X00012535Y00026850D01*
X00012532Y00026843D01*
X00012531Y00026836D01*
X00012532Y00026828D01*
X00012535Y00026822D01*
X00012540Y00026816D01*
X00012547Y00026812D01*
X00012554Y00026812D01*
G37*
G36*
X00012541Y00026801D02*
G01*
X00012548Y00026802D01*
X00012555Y00026806D01*
X00012568Y00026816D01*
X00012573Y00026822D01*
X00012577Y00026828D01*
X00012578Y00026836D01*
X00012577Y00026843D01*
X00012573Y00026850D01*
X00012568Y00026855D01*
X00012562Y00026858D01*
X00012554Y00026859D01*
X00012547Y00026858D01*
X00012540Y00026855D01*
X00012527Y00026843D01*
X00012522Y00026839D01*
X00012519Y00026831D01*
X00012518Y00026825D01*
X00012519Y00026816D01*
X00012522Y00026810D01*
X00012527Y00026806D01*
X00012534Y00026802D01*
X00012541Y00026801D01*
G37*
G36*
X00012531Y00026787D02*
G01*
X00012538Y00026789D01*
X00012545Y00026791D01*
X00012549Y00026797D01*
X00012560Y00026810D01*
X00012564Y00026816D01*
X00012565Y00026825D01*
X00012564Y00026831D01*
X00012560Y00026839D01*
X00012555Y00026843D01*
X00012548Y00026847D01*
X00012541Y00026847D01*
X00012534Y00026847D01*
X00012527Y00026843D01*
X00012522Y00026839D01*
X00012512Y00026825D01*
X00012508Y00026818D01*
X00012507Y00026810D01*
X00012508Y00026804D01*
X00012512Y00026797D01*
X00012517Y00026791D01*
X00012524Y00026789D01*
X00012531Y00026787D01*
G37*
G36*
X00012524Y00026772D02*
G01*
X00012531Y00026772D01*
X00012538Y00026777D01*
X00012543Y00026782D01*
X00012546Y00026788D01*
X00012554Y00026804D01*
X00012555Y00026810D01*
X00012554Y00026818D01*
X00012549Y00026825D01*
X00012545Y00026830D01*
X00012538Y00026833D01*
X00012531Y00026835D01*
X00012524Y00026833D01*
X00012517Y00026830D01*
X00012512Y00026825D01*
X00012508Y00026818D01*
X00012501Y00026803D01*
X00012500Y00026796D01*
X00012501Y00026788D01*
X00012505Y00026782D01*
X00012509Y00026777D01*
X00012517Y00026772D01*
X00012524Y00026772D01*
G37*
G36*
X00012520Y00026756D02*
G01*
X00012528Y00026758D01*
X00012534Y00026761D01*
X00012539Y00026766D01*
X00012543Y00026772D01*
X00012546Y00026788D01*
X00012548Y00026796D01*
X00012546Y00026803D01*
X00012543Y00026810D01*
X00012538Y00026815D01*
X00012531Y00026818D01*
X00012524Y00026819D01*
X00012517Y00026818D01*
X00012509Y00026815D01*
X00012505Y00026810D01*
X00012501Y00026803D01*
X00012498Y00026786D01*
X00012497Y00026779D01*
X00012498Y00026772D01*
X00012501Y00026766D01*
X00012506Y00026761D01*
X00012513Y00026758D01*
X00012520Y00026756D01*
G37*
G36*
X00012520Y00026739D02*
G01*
X00012528Y00026741D01*
X00012534Y00026743D01*
X00012539Y00026749D01*
X00012543Y00026756D01*
X00012544Y00026763D01*
X00012544Y00026779D01*
X00012543Y00026786D01*
X00012539Y00026793D01*
X00012534Y00026798D01*
X00012528Y00026801D01*
X00012520Y00026803D01*
X00012513Y00026801D01*
X00012506Y00026798D01*
X00012501Y00026793D01*
X00012498Y00026786D01*
X00012497Y00026779D01*
X00012497Y00026763D01*
X00012498Y00026756D01*
X00012501Y00026749D01*
X00012506Y00026743D01*
X00012513Y00026741D01*
X00012520Y00026739D01*
G37*
G36*
X00012524Y00026723D02*
G01*
X00012531Y00026723D01*
X00012538Y00026727D01*
X00012543Y00026731D01*
X00012546Y00026739D01*
X00012548Y00026746D01*
X00012546Y00026753D01*
X00012543Y00026770D01*
X00012539Y00026776D01*
X00012534Y00026781D01*
X00012528Y00026784D01*
X00012520Y00026786D01*
X00012513Y00026784D01*
X00012506Y00026781D01*
X00012501Y00026776D01*
X00012498Y00026770D01*
X00012497Y00026763D01*
X00012498Y00026756D01*
X00012501Y00026739D01*
X00012505Y00026731D01*
X00012509Y00026727D01*
X00012517Y00026723D01*
X00012524Y00026723D01*
G37*
G36*
X00012531Y00026707D02*
G01*
X00012538Y00026708D01*
X00012545Y00026711D01*
X00012549Y00026717D01*
X00012554Y00026723D01*
X00012555Y00026730D01*
X00012554Y00026738D01*
X00012546Y00026753D01*
X00012543Y00026760D01*
X00012538Y00026765D01*
X00012531Y00026769D01*
X00012524Y00026770D01*
X00012517Y00026769D01*
X00012509Y00026765D01*
X00012505Y00026760D01*
X00012501Y00026753D01*
X00012500Y00026746D01*
X00012501Y00026739D01*
X00012508Y00026723D01*
X00012512Y00026717D01*
X00012517Y00026711D01*
X00012524Y00026708D01*
X00012531Y00026707D01*
G37*
G36*
X00012541Y00026694D02*
G01*
X00012548Y00026695D01*
X00012555Y00026698D01*
X00012560Y00026703D01*
X00012564Y00026710D01*
X00012565Y00026717D01*
X00012564Y00026725D01*
X00012560Y00026730D01*
X00012549Y00026745D01*
X00012545Y00026750D01*
X00012538Y00026753D01*
X00012531Y00026755D01*
X00012524Y00026753D01*
X00012517Y00026750D01*
X00012512Y00026745D01*
X00012508Y00026738D01*
X00012507Y00026730D01*
X00012508Y00026723D01*
X00012512Y00026717D01*
X00012522Y00026703D01*
X00012527Y00026698D01*
X00012534Y00026695D01*
X00012541Y00026694D01*
G37*
G36*
X00012554Y00026683D02*
G01*
X00012562Y00026684D01*
X00012568Y00026687D01*
X00012573Y00026692D01*
X00012577Y00026699D01*
X00012578Y00026706D01*
X00012577Y00026714D01*
X00012573Y00026719D01*
X00012568Y00026725D01*
X00012555Y00026735D01*
X00012548Y00026739D01*
X00012541Y00026741D01*
X00012534Y00026739D01*
X00012527Y00026735D01*
X00012522Y00026730D01*
X00012519Y00026725D01*
X00012518Y00026717D01*
X00012519Y00026710D01*
X00012522Y00026703D01*
X00012527Y00026698D01*
X00012540Y00026687D01*
X00012547Y00026684D01*
X00012554Y00026683D01*
G37*
G36*
X00012568Y00026675D02*
G01*
X00012577Y00026676D01*
X00012583Y00026679D01*
X00012588Y00026684D01*
X00012592Y00026690D01*
X00012593Y00026698D01*
X00012592Y00026706D01*
X00012588Y00026711D01*
X00012583Y00026717D01*
X00012568Y00026725D01*
X00012562Y00026729D01*
X00012554Y00026730D01*
X00012547Y00026729D01*
X00012540Y00026725D01*
X00012535Y00026719D01*
X00012532Y00026714D01*
X00012531Y00026706D01*
X00012532Y00026699D01*
X00012535Y00026692D01*
X00012540Y00026687D01*
X00012555Y00026679D01*
X00012562Y00026676D01*
X00012568Y00026675D01*
G37*
G36*
X00012586Y00026670D02*
G01*
X00012593Y00026671D01*
X00012599Y00026675D01*
X00012604Y00026680D01*
X00012607Y00026686D01*
X00012608Y00026694D01*
X00012607Y00026700D01*
X00012604Y00026708D01*
X00012599Y00026713D01*
X00012593Y00026716D01*
X00012577Y00026721D01*
X00012568Y00026722D01*
X00012562Y00026721D01*
X00012555Y00026717D01*
X00012549Y00026711D01*
X00012547Y00026706D01*
X00012546Y00026698D01*
X00012547Y00026690D01*
X00012549Y00026684D01*
X00012555Y00026679D01*
X00012562Y00026676D01*
X00012578Y00026671D01*
X00012586Y00026670D01*
G37*
G36*
X00012602Y00026669D02*
G01*
X00012609Y00026670D01*
X00012616Y00026674D01*
X00012621Y00026679D01*
X00012624Y00026686D01*
X00012625Y00026692D01*
X00012624Y00026700D01*
X00012621Y00026707D01*
X00012616Y00026711D01*
X00012609Y00026715D01*
X00012602Y00026717D01*
X00012586Y00026717D01*
X00012578Y00026716D01*
X00012572Y00026713D01*
X00012567Y00026708D01*
X00012563Y00026700D01*
X00012562Y00026694D01*
X00012563Y00026686D01*
X00012567Y00026680D01*
X00012572Y00026675D01*
X00012578Y00026671D01*
X00012586Y00026670D01*
X00012602Y00026669D01*
G37*
G36*
X00012602Y00026669D02*
G01*
X00012609Y00026670D01*
X00012626Y00026673D01*
X00012631Y00026677D01*
X00012637Y00026682D01*
X00012641Y00026688D01*
X00012641Y00026696D01*
X00012641Y00026703D01*
X00012637Y00026710D01*
X00012631Y00026715D01*
X00012626Y00026718D01*
X00012619Y00026719D01*
X00012611Y00026718D01*
X00012595Y00026715D01*
X00012588Y00026711D01*
X00012584Y00026707D01*
X00012580Y00026700D01*
X00012579Y00026692D01*
X00012580Y00026686D01*
X00012584Y00026679D01*
X00012588Y00026674D01*
X00012595Y00026670D01*
X00012602Y00026669D01*
G37*
G36*
X00012619Y00026671D02*
G01*
X00012626Y00026673D01*
X00012641Y00026679D01*
X00012648Y00026683D01*
X00012653Y00026688D01*
X00012657Y00026695D01*
X00012658Y00026702D01*
X00012657Y00026709D01*
X00012653Y00026716D01*
X00012648Y00026721D01*
X00012641Y00026723D01*
X00012633Y00026726D01*
X00012627Y00026723D01*
X00012611Y00026718D01*
X00012605Y00026715D01*
X00012599Y00026710D01*
X00012597Y00026703D01*
X00012596Y00026696D01*
X00012597Y00026688D01*
X00012599Y00026682D01*
X00012605Y00026677D01*
X00012611Y00026673D01*
X00012619Y00026671D01*
G37*
G36*
X00012633Y00026678D02*
G01*
X00012641Y00026679D01*
X00012648Y00026683D01*
X00012662Y00026692D01*
X00012668Y00026698D01*
X00012671Y00026704D01*
X00012672Y00026711D01*
X00012671Y00026719D01*
X00012668Y00026725D01*
X00012662Y00026730D01*
X00012656Y00026734D01*
X00012648Y00026735D01*
X00012641Y00026734D01*
X00012635Y00026730D01*
X00012620Y00026721D01*
X00012615Y00026716D01*
X00012612Y00026709D01*
X00012611Y00026702D01*
X00012612Y00026695D01*
X00012615Y00026688D01*
X00012620Y00026683D01*
X00012627Y00026679D01*
X00012633Y00026678D01*
G37*
G36*
X00012648Y00026688D02*
G01*
X00012656Y00026689D01*
X00012662Y00026692D01*
X00012668Y00026698D01*
X00012679Y00026710D01*
X00012683Y00026717D01*
X00012684Y00026723D01*
X00012683Y00026730D01*
X00012679Y00026738D01*
X00012674Y00026743D01*
X00012667Y00026746D01*
X00012660Y00026747D01*
X00012653Y00026746D01*
X00012646Y00026743D01*
X00012641Y00026738D01*
X00012629Y00026725D01*
X00012626Y00026719D01*
X00012625Y00026711D01*
X00012626Y00026704D01*
X00012629Y00026698D01*
X00012635Y00026692D01*
X00012641Y00026689D01*
X00012648Y00026688D01*
G37*
G36*
X00012660Y00026700D02*
G01*
X00012667Y00026700D01*
X00012674Y00026705D01*
X00012679Y00026710D01*
X00012688Y00026725D01*
X00012690Y00026730D01*
X00012693Y00026738D01*
X00012690Y00026746D01*
X00012688Y00026751D01*
X00012683Y00026758D01*
X00012676Y00026761D01*
X00012669Y00026762D01*
X00012662Y00026761D01*
X00012655Y00026758D01*
X00012649Y00026751D01*
X00012641Y00026738D01*
X00012637Y00026730D01*
X00012637Y00026723D01*
X00012637Y00026717D01*
X00012641Y00026710D01*
X00012646Y00026705D01*
X00012653Y00026700D01*
X00012660Y00026700D01*
G37*
G36*
X00012669Y00026715D02*
G01*
X00012676Y00026716D01*
X00012683Y00026719D01*
X00012688Y00026725D01*
X00012690Y00026730D01*
X00012697Y00026747D01*
X00012697Y00026755D01*
X00012697Y00026762D01*
X00012693Y00026768D01*
X00012688Y00026772D01*
X00012682Y00026776D01*
X00012674Y00026777D01*
X00012667Y00026776D01*
X00012661Y00026772D01*
X00012655Y00026768D01*
X00012652Y00026762D01*
X00012646Y00026746D01*
X00012645Y00026738D01*
X00012646Y00026730D01*
X00012649Y00026725D01*
X00012655Y00026719D01*
X00012662Y00026716D01*
X00012669Y00026715D01*
G37*
G36*
X00012674Y00026730D02*
G01*
X00012682Y00026731D01*
X00012688Y00026735D01*
X00012693Y00026741D01*
X00012697Y00026747D01*
X00012697Y00026755D01*
X00012699Y00026770D01*
X00012699Y00026778D01*
X00012695Y00026784D01*
X00012689Y00026790D01*
X00012684Y00026793D01*
X00012676Y00026794D01*
X00012669Y00026793D01*
X00012662Y00026790D01*
X00012657Y00026784D01*
X00012654Y00026778D01*
X00012653Y00026770D01*
X00012650Y00026755D01*
X00012652Y00026747D01*
X00012655Y00026741D01*
X00012661Y00026735D01*
X00012667Y00026731D01*
X00012674Y00026730D01*
G37*
G36*
X00012598Y00026826D02*
G01*
X00012605Y00026827D01*
X00012611Y00026830D01*
X00012617Y00026835D01*
X00012620Y00026842D01*
X00012621Y00026849D01*
X00012621Y00029132D01*
X00012575Y00029132D01*
X00012575Y00026849D01*
X00012576Y00026842D01*
X00012579Y00026835D01*
X00012585Y00026830D01*
X00012591Y00026827D01*
X00012598Y00026826D01*
G37*
G36*
X00012520Y00026747D02*
G01*
X00012527Y00026749D01*
X00012534Y00026751D01*
X00012539Y00026758D01*
X00012542Y00026764D01*
X00012543Y00026770D01*
X00012542Y00026778D01*
X00012539Y00026784D01*
X00012534Y00026790D01*
X00012527Y00026793D01*
X00012520Y00026794D01*
X00010236Y00026794D01*
X00010236Y00026747D01*
X00012520Y00026747D01*
G37*
G36*
X00012311Y00020649D02*
G01*
X00012318Y00020651D01*
X00012325Y00020654D01*
X00012330Y00020659D01*
X00012334Y00020666D01*
X00012335Y00020673D01*
X00012334Y00020680D01*
X00012330Y00020687D01*
X00012325Y00020692D01*
X00012318Y00020696D01*
X00012311Y00020697D01*
X00010264Y00020697D01*
X00010257Y00020696D01*
X00010250Y00020692D01*
X00010245Y00020687D01*
X00010241Y00020680D01*
X00010240Y00020673D01*
X00010241Y00020666D01*
X00010245Y00020659D01*
X00010250Y00020654D01*
X00010257Y00020651D01*
X00010264Y00020649D01*
X00012311Y00020649D01*
G37*
G36*
X00010264Y00020649D02*
G01*
X00010270Y00020651D01*
X00010278Y00020654D01*
X00010283Y00020659D01*
X00010286Y00020666D01*
X00010287Y00020673D01*
X00010287Y00024697D01*
X00010286Y00024704D01*
X00010283Y00024711D01*
X00010278Y00024716D01*
X00010270Y00024719D01*
X00010264Y00024720D01*
X00010257Y00024719D01*
X00010250Y00024716D01*
X00010245Y00024711D01*
X00010241Y00024704D01*
X00010240Y00024697D01*
X00010240Y00020673D01*
X00010241Y00020666D01*
X00010245Y00020659D01*
X00010250Y00020654D01*
X00010257Y00020651D01*
X00010264Y00020649D01*
G37*
G36*
X00012311Y00020649D02*
G01*
X00012318Y00020651D01*
X00012325Y00020654D01*
X00012330Y00020659D01*
X00012334Y00020666D01*
X00012335Y00020673D01*
X00012335Y00025720D01*
X00012334Y00025728D01*
X00012330Y00025734D01*
X00012325Y00025739D01*
X00012318Y00025743D01*
X00012311Y00025743D01*
X00012304Y00025743D01*
X00012297Y00025739D01*
X00012292Y00025734D01*
X00012289Y00025728D01*
X00012286Y00025720D01*
X00012286Y00020673D01*
X00012289Y00020666D01*
X00012292Y00020659D01*
X00012297Y00020654D01*
X00012304Y00020651D01*
X00012311Y00020649D01*
G37*
G36*
X00011287Y00024673D02*
G01*
X00011295Y00024674D01*
X00011301Y00024678D01*
X00011307Y00024683D01*
X00011310Y00024689D01*
X00011311Y00024697D01*
X00011310Y00024704D01*
X00011307Y00024711D01*
X00011301Y00024716D01*
X00011295Y00024719D01*
X00011287Y00024720D01*
X00010264Y00024720D01*
X00010257Y00024719D01*
X00010250Y00024716D01*
X00010245Y00024711D01*
X00010241Y00024704D01*
X00010240Y00024697D01*
X00010241Y00024689D01*
X00010245Y00024683D01*
X00010250Y00024678D01*
X00010257Y00024674D01*
X00010264Y00024673D01*
X00011287Y00024673D01*
G37*
G36*
X00011287Y00024673D02*
G01*
X00011295Y00024674D01*
X00011301Y00024678D01*
X00011307Y00024683D01*
X00011310Y00024689D01*
X00011311Y00024697D01*
X00011311Y00025720D01*
X00011310Y00025728D01*
X00011307Y00025734D01*
X00011301Y00025739D01*
X00011295Y00025743D01*
X00011287Y00025743D01*
X00011279Y00025743D01*
X00011274Y00025739D01*
X00011268Y00025734D01*
X00011265Y00025728D01*
X00011264Y00025720D01*
X00011264Y00024697D01*
X00011265Y00024689D01*
X00011268Y00024683D01*
X00011274Y00024678D01*
X00011279Y00024674D01*
X00011287Y00024673D01*
G37*
G36*
X00012311Y00025697D02*
G01*
X00012318Y00025698D01*
X00012325Y00025701D01*
X00012330Y00025706D01*
X00012334Y00025713D01*
X00012335Y00025720D01*
X00012334Y00025728D01*
X00012330Y00025734D01*
X00012325Y00025739D01*
X00012318Y00025743D01*
X00012311Y00025743D01*
X00011287Y00025743D01*
X00011279Y00025743D01*
X00011274Y00025739D01*
X00011268Y00025734D01*
X00011265Y00025728D01*
X00011264Y00025720D01*
X00011265Y00025713D01*
X00011268Y00025706D01*
X00011274Y00025701D01*
X00011279Y00025698D01*
X00011287Y00025697D01*
X00012311Y00025697D01*
G37*
G36*
X00010264Y00025173D02*
G01*
X00010270Y00025174D01*
X00010278Y00025177D01*
X00010283Y00025183D01*
X00010286Y00025189D01*
X00010287Y00025197D01*
X00010287Y00025720D01*
X00010286Y00025728D01*
X00010283Y00025734D01*
X00010278Y00025739D01*
X00010270Y00025743D01*
X00010264Y00025743D01*
X00010257Y00025743D01*
X00010250Y00025739D01*
X00010245Y00025734D01*
X00010241Y00025728D01*
X00010240Y00025720D01*
X00010240Y00025197D01*
X00010241Y00025189D01*
X00010245Y00025183D01*
X00010250Y00025177D01*
X00010257Y00025174D01*
X00010264Y00025173D01*
G37*
G36*
X00010787Y00025697D02*
G01*
X00010794Y00025698D01*
X00010801Y00025701D01*
X00010807Y00025706D01*
X00010810Y00025713D01*
X00010811Y00025720D01*
X00010810Y00025728D01*
X00010807Y00025734D01*
X00010801Y00025739D01*
X00010794Y00025743D01*
X00010787Y00025743D01*
X00010264Y00025743D01*
X00010257Y00025743D01*
X00010250Y00025739D01*
X00010245Y00025734D01*
X00010241Y00025728D01*
X00010240Y00025720D01*
X00010241Y00025713D01*
X00010245Y00025706D01*
X00010250Y00025701D01*
X00010257Y00025698D01*
X00010264Y00025697D01*
X00010787Y00025697D01*
G37*
G36*
X00010787Y00019083D02*
G01*
X00010794Y00019084D01*
X00010801Y00019087D01*
X00010807Y00019092D01*
X00010810Y00019098D01*
X00010811Y00019106D01*
X00010810Y00019113D01*
X00010807Y00019120D01*
X00010801Y00019125D01*
X00010794Y00019129D01*
X00010787Y00019130D01*
X00010264Y00019130D01*
X00010257Y00019129D01*
X00010250Y00019125D01*
X00010245Y00019120D01*
X00010241Y00019113D01*
X00010240Y00019106D01*
X00010241Y00019098D01*
X00010245Y00019092D01*
X00010250Y00019087D01*
X00010257Y00019084D01*
X00010264Y00019083D01*
X00010787Y00019083D01*
G37*
G36*
X00010264Y00018559D02*
G01*
X00010270Y00018560D01*
X00010278Y00018563D01*
X00010283Y00018569D01*
X00010286Y00018575D01*
X00010287Y00018583D01*
X00010287Y00019106D01*
X00010286Y00019113D01*
X00010283Y00019120D01*
X00010278Y00019125D01*
X00010270Y00019129D01*
X00010264Y00019130D01*
X00010257Y00019129D01*
X00010250Y00019125D01*
X00010245Y00019120D01*
X00010241Y00019113D01*
X00010240Y00019106D01*
X00010240Y00018583D01*
X00010241Y00018575D01*
X00010245Y00018569D01*
X00010250Y00018563D01*
X00010257Y00018560D01*
X00010264Y00018559D01*
G37*
G36*
X00012311Y00019083D02*
G01*
X00012318Y00019084D01*
X00012325Y00019087D01*
X00012330Y00019092D01*
X00012334Y00019098D01*
X00012335Y00019106D01*
X00012334Y00019113D01*
X00012330Y00019120D01*
X00012325Y00019125D01*
X00012318Y00019129D01*
X00012311Y00019130D01*
X00011287Y00019130D01*
X00011279Y00019129D01*
X00011274Y00019125D01*
X00011268Y00019120D01*
X00011265Y00019113D01*
X00011264Y00019106D01*
X00011265Y00019098D01*
X00011268Y00019092D01*
X00011274Y00019087D01*
X00011279Y00019084D01*
X00011287Y00019083D01*
X00012311Y00019083D01*
G37*
G36*
X00011287Y00018059D02*
G01*
X00011295Y00018060D01*
X00011301Y00018062D01*
X00011307Y00018068D01*
X00011310Y00018075D01*
X00011311Y00018083D01*
X00011311Y00019106D01*
X00011310Y00019113D01*
X00011307Y00019120D01*
X00011301Y00019125D01*
X00011295Y00019129D01*
X00011287Y00019130D01*
X00011279Y00019129D01*
X00011274Y00019125D01*
X00011268Y00019120D01*
X00011265Y00019113D01*
X00011264Y00019106D01*
X00011264Y00018083D01*
X00011265Y00018075D01*
X00011268Y00018068D01*
X00011274Y00018062D01*
X00011279Y00018060D01*
X00011287Y00018059D01*
G37*
G36*
X00011287Y00018059D02*
G01*
X00011295Y00018060D01*
X00011301Y00018062D01*
X00011307Y00018068D01*
X00011310Y00018075D01*
X00011311Y00018083D01*
X00011310Y00018090D01*
X00011307Y00018096D01*
X00011301Y00018102D01*
X00011295Y00018105D01*
X00011287Y00018106D01*
X00010264Y00018106D01*
X00010257Y00018105D01*
X00010250Y00018102D01*
X00010245Y00018096D01*
X00010241Y00018090D01*
X00010240Y00018083D01*
X00010241Y00018075D01*
X00010245Y00018068D01*
X00010250Y00018062D01*
X00010257Y00018060D01*
X00010264Y00018059D01*
X00011287Y00018059D01*
G37*
G36*
X00012311Y00014035D02*
G01*
X00012318Y00014035D01*
X00012325Y00014039D01*
X00012330Y00014045D01*
X00012334Y00014052D01*
X00012335Y00014059D01*
X00012335Y00019106D01*
X00012334Y00019113D01*
X00012330Y00019120D01*
X00012325Y00019125D01*
X00012318Y00019129D01*
X00012311Y00019130D01*
X00012304Y00019129D01*
X00012297Y00019125D01*
X00012292Y00019120D01*
X00012289Y00019113D01*
X00012286Y00019106D01*
X00012286Y00014059D01*
X00012289Y00014052D01*
X00012292Y00014045D01*
X00012297Y00014039D01*
X00012304Y00014035D01*
X00012311Y00014035D01*
G37*
G36*
X00010264Y00014035D02*
G01*
X00010270Y00014035D01*
X00010278Y00014039D01*
X00010283Y00014045D01*
X00010286Y00014052D01*
X00010287Y00014059D01*
X00010287Y00018083D01*
X00010286Y00018090D01*
X00010283Y00018096D01*
X00010278Y00018102D01*
X00010270Y00018105D01*
X00010264Y00018106D01*
X00010257Y00018105D01*
X00010250Y00018102D01*
X00010245Y00018096D01*
X00010241Y00018090D01*
X00010240Y00018083D01*
X00010240Y00014059D01*
X00010241Y00014052D01*
X00010245Y00014045D01*
X00010250Y00014039D01*
X00010257Y00014035D01*
X00010264Y00014035D01*
G37*
G36*
X00012311Y00014035D02*
G01*
X00012318Y00014035D01*
X00012325Y00014039D01*
X00012330Y00014045D01*
X00012334Y00014052D01*
X00012335Y00014059D01*
X00012334Y00014066D01*
X00012330Y00014073D01*
X00012325Y00014078D01*
X00012318Y00014080D01*
X00012311Y00014083D01*
X00010264Y00014083D01*
X00010257Y00014080D01*
X00010250Y00014078D01*
X00010245Y00014073D01*
X00010241Y00014066D01*
X00010240Y00014059D01*
X00010241Y00014052D01*
X00010245Y00014045D01*
X00010250Y00014039D01*
X00010257Y00014035D01*
X00010264Y00014035D01*
X00012311Y00014035D01*
G37*
M02*